<svg xmlns="http://www.w3.org/2000/svg" viewBox="0 0 119.58 114.35"><g id="Layer_2" data-name="Layer 2"><g id="Jardin_parasol" data-name="Jardin/ parasol"><path d="M119.57,34.59s0-.06,0-.08,0,0,0,0,0,0,0,0,0,0,0,0l-2.31-2.13L115,30.16,113,28l-1.87-2.11-1.71-2.08-1.55-2.06-1.38-2-1.21-2-1-2-.86-1.89-.69-1.85-.51-1.8s0,0,0,0a.28.28,0,0,0-.06-.09l0,0-.08,0s0,0,0,0l-3.79-.69h0l-3.78-.7-3.73-.74-3.7-.79-3.65-.8h0L79.68,5.5h0l-3.52-.86h0l-3.44-.89h0l-3.36-.9-3.26-.93L62.94,1h0L59.9,0h0L59.8,0l0,0h0L56.65,1l-3.16,1-3.25.92-3.36.91h0l-3.45.89h0l-3.52.86h0l-3.59.83-3.64.81L29,7.93l-3.74.74-3.77.7h0l-3.79.68s0,0-.05,0l-.08,0,0,0a.7.7,0,0,0-.06.09s0,0,0,0l-.51,1.8-.69,1.84-.86,1.91-1,1.93-1.21,2-1.38,2-1.55,2.08L8.47,25.93,6.59,28l-2,2.12L2.41,32.28.09,34.42s0,0,0,0,0,0,0,0H0s0,.05,0,.08a.41.41,0,0,0,0,.11v.08l.05.06s0,0,0,0h0l0,0a0,0,0,0,1,0,0l.43.25v0h0l0,0,0,0s0,0,.05.05l.06,0,0,0,.57.23,1.13.68,2.15,1.48,2,1.64,1.86,1.74,1.69,1.88,1.54,2,1.39,2.09,1.2,2.19,1,2.29L16.21,54l.69,2.46L17.41,59a.34.34,0,0,0,.07.11s0,0,0,.06h0a.36.36,0,0,0,.22.09h0l.66,0,.09.06a.47.47,0,0,0,.16,0h.75a.3.3,0,0,0,.23-.11h0l0,0,1.86-.05,3.77.1h0l3.71.25,3.68.44h0l3.65.6h0l3.56.76,3.5.93h0l3.45,1.09,3.34,1.25L53.45,66l3.15,1.55,1.79,1V85.91l-.12.12h0s0,.07-.05.1a.29.29,0,0,0,0,.13v11.1H55.71s-.05,0-.08,0h-.09l-9.1,5.26,0,0a.36.36,0,0,0-.07.1.18.18,0,0,0-.05.11s0,0,0,0v5.79s0,0,0,0a.18.18,0,0,0,.05.11.23.23,0,0,0,.07.1s0,0,0,0l9.1,5.27a.33.33,0,0,0,.17,0h8.15a.33.33,0,0,0,.17,0L73.14,109s0,0,0,0a.39.39,0,0,0,.08-.1.54.54,0,0,0,.05-.11s0,0,0,0V103s0,0,0,0a.54.54,0,0,0-.05-.11.39.39,0,0,0-.08-.1s0,0,0,0L64,97.41h-.09a.15.15,0,0,0-.08,0H61.4V86.27s0-.08,0-.13,0-.07,0-.1h0l-.12-.12V68.6l1.81-1L66.14,66l3.24-1.42,3.35-1.25,3.44-1.09h0l3.5-.93,3.56-.76h0l3.65-.6h0l3.69-.44,3.7-.25h0l3.78-.09,3.78.08h0a.36.36,0,0,0,.22-.09h0s0,0,0-.06.06-.07.07-.11l.09-.5a.16.16,0,0,0,0-.1l.39-1.95.69-2.46.87-2.39,1-2.29,1.22-2.19L107.86,45l1.54-2,1.7-1.88L113,39.45l2-1.64,2.15-1.48L119.44,35h0l0,0h0l0,0s0,0,0-.07h0v-.07A.18.18,0,0,0,119.57,34.59ZM102,12.28s0,0,0,0h0l.69,1.87h0l.88,1.92h0l1,2h0l1.22,2h0l1.39,2h0l1.55,2.08h0l1.71,2.09h0l1.88,2.11h0l2,2.13h0l2.18,2.13h0l1.11,1L62.89,14.09l-.43-.61,39.14-2.75ZM60.13.79l2.61.81h0l3.15.95h0l3.27.94h0l3.37.9h0L76,5.28h0l3.53.86h0L83.11,7h0l3.66.81h0l3.7.78h0l3.74.75h0L98,10h0l1.16.21L62,12.84v-.05s0,0,0,0,0,0,0-.06l-.25-.75s0,0,0-.06,0,0,0-.07l-.44-.44,0,0s0,0,0,0l-.5-.3h0s0,0,0,0l-.44-.15h0V.79ZM59.8,11.48H60l.36.13.43.25.36.36.21.63v.48l-.17.49a.33.33,0,0,0,.21.43h.11a.34.34,0,0,0,.31-.22l0,0,.08.08v0s0,.05.06.08a.36.36,0,0,0-.08.19.31.31,0,0,0,.17.27l-.34.47a.34.34,0,0,0-.45.14s0,.05,0,.08l-1.21.29a.31.31,0,0,0-.27-.17.3.3,0,0,0-.27.17l-1.23-.29s0-.06,0-.09a.35.35,0,0,0-.44-.13l-.34-.47a.33.33,0,0,0,.17-.27.3.3,0,0,0-.08-.19s0,0,.06-.09v0l.08-.08v0a.34.34,0,0,0,.32.23.18.18,0,0,0,.1,0,.32.32,0,0,0,.21-.42l-.16-.49v-.48l.21-.63.36-.36.44-.26.35-.12Zm.33,74.57v.44l-.06.13-.17.13h-.21l-.16-.13-.06-.13V69l.26.32a.1.1,0,0,0,.08,0,.1.1,0,0,0,.07,0h0L60.1,69h0v17Zm.31,1.31v16.21l-.13.18-.32.15h-.41l-.32-.15-.13-.18V87.36l.34.17.08,0H60l.07,0ZM21.59,10h0l3.78-.7h0l3.74-.75h0l3.7-.78h0L36.46,7h0l3.59-.84h0l3.53-.86h0L47,4.4h0l3.35-.91h0l3.26-.92h0l3.16-1h0L59.46.8v10h0L59,11l0,0h0l-.5.3s0,0,0,0h0l-.44.45s0,0,0,.07l-.05,0-.26.76a.43.43,0,0,0,0,.05s0,0,0,.06v0l-37.14-2.6ZM2.86,32.77h0l2.18-2.14h0l2-2.14h0L9,26.37H9l1.72-2.08h0l1.56-2.08h0l1.4-2h0l1.22-2h0l1-2h0l.88-1.93h0l.69-1.87h0L18,10.74l39.15,2.75-.44.61L1.75,33.79ZM18.33,57.63,18,55.73h0s0,0,0,0l-.68-2.45h0s0,0,0,0l-.86-2.37h0l-1-2.29h0v0l-1.2-2.18h0l-1.38-2.08h0l-1.53-2h0v0L9.5,40.37h0L7.63,38.61h0L5.61,37h0L3.45,35.48h0l-1.14-.69h0l-.47-.27-.07,0L56.6,14.77l.53.74ZM57,66.55h0L53.82,65h0L50.6,63.58h0l-3.3-1.24h0l-3.39-1.09h0L40.4,60.3h0l-3.53-.76h0l-3.59-.6h0L29.6,58.5h0l-3.67-.25h0l-3.71-.09h0l-2,0h-1l38.69-42.3,1.57.37V68l-.57-.32h0Zm-1.57,46.89-8.44-4.88v-.31l8.44,4.87Zm8.15.25H56v-.43h7.49Zm9.11-5.13-8.44,4.88v-.32l8.44-4.87Zm-11.36-4.47h0a.28.28,0,0,0,0-.11.26.26,0,0,0,.05-.12h0V98.27h2.33l8.71,5v4.26l-8.71,5H55.87l-8.7-5V103.3l8.7-5h2.34v5.58h0a.26.26,0,0,0,0,.12.28.28,0,0,0,0,.11h0l.33.32s0,0,.07,0,0,0,.06,0l.58.19.1,0h.69l.1,0,.58-.19s0,0,0,0,.06,0,.07,0Zm36.1-45.92h0l-3.67.09h0l-3.63.25h0l-3.6.43h0l-3.55.59h0l-3.48.76h0L76,61.24h0l-3.34,1.09h0l-3.27,1.24h0L66.12,65h0l-3.06,1.55h0L61.1,67.67h0l-.29.17-.18.09h0l0,0V16.29l1.55-.37L100.3,58.23Zm18.79-22.41h0L114,37.27v0h0l-2,1.64v0h0l-1.83,1.76h0l-1.68,1.9h0l-1.53,2h0l-1.35,2.11h0L104.37,49s0,0,0,0h0l-1,2.31v0h0l-.86,2.41h0l-.68,2.49h0l-.38,1.92L63,15.52l.52-.75,54.34,20Z"/></g></g></svg>