<svg xmlns="http://www.w3.org/2000/svg" viewBox="0 0 112.93 106.61"><g id="Layer_2" data-name="Layer 2"><g id="jardin_salon_de_jardin" data-name="jardin/ salon de jardin"><path d="M99.16,14.05a1.61,1.61,0,0,0-.08-.38,2,2,0,0,0-.1-.26,2.11,2.11,0,0,0-.21-.31,1.8,1.8,0,0,0-.19-.2,1.61,1.61,0,0,0-.3-.21,2.1,2.1,0,0,0-.26-.13l-.09-.05L57.07.08h0l0,0-.23,0-.15,0h-.16l-.15,0a1.6,1.6,0,0,0-.23,0H56L15.16,12.51l-.09.05a1.49,1.49,0,0,0-.25.13,3.28,3.28,0,0,0-.31.2c-.06.07-.13.14-.18.21a1.69,1.69,0,0,0-.21.31,1.89,1.89,0,0,0-.11.25,1.78,1.78,0,0,0-.07.39.94.94,0,0,0,0,.16v3.56a5.33,5.33,0,0,0,5.33,5.33H31.67a5.32,5.32,0,0,0,3.56-1.39,5.29,5.29,0,0,0,3.55,1.39H53a12.1,12.1,0,0,0,2.66-.49l.08,32.44-25.84,0a1.78,1.78,0,0,0-1.78,1.78V64a1.77,1.77,0,0,0,1.78,1.77H49.44V69.3a1.78,1.78,0,0,0,1.78,1.77l4.26,0-.09,32.36-10-.06s-1.36-.18-1.33.6v2.62H69v-2c-.06-1.38.17-1.19-3.13-1.23l-8.77,0,.32-32.36,4.47,0a1.78,1.78,0,0,0,1.78-1.77V65.74H83.2A1.78,1.78,0,0,0,85,64V56.86a1.78,1.78,0,0,0-1.78-1.78L57.3,55l.06-32.42a12.83,12.83,0,0,0,2.74.5H74.32a5.31,5.31,0,0,0,3.55-1.39,5.31,5.31,0,0,0,3.55,1.39H93.86a5.33,5.33,0,0,0,5.33-5.33V14.21ZM56.36,1l20,12.37h-20ZM34.73,18.11c0,2.12-1,3.84-2.17,3.84H17.33c-1.21,0-2.71-1.72-2.71-3.84V14.26H34.73ZM15.44,13.33,54.53,1,37.69,13.33ZM56,.79V13.33H38.67ZM54,22H38c-1.11,0-2-1.72-2-3.84V14.26H56v3.85C56,20.23,55.06,22,54,22Zm14.64,82.87v1.29H44.48v-1.56a.61.61,0,0,1,.62-.6H67.69A.88.88,0,0,1,68.59,104.82ZM62.91,69.59a.89.89,0,0,1-.89.89H51.11a.89.89,0,0,1-.89-.89v-3a.89.89,0,0,1,.89-.9H62a.89.89,0,0,1,.89.9Zm20.7-13.94a1,1,0,0,1,1,1V64a1,1,0,0,1-1,1H29.73a1,1,0,0,1-1-1V56.65a1,1,0,0,1,1-1ZM77.79,18.11c0,2.12-.93,3.84-2.08,3.84H59.13c-1.14,0-2.07-1.72-2.07-3.84V14.26H77.79Zm20.66,0c0,2.12-1.51,3.84-2.68,3.84H80.9c-1.18,0-2.13-1.72-2.13-3.84V14.26H98.45ZM77.39,13.33,57.06.79,97.89,13.33Z"/><path d="M38.88,74.82h-24l-7-18.24A4.07,4.07,0,0,0,.27,59.5L6.16,74.82H5.35a3.63,3.63,0,0,0,0,7.26h8.09v1.46H12.37a5.12,5.12,0,0,0-5.06,4.55L1.84,105.77a.67.67,0,0,0,.1.58.66.66,0,0,0,.52.26H7.29a.64.64,0,0,0,.62-.46L13.06,89.5l0,0H31.15v.06l5.15,16.64a.65.65,0,0,0,.63.46h4.82a.68.68,0,0,0,.53-.26.64.64,0,0,0,.09-.58L36.92,88.09a5.13,5.13,0,0,0-5.07-4.55H30.78V82.08h8.1a3.63,3.63,0,0,0,0-7.26ZM.55,58.74c-.62-1.43.76-3.54,2.36-4.09a3.58,3.58,0,0,1,4.25,1.68l7.19,18.49-7.74.05ZM32,83.91a5,5,0,0,1,4.62,4.2s.1.58.11.62L41.69,105a.9.9,0,0,1-.86,1.15h-3a1.31,1.31,0,0,1-1.25-.91L31.79,90.32c0-.18-.11-.52-.12-.64,0-.35-.09-.65-.44-.65H13.61c-.34,0-.92-.05-.94.29a6,6,0,0,1-.22.68l-4.7,15.33a1.25,1.25,0,0,1-1.18.87H3.41a.94.94,0,0,1-.9-1.2l5-16.71s.26-.61.26-.65c.18-1.94,2.63-3.74,4.57-3.74Zm-17.28-.37V82.08H29.47v1.46Zm24.63-2H4.65c-1.32,0-2.4-1.39-2.4-3.08s1.08-3.09,2.4-3.09H39.38c1.33,0,2.41,1.39,2.41,3.09S40.71,81.55,39.38,81.55Z"/><path d="M70.42,78.45a3.64,3.64,0,0,0,3.63,3.63h8.09v1.46H81.07A5.12,5.12,0,0,0,76,88.09l-5.47,17.68a.65.65,0,0,0,.63.84H76a.64.64,0,0,0,.62-.46l5.15-16.64,0-.06H99.85v0L105,106.15a.65.65,0,0,0,.63.46h4.82a.68.68,0,0,0,.53-.26.64.64,0,0,0,.09-.58l-5.46-17.68a5.13,5.13,0,0,0-5.07-4.55H99.48V82.08h8.1a3.63,3.63,0,0,0,0-7.26h-.81l5.88-15.32a4.07,4.07,0,1,0-7.6-2.92L98,74.82h-24A3.64,3.64,0,0,0,70.42,78.45Zm35.9-3.58-7.74-.05,7.18-18.49A3.6,3.6,0,0,1,110,54.65c1.6.55,3,2.66,2.36,4.09Zm-5.68,9c1.93,0,4.39,1.8,4.56,3.74,0,0,.25.6.26.65l5,16.71a.93.93,0,0,1-.89,1.2h-3.17a1.23,1.23,0,0,1-1.17-.87L100.47,90a4.42,4.42,0,0,1-.21-.68c0-.34-.6-.29-1-.29H81.69c-.34,0-.41.3-.43.65,0,.12-.12.46-.13.64l-4.8,14.88a1.32,1.32,0,0,1-1.25.91h-3a.89.89,0,0,1-.85-1.15l4.92-16.23s.11-.57.12-.62c.42-2.07,2.12-4.2,4.61-4.2Zm-17.19-.37V82.08H98.17v1.46ZM71.13,78.47c0-1.7,1.09-3.09,2.41-3.09h34.73c1.33,0,2.41,1.39,2.41,3.09s-1.08,3.08-2.41,3.08H73.54C72.22,81.55,71.13,80.16,71.13,78.47Z"/></g></g></svg>