<svg xmlns="http://www.w3.org/2000/svg" viewBox="0 0 112.26 106.61"><g id="Layer_2" data-name="Layer 2"><g id="Table_jardin" data-name="Table jardin"><path d="M99.66,14.05a1.61,1.61,0,0,0-.08-.38,2,2,0,0,0-.1-.26,2.11,2.11,0,0,0-.21-.31,1.8,1.8,0,0,0-.19-.2,2,2,0,0,0-.3-.21l-.26-.13-.09-.05L57.56.08h0l0,0-.23,0-.15,0H57l-.15,0a1.6,1.6,0,0,0-.23,0h-.06L15.66,12.51l-.09.05a1.49,1.49,0,0,0-.25.13,3.28,3.28,0,0,0-.31.2,2.88,2.88,0,0,0-.39.52,1.89,1.89,0,0,0-.11.25,1.78,1.78,0,0,0-.07.39.94.94,0,0,0,0,.16v3.56a5.33,5.33,0,0,0,5.33,5.33H32.17a5.34,5.34,0,0,0,3.56-1.39,5.29,5.29,0,0,0,3.55,1.39H53.49a12.08,12.08,0,0,0,2.67-.49l.08,32.44L1.37,54.79C0,54.77,0,56.21,0,57.19l0,6.2c0,1,0,2.4,1.64,2.35h48.3V69.3a1.78,1.78,0,0,0,1.78,1.77l4.25,0-.08,32.36-10-.06s-1.37-.18-1.33.6v2.62H69.49v-2c-.06-1.38.17-1.19-3.13-1.23l-8.77,0,.32-32.36,4.47,0a1.77,1.77,0,0,0,1.77-1.77V65.74H110c1,0,2.3.16,2.3-1.3l0-8c0-1.47-1.17-1.25-2.15-1.25L57.79,55l.07-32.42a12.72,12.72,0,0,0,2.74.5H74.82a5.31,5.31,0,0,0,3.55-1.39,5.31,5.31,0,0,0,3.55,1.39H94.36a5.33,5.33,0,0,0,5.33-5.33V14.21ZM56.86,1l20,12.37h-20ZM35.23,18.11c0,2.12-1,3.84-2.17,3.84H17.82c-1.2,0-2.7-1.72-2.7-3.84V14.26H35.23ZM15.94,13.33,55,1,38.18,13.33ZM56.45.79V13.33H39.17ZM54.45,22h-16c-1.1,0-2-1.72-2-3.84V14.26h20v3.85C56.45,20.23,55.56,22,54.45,22Zm14.64,82.87v1.29H45v-1.56a.61.61,0,0,1,.62-.6H68.19A.88.88,0,0,1,69.09,104.82ZM63.41,69.59a.89.89,0,0,1-.9.89H51.61a.89.89,0,0,1-.89-.89v-3a.89.89,0,0,1,.89-.9h10.9a.9.9,0,0,1,.9.9Zm46.14-13.94c1,0,1.9.45,1.9,1V64c0,.55-.85,1-1.9,1H2.4c-1,0-1.9-.45-1.9-1V56.65c0-.55.85-1,1.9-1ZM78.28,18.11c0,2.12-.92,3.84-2.07,3.84H59.63c-1.14,0-2.07-1.72-2.07-3.84V14.26H78.28Zm20.67,0C99,20.23,97.44,22,96.27,22H81.4c-1.18,0-2.13-1.72-2.13-3.84V14.26H99ZM77.89,13.33,57.56.79,98.39,13.33Z"/><path d="M13.84,65.61c-.27,3.42-3.74,31-4.73,38.83a1.82,1.82,0,0,0,1.8,2h.52a2.06,2.06,0,0,0,2-1.69l7.37-39.05Zm-2.21,40.14h-.82a1,1,0,0,1-1-1.1L14.69,65.6l5.4.13-7.27,39A1.21,1.21,0,0,1,11.63,105.75Z"/><path d="M98.72,65.61h-.8l4.87,39c.06.5-.27,1.22-.78,1.22l-1.28.07c-.45,0-.84-.66-.92-1.11L92.63,65.73h-.89l7.39,39.18a1.92,1.92,0,0,0,1.87,1.56h.63a1.83,1.83,0,0,0,1.81-2.06C102.46,96.62,99,69,98.72,65.61Z"/></g></g></svg>