<svg xmlns="http://www.w3.org/2000/svg" viewBox="0 0 117 53.31"><g id="Layer_2" data-name="Layer 2"><g id="Jardin_transat" data-name="Jardin/ transat"><path d="M115.14,40.08H1.85A1.85,1.85,0,0,1,0,38.23v-3a1.85,1.85,0,0,1,1.85-1.85H115.14A1.85,1.85,0,0,1,117,35.22v3A1.85,1.85,0,0,1,115.14,40.08ZM1.85,34.34a.89.89,0,0,0-.88.88v3a.88.88,0,0,0,.88.88H115.14a.88.88,0,0,0,.89-.88v-3a.89.89,0,0,0-.89-.88Z"/><path d="M38.6,34.34H34.5c-.46,0-.78,0-1,0a1.85,1.85,0,0,1-1.71-.65L7.18,9.07a2.35,2.35,0,0,1,0-3.35L8.36,4.53a2.43,2.43,0,0,1,3.36,0L35.6,28.42c.54.53,1.55,1.67,2.06,2.3.37.44.78.88,1.16,1.3s.78.82,1.06,1.18l.21.27-.14.4C39.79,34.21,39.41,34.34,38.6,34.34Zm-4.76-1.13.7,0h3.92L38,32.77c-.4-.43-.83-.89-1.21-1.36s-1.48-1.71-2-2.21L10.94,5.31a1.27,1.27,0,0,0-1.8,0L8,6.5a1.19,1.19,0,0,0-.38.89,1.23,1.23,0,0,0,.38.9l24.59,24.6c.34.34.34.34.91.33Z"/><path d="M108,53.31h-1.3a1.36,1.36,0,0,1-1.36-1.37V39.35h4.19V51.79A1.53,1.53,0,0,1,108,53.31Zm-1.8-13.1V51.94a.51.51,0,0,0,.5.51H108a.67.67,0,0,0,.67-.66V40.21Z"/><path d="M8.74,45a4.16,4.16,0,1,0,4.15,4.16A4.15,4.15,0,0,0,8.74,45Zm0,7.46a3.31,3.31,0,1,1,3.31-3.3A3.31,3.31,0,0,1,8.74,52.45Z"/><circle cx="8.74" cy="49.15" r="1.93"/><rect x="6.85" y="42.14" width="5.66" height="1" transform="translate(-34.02 41.36) rotate(-75.53)"/><rect x="8.69" y="42.47" width="6.5" height="1" transform="translate(-32.65 43.8) rotate(-75.53)"/><rect x="5.29" y="24.8" width="17.2" height="1" transform="translate(-14.08 32.43) rotate(-75.53)"/><rect x="8.64" y="26.1" width="14.99" height="1" transform="translate(-13.66 35.58) rotate(-75.53)"/><path d="M36.6,30.83l-25-25.06L16.33,1a3.4,3.4,0,0,1,4.8,0L41.52,21.38a3.2,3.2,0,0,1,0,4.53ZM13,5.77,36.6,29.41l4.21-4.2a2.21,2.21,0,0,0,0-3.12L20.42,1.7A2.4,2.4,0,0,0,17,1.7Z"/><path d="M77.72,34.06H42.29V27.29a3.4,3.4,0,0,1,3.4-3.39H74.52a3.21,3.21,0,0,1,3.2,3.21Zm-34.43-1H76.72v-6a2.21,2.21,0,0,0-2.2-2.21H45.69a2.4,2.4,0,0,0-2.4,2.39Z"/><path d="M114.15,34.06H78.72V27.29a3.39,3.39,0,0,1,3.39-3.39h28.83a3.21,3.21,0,0,1,3.21,3.21Zm-34.43-1h33.43v-6a2.21,2.21,0,0,0-2.21-2.21H82.11a2.39,2.39,0,0,0-2.39,2.39Z"/></g></g></svg>