<svg xmlns="http://www.w3.org/2000/svg" viewBox="0 0 117.97 82.55"><defs><style>.cls-1{fill:#1a1a1a;}</style></defs><g id="Layer_2" data-name="Layer 2"><g id="Salon_canapes_2_places" data-name="Salon/canapes 2 places"><path class="cls-1" d="M16.59,0A9.3,9.3,0,0,0,7.37,9.38v9.56A9.36,9.36,0,0,0,0,28.14V61.91a9.3,9.3,0,0,0,9.22,9.38h3.35l-.89,5.43a5,5,0,0,0,1.1,4.06,4.87,4.87,0,0,0,8.15-1l4.17-8.5H92.87L97,79.79a4.87,4.87,0,0,0,8.15,1,5,5,0,0,0,1.1-4.06l-.89-5.43h3.36A9.29,9.29,0,0,0,118,61.91V28.14a9.35,9.35,0,0,0-7.37-9.2V9.38A9.3,9.3,0,0,0,101.38,0ZM14.76,1.81l87.29-.13a8.65,8.65,0,0,1,3.35.6c3.45,1.44,4.15,4.47,4.15,7.1v9.38h-5.84a5.77,5.77,0,0,0-5.85,5.63V41.28H19.93V24.39a5.76,5.76,0,0,0-5.84-5.63H8.24V9.38C8.24,6.29,11.55,1.81,14.76,1.81Zm-7,18.45h7.59a4,4,0,0,1,3.42,4.1l-.4,16.87H3.56a5.91,5.91,0,0,0-2.12.37V26.55a6.29,6.29,0,0,1,4.24-5.91A5.78,5.78,0,0,1,7.8,20.26Zm92.85.78a5.73,5.73,0,0,1,3.91-1.15l5,0a7.35,7.35,0,0,1,1.81.22,6.75,6.75,0,0,1,1.55.5,5.7,5.7,0,0,1,2.14,2,6.46,6.46,0,0,1,1.56,3.9V41.61a6.06,6.06,0,0,0-2.14-.37h-15L99.21,25.1a6.41,6.41,0,0,1,1-3.57A2,2,0,0,1,100.65,21Zm-58,11.06a1,1,0,0,0-1,1V35a1,1,0,0,0,1.94,0V33.07A1,1,0,0,0,42.69,32.1Zm8.08,0a1,1,0,0,0-1,1V35a1,1,0,0,0,1.94,0V33.07A1,1,0,0,0,50.77,32.1Zm8,0a1,1,0,0,0-1,1V35a1,1,0,0,0,1.94,0V33.07A1,1,0,0,0,58.74,32.1Zm8,0a1,1,0,0,0-1,1V35a1,1,0,0,0,1.94,0V33.07A1,1,0,0,0,66.71,32.1Zm8.19,0a1,1,0,0,0-1,1V35a1,1,0,0,0,1.94,0V33.07A1,1,0,0,0,74.9,32.1ZM3.36,43H114.67a2.09,2.09,0,0,1,1.92,2.21V62.82a8.14,8.14,0,0,1-.24,1.92,6,6,0,0,1-5.51,4.7H7.2c-2.5,0-5.76-3.12-5.76-6.57H95.57c1.06,0,1.12-.24,1.13-.62s-.15-.58-1.21-.58h-94V45.16A2.09,2.09,0,0,1,3.36,43ZM103.2,61.67a.6.6,0,1,0,0,1.2h2.38a.6.6,0,0,0,0-1.2Zm-88,9.62h8l-5.73,9.27a2.17,2.17,0,0,1-1.88,1,2.32,2.32,0,0,1-1.61-.6,1.44,1.44,0,0,1-.46-1.38Zm79.21,0h8.23l1.74,7.81a1.33,1.33,0,0,1-.47,1.31,2.5,2.5,0,0,1-1.66.57,2.31,2.31,0,0,1-1.94-.9Z"/><path d="M94.61,35.21a.35.35,0,0,1-.25-.14l-1.65-2.18-2.18,1.66a.3.3,0,0,1-.27.08.33.33,0,0,1-.25-.15l-1.62-2.16L86.22,34a.32.32,0,0,1-.28.08.33.33,0,0,1-.25-.15L84,31.73l-2.17,1.66a.37.37,0,0,1-.28.08.25.25,0,0,1-.21-.15l-1-1.36c-.08.6-.2,1.23-.32,1.87l1.33,1.74,2.17-1.65a.39.39,0,0,1,.28-.08A.33.33,0,0,1,84,34l1.65,2.17,2.18-1.66a.42.42,0,0,1,.27-.08.36.36,0,0,1,.25.15l1.66,2.17,2.17-1.66A.43.43,0,0,1,92.5,35a.33.33,0,0,1,.25.15l1.65,2.17L96.15,36c0-.64.09-1.24.18-1.88l-1.44,1A.29.29,0,0,1,94.61,35.21Z"/><path d="M82.43,27.46a.32.32,0,0,1-.25-.14l-1.7-2.18c.09.81.09,1.62.1,2.42l1.53,2,2.17-1.66a.42.42,0,0,1,.28-.07.32.32,0,0,1,.24.14l1.66,2.18,2.17-1.66a.4.4,0,0,1,.28-.08.37.37,0,0,1,.25.15l1.66,2.17L93,29.07a.42.42,0,0,1,.28-.07.32.32,0,0,1,.24.14l1.66,2.17,2-1.52c.22-.78.48-1.54.73-2.31l-2.2,1.65a.46.46,0,0,1-.28.08.42.42,0,0,1-.25-.15l-1.66-2.17-2.17,1.66a.43.43,0,0,1-.28.07.42.42,0,0,1-.25-.15l-1.62-2.12L87,28a.4.4,0,0,1-.28.08.4.4,0,0,1-.25-.15l-1.66-2.17-2.17,1.66A.41.41,0,0,1,82.43,27.46Z"/><path d="M96,38.69V37l-1.53,1.17a.4.4,0,0,1-.28.08.4.4,0,0,1-.25-.15L92.3,35.9l-2.17,1.66a.42.42,0,0,1-.28.07.46.46,0,0,1-.25-.14L88,35.32,85.81,37a.42.42,0,0,1-.28.07.4.4,0,0,1-.24-.14l-1.66-2.18-2.17,1.66a.4.4,0,0,1-.28.08.32.32,0,0,1-.21-.14L79.8,34.79l-.45,1.66,1.59,2.09,2.17-1.66a.45.45,0,0,1,.28-.08.41.41,0,0,1,.25.15l1.66,2.17,2.17-1.65a.37.37,0,0,1,.27-.08.3.3,0,0,1,.25.15l1.66,2.17,2.17-1.66A.46.46,0,0,1,92.1,38a.41.41,0,0,1,.25.15L94,40.29Z"/><path d="M95,32.21a.3.3,0,0,1-.24-.15l-1.66-2.17-2.17,1.66a.46.46,0,0,1-.28.08.44.44,0,0,1-.25-.15l-1.62-2.17L86.62,31a.45.45,0,0,1-.28.08.48.48,0,0,1-.25-.15l-1.65-2.17-2.18,1.65a.37.37,0,0,1-.27.08.32.32,0,0,1-.21-.14l-1.17-1.53c0,.72-.08,1.4-.13,2.08l1.27,1.66,2.17-1.66a.42.42,0,0,1,.28-.07.32.32,0,0,1,.24.14l1.66,2.18,2.17-1.66a.4.4,0,0,1,.28-.08.37.37,0,0,1,.25.15l1.66,2.17L92.63,32a.42.42,0,0,1,.28-.07.32.32,0,0,1,.24.14l1.66,2.18L96.47,33c.13-.67.26-1.38.43-2.05l-1.61,1.16A.31.31,0,0,1,95,32.21Z"/><path d="M96.05,39.61l-2,1.5a.45.45,0,0,1-.28.07.43.43,0,0,1-.25-.14L91.9,38.86l-2.17,1.66a.38.38,0,0,1-.28.08.38.38,0,0,1-.24-.15l-1.63-2.13L85.41,40a.39.39,0,0,1-.28.08.48.48,0,0,1-.25-.15l-1.65-2.17L81.05,39.4a.41.41,0,0,1-.27.07c-.08,0-.14-.09-.21-.18l-1.49-2c-.25.7-.5,1.39-.78,2.12a1,1,0,0,0,1,1.32,30.89,30.89,0,0,1,15.62,2.09,1,1,0,0,0,1.32-1C96.15,41.12,96.1,40.35,96.05,39.61Z"/><path d="M80.4,24.33a.39.39,0,0,1,.48.1l1.66,2.17,2.17-1.66a.46.46,0,0,1,.28-.08.38.38,0,0,1,.25.15l1.66,2.17,2.17-1.65a.38.38,0,0,1,.28-.08.33.33,0,0,1,.25.15l1.65,2.17,2.17-1.66A.46.46,0,0,1,93.7,26a.36.36,0,0,1,.25.15l1.66,2.17,2.17-1.65a.39.39,0,0,1,.49,0l.17-.39a1,1,0,0,0-1-1.32,30.92,30.92,0,0,1-15.62-2.1,1,1,0,0,0-1.43,1A1.48,1.48,0,0,1,80.4,24.33Z"/><path d="M36.32,32.29a.35.35,0,0,1-.28-.06l-2.27-1.52L32.25,33a.37.37,0,0,1-.24.16.34.34,0,0,1-.28-.06l-2.24-1.53L28,33.82a.32.32,0,0,1-.24.16.35.35,0,0,1-.28-.06L25.18,32.4l-1.52,2.27a.34.34,0,0,1-.24.16.22.22,0,0,1-.24-.07l-1.43-.95c.12.59.21,1.23.3,1.87l1.82,1.23,1.52-2.27a.47.47,0,0,1,.24-.17.35.35,0,0,1,.28.06l2.27,1.53,1.52-2.27a.47.47,0,0,1,.24-.17.35.35,0,0,1,.28.06l2.27,1.52L34,32.94a.47.47,0,0,1,.24-.17.34.34,0,0,1,.28.06l2.27,1.52L38,32.53c-.16-.62-.32-1.21-.44-1.84l-1,1.43A.3.3,0,0,1,36.32,32.29Z"/><path d="M22.29,28.88a.37.37,0,0,1-.29-.06L19.7,27.3c.34.75.6,1.51.87,2.26L22.66,31l1.52-2.27a.47.47,0,0,1,.24-.17.39.39,0,0,1,.28.06L27,30.12l1.52-2.27a.47.47,0,0,1,.24-.17.35.35,0,0,1,.28.06l2.27,1.53L32.8,27a.47.47,0,0,1,.24-.17.34.34,0,0,1,.28.06l2.27,1.53L37,26.32c0-.8,0-1.61-.06-2.42l-1.56,2.28a.38.38,0,0,1-.23.16.4.4,0,0,1-.29-.06l-2.27-1.52L31.07,27a.37.37,0,0,1-.24.16.38.38,0,0,1-.28-.06l-2.22-1.49-1.52,2.27a.39.39,0,0,1-.24.16.36.36,0,0,1-.28-.06L24,26.49l-1.53,2.27A.43.43,0,0,1,22.29,28.88Z"/><path d="M38.77,35.12l-.55-1.62-1.08,1.6a.38.38,0,0,1-.23.16.4.4,0,0,1-.29-.06l-2.27-1.52L32.83,36a.37.37,0,0,1-.24.16.38.38,0,0,1-.28-.06l-2.23-1.53-1.52,2.27a.39.39,0,0,1-.24.16.38.38,0,0,1-.28-.06l-2.27-1.52-1.52,2.27a.47.47,0,0,1-.24.17.36.36,0,0,1-.25-.07l-1.6-1.08.11,1.72,2.18,1.46L26,37.57a.39.39,0,0,1,.24-.16.35.35,0,0,1,.28.06L28.76,39l1.52-2.27a.39.39,0,0,1,.24-.16.35.35,0,0,1,.28.06l2.27,1.52,1.52-2.27a.39.39,0,0,1,.24-.16.34.34,0,0,1,.28.06l2.27,1.52Z"/><path d="M35.73,29.31a.31.31,0,0,1-.28-.06l-2.27-1.52L31.66,30a.37.37,0,0,1-.24.16.38.38,0,0,1-.28-.06l-2.23-1.52-1.52,2.27a.51.51,0,0,1-.24.16.41.41,0,0,1-.28-.06L24.6,29.43,23.07,31.7a.42.42,0,0,1-.23.16.36.36,0,0,1-.25-.07L21,30.72c.21.69.38,1.35.55,2l1.74,1.17,1.52-2.27a.43.43,0,0,1,.24-.17.35.35,0,0,1,.28.06l2.27,1.53,1.52-2.27a.43.43,0,0,1,.24-.17.35.35,0,0,1,.28.06l2.27,1.52,1.52-2.26a.43.43,0,0,1,.24-.17.35.35,0,0,1,.28.06l2.27,1.52,1.16-1.73c-.09-.68-.19-1.39-.25-2.08L36,29.15A.34.34,0,0,1,35.73,29.31Z"/><path d="M39.1,36l-1.38,2a.36.36,0,0,1-.52.11l-2.27-1.52-1.52,2.26a.36.36,0,0,1-.52.11L30.67,37.5l-1.52,2.27a.51.51,0,0,1-.24.16.45.45,0,0,1-.29-.06l-2.26-1.52-1.53,2.27a.48.48,0,0,1-.23.16.45.45,0,0,1-.26-.11l-2-1.37c0,.74,0,1.47-.06,2.25a1,1,0,0,0,1.38.93,30.81,30.81,0,0,1,15.46-3A1,1,0,0,0,40,38.05C39.68,37.38,39.38,36.66,39.1,36Z"/><path d="M19.36,26.56a.4.4,0,0,1,.49-.06L22.12,28l1.52-2.27a.47.47,0,0,1,.24-.16.35.35,0,0,1,.28.06l2.27,1.52L28,24.9a.41.41,0,0,1,.24-.16.35.35,0,0,1,.28.06l2.27,1.52,1.52-2.27a.39.39,0,0,1,.24-.16.35.35,0,0,1,.28.06l2.27,1.52,1.52-2.27a.41.41,0,0,1,.48-.13c0-.16,0-.28,0-.43a1,1,0,0,0-1.38-.93,30.7,30.7,0,0,1-15.46,3.05,1,1,0,0,0-1,1.41A1.27,1.27,0,0,1,19.36,26.56Z"/></g></g></svg>