<svg xmlns="http://www.w3.org/2000/svg" viewBox="0 0 120.47 74.52"><defs><style>.cls-1{fill:#1a1a1a;}</style></defs><g id="Layer_2" data-name="Layer 2"><g id="Buffet"><path d="M.68,4.47H120.44V62.6H.06V4.47ZM118,5.6H1.91a.6.6,0,0,0-.6.6V59.38a2.1,2.1,0,0,0,2.1,2.1H117.75A1.44,1.44,0,0,0,119.19,60V6.75A1.15,1.15,0,0,0,118,5.6Z"/><path d="M3.94,20.85H37a1.37,1.37,0,0,1,.37.21,2.5,2.5,0,0,1,.25.35V58.79l-.19.31-.43.25H3.94l-.37-.21-.26-.35V21.41l.28-.33Zm32.91.64H4V58.7H36.85Z"/><path d="M39.24,20.91h42.5l.38.25.25.31V59l-.24.33-.39.23H39.24l-.42-.23L38.61,59V21.47l.27-.29Zm42.47.58H39.41V58.7h42.3Z"/><path d="M.63,61.67H120.44v7l-.19.43-.43.14H.63L.07,69.1,0,68.62v-7ZM119.19,62.8H1.25v5a.32.32,0,0,0,.34.3h117a.56.56,0,0,0,.59-.53Z"/><path d="M83.79,21h33.08l.39.31.23.26V59.05l-.21.3-.41.26H83.79l-.33-.2-.3-.36V21.54l.25-.38Zm33,.52H83.91V58.62h32.86Z"/><path d="M39.24,7.45h42.5l.31.32.32.25V19.35l-.24.29-.39.28H39.24l-.37-.2-.26-.37V8l.28-.27Zm40.81.8H41a1.63,1.63,0,0,0-1.59,1.67v7.23a2,2,0,0,0,2,2.05H79.55a2,2,0,0,0,2-2.06V9.78A1.5,1.5,0,0,0,80.05,8.25Z"/><polygon points="61.12 21.47 61.12 58.95 59.87 58.95 59.87 21.47 61.12 21.47"/><path d="M.66,0H119.85l.4.18.22.38V5.44H0V.56L.31.2ZM119.35.82H1.45A.53.53,0,0,0,1,1.4V4.09a.53.53,0,0,0,.48.57H119.24a.51.51,0,0,0,.45-.54V1.22A.37.37,0,0,0,119.35.82Z"/><path d="M3.23,7.49H37l.38.25.25.32V19.4l-.21.4L37,20H3.23l-.36-.17L2.6,19.4V8.06l.27-.36Zm32.17.76H4.73A1.45,1.45,0,0,0,3.31,9.72v8.43a1,1,0,0,0,1,1.05h31a1.54,1.54,0,0,0,1.51-1.56V9.75A1.48,1.48,0,0,0,35.4,8.25Z"/><path d="M83.81,7.43h33.74l.34.26.28.3V19.33l-.27.29-.35.27H83.81l-.34-.31-.29-.25V8l.27-.31Zm31.51.82H86.11a2.21,2.21,0,0,0-2.17,2.25V17a2.21,2.21,0,0,0,2.17,2.25h29.21A2.21,2.21,0,0,0,117.49,17V10.5A2.21,2.21,0,0,0,115.32,8.25Z"/><rect x="63.98" y="35.83" width="1.58" height="8.98" rx="0.79"/><rect x="55.37" y="35.83" width="1.58" height="8.98" rx="0.79"/><rect x="31.21" y="35.83" width="1.58" height="8.98" rx="0.79"/><rect x="88.12" y="35.83" width="1.58" height="8.98" rx="0.79"/><path class="cls-1" d="M57.66,12.52a.61.61,0,0,0-.6.61A1.82,1.82,0,0,0,58.88,15h3.64a1.83,1.83,0,0,0,1.82-1.83.61.61,0,1,0-1.21,0,.61.61,0,0,1-.61.61H58.88a.61.61,0,0,1-.61-.61A.61.61,0,0,0,57.66,12.52Z"/><path class="cls-1" d="M99.27,12.47a.6.6,0,0,0-.6.61,1.82,1.82,0,0,0,1.82,1.82h3.64A1.83,1.83,0,0,0,106,13.08a.61.61,0,1,0-1.21,0,.61.61,0,0,1-.61.6h-3.64a.6.6,0,0,1-.61-.6A.61.61,0,0,0,99.27,12.47Z"/><path class="cls-1" d="M17.44,12.52a.61.61,0,0,0-.61.61A1.83,1.83,0,0,0,18.65,15h3.64a1.83,1.83,0,0,0,1.82-1.83.61.61,0,1,0-1.21,0,.61.61,0,0,1-.61.61H18.65a.61.61,0,0,1-.61-.61A.61.61,0,0,0,17.44,12.52Z"/><path class="cls-1" d="M28.4,69.19v2.72a2.06,2.06,0,0,1-2.19,1.91H17.67a2,2,0,0,1-2.17-1.89V69.19h-.77v3.44a2,2,0,0,0,2.17,1.89H27a2.06,2.06,0,0,0,2.19-1.91V69.19Z"/><path class="cls-1" d="M104.14,69.19v2.72A2.06,2.06,0,0,1,102,73.82H93.41a2.06,2.06,0,0,1-2.18-1.89V69.19h-.76v3.44a2,2,0,0,0,2.17,1.89h10.12A2.06,2.06,0,0,0,105,72.61V69.19Z"/><path class="cls-1" d="M7.11,54.08a.74.74,0,0,0-.75.73v1.44a.76.76,0,0,0,1.51,0V54.81A.75.75,0,0,0,7.11,54.08Z"/><path class="cls-1" d="M12.14,54.08a.74.74,0,0,0-.75.73v1.44a.74.74,0,0,0,.75.73.75.75,0,0,0,.76-.73V54.81A.75.75,0,0,0,12.14,54.08Z"/><path class="cls-1" d="M17.53,54.08a.75.75,0,0,0-.76.73v1.44a.75.75,0,0,0,.76.73.74.74,0,0,0,.75-.73V54.81A.74.74,0,0,0,17.53,54.08Z"/><path class="cls-1" d="M22.84,54.08a.74.74,0,0,0-.75.73v1.44a.74.74,0,0,0,.75.73.75.75,0,0,0,.76-.73V54.81A.75.75,0,0,0,22.84,54.08Z"/><path class="cls-1" d="M28.52,54.08a.75.75,0,0,0-.76.73v1.44a.75.75,0,0,0,.76.73.74.74,0,0,0,.75-.73V54.81A.74.74,0,0,0,28.52,54.08Z"/><path class="cls-1" d="M33.91,54.08a.74.74,0,0,0-.75.73v1.44a.74.74,0,0,0,.75.73.75.75,0,0,0,.76-.73V54.81A.75.75,0,0,0,33.91,54.08Z"/><path class="cls-1" d="M87.3,54.08a.74.74,0,0,0-.75.73v1.44a.75.75,0,0,0,1.5,0V54.81A.74.74,0,0,0,87.3,54.08Z"/><path class="cls-1" d="M92.33,54.08a.75.75,0,0,0-.76.73v1.44a.75.75,0,0,0,.76.73.74.74,0,0,0,.75-.73V54.81A.74.74,0,0,0,92.33,54.08Z"/><path class="cls-1" d="M97.71,54.08a.74.74,0,0,0-.75.73v1.44a.76.76,0,0,0,1.51,0V54.81A.75.75,0,0,0,97.71,54.08Z"/><path class="cls-1" d="M103,54.08a.75.75,0,0,0-.76.73v1.44A.75.75,0,0,0,103,57a.74.74,0,0,0,.75-.73V54.81A.74.74,0,0,0,103,54.08Z"/><path class="cls-1" d="M108.7,54.08a.74.74,0,0,0-.75.73v1.44a.74.74,0,0,0,.75.73.75.75,0,0,0,.76-.73V54.81A.75.75,0,0,0,108.7,54.08Z"/><path class="cls-1" d="M114.1,54.08a.75.75,0,0,0-.76.73v1.44a.75.75,0,0,0,.76.73.74.74,0,0,0,.75-.73V54.81A.74.74,0,0,0,114.1,54.08Z"/></g></g></svg>