<svg xmlns="http://www.w3.org/2000/svg" viewBox="0 0 119.92 35.43"><defs><style>.cls-1{fill:#1a1a1a;}</style></defs><g id="Layer_2" data-name="Layer 2"><g id="Canape_d_angle" data-name="Canape d&apos;angle"><path d="M119.92,8.85a.57.57,0,0,0-.5-.62l-4.57-.74h-.25l-.74.25c.74-1.86,1.73-4.58,1.24-5.44s-1.49-.87-2.85-.74c-.61,0-1.48.12-2.59.12a89.21,89.21,0,0,1-11.38-.62A41.75,41.75,0,0,0,92.84.44a.68.68,0,0,0-.61.38c0,.12-.13.24-.13.37-3.09.24-6.18.37-9.15.37-2.1-.25-7.66-1-8.16-1.24a.54.54,0,0,0-.61.12l-.13.13C72.94.07,71.21.2,69,.32a7,7,0,0,1-1.6,0H66.14A23.15,23.15,0,0,1,61.69.07a.94.94,0,0,0-1.11.37c-.13.13-.13.25-.25.38-.12-.13-.12-.25-.25-.38A2,2,0,0,0,59,.07H51.18a15.51,15.51,0,0,0-5.07.25A.12.12,0,0,0,46,.2a1.49,1.49,0,0,0-.74-.13c-.5.13-6.18,1-8.16,1.24q-4.64,0-9.27-.37c0-.12-.13-.25-.13-.37A.67.67,0,0,0,27.07.2c-1.85.12-3.7.37-5.44.62-2.84.37-8.9.49-11.49.61a17.13,17.13,0,0,1-2.6-.12c-1.11,0-2.1,0-2.59.87s.37,3.58,1.23,5.44l-.86-.13H5.07L.49,8.23c-.37,0-.49.37-.49.62l1.48,16.2v2.1a1,1,0,0,0,.25.49l1.73,1.49a.47.47,0,0,0,.37.12h0l3-.12,3.46,2.47v2.1a.64.64,0,0,0,.25.5l1.61,1.11h0a.45.45,0,0,0,.37.12h.12l4.2-1a.82.82,0,0,0,.5-.62l-.08-2.23L54.67,24l1,2.42h0c.13,0,.25.12.37.12h.13L59,26a.56.56,0,0,0,.49-.62l0-2.22.4-.29.7.24-.08,2.27c0,.24.25.62.5.62l2.84.49h.13a.47.47,0,0,0,.37-.12h0l1.1-2.24,37.28,7.54-.06,2a.82.82,0,0,0,.5.62l4.2,1h.12a.43.43,0,0,0,.37-.13h0l1.61-1.11a.65.65,0,0,0,.25-.49v-2.1L113.12,29l2.84.25h0a.45.45,0,0,0,.37-.12l1.73-1.49a.61.61,0,0,0,.25-.49v-2.1ZM107.79,32.28l.89-19.41a.64.64,0,0,1,.43-.55l9.66-3.07a.47.47,0,0,1,.61.49L118,25.05ZM60.21,22.64V18.32L103.11,26a.7.7,0,0,0,.49-.13.65.65,0,0,0,.25-.49L103.66,12a.46.46,0,0,1,.57-.45l3.56.81a.62.62,0,0,1,.48.63l-.82,19.34ZM13.1,31.76,12.27,13a.85.85,0,0,1,.64-.87l2.6-.68a.61.61,0,0,1,.77.59L16.2,25.26a1,1,0,0,0,.24.52.73.73,0,0,0,.5.13l42.61-7.58-.09,4.34Zm-11-6.52L.66,10a.59.59,0,0,1,.77-.62L11,12.48a.92.92,0,0,1,.62.81l.95,18.65ZM30.56,13.85a8.5,8.5,0,0,0,2.38.36A17,17,0,0,1,39,15.59c1.36.62,1.81,1.14,1.81,2.13v1.12a3,3,0,0,1-.74,2.26l-1.16.48-22,3.72V15.61a50.81,50.81,0,0,1,7.38-1.11C26.37,14.25,28.46,14.23,30.56,13.85ZM48,11.08a70.05,70.05,0,0,1,7.47,1.39A5.9,5.9,0,0,1,59,14.41c.49,1.24,1.24,2.62.25,3.61L40.8,21a3.08,3.08,0,0,0,.62-1.86v-.62c0-1.11.12-2.47-2.11-3.33a44.92,44.92,0,0,0-5.91-1.31,18.16,18.16,0,0,1,5.25-1.72A58.82,58.82,0,0,1,48,11.08Zm12.1-1.25h0a81.74,81.74,0,0,1,8.75,1.4c-.86.12-3.45.94-4,1.06-1.36.25-4.41.88-4.88,2.82-.45-1.85-3.3-2.61-4.66-2.85a19.65,19.65,0,0,0-2.86-.85C55.32,10.66,60,9.83,60.08,9.83Zm11.73,1.4a47.17,47.17,0,0,1,8.36.61,55.9,55.9,0,0,1,6.41,1.92,51.54,51.54,0,0,0-6,1.4c-2.23.74-2.11,2.22-2.11,3.33v.62a5.89,5.89,0,0,0,1.18,2.51l-19-3.51c-1-1-.25-2.34.25-3.7.12-.37,1.73-1.23,3.46-1.48S70.57,11.23,71.81,11.23Zm17.77,2.68a55.49,55.49,0,0,0,6.19,1,75,75,0,0,1,7.63,1.4v9.35L81.23,21.83l-.74-.18c-.3-.12-1-.07-1.65-1.87a7.82,7.82,0,0,1,0-1.28,2.51,2.51,0,0,1,1.56-2.74,32.21,32.21,0,0,1,6.72-1.85A8.44,8.44,0,0,0,89.58,13.91Zm25.35-6.2,3.92.68a.21.21,0,0,1,0,.4l-10.13,3.29a.82.82,0,0,1-.41,0l-3.89-.83a.27.27,0,0,1,0-.52l10.14-3A.78.78,0,0,1,114.93,7.71ZM92.39,1.36a.79.79,0,0,1,.88-.5c1.51.28,3.49.31,4.9.53,3,.37,9.13.49,11.72.61a11.62,11.62,0,0,0,2.29-.13l.75-.14c1.44-.15,2.44.32,1.74,2.73a16.92,16.92,0,0,1-1.09,3.24l-10.1,3a.86.86,0,0,0-.5.61l-.12,4.44c-2.35-.49-4.77-1-7.12-1.22-1.72-.11-3.55-.34-5.23-.55a.77.77,0,0,1-.67-.87,22.61,22.61,0,0,1,.45-2.52,16.79,16.79,0,0,0,1.17-4.9A21.62,21.62,0,0,1,92.39,1.36Zm-9.59.47c2.65,0,6-.13,8.7-.25a.39.39,0,0,1,.37.55,14,14,0,0,0-.75,3.69,17.25,17.25,0,0,1-1,4.43,14.16,14.16,0,0,0-.45,2.57.82.82,0,0,1-.73.69c-.6,0-1.38,0-1.81,0l-1-.18a37.54,37.54,0,0,0-6-1.92c-2.59-.37-5.31-.62-7.91-.74v-.37a10.91,10.91,0,0,1,.25-1.24c.25-1,.62-2.23.86-3.46.32-1.89.64-3.75.88-4.65a.4.4,0,0,1,.5-.28A54.46,54.46,0,0,0,82.8,1.83ZM61,.42a1.53,1.53,0,0,1,.44-.17,37.12,37.12,0,0,0,4.48.36l1.76,0c.37,0,1.4-.11,2.14-.11A13.12,13.12,0,0,1,73.55.7a.43.43,0,0,1,.28.61A27.26,27.26,0,0,0,73,5.85c-.25,1.11-.3,1.82-.54,2.8a6,6,0,0,0-.31,1.52l-.07.68c-.47,0-1.84.21-2.61.23a.54.54,0,0,1-.22-.05c-2.28-1-6.48-1-8.42-1.24a.58.58,0,0,1-.52-.58V4.68C59.94,2.83,60.63.67,61,.42ZM49.74.38a17.48,17.48,0,0,0,2.47.14h1.36a29.34,29.34,0,0,0,4.71,0l1.27.09c.37.25.53,2,.41,3.87a37,37,0,0,0,0,4.61.65.65,0,0,1-.6.68,20.26,20.26,0,0,0-7.07,1.46c-.74-.12-3.75-.42-4.25-.42l0-.25A5.15,5.15,0,0,0,47.79,9a28.32,28.32,0,0,1-.85-3.41c-.32-1.57-.27-3.33-.72-4.45a.47.47,0,0,1,.45-.64C47.93.54,48.72.28,49.74.38ZM37.12,1.63c1.46-.11,6-.83,8-1.24a.55.55,0,0,1,.65.43c.21,1,.44,3.13.74,4.94.25,1.11.62,2.47.87,3.46a11.86,11.86,0,0,1,.25,1.24v.37c-2.72.12-5.32.37-8,.74a23.1,23.1,0,0,0-6.43,2.1.75.75,0,0,1-.49-.12,6.25,6.25,0,0,1-1.49-.12,15.89,15.89,0,0,0-.74-3.34,17.48,17.48,0,0,1-1-4.33,16.21,16.21,0,0,0-1.2-3.84.41.41,0,0,1,.42-.56C31.34,1.6,34.39,1.63,37.12,1.63ZM5.3,2.38c.13-.25,1.08-.46,2.07-.46l2.94,0a93,93,0,0,0,11.34-.63c1.48-.23,3.59-.57,5.18-.73a.59.59,0,0,1,.58.35A17.07,17.07,0,0,1,29,5.57,12.57,12.57,0,0,0,30,10a34.51,34.51,0,0,1,.69,3.42c-2,.24-4.71.42-6.69.54-2.35.25-4.69.62-7,1.11l-.13-3.83a.82.82,0,0,0-.49-.62L6.63,7.68C5.39,5.21,5.06,2.87,5.3,2.38Zm.31,5.34L15,10.45a.34.34,0,0,1,0,.65l-3.57,1L1.33,8.77a.25.25,0,0,1,0-.48l3.88-.6A.74.74,0,0,1,5.61,7.72ZM1.73,27.12l.1-1.36a.22.22,0,0,1,.34-.18l1.49.9a.37.37,0,0,1,.18.33l-.12,1.78a.21.21,0,0,1-.35.14L1.86,27.45A.41.41,0,0,1,1.73,27.12ZM4,28.64l.07-1.89,2.94,2L4.39,29A.32.32,0,0,1,4,28.64Zm6.57,3.12,1.63.74V35l-1.53-1.16a.23.23,0,0,1-.1-.19Zm6.11,2.32-3.6.89a.21.21,0,0,1-.27-.21V32.53l4.07-.87v2.16A.27.27,0,0,1,16.72,34.08ZM59,25.73l-2.63.54A.27.27,0,0,1,56,26L56,24.25a.38.38,0,0,1,.32-.4l2.64-.48a.3.3,0,0,1,.36.31l-.05,1.77A.28.28,0,0,1,59,25.73Zm1.73-.44,0-1.53a.34.34,0,0,1,.4-.33l2.6.42a.34.34,0,0,1,.29.35v1.72a.31.31,0,0,1-.36.29L61,25.7A.41.41,0,0,1,60.71,25.29Zm42.21,8.36V32a.28.28,0,0,1,.32-.27l3.81.78a.42.42,0,0,1,.34.41v1.67a.3.3,0,0,1-.37.29l-3.87-1A.31.31,0,0,1,102.92,33.65Zm6.29.3-1,.66a.34.34,0,0,1-.52-.28V33.12a.51.51,0,0,1,.21-.41l1.29-1a.19.19,0,0,1,.31.15v1.61A.52.52,0,0,1,109.21,34Zm6.53-7.07.14,2.19-2.49-.31Zm.34,2.14L116,27a.38.38,0,0,1,.17-.36L118,25.39l0,1.79a.28.28,0,0,1-.1.24Z"/><path class="cls-1" d="M17.06,12.11a.32.32,0,0,0-.28.4l.11.69a.33.33,0,0,0,.4.29.34.34,0,0,0,.29-.41l-.12-.68A.32.32,0,0,0,17.06,12.11Z"/><path class="cls-1" d="M19,11.79a.33.33,0,0,0-.29.4l.11.69a.33.33,0,0,0,.4.28.32.32,0,0,0,.29-.4l-.11-.69A.32.32,0,0,0,19,11.79Z"/><path class="cls-1" d="M21.06,11.45a.33.33,0,0,0-.29.4l.11.69a.35.35,0,1,0,.69-.11l-.11-.69A.34.34,0,0,0,21.06,11.45Z"/><path class="cls-1" d="M23.06,11.36a.33.33,0,0,0-.3.39l.1.69a.32.32,0,0,0,.39.3.33.33,0,0,0,.3-.39l-.09-.69A.33.33,0,0,0,23.06,11.36Z"/><path class="cls-1" d="M25,11.09a.33.33,0,0,0-.3.39l.09.7a.34.34,0,0,0,.39.3.33.33,0,0,0,.3-.4l-.09-.69A.33.33,0,0,0,25,11.09Z"/><path class="cls-1" d="M27.08,10.82a.33.33,0,0,0-.3.39l.09.69a.33.33,0,0,0,.39.3.32.32,0,0,0,.3-.39l-.09-.69A.33.33,0,0,0,27.08,10.82Z"/><path class="cls-1" d="M29.18,10.82a.32.32,0,0,0-.32.37l.06.7a.33.33,0,0,0,.38.32.34.34,0,0,0,.32-.38l-.06-.69A.33.33,0,0,0,29.18,10.82Z"/><path class="cls-1" d="M32.11,10.13a.33.33,0,0,0-.29.4l.11.69a.34.34,0,0,0,.4.29.33.33,0,0,0,.29-.4l-.11-.69A.32.32,0,0,0,32.11,10.13Z"/><path class="cls-1" d="M34.07,9.81a.32.32,0,0,0-.28.4l.11.69a.32.32,0,0,0,.4.28.33.33,0,0,0,.29-.4l-.12-.69A.32.32,0,0,0,34.07,9.81Z"/><path class="cls-1" d="M36.1,9.47a.34.34,0,0,0-.29.41l.12.68a.32.32,0,0,0,.4.29.33.33,0,0,0,.29-.4l-.12-.69A.33.33,0,0,0,36.1,9.47Z"/><path class="cls-1" d="M38.11,9.38a.32.32,0,0,0-.3.39l.09.69a.33.33,0,0,0,.39.3.33.33,0,0,0,.3-.39l-.09-.69A.33.33,0,0,0,38.11,9.38Z"/><path class="cls-1" d="M40.08,9.11a.34.34,0,0,0-.3.39l.1.7a.35.35,0,1,0,.69-.1l-.09-.69A.33.33,0,0,0,40.08,9.11Z"/><path class="cls-1" d="M42.12,8.84a.33.33,0,0,0-.3.39l.09.69a.35.35,0,0,0,.7-.09l-.1-.69A.33.33,0,0,0,42.12,8.84Z"/><path class="cls-1" d="M44.27,8.73a.33.33,0,0,0-.32.38L44,9.8a.35.35,0,0,0,.69-.05l-.05-.7A.33.33,0,0,0,44.27,8.73Z"/><path class="cls-1" d="M46.37,8.68a.32.32,0,0,0-.32.37l.06.7a.32.32,0,0,0,.37.32.33.33,0,0,0,.32-.38L46.74,9A.32.32,0,0,0,46.37,8.68Z"/><path class="cls-1" d="M48,8.14a.33.33,0,0,0-.33.37l0,.7a.35.35,0,0,0,.69-.05l0-.69A.33.33,0,0,0,48,8.14Z"/><path class="cls-1" d="M49.82,8a.33.33,0,0,0-.34.36l0,.69a.35.35,0,1,0,.69,0v-.7A.33.33,0,0,0,49.82,8Z"/><path class="cls-1" d="M51.87,7.85a.33.33,0,0,0-.33.36l0,.7a.33.33,0,0,0,.37.33.32.32,0,0,0,.33-.36l0-.7A.33.33,0,0,0,51.87,7.85Z"/><path class="cls-1" d="M53.89,7.77a.32.32,0,0,0-.32.37l.06.7a.33.33,0,0,0,.38.32.34.34,0,0,0,.32-.38l-.06-.7A.32.32,0,0,0,53.89,7.77Z"/><path class="cls-1" d="M56,7.64a.34.34,0,0,0-.33.38l.05.69a.34.34,0,0,0,.38.33.34.34,0,0,0,.32-.38l0-.69A.33.33,0,0,0,56,7.64Z"/><path class="cls-1" d="M58.11,7.64a.34.34,0,0,0-.36.35v.69a.34.34,0,0,0,.35.36.33.33,0,0,0,.35-.35V8A.33.33,0,0,0,58.11,7.64Z"/><path class="cls-1" d="M60.73,7.47a.33.33,0,0,0-.37.33l0,.69a.33.33,0,0,0,.33.37A.32.32,0,0,0,61,8.54l0-.7A.32.32,0,0,0,60.73,7.47Z"/><path class="cls-1" d="M62.86,7.47a.32.32,0,0,0-.34.35v.7a.33.33,0,0,0,.36.34.32.32,0,0,0,.34-.35v-.7A.33.33,0,0,0,62.86,7.47Z"/><path class="cls-1" d="M65.09,7.47a.32.32,0,0,0-.36.33l0,.7a.35.35,0,1,0,.69,0l0-.7A.33.33,0,0,0,65.09,7.47Z"/><path class="cls-1" d="M67.45,7.47a.33.33,0,0,0-.37.33l0,.7a.32.32,0,0,0,.33.36.33.33,0,0,0,.37-.33l0-.69A.32.32,0,0,0,67.45,7.47Z"/><path class="cls-1" d="M69.84,7.64a.34.34,0,0,0-.37.33l0,.7a.35.35,0,1,0,.7,0l0-.7A.34.34,0,0,0,69.84,7.64Z"/><path class="cls-1" d="M72,7.8a.34.34,0,0,0-.39.31l-.07.69a.33.33,0,0,0,.3.39.33.33,0,0,0,.39-.31l.08-.69A.33.33,0,0,0,72,7.8Z"/><path class="cls-1" d="M59.88,7.5a.32.32,0,0,0-.32.37l.06.7a.32.32,0,0,0,.37.32.33.33,0,0,0,.32-.38l-.06-.69A.32.32,0,0,0,59.88,7.5Z"/><path class="cls-1" d="M73.57,7.94a.34.34,0,0,0-.37.33l0,.69a.32.32,0,0,0,.32.37A.33.33,0,0,0,73.86,9l0-.69A.33.33,0,0,0,73.57,7.94Z"/><path class="cls-1" d="M75.56,8.05a.34.34,0,0,0-.37.33l0,.7a.32.32,0,0,0,.33.36.32.32,0,0,0,.37-.32l0-.7A.33.33,0,0,0,75.56,8.05Z"/><path class="cls-1" d="M77.61,8.17a.33.33,0,0,0-.37.33l0,.69a.32.32,0,0,0,.32.37.33.33,0,0,0,.37-.33l0-.7A.33.33,0,0,0,77.61,8.17Z"/><path class="cls-1" d="M79.59,8.43a.32.32,0,0,0-.37.32l-.06.7a.32.32,0,0,0,.31.37.32.32,0,0,0,.38-.31l.06-.7A.33.33,0,0,0,79.59,8.43Z"/><path class="cls-1" d="M81.8,8.75a.33.33,0,0,0-.38.32l-.06.69a.35.35,0,0,0,.7.06l.06-.69A.33.33,0,0,0,81.8,8.75Z"/><path class="cls-1" d="M84,9.13a.33.33,0,0,0-.38.32l-.06.69a.33.33,0,0,0,.32.38.32.32,0,0,0,.37-.32l.06-.69A.33.33,0,0,0,84,9.13Z"/><path class="cls-1" d="M88.55,10.27a.33.33,0,0,0-.4.3l-.09.69a.33.33,0,0,0,.3.4.33.33,0,0,0,.39-.3l.1-.69A.34.34,0,0,0,88.55,10.27Z"/><path class="cls-1" d="M86.28,9.58a.32.32,0,0,0-.39.3l-.1.69a.35.35,0,1,0,.69.09l.1-.69A.33.33,0,0,0,86.28,9.58Z"/><path class="cls-1" d="M90.57,10.74a.33.33,0,0,0-.37.33l0,.69a.35.35,0,1,0,.7,0l0-.69A.33.33,0,0,0,90.57,10.74Z"/><path class="cls-1" d="M92.56,10.85a.33.33,0,0,0-.37.33l0,.7a.35.35,0,0,0,.7,0l0-.7A.33.33,0,0,0,92.56,10.85Z"/><path class="cls-1" d="M94.61,11a.32.32,0,0,0-.37.32l0,.7a.35.35,0,1,0,.7,0l0-.7A.32.32,0,0,0,94.61,11Z"/><path class="cls-1" d="M96.59,11.31a.32.32,0,0,0-.38.31l-.06.7a.34.34,0,0,0,.32.38.33.33,0,0,0,.38-.32l.06-.7A.32.32,0,0,0,96.59,11.31Z"/><path class="cls-1" d="M98.58,11.48a.33.33,0,0,0-.38.31l-.06.7a.33.33,0,0,0,.32.38.32.32,0,0,0,.37-.32l.06-.7A.32.32,0,0,0,98.58,11.48Z"/><path class="cls-1" d="M100.62,11.65a.34.34,0,0,0-.38.32l-.06.7a.35.35,0,0,0,.7.06l.06-.7A.33.33,0,0,0,100.62,11.65Z"/><path class="cls-1" d="M102.68,12.11a.32.32,0,0,0-.39.29l-.1.7a.33.33,0,0,0,.3.39.33.33,0,0,0,.39-.3l.1-.69A.33.33,0,0,0,102.68,12.11Z"/><path class="cls-1" d="M12.61,25.83h39.8a.39.39,0,0,1,.39.39v0a.43.43,0,0,1-.43.43H12.61a.06.06,0,0,1-.06-.06v-.69a.06.06,0,0,1,.06-.06Z" transform="translate(-4.46 6.81) rotate(-11.15)"/><rect class="cls-1" x="53.7" y="21.4" width="2.19" height="0.83" rx="0.41" transform="translate(-3.18 11.01) rotate(-11.15)"/></g></g></svg>