<svg xmlns="http://www.w3.org/2000/svg" viewBox="0 0 109.13 58.21"><defs><style>.cls-1{fill:#1a1a1a;}</style></defs><g id="Layer_2" data-name="Layer 2"><g id="Longue_coffee_table" data-name="Longue coffee table"><path class="cls-1" d="M90.17,42.07H87.33c-.39,0-.71.24-.71.53s.32.52.71.52h2.84c.39,0,.71-.23.71-.52S90.56,42.07,90.17,42.07Z"/><path class="cls-1" d="M106.26,53,93.16,29.44h13.46c2.19-.06,2.47-1.52,2.51-1.93s-.3-2-2.74-1.95H3.43c-3,0-3.33,1-3.4,1.43-.1.62-.1,2.45,2.86,2.45l11.9.08L3.42,53.59c-.09.29-.58,1.46-1.21,2.92-.1.23-.92,1.64.31,1.65l.68,0,.77,0c1.62,0,1.93-.34,2.34-1l7.77-13.88,69.44-.2c1,0,.92-.54.92-.61s0-.45-1-.45l-68.69-.14,2.59-4.71c.2-.35,1.67-3.26,4-3.28l66.3.25c2,0,2.89,2.05,3.49,2.9l12.3,19.77c.4.7.91,1.27,2.54,1.27l1.34,0h0c2.77,0,1.66-.61.21-3C106.86,53.91,106.41,53.29,106.26,53ZM4.08,29.05s-3.76.4-3.63-1.67c.1-1.52,3.7-1.3,3.7-1.3s101.12-.14,102-.09,2.63,0,2.63,1.33-1.54,1.46-1.54,1.46ZM104.76,57.46S90.17,33.55,89,33.39c-.47-.06-68.83-.38-70,.13S5.08,57.67,5.08,57.67H2.25l13.53-27.9H92.13l16.39,27.72Z"/><path d="M69.05,12.52a4.48,4.48,0,0,0,2.17.61h.19a7.15,7.15,0,0,0,.76,2h-.84a1.14,1.14,0,0,0-1.14,1.13v8.42a1.14,1.14,0,0,0,1.14,1.13h9.15a1.14,1.14,0,0,0,1.14-1.13V16.26a1.14,1.14,0,0,0-1.14-1.13h-1a7.32,7.32,0,0,0,.33-.69l.06,0h.28a3,3,0,0,0,1.52-.4,1.78,1.78,0,0,0,.89-1.35,1.75,1.75,0,0,0-.65-1.47,3,3,0,0,0-1.56-.68,8.49,8.49,0,0,0-.14-.88,6.07,6.07,0,0,0,1.1-1.48c1.2-2.29.76-4.91-1-5.83a3.2,3.2,0,0,0-2.89.05,2.31,2.31,0,0,0-3.19-.19,1.8,1.8,0,0,0-.35,1.58,3,3,0,0,0,.87,1.47c0,.1-.08.2-.13.32a4.84,4.84,0,0,0-2.53,2.3l-.3-.19c-1.72-1-3.75-.74-4.52.59S67.32,11.52,69.05,12.52Zm4.79-5.78A3.32,3.32,0,0,1,75.41,6v9.09H73.84Zm6,4.73a6.65,6.65,0,0,1-1,3.66h-.6V7.07A6.29,6.29,0,0,1,79.82,11.47Zm-2.24-4.9v8.56H76V6A3.23,3.23,0,0,1,77.58,6.57ZM81,16.26v8.42a.53.53,0,0,1-.53.53H71.33a.53.53,0,0,1-.53-.53V16.26a.53.53,0,0,1,.53-.53h9.15A.53.53,0,0,1,81,16.26Zm.51-4.56a1.08,1.08,0,0,1-.16,1.85,2.29,2.29,0,0,1-1.32.31,7.57,7.57,0,0,0,.38-2.39c0-.09,0-.18,0-.27A2.18,2.18,0,0,1,81.52,11.7Zm-.74-3.77A5,5,0,0,1,80,9a6.5,6.5,0,0,0-.27-.66s0,0,0,0V2.8a1.78,1.78,0,0,1,.29.12C81.51,3.68,81.83,5.93,80.78,7.93ZM79.17,2.67V7.32A4.76,4.76,0,0,0,77.6,5.88V3l.08,0A2.94,2.94,0,0,1,79.17,2.67Zm-4.67,1a1.17,1.17,0,0,1,.22-1,1.64,1.64,0,0,1,2.16.11,5.69,5.69,0,0,0-1.81,2A2.33,2.33,0,0,1,74.5,3.69Zm1,1.51,0,0A5.16,5.16,0,0,1,77,3.4V5.61a3.6,3.6,0,0,0-1.17-.2l-.45,0A2.67,2.67,0,0,1,75.5,5.2ZM73.24,7.32v7.81h-.36a6.65,6.65,0,0,1-1-3.66A6.48,6.48,0,0,1,73.24,7.32ZM71.85,8.46a7.49,7.49,0,0,0-.61,3,9.26,9.26,0,0,0,.07,1l-.51,0V7.91a4.61,4.61,0,0,1,.72.33A3.78,3.78,0,0,1,71.85,8.46Zm-1.66-.7v4.6a4.39,4.39,0,0,1-.84-.37L69,11.76v-4A3,3,0,0,1,70.19,7.76Zm-2.36.85A1.49,1.49,0,0,1,68.4,8v3.19A2.27,2.27,0,0,1,67.83,8.61Z"/><path d="M48.3,23.09V15.61a1.12,1.12,0,0,1,1.13-1.11h9.7a1.12,1.12,0,0,1,1.13,1.11v7.48A2.93,2.93,0,0,1,57.31,26H51.24A2.92,2.92,0,0,1,48.3,23.09Zm.82-7.82v8.65a1.52,1.52,0,0,0,1.51,1.53h7.29a1.53,1.53,0,0,0,1.51-1.53V15.27Z"/><path d="M44.45,20.43v-3a1.05,1.05,0,0,1,.9-1.11h3.77v6.77H46.71A2.46,2.46,0,0,1,44.45,20.43ZM48.37,17H45.09v3.88a1.48,1.48,0,0,0,1.49,1.47h1.79Z"/><path class="cls-1" d="M51.47,12.08a.35.35,0,0,1-.34-.31c-.08-.93.62-1.6,1.79-2.7.38-.36.8-.76,1.27-1.23,1.58-1.6.68-2.54.64-2.58a.34.34,0,0,1,.48-.49A1.88,1.88,0,0,1,55.81,6a3.3,3.3,0,0,1-1.13,2.28c-.48.48-.91.89-1.29,1.24-1,1-1.63,1.55-1.58,2.14a.35.35,0,0,1-.31.38Z"/><path class="cls-1" d="M56.29,12.08a.34.34,0,0,1-.34-.29c-.08-.53.29-1.15.85-2.09a19,19,0,0,0,1.92-3.94A5,5,0,0,0,57.29.6a.34.34,0,0,1,0-.48.35.35,0,0,1,.48,0A5.78,5.78,0,0,1,59.37,6a20.46,20.46,0,0,1-2,4.08,4.29,4.29,0,0,0-.76,1.64.33.33,0,0,1-.29.38Z"/></g></g></svg>