<svg xmlns="http://www.w3.org/2000/svg" viewBox="0 0 120.54 41.02"><defs><style>.cls-1{fill:#1a1a1a;}</style></defs><g id="Layer_2" data-name="Layer 2"><g id="Meuble_TV" data-name="Meuble TV"><path d="M119.24,0H1.29A1.29,1.29,0,0,0,0,1.29V35.54a1.29,1.29,0,0,0,1.29,1.29h1.6a1.3,1.3,0,0,1,1.3,1.3h0A2.89,2.89,0,0,0,7.08,41h6.16a2.66,2.66,0,0,0,2.66-2.66v-.23a1.3,1.3,0,0,1,1.3-1.3h86.14a1.3,1.3,0,0,1,1.29,1.3v.4A2.5,2.5,0,0,0,107.12,41h6.54a2.69,2.69,0,0,0,2.69-2.7v-.19a1.3,1.3,0,0,1,1.3-1.3h1.59a1.3,1.3,0,0,0,1.3-1.29V1.29A1.3,1.3,0,0,0,119.24,0ZM41,17.69H79.19A1.29,1.29,0,0,1,80.48,19V34.39a1.3,1.3,0,0,1-1.29,1.3H41a1.3,1.3,0,0,1-1.29-1.3V19A1.29,1.29,0,0,1,41,17.69Zm38.21-1H41a1.29,1.29,0,0,1-1.29-1.29V3.33A1.3,1.3,0,0,1,41,2H79.19a1.3,1.3,0,0,1,1.29,1.3V15.45A1.29,1.29,0,0,1,79.19,16.74ZM13.5,40.5H6.78a2.11,2.11,0,0,1-2.11-2.11v-.26A1.3,1.3,0,0,1,6,36.83h8.18a1.3,1.3,0,0,1,1.3,1.3v.43A1.94,1.94,0,0,1,13.5,40.5ZM2.06,35.69H1.14V3.33A1.3,1.3,0,0,1,2.44,2h35a1.3,1.3,0,0,1,1.3,1.3V34.39a1.3,1.3,0,0,1-1.3,1.3H2.06Zm111.71,5h-6.66a2.1,2.1,0,0,1-2.1-2.1v-.46a1.3,1.3,0,0,1,1.29-1.3h8.4a1.3,1.3,0,0,1,1.3,1.3v.34A2.22,2.22,0,0,1,113.77,40.69Zm5.75-5H82.76a1.3,1.3,0,0,1-1.3-1.3V3.33A1.3,1.3,0,0,1,82.76,2h35.47a1.3,1.3,0,0,1,1.29,1.3Z"/><rect x="31.98" y="12.82" width="2.05" height="12.76" rx="1.02"/><rect x="85.41" y="12.48" width="2.05" height="12.76" rx="1.02"/><path class="cls-1" d="M56.39,7.9a.74.74,0,0,0-.74.74,2.22,2.22,0,0,0,2.22,2.23h4.44a2.23,2.23,0,0,0,2.22-2.23.74.74,0,1,0-1.48,0,.75.75,0,0,1-.74.75H57.87a.75.75,0,0,1-.74-.75A.74.74,0,0,0,56.39,7.9Z"/><path class="cls-1" d="M56.57,25.2a.74.74,0,0,0-.74.74,2.23,2.23,0,0,0,2.22,2.23h4.44a2.23,2.23,0,0,0,2.22-2.23.74.74,0,0,0-1.48,0,.75.75,0,0,1-.74.75H58.05a.75.75,0,0,1-.74-.75A.74.74,0,0,0,56.57,25.2Z"/><path class="cls-1" d="M1.14,31.16a.73.73,0,0,0-.75.72v1.45a.73.73,0,0,0,.75.72.74.74,0,0,0,.76-.72V31.88A.74.74,0,0,0,1.14,31.16Z"/><path class="cls-1" d="M6.17,31.16a.74.74,0,0,0-.76.72v1.45a.74.74,0,0,0,.76.72.73.73,0,0,0,.75-.72V31.88A.73.73,0,0,0,6.17,31.16Z"/><path class="cls-1" d="M11.55,31.16a.74.74,0,0,0-.75.72v1.45a.76.76,0,0,0,1.51,0V31.88A.74.74,0,0,0,11.55,31.16Z"/><path class="cls-1" d="M16.87,31.16a.73.73,0,0,0-.75.72v1.45a.75.75,0,0,0,1.5,0V31.88A.73.73,0,0,0,16.87,31.16Z"/><path class="cls-1" d="M22.54,31.16a.73.73,0,0,0-.75.72v1.45a.73.73,0,0,0,.75.72.74.74,0,0,0,.76-.72V31.88A.74.74,0,0,0,22.54,31.16Z"/><path class="cls-1" d="M27.6,31.16a.74.74,0,0,0-.76.72v1.45a.74.74,0,0,0,.76.72.73.73,0,0,0,.75-.72V31.88A.73.73,0,0,0,27.6,31.16Z"/><path class="cls-1" d="M33.27,31.16a.73.73,0,0,0-.75.72v1.45a.73.73,0,0,0,.75.72.74.74,0,0,0,.76-.72V31.88A.74.74,0,0,0,33.27,31.16Z"/><path class="cls-1" d="M38.71,31.16a.73.73,0,0,0-.75.72v1.45a.75.75,0,0,0,1.5,0V31.88A.73.73,0,0,0,38.71,31.16Z"/><path class="cls-1" d="M81.71,31.16a.74.74,0,0,0-.76.72v1.45a.74.74,0,0,0,.76.72.73.73,0,0,0,.75-.72V31.88A.73.73,0,0,0,81.71,31.16Z"/><path class="cls-1" d="M86.73,31.16a.74.74,0,0,0-.75.72v1.45a.76.76,0,0,0,1.51,0V31.88A.74.74,0,0,0,86.73,31.16Z"/><path class="cls-1" d="M92.12,31.16a.73.73,0,0,0-.75.72v1.45a.73.73,0,0,0,.75.72.74.74,0,0,0,.76-.72V31.88A.74.74,0,0,0,92.12,31.16Z"/><path class="cls-1" d="M97.44,31.16a.74.74,0,0,0-.76.72v1.45a.76.76,0,0,0,1.51,0V31.88A.74.74,0,0,0,97.44,31.16Z"/><path class="cls-1" d="M103.11,31.16a.73.73,0,0,0-.75.72v1.45a.75.75,0,0,0,1.5,0V31.88A.73.73,0,0,0,103.11,31.16Z"/><path class="cls-1" d="M108.16,31.16a.74.74,0,0,0-.75.72v1.45a.76.76,0,0,0,1.51,0V31.88A.74.74,0,0,0,108.16,31.16Z"/><path class="cls-1" d="M113.84,31.16a.74.74,0,0,0-.76.72v1.45a.74.74,0,0,0,.76.72.73.73,0,0,0,.75-.72V31.88A.73.73,0,0,0,113.84,31.16Z"/><path class="cls-1" d="M119.28,31.16a.74.74,0,0,0-.76.72v1.45a.76.76,0,0,0,1.51,0V31.88A.74.74,0,0,0,119.28,31.16Z"/></g></g></svg>