<svg xmlns="http://www.w3.org/2000/svg" viewBox="0 0 108.42 69.37"><g id="Layer_2" data-name="Layer 2"><g id="Meridienne"><path d="M103.05,40.22c.94-5.22.25-9.41-2.1-12.44-2.64-3.39-7.2-5.28-13.62-5.46C77,22,55.88,11.86,41.89,5.14L36,2.36C22.48-4,11.8,4.37,9.65,6.32H8.92C4,6.93.51,11,.06,16.64c-.31,3.9.63,7,2.8,9.25a13,13,0,0,0,8.6,3.37A263.86,263.86,0,0,1,19.88,54.5v6.42a1.33,1.33,0,0,0,1.32,1.33h3.58l-4.55,4.9a1.32,1.32,0,0,0,1,2.22h6.61a1.35,1.35,0,0,0,1-.42L35,62.25H93.3L99.52,69a1.35,1.35,0,0,0,1,.42h6.61a1.32,1.32,0,0,0,1-2.22l-4.55-4.9h3.59a1.33,1.33,0,0,0,1.32-1.33V47.71A8,8,0,0,0,103.05,40.22Zm-68.54-37,6,2.91C56,13.6,77.12,23.89,88.33,24.3c5.76.2,9.79,1.75,12,4.62,1.93,2.53,2.48,6.18,1.65,10.85H28.52c-2.27-8.08-4-14.17-6.64-22.14l-.76-2.17a13.79,13.79,0,0,0-9.47-9.39C18.08,1.34,27.34-.28,34.51,3.19ZM6,17.24A1.41,1.41,0,0,0,4.3,18.37,1.39,1.39,0,0,0,5.43,20c.88.29,4.33,3.3,5.66,7.93-3.61.67-6.38-2.11-8-3.58-1.7-1.7-2.2-5.16-1.93-8.49.36-4.59,3-7.82,7-8.3,5.64-.68,9.34,1.4,11.61,8l.67,1.65C24.68,29,27.82,41.48,30.75,53.64h-10C17.45,42.21,11,18.15,6,17.24Zm19.8,51.55H22.14a.53.53,0,0,1-.34-.93l6.59-5.63h5.53l-7.3,6.24A1.34,1.34,0,0,1,25.75,68.79ZM106,68.51h-3.07a2,2,0,0,1-1.31-.5L95,62.23h5.14l6.14,5.4A.5.5,0,0,1,106,68.51Zm.55-7.44h-85a.77.77,0,0,1-.77-.78v-5a.76.76,0,0,1,.77-.77h85a.77.77,0,0,1,.77.77v5A.78.78,0,0,1,106.51,61.07Zm.77-8.09H31.57c-.94-4.28-1.86-8.16-2.76-11.78h72.94a5.72,5.72,0,0,1,5.53,5.89Z"/><path d="M42.13,33.69a.33.33,0,0,1-.29,0l-2.4-1.41L38,34.63a.31.31,0,0,1-.23.17.33.33,0,0,1-.29,0l-2.36-1.42-1.41,2.39a.33.33,0,0,1-.23.18.36.36,0,0,1-.29,0l-2.39-1.42-1.42,2.4a.35.35,0,0,1-.23.18.22.22,0,0,1-.25-.06l-1.5-.88c.15.59.28,1.24.4,1.88l1.93,1.14,1.41-2.4a.43.43,0,0,1,.23-.18.33.33,0,0,1,.29,0L34.08,38,35.5,35.6a.36.36,0,0,1,.23-.18.37.37,0,0,1,.29,0l2.39,1.41,1.41-2.39a.45.45,0,0,1,.24-.18.34.34,0,0,1,.29.05l2.39,1.41,1.13-1.93c-.2-.62-.39-1.21-.55-1.84l-1,1.52A.31.31,0,0,1,42.13,33.69Z"/><path d="M27.68,31.05a.33.33,0,0,1-.29-.05L25,29.6c.39.74.7,1.49,1,2.25l2.21,1.3,1.41-2.4a.47.47,0,0,1,.23-.18.36.36,0,0,1,.29.05L32.51,32l1.41-2.39a.42.42,0,0,1,.23-.18.36.36,0,0,1,.29,0l2.4,1.41,1.41-2.39a.43.43,0,0,1,.23-.18.33.33,0,0,1,.29.05l2.39,1.41,1.3-2.21c-.09-.81-.14-1.63-.19-2.45l-1.45,2.4a.47.47,0,0,1-.23.18.39.39,0,0,1-.29,0l-2.4-1.41-1.41,2.4a.43.43,0,0,1-.23.18.44.44,0,0,1-.29-.05l-2.35-1.38L32.21,29.8A.43.43,0,0,1,32,30a.39.39,0,0,1-.29-.05L29.3,28.52l-1.42,2.4A.44.44,0,0,1,27.68,31.05Z"/><path d="M44.78,36.43l-.66-1.63-1,1.69a.42.42,0,0,1-.23.18.43.43,0,0,1-.29,0l-2.4-1.41L38.8,37.61a.43.43,0,0,1-.23.18.39.39,0,0,1-.29,0l-2.36-1.42-1.41,2.4a.47.47,0,0,1-.23.18.44.44,0,0,1-.29,0l-2.4-1.41-1.41,2.39A.36.36,0,0,1,30,40a.34.34,0,0,1-.25,0L28,39l.21,1.74,2.3,1.35,1.41-2.39a.43.43,0,0,1,.23-.18.33.33,0,0,1,.29.05l2.39,1.41,1.42-2.4a.35.35,0,0,1,.23-.17.33.33,0,0,1,.29,0l2.39,1.41,1.41-2.39a.41.41,0,0,1,.24-.18.37.37,0,0,1,.29,0l2.39,1.42Z"/><path d="M41.36,30.7a.36.36,0,0,1-.29,0l-2.4-1.41-1.41,2.39a.37.37,0,0,1-.52.14l-2.36-1.43L33,32.75a.43.43,0,0,1-.23.18.39.39,0,0,1-.29,0l-2.39-1.41-1.42,2.39a.36.36,0,0,1-.23.18.34.34,0,0,1-.25,0l-1.69-1c.26.69.47,1.35.68,2L29,36.08l1.41-2.39a.43.43,0,0,1,.23-.18.33.33,0,0,1,.29.05L33.31,35l1.41-2.39a.37.37,0,0,1,.52-.14l2.39,1.41L39,31.46a.45.45,0,0,1,.24-.18.37.37,0,0,1,.29,0L42,32.74,43,30.91c-.14-.68-.28-1.4-.38-2.09l-1.07,1.7A.35.35,0,0,1,41.36,30.7Z"/><path d="M45.16,37.28l-1.27,2.16a.47.47,0,0,1-.23.18.43.43,0,0,1-.29,0L41,38.16l-1.41,2.4a.43.43,0,0,1-.23.18.39.39,0,0,1-.29-.05l-2.35-1.38L35.28,41.7a.47.47,0,0,1-.23.18.43.43,0,0,1-.29,0l-2.4-1.42L31,42.82a.43.43,0,0,1-.23.18c-.07,0-.17,0-.26-.1L28.3,41.63c0,.75.07,1.5.07,2.29a1,1,0,0,0,1.46.86,31.33,31.33,0,0,1,15.52-4,1,1,0,0,0,.85-1.46C45.84,38.66,45.49,38,45.16,37.28Z"/><path d="M24.57,28.87a.4.4,0,0,1,.49-.09l2.4,1.41,1.41-2.39a.39.39,0,0,1,.23-.18.36.36,0,0,1,.29,0l2.4,1.41,1.41-2.39a.4.4,0,0,1,.23-.18.33.33,0,0,1,.29.05L36.11,28l1.41-2.4a.39.39,0,0,1,.24-.17.33.33,0,0,1,.29,0l2.39,1.41,1.41-2.39a.4.4,0,0,1,.48-.16v-.44A1,1,0,0,0,40.88,23a31.35,31.35,0,0,1-15.52,4,1,1,0,0,0-1,1.48A1.47,1.47,0,0,1,24.57,28.87Z"/></g></g></svg>