<svg xmlns="http://www.w3.org/2000/svg" viewBox="0 0 113.84 116.67"><defs><style>.cls-1{fill:#1a1a1a;}</style></defs><g id="Layer_2" data-name="Layer 2"><g id="Salon_fauteil" data-name="Salon/ fauteil"><path class="cls-1" d="M32.25,0A17.22,17.22,0,0,0,15.18,17.5V38.89H9.49A9.51,9.51,0,0,0,0,48.61v35a5.66,5.66,0,0,0,5.69,5.83h1.9v1.94a5.67,5.67,0,0,0,5.69,5.84h5.51L17.45,111a4.9,4.9,0,0,0,1.34,3.89,5.34,5.34,0,0,0,3.6,1.75,4.91,4.91,0,0,0,4.74-3.7l4.55-15.74H83.86L88.41,113a5.31,5.31,0,0,0,4.93,3.7A4.63,4.63,0,0,0,97,114.92,6.06,6.06,0,0,0,98.28,111L97,97.23h3.6a5.67,5.67,0,0,0,5.7-5.84V89.45h1.89a5.67,5.67,0,0,0,5.7-5.83v-35a9.52,9.52,0,0,0-9.49-9.72H98.66V17.5A17.22,17.22,0,0,0,81.58,0ZM30.53,2.15H82.8a13.93,13.93,0,0,1,14.07,14V38.46a5.81,5.81,0,0,0-4,5.58V58.93H20.36L20.48,44a5.81,5.81,0,0,0-4-5.58V16.11A13.93,13.93,0,0,1,30.53,2.15ZM40.08,21.7a2.79,2.79,0,1,0,2.79,2.79A2.78,2.78,0,0,0,40.08,21.7Zm16.76,0a2.79,2.79,0,1,0,2.79,2.79A2.79,2.79,0,0,0,56.84,21.7Zm16.76,0a2.79,2.79,0,1,0,2.79,2.79A2.79,2.79,0,0,0,73.6,21.7ZM48.46,32.87a2.8,2.8,0,1,0,2.79,2.79A2.78,2.78,0,0,0,48.46,32.87Zm16.76,0A2.8,2.8,0,1,0,68,35.66,2.79,2.79,0,0,0,65.22,32.87ZM8,40.68h9.32a2.09,2.09,0,0,1,2.33,2.09V58.91l-7.12,0c-4,0-5.37.33-5.37,3.89l0,25.48H3.61c-1.4,0-3.06-2.84-3.06-4.1V47.35C.55,43.79,4,40.68,8,40.68Zm88.31,0h9.38c4,0,7.75,3.44,7.75,7.09V84.21c.12,2.78-3.11,4-4.52,4l-2.41,0,.06-23.84c0-3.65-1.09-5.38-5.08-5.38H93.93V42.82A2.12,2.12,0,0,1,96.28,40.68ZM10.08,60h93.53a1.9,1.9,0,0,1,2,2V89.84c0,3.84-2.32,5.41-3.54,5.41H11.62a3.51,3.51,0,0,1-2-.59c-1.21-.87-1.52-2.32-1.52-4.82V87.19H83.38c1.22,0,1.43-.15,1.43-.86,0-.5-.24-.67-1.46-.67l-75.3,0V62A1.9,1.9,0,0,1,10.08,60Zm16.81,7.09a1.32,1.32,0,0,0-1.4,1.4v2.79a1.4,1.4,0,0,0,2.8,0V68.47A1.32,1.32,0,0,0,26.89,67.07Zm7.9,0a1.32,1.32,0,0,0-1.4,1.4v2.79a1.4,1.4,0,1,0,2.8,0V68.47A1.32,1.32,0,0,0,34.79,67.07Zm8.12,0a1.32,1.32,0,0,0-1.4,1.4v2.79a1.4,1.4,0,1,0,2.8,0V68.47A1.32,1.32,0,0,0,42.91,67.07Zm8,0a1.32,1.32,0,0,0-1.4,1.4v2.79a1.4,1.4,0,1,0,2.79,0V68.47A1.31,1.31,0,0,0,50.88,67.07Zm8.22,0a1.32,1.32,0,0,0-1.4,1.4v2.79a1.4,1.4,0,1,0,2.79,0V68.47A1.31,1.31,0,0,0,59.1,67.07Zm7.79,0a1.32,1.32,0,0,0-1.4,1.4v2.79a1.4,1.4,0,1,0,2.79,0V68.47A1.31,1.31,0,0,0,66.89,67.07Zm8.06,0a1.31,1.31,0,0,0-1.39,1.4v2.79a1.4,1.4,0,1,0,2.79,0V68.47A1.32,1.32,0,0,0,75,67.07Zm8,0a1.32,1.32,0,0,0-1.4,1.4v2.79a1.4,1.4,0,1,0,2.8,0V68.47A1.32,1.32,0,0,0,82.92,67.07Zm8.25,0a1.32,1.32,0,0,0-1.4,1.4v2.79a1.4,1.4,0,1,0,2.8,0V68.47A1.32,1.32,0,0,0,91.17,67.07ZM20.9,97.14h9.4l-7.37,17.1c-.35.67-1,.9-2,.9a3.36,3.36,0,0,1-1.68-.45,1.17,1.17,0,0,1-.68-1.12ZM85,97.26h9.51l2.43,16.07a1.25,1.25,0,0,1-.39,1.37,2.59,2.59,0,0,1-1.7.44,2.47,2.47,0,0,1-2-.9Z"/><path class="cls-1" d="M90.22,85.66a.76.76,0,0,0-.73.77.75.75,0,0,0,.73.76h2.89a.74.74,0,0,0,.72-.76.75.75,0,0,0-.72-.77Z"/></g></g></svg>