<svg xmlns="http://www.w3.org/2000/svg" viewBox="0 0 114.43 109.87"><defs><style>.cls-1{fill:#000e0f;}</style></defs><g id="Layer_2" data-name="Layer 2"><g id="piano"><path d="M109.3,42.21h-6.4L72.38,10.59,90,1.33C90.58,1,91.24.7,91,.27s-.77-.19-1.36.12L9.83,42.21H5.13A5,5,0,0,0,0,46.94V67.81a5,5,0,0,0,5.13,4.74h2.8v34.38a3.07,3.07,0,0,0,3.18,2.94H13.9c1.75,0,2.65-1.78,2.65-3.4V84.6A19.45,19.45,0,0,1,18,77.31l1.87-4.76H94.91l1.52,3.73A22.45,22.45,0,0,1,98.37,84v22.26c0,1.62.75,3.59,2.51,3.59h2.44a3.07,3.07,0,0,0,3.18-2.94V72.55h2.8a5,5,0,0,0,5.13-4.74V46.94A5,5,0,0,0,109.3,42.21ZM71.16,11.08l29.91,31.13h-27l0-8.45a2.21,2.21,0,0,0-2.25-2.38H42.71a2.13,2.13,0,0,0-2.33,2.2v8.63H12.66ZM99.37,59.63a1.06,1.06,0,0,0-1,1.14v5.16H89.8V60.77a1,1,0,1,0-2,0L87.93,66,79.24,66l0-5.27a1,1,0,1,0-2,0l0,5.29H68.72V60.77a1,1,0,1,0-1.94,0l0,5.27-8.6,0,0-5.29a1,1,0,1,0-2,0v5.35H47.63l0-5.35a1,1,0,1,0-1.94,0l0,5.37H37.07l.06-5.37a1,1,0,1,0-2,0v5.42l-8.63.09,0-5.51a1,1,0,1,0-1.95,0l.05,5.51H16V60.77a1.06,1.06,0,0,0-1-1.14,1.06,1.06,0,0,0-1,1.14L14,66.28H9.19V54.54l31.51.12h0l33.05-.09h0l31.37,0V66l-4.8,0V60.77A1.06,1.06,0,0,0,99.37,59.63ZM41,42.18v0s0,0,0,0V33.85A1.8,1.8,0,0,1,42.8,32H57.08V54.11H41Zm16.6,11.93V32H71.58a1.8,1.8,0,0,1,1.77,1.83v8.3h0v12ZM71.72,34.23Zm-55.06,43a21.15,21.15,0,0,0-1.49,7.79V108.2a.66.66,0,0,1-.65.67H9.92a.67.67,0,0,1-.66-.67V72.55h9.28Zm88.67,30.93a.66.66,0,0,1-.64.67h-4.4a.66.66,0,0,1-.64-.67V85.06a21.73,21.73,0,0,0-1.43-7.79l-1.79-4.72h8.9V108.2Zm7.72-39.65a2.68,2.68,0,0,1-2.71,2.65H3.82a2.69,2.69,0,0,1-2.71-2.65V46a2.69,2.69,0,0,1,2.71-2.66H40.39l0,10.38-30.66,0A1.25,1.25,0,0,0,8.51,55V65.88a1.25,1.25,0,0,0,1.27,1.23h94.6a1.25,1.25,0,0,0,1.27-1.23V55a1.25,1.25,0,0,0-1.27-1.23l-30.29,0,0-10.64,36.22.2A2.68,2.68,0,0,1,113.05,46Z"/><path d="M45.74,39.31h7.19a.86.86,0,1,0,0-1.71H45.74a.86.86,0,1,0,0,1.71Z"/><path d="M52.93,43.31H45.74a.86.86,0,1,0,0,1.72h7.19a.86.86,0,1,0,0-1.72Z"/><path d="M52.93,49H45.74a.86.86,0,1,0,0,1.72h7.19a.86.86,0,1,0,0-1.72Z"/><path d="M68.52,37.6H61.34a.86.86,0,1,0,0,1.71h7.18a.86.86,0,1,0,0-1.71Z"/><path d="M68.52,43.31H61.34a.86.86,0,1,0,0,1.72h7.18a.86.86,0,1,0,0-1.72Z"/><path d="M68.52,49H61.34a.86.86,0,1,0,0,1.72h7.18a.86.86,0,1,0,0-1.72Z"/><path class="cls-1" d="M22.32,13.24h-.14l-5.56,1.18a.77.77,0,0,0-.63.75v5.36h-.25a1.9,1.9,0,0,0-2,1.77,1.9,1.9,0,0,0,2,1.77,2.14,2.14,0,0,0,2-2v-4l3.54-.84v2.32h-.25a1.91,1.91,0,0,0-2,1.77,1.91,1.91,0,0,0,2,1.77,2.13,2.13,0,0,0,2-2V14A.76.76,0,0,0,22.32,13.24Zm0,.51a.25.25,0,0,1,.25.25v7.05a1.61,1.61,0,0,1-1.51,1.51,1.41,1.41,0,0,1-1.52-1.26A1.41,1.41,0,0,1,21.06,20a1.68,1.68,0,0,1,.45.06h.06a.26.26,0,0,0,.25-.26V16.9a.26.26,0,0,0-.26-.25h0l-4.05,1a.24.24,0,0,0-.21.25v4.2a1.62,1.62,0,0,1-1.52,1.52,1.41,1.41,0,0,1-1.52-1.27,1.41,1.41,0,0,1,1.52-1.26,2.14,2.14,0,0,1,.45.05h.06a.25.25,0,0,0,.25-.25V15.19a.25.25,0,0,1,.22-.25l5.56-1.19Zm-1.26,1a.26.26,0,0,0-.26.25v.51a.26.26,0,0,0,.26.25.25.25,0,0,0,.25-.25V15A.25.25,0,0,0,21.06,14.72ZM19.79,15a.25.25,0,0,0-.25.25v.51a.25.25,0,0,0,.5,0v-.51A.25.25,0,0,0,19.79,15Zm-1.26.25a.26.26,0,0,0-.26.26V16a.26.26,0,0,0,.26.26.26.26,0,0,0,.25-.26v-.5A.26.26,0,0,0,18.53,15.22Zm-1.27.26a.25.25,0,0,0-.25.25v.51a.25.25,0,0,0,.5,0v-.51A.25.25,0,0,0,17.26,15.48Zm7.59,2.1a.77.77,0,0,0-.76.76v6h-.25a1.9,1.9,0,0,0-2,1.77,1.91,1.91,0,0,0,2,1.77,2.14,2.14,0,0,0,2-2V21.72l2,.79h0a.76.76,0,0,0,1-.73V19.54a.75.75,0,0,0-.53-.72L25.1,17.63h0A1.52,1.52,0,0,0,24.85,17.58Zm0,.51h.07l3.29,1.2a.26.26,0,0,1,.19.24V21.8a.26.26,0,0,1-.26.25h-.07l-2.39-.94h-.07a.26.26,0,0,0-.25.26v4.5a1.62,1.62,0,0,1-1.52,1.52,1.41,1.41,0,0,1-1.52-1.26,1.41,1.41,0,0,1,1.52-1.27,1.63,1.63,0,0,1,.45.06h.06a.26.26,0,0,0,.25-.26V18.34A.25.25,0,0,1,24.85,18.09Zm.51.68a.25.25,0,0,0-.25.25v.51a.25.25,0,0,0,.5,0V19A.25.25,0,0,0,25.36,18.77Zm1.26.5a.26.26,0,0,0-.25.26V20a.26.26,0,0,0,.25.26.26.26,0,0,0,.26-.26v-.5A.26.26,0,0,0,26.62,19.27Zm1.27.51a.25.25,0,0,0-.25.25v.51a.25.25,0,0,0,.5,0V20A.25.25,0,0,0,27.89,19.78Z"/></g></g></svg>