<svg xmlns="http://www.w3.org/2000/svg" viewBox="0 0 108.9 75.77"><defs><style>.cls-1{fill:#1a1a1a;}</style></defs><g id="Layer_2" data-name="Layer 2"><g id="Salon_table_basse" data-name="Salon/ table basse"><path class="cls-1" d="M91.44,50.32H87.36a.85.85,0,1,0,0,1.66h4.08a.85.85,0,1,0,0-1.66Z"/><path class="cls-1" d="M106,67.52,93,30.41l13.43,0c2.18-.09,2.46-2.39,2.5-3a2.69,2.69,0,0,0-2.74-3.07H3.42C.47,24.27.1,25.85,0,26.53c-.1,1-.1,3.85,2.85,3.85l11.87.13-11.34,38c-.09.45-.57,2.31-1.21,4.6-.1.37-.91,2.6.32,2.61l.67,0,.77,0c1.62,0,1.92-.54,2.33-1.64l7.76-21.89,69.29-.31a.84.84,0,0,0,.92-1c0-.13,0-.71-1-.71L14.73,50l2.58-7.42c.2-.55,1.67-5.14,4-5.18l66.16.39c2,.08,2.88,3.25,3.49,4.59l12.27,31.17a2.43,2.43,0,0,0,2.53,2l1.34,0h0c2.77,0,1.66-.95.21-4.75C106.63,69,106.19,68,106,67.52ZM4.08,29.78S.32,30.42.45,27.15c.1-2.4,3.69-2,3.69-2S105,24.88,105.89,25s2.63,0,2.63,2.1a2.2,2.2,0,0,1-1.53,2.3Zm100.46,44.8S90,36.88,88.77,36.64c-.48-.1-68.69-.62-69.89.19S5.07,74.92,5.07,74.92H2.25l13.49-44h76.2l16.35,43.7Z"/><path d="M63.14,11.48a4.38,4.38,0,0,0,2.17.61h.19a6.92,6.92,0,0,0,.76,2h-.84a1.14,1.14,0,0,0-1.14,1.14v8.41a1.14,1.14,0,0,0,1.14,1.14h9.15a1.14,1.14,0,0,0,1.14-1.14V15.23a1.14,1.14,0,0,0-1.14-1.14h-1a6.13,6.13,0,0,0,.33-.68l.06,0h.29A2.85,2.85,0,0,0,75.77,13a1.77,1.77,0,0,0,.89-1.34A1.78,1.78,0,0,0,76,10.21a3,3,0,0,0-1.56-.67,8.08,8.08,0,0,0-.14-.88,6.27,6.27,0,0,0,1.1-1.48c1.2-2.3.76-4.91-1-5.83a3.2,3.2,0,0,0-2.89,0,2.31,2.31,0,0,0-3.19-.18A1.74,1.74,0,0,0,68,2.78a2.89,2.89,0,0,0,.86,1.48l-.13.32a4.8,4.8,0,0,0-2.53,2.3,3.13,3.13,0,0,0-.3-.2c-1.72-1-3.75-.73-4.52.59S61.42,10.48,63.14,11.48Zm4.79-5.77A3.38,3.38,0,0,1,69.5,5v9.09H67.93Zm6,4.73a6.64,6.64,0,0,1-1,3.65h-.59V6A6.3,6.3,0,0,1,73.91,10.44Zm-2.24-4.9v8.55H70.1V5A3,3,0,0,1,71.67,5.54Zm3.43,9.69v8.41a.53.53,0,0,1-.53.53H65.42a.53.53,0,0,1-.53-.53V15.23a.53.53,0,0,1,.53-.53h9.15A.53.53,0,0,1,75.1,15.23Zm.51-4.56a1.16,1.16,0,0,1,.45,1,1.2,1.2,0,0,1-.61.88,2.29,2.29,0,0,1-1.32.31,7.57,7.57,0,0,0,.38-2.39c0-.1,0-.19,0-.28A2.28,2.28,0,0,1,75.61,10.67ZM74.87,6.9A5.27,5.27,0,0,1,74.12,8c-.08-.23-.17-.45-.27-.67,0,0,0,0,0,0V1.76c.1,0,.19.08.29.12C75.6,2.65,75.92,4.9,74.87,6.9ZM73.26,1.64V6.28a4.87,4.87,0,0,0-1.57-1.44V2l.08,0A3,3,0,0,1,73.26,1.64Zm-4.67,1a1.17,1.17,0,0,1,.22-1A1.63,1.63,0,0,1,71,1.72a5.74,5.74,0,0,0-1.81,2A2.35,2.35,0,0,1,68.59,2.66Zm1,1.51,0,0a5.12,5.12,0,0,1,1.48-1.76V4.58a3.61,3.61,0,0,0-1.17-.21,3.4,3.4,0,0,0-.45,0C69.5,4.33,69.54,4.26,69.59,4.17ZM67.33,6.29v7.8H67a6.64,6.64,0,0,1-1-3.65A6.46,6.46,0,0,1,67.33,6.29ZM65.94,7.42a7.54,7.54,0,0,0-.61,3,8.93,8.93,0,0,0,.07,1,2.9,2.9,0,0,1-.51,0V6.88a3.84,3.84,0,0,1,.72.33A3.7,3.7,0,0,1,65.94,7.42Zm-1.66-.7v4.61a4.39,4.39,0,0,1-.84-.37l-.35-.23v-4A3,3,0,0,1,64.28,6.72Zm-2.36.85A1.64,1.64,0,0,1,62.49,7v3.19A2.27,2.27,0,0,1,61.92,7.57Z"/><path d="M42.39,22.06V14.58a1.11,1.11,0,0,1,1.13-1.11h9.7a1.12,1.12,0,0,1,1.13,1.11v7.48a2.92,2.92,0,0,1-3,2.88H45.33A2.91,2.91,0,0,1,42.39,22.06Zm.83-7.83v8.65a1.5,1.5,0,0,0,1.5,1.53H52a1.52,1.52,0,0,0,1.51-1.53V14.23Z"/><path d="M38.54,19.39v-3a1.07,1.07,0,0,1,.9-1.11h3.78V22H40.8A2.46,2.46,0,0,1,38.54,19.39Zm3.92-3.45H39.18v3.88a1.49,1.49,0,0,0,1.5,1.47h1.78Z"/><path class="cls-1" d="M65.23,18.63a.65.65,0,0,0-.69.7v1.39a.65.65,0,0,0,.69.7.66.66,0,0,0,.7-.7V19.33A.66.66,0,0,0,65.23,18.63Z"/><path class="cls-1" d="M67.62,18.63a.66.66,0,0,0-.7.7v1.39a.7.7,0,0,0,1.4,0V19.33A.66.66,0,0,0,67.62,18.63Z"/><path class="cls-1" d="M70.1,18.63a.65.65,0,0,0-.69.7v1.39a.7.7,0,1,0,1.39,0V19.33A.66.66,0,0,0,70.1,18.63Z"/><path class="cls-1" d="M72.69,18.63a.66.66,0,0,0-.7.7v1.39a.7.7,0,1,0,1.4,0V19.33A.66.66,0,0,0,72.69,18.63Z"/><path class="cls-1" d="M74.83,18.63a.66.66,0,0,0-.7.7v1.39a.7.7,0,0,0,1.4,0V19.33A.66.66,0,0,0,74.83,18.63Z"/><path class="cls-1" d="M45.23,12.08a.35.35,0,0,1-.34-.31c-.08-.93.62-1.6,1.8-2.7.37-.36.8-.76,1.27-1.23,1.57-1.6.68-2.54.64-2.58a.34.34,0,0,1,0-.48.34.34,0,0,1,.48,0A1.88,1.88,0,0,1,49.57,6a3.3,3.3,0,0,1-1.13,2.28c-.47.48-.91.89-1.29,1.24-1,1-1.63,1.55-1.58,2.14a.35.35,0,0,1-.31.38Z"/><path class="cls-1" d="M50.05,12.08a.33.33,0,0,1-.33-.29c-.08-.53.29-1.15.85-2.09a19.88,19.88,0,0,0,1.91-3.94A5,5,0,0,0,51.05.6a.35.35,0,0,1,0-.48.34.34,0,0,1,.48,0A5.78,5.78,0,0,1,53.13,6a19.92,19.92,0,0,1-2,4.08,4.26,4.26,0,0,0-.76,1.63.34.34,0,0,1-.29.39Z"/></g></g></svg>