<svg xmlns="http://www.w3.org/2000/svg" viewBox="0 0 108.17 43.08"><defs><style>.cls-1{fill:#1a1a1a;}</style></defs><g id="Layer_2" data-name="Layer 2"><g id="Console"><path d="M106.83,0H1.35C.6,0,0,.45,0,1V5.37c0,.55.6,1,1.35,1H2.8L4.23,41.31a2.35,2.35,0,0,0,2.32,1.77H8c.74,0,1.38-.36,1.74-1.9l1.67-16L15.73,21H92.15L97,25.11l1.12,16.1a2.26,2.26,0,0,0,2.23,1.73h.76a2.31,2.31,0,0,0,2.28-1.73l.38-34.84h3.1c.74,0,1.34-.45,1.34-1V1C108.17.45,107.57,0,106.83,0ZM8.18,42.78H6.45A1.87,1.87,0,0,1,4.53,41L3.77,6.37h7.68L9.65,40C9.65,40.78,9.45,42.78,8.18,42.78Zm3.27-18.71.3-6.37L23.57,6.37H29.3Zm.37-7.36.63-10.34h10.2ZM30.08,6.37h48l7.22,7.53H22.85ZM16.36,20.48l5.77-5.85,63.53-.18,6.15,6ZM96.92,24.4l-17.78-18h7.18l10.44,10Zm-.16-8.91L87.9,6.37h8.86Zm4.64,27.26h-1.33c-.42,0-1.7-.6-1.65-1.34l-.65-35h5.3V40.94C103.16,41.93,101.92,42.75,101.4,42.75ZM106.7,5.6H1.16A.59.59,0,0,1,.57,5V1.08A.59.59,0,0,1,1.16.49H106.7a.58.58,0,0,1,.59.59V5A.58.58,0,0,1,106.7,5.6Z"/><path class="cls-1" d="M19.37,13.78a.73.73,0,0,0-.75.72V16a.73.73,0,0,0,.75.72.74.74,0,0,0,.76-.72V14.5A.74.74,0,0,0,19.37,13.78Z"/><path class="cls-1" d="M24.4,13.78a.74.74,0,0,0-.76.72V16a.74.74,0,0,0,.76.72.73.73,0,0,0,.75-.72V14.5A.73.73,0,0,0,24.4,13.78Z"/><path class="cls-1" d="M29.79,13.78a.74.74,0,0,0-.76.72V16a.76.76,0,0,0,1.51,0V14.5A.74.74,0,0,0,29.79,13.78Z"/><path class="cls-1" d="M35.1,13.78a.73.73,0,0,0-.75.72V16a.75.75,0,0,0,1.5,0V14.5A.73.73,0,0,0,35.1,13.78Z"/><path class="cls-1" d="M40.77,13.78a.74.74,0,0,0-.75.72V16a.76.76,0,0,0,1.51,0V14.5A.74.74,0,0,0,40.77,13.78Z"/><path class="cls-1" d="M46.23,13.78a.74.74,0,0,0-.76.72V16A.76.76,0,0,0,47,16V14.5A.74.74,0,0,0,46.23,13.78Z"/><path class="cls-1" d="M51.81,13.78a.73.73,0,0,0-.75.72V16a.75.75,0,0,0,1.5,0V14.5A.73.73,0,0,0,51.81,13.78Z"/><path class="cls-1" d="M57.39,13.78a.74.74,0,0,0-.75.72V16a.76.76,0,0,0,1.51,0V14.5A.74.74,0,0,0,57.39,13.78Z"/><path class="cls-1" d="M63.46,13.78a.73.73,0,0,0-.75.72V16a.73.73,0,0,0,.75.72.74.74,0,0,0,.76-.72V14.5A.74.74,0,0,0,63.46,13.78Z"/><path class="cls-1" d="M68.78,13.78a.73.73,0,0,0-.75.72V16a.75.75,0,0,0,1.5,0V14.5A.73.73,0,0,0,68.78,13.78Z"/><path class="cls-1" d="M75.61,13.78a.74.74,0,0,0-.76.72V16a.74.74,0,0,0,.76.72.73.73,0,0,0,.75-.72V14.5A.73.73,0,0,0,75.61,13.78Z"/><path class="cls-1" d="M81.53,13.78a.74.74,0,0,0-.76.72V16a.74.74,0,0,0,.76.72.73.73,0,0,0,.75-.72V14.5A.73.73,0,0,0,81.53,13.78Z"/><path class="cls-1" d="M87.44,13.78a.73.73,0,0,0-.75.72V16a.73.73,0,0,0,.75.72A.74.74,0,0,0,88.2,16V14.5A.74.74,0,0,0,87.44,13.78Z"/></g></g></svg>