<svg xmlns="http://www.w3.org/2000/svg" viewBox="0 0 120.54 70.98"><g id="Layer_2" data-name="Layer 2"><g id="TV_grand_ecran" data-name="TV grand ecran"><path d="M60.27,3.36C38,3.36,16.94,2.24.87.12L0,0V65.13L.87,65a481.15,481.15,0,0,1,49.31-3.24v4.86H32.87V71H87.66V66.62H70.36V61.76A417.16,417.16,0,0,1,119.67,65l.87.13V0l-.87.12C103.6,2.24,82.56,3.36,60.27,3.36Zm58.65,59.9C103,61.14,82.18,60,60.27,60S17.56,61.14,1.62,63.26V1.74C17.56,3.86,38.35,5,60.27,5S103,3.86,118.92,1.74ZM86,68.24v1.24H34.49V68.24H86Z"/></g></g></svg>