<svg xmlns="http://www.w3.org/2000/svg" viewBox="0 0 118.4 98.06"><defs><style>.cls-1{fill:#1a1a1a;}</style></defs><g id="Layer_2" data-name="Layer 2"><g id="Buand_aspirateur" data-name="Buand/ aspirateur"><path d="M65.78,90.28H22.62v-1.5H65.78c2.76,0,5-2.6,5-5.79V74c0-8.26-3.49-16-9.33-20.67l-.19-.15a13.74,13.74,0,0,0-8.67-3l-29.47.07a12.52,12.52,0,0,0-10.58,7.1,21.18,21.18,0,0,0-2.42,9.16H8.63a22.81,22.81,0,0,1,2.58-9.84,14,14,0,0,1,11.9-7.91L52.6,48.7h0A15.31,15.31,0,0,1,62.19,52l.21.16c6.19,5,9.89,13.13,9.89,21.84v9C72.29,87,69.37,90.28,65.78,90.28Z"/><path d="M14.21,64.57a14.37,14.37,0,0,0,0,28.74,14.37,14.37,0,0,0,0-28.74Zm0,27A12.76,12.76,0,1,1,27,78.81,12.79,12.79,0,0,1,14.19,91.57Z"/><path class="cls-1" d="M13.68,72a7.55,7.55,0,0,0,0,15.09,7.4,7.4,0,0,0,5.88-2.89,1,1,0,0,0-.16-1.33.93.93,0,0,0-1.31.16,5.55,5.55,0,0,1-4.41,2.17,5.66,5.66,0,0,1,0-11.32.94.94,0,1,0,0-1.88Z"/><path d="M45.69,50H30a2.11,2.11,0,0,1-2.1-2.11v-.48a4.27,4.27,0,0,1,4.26-4.27h11a4.6,4.6,0,0,1,4.59,4.59v.16A2.12,2.12,0,0,1,45.69,50Zm-13.5-5.86a3.27,3.27,0,0,0-3.26,3.27v.48A1.11,1.11,0,0,0,30,49H45.69a1.11,1.11,0,0,0,1.11-1.11v-.16a3.59,3.59,0,0,0-3.59-3.59Z"/><path class="cls-1" d="M38.4,80.5a1.33,1.33,0,0,0,0,2.66h5.28a1.33,1.33,0,0,0,0-2.66Z"/><path class="cls-1" d="M49.21,80.5c-1.05,0-1.75.53-1.75,1.33s.7,1.33,1.75,1.33h7c1.06,0,1.76-.53,1.76-1.33s-.7-1.33-1.76-1.33Z"/><path class="cls-1" d="M56.94,80.5c-1.06,0-1.76.53-1.76,1.33s.7,1.33,1.76,1.33h7c1.06,0,1.76-.53,1.76-1.33S65,80.5,64,80.5Z"/><path class="cls-1" d="M63.5,80.5c-1,0-1.67.53-1.67,1.33s.67,1.33,1.67,1.33h6.7c1,0,1.68-.53,1.68-1.33s-.67-1.33-1.68-1.33Z"/><path d="M70.51,65.6,64.12,54.69l3.75-3.51a2.92,2.92,0,0,1,4.17.57l4.68,6.33a3.32,3.32,0,0,1-.66,4.6ZM65.39,54.87l5.5,9.4,4.64-2.44a2.3,2.3,0,0,0,.39-3.15l-4.68-6.34a1.94,1.94,0,0,0-2.73-.4Z"/><path d="M103.33,64.49c-.18-.28-4.37-7,4.52-23.67,5.38-10.07,9-23.93,4.78-32.23-2.07-4.12-5.88-6.63-11.31-7.45C96.22.37,91.55,2.59,88.5,7.22c-4.39,6.68-4,16.17,1,24.17a10.58,10.58,0,0,1,1.32,9.2C87.91,49.3,74.42,54.78,73.85,55l-.37-.93c.13,0,13.63-5.54,16.34-13.8a9.62,9.62,0,0,0-1.22-8.36c-5.18-8.34-5.54-18.25-.93-25.25,3.22-4.89,8.38-7.33,13.8-6.52,5.77.87,9.83,3.56,12,8,4.63,9.21.31,23.61-4.79,33.15-8.57,16-4.6,22.59-4.56,22.65Z"/><path d="M107.26,78.34H99.51V63.71h7.75Zm-6.75-1h5.75V64.71h-5.75Z"/><path d="M109.54,91.28H97.35V77.34h12.19Zm-11.19-1h10.19V78.34H98.35Z"/><path d="M118.4,98.06h-30V94.48a4.2,4.2,0,0,1,4.19-4.2h21.61a4.22,4.22,0,0,1,4.22,4.22Zm-29-1h28V94.5a3.22,3.22,0,0,0-3.22-3.22H92.57a3.19,3.19,0,0,0-3.19,3.2Z"/><ellipse class="cls-1" cx="23.02" cy="59.53" rx="2.62" ry="2.65"/></g></g></svg>