<svg xmlns="http://www.w3.org/2000/svg" viewBox="0 0 115.85 56.6"><defs><style>.cls-1{fill:#1a1a1a;}</style></defs><g id="Layer_2" data-name="Layer 2"><g id="_2-Banc_de_rangement" data-name="2-Banc de rangement"><path class="cls-1" d="M8.2,52V54.6a2,2,0,0,0,2,2h6.93a2,2,0,0,0,2-2V52Zm10,1.91a1.89,1.89,0,0,1-1.91,1.88H10.9A1.89,1.89,0,0,1,9,54V52.58h9.23Z"/><path class="cls-1" d="M97.67,52.05v2.56a2,2,0,0,0,2,2h6.94a2,2,0,0,0,2-2V52.05ZM107.74,54a1.89,1.89,0,0,1-1.9,1.89h-5.37A1.89,1.89,0,0,1,98.57,54V52.59h9.17Z"/><path class="cls-1" d="M103,0h-90A12.94,12.94,0,0,0,0,12.9V52.39H115.85V12.9A12.94,12.94,0,0,0,103,0Zm11.22,16.06H1.52V13A11.76,11.76,0,0,1,13.14,1.08h89.41A11.75,11.75,0,0,1,114.17,13Zm-75.91,35H1.52V18.14H38.26Zm38.09,0H39.61V18.14H76.35Zm37.82,0H77.44V18.14h36.73Z"/><path class="cls-1" d="M14.7,32.3a1,1,0,0,0-1,1,3.13,3.13,0,0,0,3.11,3.13H23a3.13,3.13,0,0,0,3.11-3.13,1,1,0,1,0-2.07,0,1,1,0,0,1-1,1H16.77a1,1,0,0,1-1-1A1,1,0,0,0,14.7,32.3Z"/><path class="cls-1" d="M52.79,32.3a1,1,0,0,0-1,1,3.13,3.13,0,0,0,3.11,3.13H61.1a3.13,3.13,0,0,0,3.12-3.13,1,1,0,1,0-2.08,0,1,1,0,0,1-1,1H54.86a1,1,0,0,1-1-1A1,1,0,0,0,52.79,32.3Z"/><path class="cls-1" d="M91.69,32.3a1,1,0,0,0-1,1,3.13,3.13,0,0,0,3.12,3.13H100a3.13,3.13,0,0,0,3.12-3.13,1,1,0,1,0-2.08,0,1,1,0,0,1-1,1H93.77a1,1,0,0,1-1-1A1,1,0,0,0,91.69,32.3Z"/><path class="cls-1" d="M3.8,45.85a.76.76,0,0,0-.5.73V48a.76.76,0,0,0,.5.73.74.74,0,0,0,1-.7V46.55A.74.74,0,0,0,3.8,45.85Z"/><path class="cls-1" d="M10.16,45.85a.77.77,0,0,0-.5.73V48a.77.77,0,0,0,.5.73.74.74,0,0,0,1-.7V46.55A.75.75,0,0,0,10.16,45.85Z"/><path class="cls-1" d="M16.53,45.85a.76.76,0,0,0-.5.73V48a.76.76,0,0,0,.5.73.73.73,0,0,0,1-.7V46.55A.74.74,0,0,0,16.53,45.85Z"/><path class="cls-1" d="M23.15,45.85a.76.76,0,0,0-.49.73V48a.76.76,0,0,0,.49.73.74.74,0,0,0,1-.7V46.55A.75.75,0,0,0,23.15,45.85Z"/><path class="cls-1" d="M29.33,45.85a.76.76,0,0,0-.5.73V48a.76.76,0,0,0,.5.73.74.74,0,0,0,1-.7V46.55A.75.75,0,0,0,29.33,45.85Z"/><path class="cls-1" d="M35.51,45.85a.76.76,0,0,0-.5.73V48a.76.76,0,0,0,.5.73.73.73,0,0,0,1-.7V46.55A.74.74,0,0,0,35.51,45.85Z"/><path class="cls-1" d="M41.75,45.85a.76.76,0,0,0-.49.73V48a.76.76,0,0,0,.49.73.74.74,0,0,0,1-.7V46.55A.75.75,0,0,0,41.75,45.85Z"/><path class="cls-1" d="M48.12,45.85a.76.76,0,0,0-.5.73V48a.76.76,0,0,0,.5.73.73.73,0,0,0,1-.7V46.55A.74.74,0,0,0,48.12,45.85Z"/><path class="cls-1" d="M54.49,45.85a.76.76,0,0,0-.5.73V48a.76.76,0,0,0,.5.73.74.74,0,0,0,1-.7V46.55A.74.74,0,0,0,54.49,45.85Z"/><path class="cls-1" d="M61.11,45.85a.76.76,0,0,0-.49.73V48a.76.76,0,0,0,.49.73.74.74,0,0,0,1-.7V46.55A.75.75,0,0,0,61.11,45.85Z"/><path class="cls-1" d="M67.29,45.85a.76.76,0,0,0-.5.73V48a.76.76,0,0,0,.5.73.73.73,0,0,0,1-.7V46.55A.74.74,0,0,0,67.29,45.85Z"/><path class="cls-1" d="M73.47,45.85a.76.76,0,0,0-.5.73V48a.76.76,0,0,0,.5.73.74.74,0,0,0,1-.7V46.55A.74.74,0,0,0,73.47,45.85Z"/><path class="cls-1" d="M79.71,45.85a.76.76,0,0,0-.5.73V48a.76.76,0,0,0,.5.73.73.73,0,0,0,1-.7V46.55A.74.74,0,0,0,79.71,45.85Z"/><path class="cls-1" d="M86.08,45.85a.76.76,0,0,0-.5.73V48a.76.76,0,0,0,.5.73.73.73,0,0,0,1-.7V46.55A.74.74,0,0,0,86.08,45.85Z"/><path class="cls-1" d="M92.44,45.85a.76.76,0,0,0-.49.73V48a.76.76,0,0,0,.49.73.74.74,0,0,0,1-.7V46.55A.75.75,0,0,0,92.44,45.85Z"/><path class="cls-1" d="M99.07,45.85a.76.76,0,0,0-.5.73V48a.76.76,0,0,0,.5.73.73.73,0,0,0,1-.7V46.55A.74.74,0,0,0,99.07,45.85Z"/><path class="cls-1" d="M105.25,45.85a.76.76,0,0,0-.5.73V48a.76.76,0,0,0,.5.73.74.74,0,0,0,1-.7V46.55A.74.74,0,0,0,105.25,45.85Z"/><path class="cls-1" d="M111.42,45.85a.76.76,0,0,0-.49.73V48a.76.76,0,0,0,.49.73.74.74,0,0,0,1-.7V46.55A.75.75,0,0,0,111.42,45.85Z"/></g></g></svg>