<svg xmlns="http://www.w3.org/2000/svg" viewBox="0 0 106.52 119.82"><defs><style>.cls-1{fill:#1a1a1a;}</style></defs><g id="Layer_2" data-name="Layer 2"><g id="Buand_Lave-linge" data-name="Buand/Lave-linge"><path class="cls-1" d="M6.15,0A6.06,6.06,0,0,0,0,6.2V113.62a6.06,6.06,0,0,0,6.15,6.2h94.23a6.06,6.06,0,0,0,6.14-6.2V6.2A6.06,6.06,0,0,0,100.38,0ZM7.26,1.07h94.9c1.3,0,3.26,2,3.26,3.25h0a1.09,1.09,0,0,1-1.09,1.09h-6.5a5.44,5.44,0,0,0-5.43,5.42v6.51a5.44,5.44,0,0,0,5.43,5.42h6.5a1.08,1.08,0,0,1,1.09,1.08V115a3.26,3.26,0,0,1-3.26,3.25H4.55A3.25,3.25,0,0,1,1.3,115V7A6,6,0,0,1,7.26,1.07ZM8.55,8.26a2.91,2.91,0,1,0,2.91,2.91A2.91,2.91,0,0,0,8.55,8.26Zm10,0a2.91,2.91,0,1,0,2.91,2.91A2.91,2.91,0,0,0,18.54,8.26ZM51.19,35.77A28.57,28.57,0,0,0,26.45,50.3a2.31,2.31,0,0,0,.45,2.61A14.92,14.92,0,0,1,31.67,64,15.27,15.27,0,0,1,26.9,75a2.31,2.31,0,0,0-.45,2.61A28.55,28.55,0,0,0,51.19,92.17a28.2,28.2,0,0,0,0-56.4Zm.56.85C66.53,36.62,78.4,48.83,78.4,64S66.52,90.74,51.75,91.44c-8.45.41-20.87-5.39-24.58-15,3.72-5.36,5.48-7,5.48-12.46s-2.81-9.29-5.48-12.77C30.53,42.05,42.54,36.62,51.75,36.62ZM1.84,107.36a1,1,0,0,0-1.08,1.08v2.17a1,1,0,0,0,1.08,1.08,1,1,0,0,0,1.08-1.08v-2.17A1,1,0,0,0,1.84,107.36Zm5.42,0a1,1,0,0,0-1.08,1.08v2.17a1,1,0,0,0,1.08,1.08,1,1,0,0,0,1.09-1.08v-2.17A1,1,0,0,0,7.26,107.36Zm5.43,0a1,1,0,0,0-1.09,1.08v2.17a1,1,0,0,0,1.09,1.08,1,1,0,0,0,1.08-1.08v-2.17A1,1,0,0,0,12.69,107.36Zm5.42,0A1,1,0,0,0,17,108.44v2.17a1.09,1.09,0,0,0,2.17,0v-2.17A1,1,0,0,0,18.11,107.36Zm5.42,0a1,1,0,0,0-1.08,1.08v2.17a1.09,1.09,0,0,0,2.17,0v-2.17A1,1,0,0,0,23.53,107.36Zm5.42,0a1,1,0,0,0-1.08,1.08v2.17a1.09,1.09,0,0,0,2.17,0v-2.17A1,1,0,0,0,29,107.36Zm5.43,0a1,1,0,0,0-1.09,1.08v2.17a1.09,1.09,0,0,0,2.17,0v-2.17A1,1,0,0,0,34.38,107.36Zm5.42,0a1,1,0,0,0-1.08,1.08v2.17a1.08,1.08,0,0,0,2.16,0v-2.17A1,1,0,0,0,39.8,107.36Zm5.42,0a1,1,0,0,0-1.08,1.08v2.17a1.09,1.09,0,0,0,2.17,0v-2.17A1,1,0,0,0,45.22,107.36Zm5.55,0a1,1,0,0,0-1.08,1.08v2.17a1.09,1.09,0,0,0,2.17,0v-2.17A1,1,0,0,0,50.77,107.36Zm5.42,0a1,1,0,0,0-1.08,1.08v2.17a1.09,1.09,0,0,0,2.17,0v-2.17A1,1,0,0,0,56.19,107.36Zm5.43,0a1,1,0,0,0-1.09,1.08v2.17a1.09,1.09,0,0,0,2.17,0v-2.17A1,1,0,0,0,61.62,107.36Zm5.42,0A1,1,0,0,0,66,108.44v2.17a1.08,1.08,0,1,0,2.16,0v-2.17A1,1,0,0,0,67,107.36Zm5.42,0a1,1,0,0,0-1.08,1.08v2.17a1.09,1.09,0,0,0,2.17,0v-2.17A1,1,0,0,0,72.46,107.36Zm5.43,0a1,1,0,0,0-1.09,1.08v2.17a1.09,1.09,0,0,0,2.17,0v-2.17A1,1,0,0,0,77.89,107.36Zm5.42,0a1,1,0,0,0-1.09,1.08v2.17a1.09,1.09,0,0,0,2.17,0v-2.17A1,1,0,0,0,83.31,107.36Zm5.42,0a1,1,0,0,0-1.08,1.08v2.17a1.09,1.09,0,0,0,2.17,0v-2.17A1,1,0,0,0,88.73,107.36Zm5.42,0a1,1,0,0,0-1.08,1.08v2.17a1.09,1.09,0,0,0,2.17,0v-2.17A1,1,0,0,0,94.15,107.36Zm5.3,0a1,1,0,0,0-1.08,1.08v2.17a1.09,1.09,0,0,0,2.17,0v-2.17A1,1,0,0,0,99.45,107.36Zm5.42,0a1,1,0,0,0-1.08,1.08v2.17a1.09,1.09,0,0,0,2.17,0v-2.17A1,1,0,0,0,104.87,107.36Zm.55-85.59H97A4,4,0,0,1,93,17.82V10.51a4.41,4.41,0,0,1,4.41-4.4h8ZM25,20.46H6.86a1.21,1.21,0,0,1-1.22-1.22v-.12A1.22,1.22,0,0,1,6.86,17.9H25a1.22,1.22,0,0,1,1.22,1.22v.12A1.22,1.22,0,0,1,25,20.46Zm61.83-6.85H82.13a1.23,1.23,0,0,1-1.22-1.23v-.11A1.23,1.23,0,0,1,82.13,11h4.71a1.22,1.22,0,0,1,1.22,1.23v.11A1.22,1.22,0,0,1,86.84,13.61Zm0,6.85H30.06a1.22,1.22,0,0,1-1.22-1.22v-.12a1.22,1.22,0,0,1,1.22-1.22H86.84a1.22,1.22,0,0,1,1.22,1.22v.12A1.21,1.21,0,0,1,86.84,20.46Z"/><path class="cls-1" d="M51.64,98.63A34.77,34.77,0,1,1,86.41,63.86,34.8,34.8,0,0,1,51.64,98.63Zm0-68A33.21,33.21,0,1,0,84.85,63.86,33.24,33.24,0,0,0,51.64,30.65Z"/></g></g></svg>