<svg xmlns="http://www.w3.org/2000/svg" viewBox="0 0 115.78 101.28"><defs><style>.cls-1{fill:#1a1a1a;}</style></defs><g id="Layer_2" data-name="Layer 2"><g id="_4-_Meuble_a_chaussures" data-name="4- Meuble a chaussures"><path class="cls-1" d="M110.84,0H4.94A4.94,4.94,0,0,0,0,4.94v87.5H115.78V4.94A4.94,4.94,0,0,0,110.84,0Zm2.51,89.72H2.51V44.81H113.35Zm1.59-47.12H1.14V17.46h113.8Zm0-26.35H1.14V4.94A3.92,3.92,0,0,1,5.07,1H110.69a4.25,4.25,0,0,1,4.25,4.25ZM50.42,70.33a1.53,1.53,0,0,0-1.52,1.53,4.59,4.59,0,0,0,4.57,4.59h9.14a4.59,4.59,0,0,0,4.58-4.59,1.53,1.53,0,1,0-3,0,1.54,1.54,0,0,1-1.53,1.53H53.47A1.53,1.53,0,0,1,52,71.86,1.54,1.54,0,0,0,50.42,70.33Z"/><path class="cls-1" d="M106,91.28,93.49,92.34l.24,2.77a6.75,6.75,0,0,0,7.29,6.15l1.19-.1a4.59,4.59,0,0,0,4.18-5Zm-1.26,6.53a1.78,1.78,0,0,1-1.79,1.77H97.59a1.67,1.67,0,0,1-1.68-1.66V92.44h8.8Z"/><path class="cls-1" d="M10.57,91l-.42,4.91a4.6,4.6,0,0,0,4.19,5l1.19.1a6.74,6.74,0,0,0,7.29-6.14l.23-2.77Zm9.94,6.81a1.78,1.78,0,0,1-1.79,1.77H13.4a1.68,1.68,0,0,1-1.68-1.67V92.43h8.79Z"/><path class="cls-1" d="M108.3,87.27H8.4a2.64,2.64,0,0,1-2.64-2.64V49.9A2.64,2.64,0,0,1,8.4,47.27h99.9a2.63,2.63,0,0,1,2.63,2.63V84.63A2.64,2.64,0,0,1,108.3,87.27ZM8.4,48.42A1.48,1.48,0,0,0,6.92,49.9V84.63A1.48,1.48,0,0,0,8.4,86.11h99.9a1.49,1.49,0,0,0,1.48-1.48V49.9a1.49,1.49,0,0,0-1.48-1.48Z"/><rect class="cls-1" y="36.97" width="115.78" height="1.15"/><path d="M98.43,18.7a.45.45,0,0,0-.16,0c-2.82.29-3.73,3.54-4.53,6.43l-.06.22A22,22,0,0,1,92.15,29a2.13,2.13,0,0,1-1.94,1.19h-.6l-.07,0h0A9.16,9.16,0,0,0,86,32.55a2.07,2.07,0,0,0-.43,1v.25l.21.12a3.56,3.56,0,0,0,1,.36,3,3,0,0,1,.21-.33,10.8,10.8,0,0,1,3.44-2.66.54.54,0,0,1-.31-.27h0a3,3,0,0,0,2.68-1.64,23.25,23.25,0,0,0,1.58-3.75l.06-.22c.77-2.78,1.57-5.64,3.9-5.84a2,2,0,0,1-.1.7.53.53,0,0,0,0,.13c-1.19,1.47-1.82,3.7-2.41,5.78l-.07.26c-.06.22-.13.46-.19.71-.41,1.5-.87,3.21-1.73,4.09a.66.66,0,0,1-.48.19H92.06l-.08,0c-.13.06-3.2,1.45-4.26,2.95a2.3,2.3,0,0,0-.49,1.09v.16l.09.12c.19.23,1.25,1,6.88,1,5.47,0,6.17-1.58,6.53-3.69l0-.27c.13-.77.24-1.51.33-2.16s.18-1.36.3-1.86a47.12,47.12,0,0,1,.57,6.34.41.41,0,1,0,.82,0s.07-2.3.17-4.82a10.42,10.42,0,0,1,.81-3.45,7.75,7.75,0,0,0,.66-2.76c0-3.54-1.81-5.32-2.82-5.32h-.3a.41.41,0,0,0-.16,0,4,4,0,0,0-1.5.46,1.46,1.46,0,0,0-1-.53h-.26Zm2.94.88c.21.37-.55,2.19-.83,2.89-.07.16-.14.31-.19.45A37.58,37.58,0,0,0,98,31.15c-.06.62-.51,1.89-1.55,1.89H94.2a1.76,1.76,0,0,1-1.54-.82h.78a1.49,1.49,0,0,0,1.07-.44c1-1,1.5-2.85,1.93-4.45.06-.24.13-.48.19-.7l.07-.26C97.61,23.12,98.56,19.77,101.37,19.58Z"/><path d="M18.32,23a8.79,8.79,0,0,1-1.25,1.43,4.56,4.56,0,0,1-2.88,1.38,1.39,1.39,0,0,1-1.06-.73.51.51,0,0,0-.29-.25l-.76-.26-.53-.17-.17-.06h-.07l-.15,0a.5.5,0,0,0-.49.38,26.32,26.32,0,0,0-.19,9.53,1.52,1.52,0,0,0,1.18,1.19v.79a.76.76,0,1,0,1.52,0v-.75h1v.75a.76.76,0,1,0,1.52,0v-.75h8.1v.75a.76.76,0,0,0,.76.76.75.75,0,0,0,.75-.76v-.75h1v.75a.76.76,0,0,0,.76.76.75.75,0,0,0,.75-.76v-.75h1v.75a.76.76,0,1,0,1.51,0v-.75h1v.75a.76.76,0,1,0,1.51,0v-.77a2.14,2.14,0,0,0,2-2.18,2.7,2.7,0,0,0-.8-1.92,3.78,3.78,0,0,0-1.67-.84c-1.22-.31-2.59-.32-3.45-.59a16.16,16.16,0,0,1-6.57-3.52.52.52,0,0,0-.1-.11,6,6,0,0,1-.43-.45,5.71,5.71,0,0,1-1-1.53,2,2,0,0,1-.17-.54.51.51,0,0,0-.34-.42l-1.53-.51-.15,0A.5.5,0,0,0,18.32,23Zm1.54,1.19a2.52,2.52,0,0,0,.14.46,6.94,6.94,0,0,0,1.15,1.81l.27.29-4.26,7.66H12a.49.49,0,0,1-.49-.4,26.45,26.45,0,0,1,.1-8.53l.18,0,.62.21a2,2,0,0,0,1.81,1.08,5.4,5.4,0,0,0,3.57-1.65,7,7,0,0,0,1.14-1.3Zm3.27,4-3.44,6.19H18.32l3.85-6.94A10,10,0,0,0,23.13,28.25ZM25,29.39l-2.8,5H20.84L24,28.81C24.3,29,24.65,29.2,25,29.39Zm3.69,1.49c1.11.34,2.46.34,3.5.6a2.78,2.78,0,0,1,1.22.59,1.67,1.67,0,0,1,.49,1.23,1.13,1.13,0,0,1-1.16,1.14H23.37l2.56-4.61A25.52,25.52,0,0,0,28.71,30.88Z"/></g></g></svg>