<svg xmlns="http://www.w3.org/2000/svg" viewBox="0 0 96.74 113.78"><defs><style>.cls-1{fill:#1a1a1a;}</style></defs><g id="Layer_2" data-name="Layer 2"><g id="Buand_Panier_a_linge" data-name="Buand/ Panier a linge"><path class="cls-1" d="M40.45,0a6,6,0,0,0-5,2.71l-6.27,9.48H6.05a6.08,6.08,0,0,0-6,6.1V30.48c0,2.41,3.28,5.09,5.88,5.09H6.3l7.06,69.11a10.08,10.08,0,0,0,10,9.1h50a10.08,10.08,0,0,0,10-9.1L90,35.57h.6c1.63,0,6.18-1.43,6.18-5.09V18.29a6.08,6.08,0,0,0-6-6.1H67.59L61.32,2.71a6,6,0,0,0-5-2.71Zm26.4,12.23H30l6.26-10A5.21,5.21,0,0,1,39.47.48L56.36.41c.84,0,3.35.93,3.82,1.74M7.41,35.57H89l-7.52,71.25a6.42,6.42,0,0,1-6.4,5.74H21.86a6.42,6.42,0,0,1-6.4-5.74Zm83.82-1.13H5.4A4.73,4.73,0,0,1,.67,29.71V18.57a5.52,5.52,0,0,1,5.52-5.52H90.25a5.52,5.52,0,0,1,5.52,5.52V29.9A4.54,4.54,0,0,1,91.23,34.44Zm-34.4,73h-35a1.31,1.31,0,0,1-1.31-1.3h0a1.31,1.31,0,0,1,1.31-1.3H56.83a1.3,1.3,0,0,1,1.3,1.3h0A1.3,1.3,0,0,1,56.83,107.39Zm18.59,0H61.61a1.31,1.31,0,0,1-1.31-1.3h0a1.31,1.31,0,0,1,1.31-1.3H75.42a1.3,1.3,0,0,1,1.3,1.3h0A1.3,1.3,0,0,1,75.42,107.39Z"/><path class="cls-1" d="M4.88,21.58A1,1,0,0,0,3.8,22.66v2.17a1,1,0,0,0,1.08,1.08A1,1,0,0,0,6,24.83V22.66A1,1,0,0,0,4.88,21.58Z"/><path class="cls-1" d="M10.31,21.58a1,1,0,0,0-1.09,1.08v2.17a1,1,0,0,0,1.09,1.08,1,1,0,0,0,1.08-1.08V22.66A1,1,0,0,0,10.31,21.58Z"/><path class="cls-1" d="M15.73,21.58a1,1,0,0,0-1.09,1.08v2.17a1.09,1.09,0,0,0,2.17,0V22.66A1,1,0,0,0,15.73,21.58Z"/><path class="cls-1" d="M21.28,21.58a1,1,0,0,0-1.09,1.08v2.17a1.09,1.09,0,0,0,2.17,0V22.66A1,1,0,0,0,21.28,21.58Z"/><path class="cls-1" d="M26.7,21.58a1,1,0,0,0-1.09,1.08v2.17a1.09,1.09,0,0,0,2.17,0V22.66A1,1,0,0,0,26.7,21.58Z"/><path class="cls-1" d="M32.12,21.58A1,1,0,0,0,31,22.66v2.17a1.09,1.09,0,0,0,2.17,0V22.66A1,1,0,0,0,32.12,21.58Z"/><path class="cls-1" d="M37.54,21.58a1,1,0,0,0-1.08,1.08v2.17a1.09,1.09,0,0,0,2.17,0V22.66A1,1,0,0,0,37.54,21.58Z"/><path class="cls-1" d="M43.29,21.58a1,1,0,0,0-1.08,1.08v2.17a1.09,1.09,0,0,0,2.17,0V22.66A1,1,0,0,0,43.29,21.58Z"/><path class="cls-1" d="M48.71,21.58a1,1,0,0,0-1.08,1.08v2.17a1.09,1.09,0,0,0,2.17,0V22.66A1,1,0,0,0,48.71,21.58Z"/><path class="cls-1" d="M54.14,21.58a1,1,0,0,0-1.09,1.08v2.17a1.09,1.09,0,0,0,2.17,0V22.66A1,1,0,0,0,54.14,21.58Z"/><path class="cls-1" d="M59.69,21.58a1,1,0,0,0-1.09,1.08v2.17a1.09,1.09,0,0,0,2.17,0V22.66A1,1,0,0,0,59.69,21.58Z"/><path class="cls-1" d="M65.11,21.58A1,1,0,0,0,64,22.66v2.17a1.09,1.09,0,0,0,2.17,0V22.66A1,1,0,0,0,65.11,21.58Z"/><path class="cls-1" d="M70.53,21.58a1,1,0,0,0-1.08,1.08v2.17a1.09,1.09,0,0,0,2.17,0V22.66A1,1,0,0,0,70.53,21.58Z"/><path class="cls-1" d="M76,21.58a1,1,0,0,0-1.08,1.08v2.17a1.09,1.09,0,0,0,2.17,0V22.66A1,1,0,0,0,76,21.58Z"/><path class="cls-1" d="M81,21.58a1,1,0,0,0-1.08,1.08v2.17a1.09,1.09,0,0,0,2.17,0V22.66A1,1,0,0,0,81,21.58Z"/><path class="cls-1" d="M86.44,21.58a1,1,0,0,0-1.09,1.08v2.17a1.09,1.09,0,0,0,2.17,0V22.66A1,1,0,0,0,86.44,21.58Z"/><path class="cls-1" d="M91.86,21.58a1,1,0,0,0-1.09,1.08v2.17a1.09,1.09,0,0,0,2.17,0V22.66A1,1,0,0,0,91.86,21.58Z"/></g></g></svg>