<svg xmlns="http://www.w3.org/2000/svg" viewBox="0 0 106.8 120.13"><defs><style>.cls-1{fill:#1a1a1a;}</style></defs><g id="Layer_2" data-name="Layer 2"><g id="Buand_seche_linge" data-name="Buand/ seche linge"><path class="cls-1" d="M6.16,0A6.07,6.07,0,0,0,0,6.21v107.7a6.08,6.08,0,0,0,6.16,6.22h94.48a6.08,6.08,0,0,0,6.16-6.22V6.21A6.07,6.07,0,0,0,100.64,0ZM7.27,1.07h95.16c1.29,0,3.26,2,3.26,3.26h0a1.09,1.09,0,0,1-1.09,1.09H98.08a5.46,5.46,0,0,0-5.44,5.44v6.52a5.46,5.46,0,0,0,5.44,5.44h6.52a1.08,1.08,0,0,1,1.09,1.08v91.34a3.26,3.26,0,0,1-3.26,3.26H4.56a3.26,3.26,0,0,1-3.26-3.26V7A6,6,0,0,1,7.27,1.07Zm1.3,7.21a2.92,2.92,0,1,0,2.92,2.92A2.92,2.92,0,0,0,8.57,8.28Zm10,0a2.92,2.92,0,1,0,2.92,2.92A2.92,2.92,0,0,0,18.59,8.28ZM51.32,35.86a28.63,28.63,0,0,0-24.8,14.57A2.34,2.34,0,0,0,27,53.05a14.92,14.92,0,0,1,4.79,11.09A15.25,15.25,0,0,1,27,75.22a2.35,2.35,0,0,0-.44,2.62,28.63,28.63,0,0,0,24.8,14.57,28.28,28.28,0,0,0,0-56.55Zm.56.86C66.71,36.72,78.6,49,78.6,64.2S66.69,91,51.88,91.68c-8.47.4-20.92-5.4-24.64-15,3.73-5.38,5.5-7,5.5-12.49s-2.83-9.32-5.5-12.81C30.61,42.16,42.65,36.72,51.88,36.72Zm-50,70.91a1,1,0,0,0-1.08,1.09v2.17A1,1,0,0,0,1.84,112a1,1,0,0,0,1.09-1.09v-2.17A1,1,0,0,0,1.84,107.63Zm5.44,0a1,1,0,0,0-1.09,1.09v2.17A1,1,0,0,0,7.28,112a1,1,0,0,0,1.09-1.09v-2.17A1,1,0,0,0,7.28,107.63Zm5.44,0a1,1,0,0,0-1.09,1.09v2.17A1,1,0,0,0,12.72,112a1,1,0,0,0,1.09-1.09v-2.17A1,1,0,0,0,12.72,107.63Zm5.43,0a1,1,0,0,0-1.08,1.09v2.17a1.09,1.09,0,1,0,2.17,0v-2.17A1,1,0,0,0,18.15,107.63Zm5.44,0a1,1,0,0,0-1.09,1.09v2.17a1.09,1.09,0,1,0,2.18,0v-2.17A1,1,0,0,0,23.59,107.63Zm5.44,0a1,1,0,0,0-1.09,1.09v2.17a1.09,1.09,0,0,0,2.18,0v-2.17A1,1,0,0,0,29,107.63Zm5.44,0a1,1,0,0,0-1.09,1.09v2.17a1.09,1.09,0,1,0,2.17,0v-2.17A1,1,0,0,0,34.47,107.63Zm5.43,0a1,1,0,0,0-1.09,1.09v2.17a1.09,1.09,0,0,0,2.18,0v-2.17A1,1,0,0,0,39.9,107.63Zm5.44,0a1,1,0,0,0-1.09,1.09v2.17a1.09,1.09,0,1,0,2.18,0v-2.17A1,1,0,0,0,45.34,107.63Zm5.56,0a1,1,0,0,0-1.09,1.09v2.17a1.09,1.09,0,0,0,2.18,0v-2.17A1,1,0,0,0,50.9,107.63Zm5.44,0a1,1,0,0,0-1.09,1.09v2.17a1.09,1.09,0,0,0,2.18,0v-2.17A1,1,0,0,0,56.34,107.63Zm5.43,0a1,1,0,0,0-1.08,1.09v2.17a1.09,1.09,0,1,0,2.17,0v-2.17A1,1,0,0,0,61.77,107.63Zm5.44,0a1,1,0,0,0-1.09,1.09v2.17a1.09,1.09,0,0,0,2.18,0v-2.17A1,1,0,0,0,67.21,107.63Zm5.44,0a1,1,0,0,0-1.09,1.09v2.17a1.09,1.09,0,0,0,2.18,0v-2.17A1,1,0,0,0,72.65,107.63Zm5.44,0A1,1,0,0,0,77,108.72v2.17a1.09,1.09,0,1,0,2.17,0v-2.17A1,1,0,0,0,78.09,107.63Zm5.43,0a1,1,0,0,0-1.09,1.09v2.17a1.09,1.09,0,0,0,2.18,0v-2.17A1,1,0,0,0,83.52,107.63Zm5.44,0a1,1,0,0,0-1.09,1.09v2.17a1.09,1.09,0,0,0,2.18,0v-2.17A1,1,0,0,0,89,107.63Zm5.44,0a1,1,0,0,0-1.09,1.09v2.17a1.09,1.09,0,1,0,2.17,0v-2.17A1,1,0,0,0,94.4,107.63Zm5.31,0a1,1,0,0,0-1.09,1.09v2.17a1.09,1.09,0,1,0,2.17,0v-2.17A1,1,0,0,0,99.71,107.63Zm5.43,0a1,1,0,0,0-1.08,1.09v2.17a1.09,1.09,0,1,0,2.17,0v-2.17A1,1,0,0,0,105.14,107.63Zm.55-85.81H97.2a3.94,3.94,0,0,1-4-3.94V10.53a4.4,4.4,0,0,1,4.41-4.4h8Zm-80.61-1.3H6.87A1.22,1.22,0,0,1,5.65,19.3v-.13A1.22,1.22,0,0,1,6.87,18H25.08a1.22,1.22,0,0,1,1.22,1.22v.13A1.22,1.22,0,0,1,25.08,20.52Zm62-6.88H82.34a1.22,1.22,0,0,1-1.22-1.22v-.13a1.22,1.22,0,0,1,1.22-1.22h4.73a1.22,1.22,0,0,1,1.22,1.22v.13A1.22,1.22,0,0,1,87.07,13.64Zm0,6.88H30.14a1.22,1.22,0,0,1-1.22-1.22v-.13A1.22,1.22,0,0,1,30.14,18H87.07a1.22,1.22,0,0,1,1.22,1.22v.13A1.22,1.22,0,0,1,87.07,20.52Z"/><path class="cls-1" d="M41.33,75.68a1.1,1.1,0,0,1-.75-.31,1,1,0,0,1,0-1.49c2.78-2.73,4.23-4.55,1.63-10.12-1.32-2.83-1.56-5.33-.71-7.43a6.89,6.89,0,0,1,3.59-3.67,1.05,1.05,0,0,1,.77,2,4.85,4.85,0,0,0-2.43,2.52c-.6,1.53-.37,3.46.68,5.73,3.12,6.68,1.11,9.4-2.06,12.51A1.06,1.06,0,0,1,41.33,75.68Z"/><path class="cls-1" d="M51,75.68a1.1,1.1,0,0,1-.75-.31,1.06,1.06,0,0,1,0-1.49c2.79-2.73,4.24-4.55,1.64-10.12-1.32-2.83-1.56-5.33-.71-7.43a6.86,6.86,0,0,1,3.59-3.67,1.05,1.05,0,0,1,.76,2,4.89,4.89,0,0,0-2.42,2.52c-.6,1.53-.37,3.46.68,5.73,3.12,6.68,1.11,9.4-2.06,12.51A1.06,1.06,0,0,1,51,75.68Z"/><path class="cls-1" d="M61.35,75.68a1.1,1.1,0,0,1-.75-.31,1.06,1.06,0,0,1,0-1.49c2.79-2.73,4.24-4.55,1.64-10.12-1.32-2.83-1.56-5.33-.72-7.43a6.93,6.93,0,0,1,3.6-3.67,1.05,1.05,0,0,1,.77,2,4.85,4.85,0,0,0-2.43,2.52c-.6,1.53-.37,3.46.68,5.73,3.12,6.68,1.11,9.4-2.06,12.51A1.06,1.06,0,0,1,61.35,75.68Z"/><path class="cls-1" d="M51.78,98.88A34.86,34.86,0,1,1,86.63,64,34.9,34.9,0,0,1,51.78,98.88Zm0-68.15A33.29,33.29,0,1,0,85.06,64,33.33,33.33,0,0,0,51.78,30.73Z"/></g></g></svg>