<svg xmlns="http://www.w3.org/2000/svg" viewBox="0 0 112.42 119.21"><defs><style>.cls-1{fill:#1a1a1a;}</style></defs><g id="Layer_2" data-name="Layer 2"><g id="Chambre_armoire_dressing" data-name="Chambre/ armoire dressing"><path class="cls-1" d="M78.56,112.66h2.85c4.44,0,4.93,0,5-6V12.56a1.71,1.71,0,0,1,1.71-1.7h21.17c1.18,0,3-2.71,3.07-3.95h0c.37-3.84-.72-4.74-1-5.16A8.51,8.51,0,0,0,110,.67a5.32,5.32,0,0,0-2.45-.58L84.74,0H5C2.24,0,0,2.71,0,6a6.31,6.31,0,0,0,2.55,5.24,1.72,1.72,0,0,1,.77,1.41v93.94c-.12,5,1.08,6,5,6H78.56M6,10.92h37.5a1.3,1.3,0,0,1,1.37,1.23v98.2a1.3,1.3,0,0,1-1.37,1.23h-37c-1.34,0-1.83-.7-1.83-2.1V12.15A1.3,1.3,0,0,1,6,10.92Zm41.33,0H84a1.29,1.29,0,0,1,1.34,1.23v97.33c0,1.83-.95,2.1-1.79,2.1H47.28a1.29,1.29,0,0,1-1.35-1.23V12.15A1.29,1.29,0,0,1,47.28,10.92ZM35.34,55.14a1.17,1.17,0,0,0-.63,1.12v6.65A1.15,1.15,0,0,0,35.34,64c.64.25,1.22-.33,1.22-1.07V56.21C36.56,55.47,36,54.9,35.34,55.14Zm20,0a1.18,1.18,0,0,0-.63,1.13V63a1.18,1.18,0,0,0,.63,1.13c.64.24,1.22-.34,1.22-1.08v-6.8C56.61,55.47,56,54.89,55.39,55.14ZM98.76,29.47a.64.64,0,0,0-.9.07l-3,2.89a.59.59,0,1,0,.82.83l3-2.89A.64.64,0,0,0,98.76,29.47ZM100.45,33c-.22-.22-.68-.12-1,.23L95.55,37c-.36.35-.47.8-.25,1s.68.11,1-.23L100.2,34C100.56,33.68,100.67,33.22,100.45,33ZM52.33,103a1,1,0,0,0-.62.91v1.77a1,1,0,0,0,.62.91.93.93,0,0,0,1.23-.88v-1.84A.93.93,0,0,0,52.33,103Zm8.89,0a.94.94,0,0,0-.63.91v1.77a.94.94,0,0,0,.63.91.92.92,0,0,0,1.22-.88v-1.84A.92.92,0,0,0,61.22,103Zm8.51,0a.94.94,0,0,0-.63.91v1.77a.94.94,0,0,0,.63.91.92.92,0,0,0,1.22-.88v-1.84A.92.92,0,0,0,69.73,103Zm8.59,0a1,1,0,0,0-.62.91v1.77a1,1,0,0,0,.62.91.93.93,0,0,0,1.23-.88v-1.84A.93.93,0,0,0,78.32,103Zm-66.91,0a.94.94,0,0,0-.63.91v1.77a.94.94,0,0,0,.63.91.93.93,0,0,0,1.22-.88v-1.84A.93.93,0,0,0,11.41,103Zm8.88,0a.94.94,0,0,0-.63.91v1.77a.93.93,0,1,0,1.86,0v-1.84A.93.93,0,0,0,20.29,103Zm8.51,0a.94.94,0,0,0-.63.91v1.77a.94.94,0,0,0,.63.91.92.92,0,0,0,1.22-.88v-1.84A.92.92,0,0,0,28.8,103Zm8.59,0a1,1,0,0,0-.62.91v1.77a1,1,0,0,0,.62.91.93.93,0,0,0,1.23-.88v-1.84A.93.93,0,0,0,37.39,103ZM106.54,9.85H5.78a4.49,4.49,0,0,1-4.5-4.5h0A4.5,4.5,0,0,1,5.78.85H106.54a4.5,4.5,0,0,1,4.5,4.5h0A4.49,4.49,0,0,1,106.54,9.85Z"/><path d="M105.77,119.21H11.29a2.55,2.55,0,0,1-2.55-2.54v-2.41a2.55,2.55,0,0,1,2.55-2.54h94.48a2.55,2.55,0,0,1,2.55,2.54v2.41A2.55,2.55,0,0,1,105.77,119.21Zm-94.48-6.45a1.51,1.51,0,0,0-1.51,1.5v2.41a1.52,1.52,0,0,0,1.51,1.51h94.48a1.52,1.52,0,0,0,1.51-1.51v-2.41a1.51,1.51,0,0,0-1.51-1.5Z"/><path class="cls-1" d="M105.53,112.72H85.36V10.12h24.82v97.95A4.65,4.65,0,0,1,105.53,112.72Zm-19.2-1h19.2a3.7,3.7,0,0,0,3.69-3.69v-97H86.33Z"/><path class="cls-1" d="M102.13,88H91.82a1.7,1.7,0,0,1-1.7-1.71V17.33a1.71,1.71,0,0,1,1.7-1.71h10.31a1.72,1.72,0,0,1,1.71,1.71v69A1.71,1.71,0,0,1,102.13,88ZM91.82,16.62a.7.7,0,0,0-.7.71v69a.7.7,0,0,0,.7.71h10.31a.71.71,0,0,0,.71-.71V17.33a.71.71,0,0,0-.71-.71Z"/><path class="cls-1" d="M102.13,103.49H91.82a1.71,1.71,0,0,1-1.7-1.71V95a1.71,1.71,0,0,1,1.7-1.71h10.31A1.72,1.72,0,0,1,103.84,95v6.77A1.72,1.72,0,0,1,102.13,103.49ZM91.82,94.3a.7.7,0,0,0-.7.71v6.77a.7.7,0,0,0,.7.71h10.31a.71.71,0,0,0,.71-.71V95a.71.71,0,0,0-.71-.71Z"/></g></g></svg>