<svg xmlns="http://www.w3.org/2000/svg" viewBox="0 0 74.82 120.11"><defs><style>.cls-1{fill:#1a1a1a;}</style></defs><g id="Layer_2" data-name="Layer 2"><g id="_20-bibliotheque" data-name="20-bibliotheque"><path class="cls-1" d="M66.93,109.25l-13.54,1.16.26,3a7.3,7.3,0,0,0,7.91,6.67l1.29-.11a5,5,0,0,0,4.54-5.39Zm-1.37,7.09a1.93,1.93,0,0,1-1.94,1.92H57.84a1.82,1.82,0,0,1-1.83-1.8v-5.95h9.55Z"/><path class="cls-1" d="M9,109.32l-.45,5.26a4.92,4.92,0,0,0,4.49,5.32l1.27.11a7.23,7.23,0,0,0,7.81-6.58l.25-3Zm10.65,7.29a1.9,1.9,0,0,1-1.91,1.89H12.06a1.78,1.78,0,0,1-1.8-1.78v-5.87h9.42Z"/><path d="M69.69,0H5.13C2.3,0,0,2.76,0,6.17V106.49c0,2.39,1.61,4.32,3.59,4.32H71.23c2,0,3.59-1.93,3.59-4.32V6.17C74.82,2.76,72.52,0,69.69,0Zm4.15,104.82c0,2.18-1.47,3.94-3.29,3.94H4.28c-1.82,0-3.3-1.76-3.3-3.94v-22H73.84Zm0-23.25H1v-26H73.85Zm0-27.19H1v-26H73.85Zm0-27.11H1V6C1,3.39,2.73,1.3,4.88,1.3H70c2.15,0,3.89,2.09,3.89,4.66Z"/><path class="cls-1" d="M20.22,28.16a1.69,1.69,0,0,1-.85-.23l-5.43-3.14a1.7,1.7,0,0,1-.62-2.32L22.45,6.66a1.68,1.68,0,0,1,1-.79A1.75,1.75,0,0,1,24.77,6L30.2,9.18a1.7,1.7,0,0,1,.62,2.32L21.69,27.31a1.71,1.71,0,0,1-1.47.85ZM23.92,7h-.13a.53.53,0,0,0-.31.24L14.35,23.07a.5.5,0,0,0,.19.69L20,26.9a.55.55,0,0,0,.38.05.53.53,0,0,0,.31-.24L29.79,10.9a.51.51,0,0,0,.05-.38.53.53,0,0,0-.24-.31L24.17,7.07A.54.54,0,0,0,23.92,7Z"/><path class="cls-1" d="M54.12,82.44a1,1,0,0,1-.24,0,1.66,1.66,0,0,1-1.12-.65l-11-14.57A1.69,1.69,0,0,1,41.42,66a1.68,1.68,0,0,1,.66-1.12l5-3.79a1.72,1.72,0,0,1,1.26-.32,1.66,1.66,0,0,1,1.12.65l11,14.57a1.69,1.69,0,0,1,.33,1.25,1.68,1.68,0,0,1-.66,1.12l-5,3.79A1.71,1.71,0,0,1,54.12,82.44Zm-6-20.55a.54.54,0,0,0-.3.1l-5,3.79a.5.5,0,0,0-.2.33.52.52,0,0,0,.1.38l11,14.56a.53.53,0,0,0,.71.1l5-3.79a.5.5,0,0,0,.2-.33.52.52,0,0,0-.1-.38l-11-14.56a.46.46,0,0,0-.34-.19Z"/><path class="cls-1" d="M30.91,28.15a1.71,1.71,0,0,1-.84-.23l-5.44-3.14A1.7,1.7,0,0,1,24,22.46L33.33,6.31a1.69,1.69,0,0,1,1-.79,1.66,1.66,0,0,1,1.29.17l5.43,3.13a1.69,1.69,0,0,1,.79,1,1.66,1.66,0,0,1-.17,1.29L32.39,27.29A1.7,1.7,0,0,1,30.91,28.15Zm3.9-21.49a.52.52,0,0,0-.44.25L25.05,23.06a.55.55,0,0,0-.05.38.51.51,0,0,0,.24.3l5.43,3.14a.55.55,0,0,0,.38.05.51.51,0,0,0,.3-.24l9.32-16.14a.46.46,0,0,0,0-.38.48.48,0,0,0-.23-.31L35.06,6.73A.47.47,0,0,0,34.81,6.66Z"/><path class="cls-1" d="M49.41,28H43.14a1.7,1.7,0,0,1-1.7-1.7V7.66A1.7,1.7,0,0,1,43.14,6h6.27a1.71,1.71,0,0,1,1.71,1.7V26.31A1.71,1.71,0,0,1,49.41,28ZM43.14,7.16a.51.51,0,0,0-.5.5V26.31a.51.51,0,0,0,.5.5h6.27a.5.5,0,0,0,.5-.5V7.66a.5.5,0,0,0-.5-.5Z"/><path class="cls-1" d="M58.42,28H52.15a1.7,1.7,0,0,1-1.7-1.7V7.66A1.7,1.7,0,0,1,52.15,6h6.27a1.71,1.71,0,0,1,1.71,1.7V26.31A1.71,1.71,0,0,1,58.42,28ZM52.15,7.16a.51.51,0,0,0-.5.5V26.31a.51.51,0,0,0,.5.5h6.27a.5.5,0,0,0,.5-.5V7.66a.5.5,0,0,0-.5-.5Z"/><path class="cls-1" d="M67.55,28H61.28a1.7,1.7,0,0,1-1.7-1.7V7.66A1.7,1.7,0,0,1,61.28,6h6.27a1.71,1.71,0,0,1,1.71,1.7V26.31A1.71,1.71,0,0,1,67.55,28ZM61.28,7.16a.51.51,0,0,0-.5.5V26.31a.51.51,0,0,0,.5.5h6.27a.5.5,0,0,0,.5-.5V7.66a.5.5,0,0,0-.5-.5Z"/><path class="cls-1" d="M14.57,108.86H8.3a1.71,1.71,0,0,1-1.7-1.71V88.51a1.7,1.7,0,0,1,1.7-1.7h6.27a1.71,1.71,0,0,1,1.71,1.7v18.64A1.72,1.72,0,0,1,14.57,108.86ZM8.3,88a.5.5,0,0,0-.5.5v18.64a.5.5,0,0,0,.5.5h6.27a.5.5,0,0,0,.51-.5V88.51a.5.5,0,0,0-.51-.5Z"/><path class="cls-1" d="M23.59,108.86H17.32a1.72,1.72,0,0,1-1.71-1.71V88.51a1.71,1.71,0,0,1,1.71-1.7h6.27a1.7,1.7,0,0,1,1.7,1.7v18.64A1.71,1.71,0,0,1,23.59,108.86ZM17.32,88a.5.5,0,0,0-.5.5v18.64a.5.5,0,0,0,.5.5h6.27a.5.5,0,0,0,.5-.5V88.51a.5.5,0,0,0-.5-.5Z"/><path class="cls-1" d="M32.72,108.86H26.45a1.72,1.72,0,0,1-1.71-1.71V88.51a1.71,1.71,0,0,1,1.71-1.7h6.27a1.7,1.7,0,0,1,1.7,1.7v18.64A1.71,1.71,0,0,1,32.72,108.86ZM26.45,88a.5.5,0,0,0-.51.5v18.64a.5.5,0,0,0,.51.5h6.27a.5.5,0,0,0,.5-.5V88.51a.5.5,0,0,0-.5-.5Z"/><path class="cls-1" d="M41.13,108.86H34.86a1.71,1.71,0,0,1-1.7-1.71V88.51a1.7,1.7,0,0,1,1.7-1.7h6.27a1.71,1.71,0,0,1,1.71,1.7v18.64A1.72,1.72,0,0,1,41.13,108.86ZM34.86,88a.5.5,0,0,0-.5.5v18.64a.5.5,0,0,0,.5.5h6.27a.5.5,0,0,0,.5-.5V88.51a.5.5,0,0,0-.5-.5Z"/><path class="cls-1" d="M50.29,108.86H44a1.71,1.71,0,0,1-1.7-1.71V88.51a1.7,1.7,0,0,1,1.7-1.7h6.27a1.7,1.7,0,0,1,1.7,1.7v18.64A1.71,1.71,0,0,1,50.29,108.86ZM44,88a.5.5,0,0,0-.5.5v18.64a.5.5,0,0,0,.5.5h6.27a.5.5,0,0,0,.5-.5V88.51a.5.5,0,0,0-.5-.5Z"/><path class="cls-1" d="M58.71,108.86H52.44a1.72,1.72,0,0,1-1.71-1.71V88.51a1.71,1.71,0,0,1,1.71-1.7h6.27a1.7,1.7,0,0,1,1.7,1.7v18.64A1.71,1.71,0,0,1,58.71,108.86ZM52.44,88a.5.5,0,0,0-.5.5v18.64a.5.5,0,0,0,.5.5h6.27a.5.5,0,0,0,.5-.5V88.51a.5.5,0,0,0-.5-.5Z"/><path class="cls-1" d="M67.18,108.86H60.91a1.71,1.71,0,0,1-1.7-1.71V88.51a1.7,1.7,0,0,1,1.7-1.7h6.27a1.71,1.71,0,0,1,1.71,1.7v18.64A1.72,1.72,0,0,1,67.18,108.86ZM60.91,88a.5.5,0,0,0-.5.5v18.64a.5.5,0,0,0,.5.5h6.27a.5.5,0,0,0,.5-.5V88.51a.5.5,0,0,0-.5-.5Z"/><path class="cls-1" d="M14.38,82.6H8.11a1.71,1.71,0,0,1-1.7-1.71V62.25a1.7,1.7,0,0,1,1.7-1.7h6.27a1.7,1.7,0,0,1,1.7,1.7V80.89A1.71,1.71,0,0,1,14.38,82.6ZM8.11,61.75a.5.5,0,0,0-.5.5V80.89a.5.5,0,0,0,.5.5h6.27a.5.5,0,0,0,.5-.5V62.25a.5.5,0,0,0-.5-.5Z"/><path class="cls-1" d="M23.39,82.6H17.12a1.71,1.71,0,0,1-1.7-1.71V62.25a1.7,1.7,0,0,1,1.7-1.7h6.27a1.71,1.71,0,0,1,1.71,1.7V80.89A1.72,1.72,0,0,1,23.39,82.6ZM17.12,61.75a.5.5,0,0,0-.5.5V80.89a.5.5,0,0,0,.5.5h6.27a.5.5,0,0,0,.5-.5V62.25a.5.5,0,0,0-.5-.5Z"/><path class="cls-1" d="M32.52,82.6H26.25a1.71,1.71,0,0,1-1.7-1.71V62.25a1.7,1.7,0,0,1,1.7-1.7h6.27a1.71,1.71,0,0,1,1.71,1.7V80.89A1.72,1.72,0,0,1,32.52,82.6ZM26.25,61.75a.5.5,0,0,0-.5.5V80.89a.5.5,0,0,0,.5.5h6.27a.5.5,0,0,0,.5-.5V62.25a.5.5,0,0,0-.5-.5Z"/><path class="cls-1" d="M40.94,82.6H34.67A1.72,1.72,0,0,1,33,80.89V62.25a1.71,1.71,0,0,1,1.71-1.7h6.27a1.7,1.7,0,0,1,1.7,1.7V80.89A1.71,1.71,0,0,1,40.94,82.6ZM34.67,61.75a.5.5,0,0,0-.5.5V80.89a.5.5,0,0,0,.5.5h6.27a.5.5,0,0,0,.5-.5V62.25a.5.5,0,0,0-.5-.5Z"/><path class="cls-1" d="M25.13,55H6.49a1.71,1.71,0,0,1-1.71-1.7V47a1.71,1.71,0,0,1,1.71-1.7H25.13a1.7,1.7,0,0,1,1.7,1.7v6.27A1.7,1.7,0,0,1,25.13,55ZM6.49,46.51A.5.5,0,0,0,6,47v6.27a.5.5,0,0,0,.5.5H25.13a.5.5,0,0,0,.5-.5V47a.5.5,0,0,0-.5-.5Z"/><path class="cls-1" d="M25.13,46.24H6.49a1.72,1.72,0,0,1-1.71-1.71V38.26a1.71,1.71,0,0,1,1.71-1.7H25.13a1.7,1.7,0,0,1,1.7,1.7v6.27A1.71,1.71,0,0,1,25.13,46.24ZM6.49,37.76a.5.5,0,0,0-.5.5v6.27a.5.5,0,0,0,.5.5H25.13a.5.5,0,0,0,.5-.5V38.26a.5.5,0,0,0-.5-.5Z"/></g></g></svg>