<svg xmlns="http://www.w3.org/2000/svg" viewBox="0 0 119.93 100.81"><defs><style>.cls-1{fill:#1a1a1a;}.cls-2{fill:#020000;}</style></defs><g id="Layer_2" data-name="Layer 2"><g id="_21-lit_bebe" data-name="21-lit bebe"><path class="cls-1" d="M7.66,100.81H5.42a1.15,1.15,0,0,1-1.15-1.14v-7H8.81v7A1.15,1.15,0,0,1,7.66,100.81ZM5.19,93.62v6a.22.22,0,0,0,.23.22H7.66a.22.22,0,0,0,.23-.22v-6Z"/><path class="cls-1" d="M114.61,100.81h-2.24a1.15,1.15,0,0,1-1.15-1.14v-7h4.54v7A1.14,1.14,0,0,1,114.61,100.81Zm-2.46-7.19v6a.22.22,0,0,0,.22.22h2.24a.22.22,0,0,0,.23-.22v-6Z"/><rect class="cls-1" x="8.4" y="68.02" width="15.6" height="1.21"/><rect class="cls-1" x="26.01" y="68.02" width="15.59" height="1.21"/><rect class="cls-1" x="43.7" y="68.02" width="15.59" height="1.21"/><rect class="cls-1" x="61.31" y="68.02" width="15.59" height="1.21"/><rect class="cls-1" x="79.28" y="68.02" width="15.59" height="1.21"/><rect class="cls-1" x="96.53" y="68.02" width="15.59" height="1.21"/><path class="cls-1" d="M8,93.77H5.25A2.18,2.18,0,0,1,3.07,91.6l.29-61.9.81.3a6.68,6.68,0,0,0,4-.08l.81-.28v8.58H111.35V29.85l.73.15a5.34,5.34,0,0,0,3.38,0l.92-.25V91.27a2.25,2.25,0,0,1-.66,1.6,2.28,2.28,0,0,1-1.6.65h-1.38c-1.83,0-2.93-.91-2.94-2.38l-.07-3.34H10v4A2,2,0,0,1,8,93.77ZM4.57,31.36,4.29,91.6a1,1,0,0,0,1,1H8a.81.81,0,0,0,.81-.8V86.59H110.92l.09,4.53c0,.3,0,1.16,1.74,1.18h1.37a1,1,0,0,0,.74-.31,1,1,0,0,0,.31-.73V31.34a5.63,5.63,0,0,1-2.6,0v8.1H7.73V31.29A8.18,8.18,0,0,1,4.57,31.36Z"/><path d="M24.59,81.48H7.81V41.4H24.59ZM9,80.3H23.4V42.59H9Z"/><path d="M42.19,81.48H25.41V41.4H42.19ZM26.6,80.3H41V42.59H26.6Z"/><path d="M59.88,81.48H43.1V41.4H59.88ZM44.29,80.3H58.7V42.59H44.29Z"/><path d="M77.49,81.48H60.71V41.4H77.49ZM61.89,80.3H76.3V42.59H61.89Z"/><path d="M95.11,81.48H78.33V41.4H95.11ZM79.51,80.3H93.92V42.59H79.51Z"/><path d="M112.71,81.48H95.93V41.4h16.78ZM97.12,80.3h14.41V42.59H97.12Z"/><path class="cls-2" d="M6.12,31.42a6.08,6.08,0,1,1,6.12-6.08A6.1,6.1,0,0,1,6.12,31.42Zm0-11.12a5,5,0,1,0,5.08,5A5.07,5.07,0,0,0,6.12,20.3Z"/><path class="cls-2" d="M113.81,31.42a6.08,6.08,0,1,1,6.12-6.08A6.11,6.11,0,0,1,113.81,31.42Zm0-11.12a5,5,0,1,0,5.09,5A5.07,5.07,0,0,0,113.81,20.3Z"/><path class="cls-1" d="M14.38,38.88c-.1-1.1-2.43-27.08,5.87-35.94A8.88,8.88,0,0,1,27.15,0c9.24.26,11,7,11.52,12.84l-1.21.1C36.46,1.48,30.15,1.3,27.12,1.22a7.57,7.57,0,0,0-6,2.55c-7.93,8.46-5.56,34.73-5.54,35Z"/><path d="M48.05,16.05H27.37a1.62,1.62,0,0,1-1.61-1.61V14a1.61,1.61,0,0,1,1.61-1.61H48.05A1.61,1.61,0,0,1,49.66,14v.42A1.62,1.62,0,0,1,48.05,16.05ZM27.37,13.62a.4.4,0,0,0-.4.4v.42a.4.4,0,0,0,.4.39H48.05a.4.4,0,0,0,.4-.39V14a.4.4,0,0,0-.4-.4Z"/><rect x="29.8" y="15.44" width="1.21" height="5.61"/><rect x="42.39" y="17.63" width="5.61" height="1.21" transform="translate(26.59 63.29) rotate(-89.54)"/><path d="M27,32a.6.6,0,0,1-.36-.12.59.59,0,0,1-.24-.59l.47-2.71a1.43,1.43,0,0,0-.4-1.23l-2-1.92a.6.6,0,0,1,.34-1l2.74-.4a1.4,1.4,0,0,0,1.06-.76l1.22-2.47a.64.64,0,0,1,1.09,0l1.23,2.47a1.38,1.38,0,0,0,1,.76l2.75.4a.59.59,0,0,1,.49.41.62.62,0,0,1-.16.63l-2,1.92a1.38,1.38,0,0,0-.4,1.23l.46,2.71a.59.59,0,0,1-.24.59.59.59,0,0,1-.64.05l-2.45-1.28a1.44,1.44,0,0,0-1.31,0L27.3,31.94A.58.58,0,0,1,27,32Zm-.79-6.58,1.1,1.05a2.58,2.58,0,0,1,.75,2.31l-.25,1.5,1.36-.71a2.61,2.61,0,0,1,2.43,0l1.37.71-.26-1.5a2.59,2.59,0,0,1,.75-2.31l1.1-1.05-1.52-.22a2.64,2.64,0,0,1-2-1.43l-.68-1.37-.69,1.37a2.64,2.64,0,0,1-2,1.43Z"/><path d="M48.56,32a.58.58,0,0,1-.28-.07l-2.45-1.28a1.44,1.44,0,0,0-1.31,0l-2.45,1.28a.59.59,0,0,1-.64-.05.59.59,0,0,1-.24-.59l.47-2.71a1.41,1.41,0,0,0-.41-1.23l-2-1.92a.62.62,0,0,1-.16-.63.61.61,0,0,1,.49-.41l2.75-.4a1.38,1.38,0,0,0,1-.76l1.23-2.47a.64.64,0,0,1,1.09,0l1.22,2.47A1.4,1.4,0,0,0,48,24l2.74.4a.6.6,0,0,1,.34,1l-2,1.92a1.41,1.41,0,0,0-.41,1.23l.47,2.71a.59.59,0,0,1-.24.59A.58.58,0,0,1,48.56,32Zm-3.39-2.73a2.62,2.62,0,0,1,1.22.3l1.37.71-.26-1.5a2.59,2.59,0,0,1,.75-2.31l1.1-1.05-1.52-.22a2.64,2.64,0,0,1-2-1.43l-.69-1.37-.68,1.37a2.64,2.64,0,0,1-2,1.43L41,25.43l1.1,1.05a2.59,2.59,0,0,1,.75,2.31l-.26,1.5L44,29.58A2.61,2.61,0,0,1,45.17,29.28Z"/></g></g></svg>