<svg xmlns="http://www.w3.org/2000/svg" viewBox="0 0 91.41 93.63"><defs><style>.cls-1{fill:#1a1a1a;}</style></defs><g id="Layer_2" data-name="Layer 2"><g id="chambre_lit_simple" data-name="chambre/ lit simple"><path class="cls-1" d="M45.7,0A180.79,180.79,0,0,0,12.48,3.09l-1.16.22A5.22,5.22,0,0,0,7,8.4V34.08A15.49,15.49,0,0,0,0,47V88.45a5.23,5.23,0,0,0,5.27,5.18h7a5.23,5.23,0,0,0,5.27-5.18V81.54a1.75,1.75,0,0,1,1.76-1.73H72.07a1.75,1.75,0,0,1,1.76,1.73v6.91a5.23,5.23,0,0,0,5.27,5.18h7a5.23,5.23,0,0,0,5.27-5.18V47a15.49,15.49,0,0,0-7-12.92V8.4a5.22,5.22,0,0,0-4.29-5.09l-1.16-.22A180.82,180.82,0,0,0,45.7,0ZM16.21,30.93H14.36c-1.94,0-4.45,1.38-6.18,2V7.85a3.51,3.51,0,0,1,2.15-3.34l1.22-.23a181.75,181.75,0,0,1,68.33,0l1.22.23a3.91,3.91,0,0,1,2.36,2.61l0,25.65c-1.73-.61-4.41-1.84-6.35-1.84H16.21Zm-1.85,1h62.7A15,15,0,0,1,90.74,47.06v2.31l-90,.18V46.92C.73,38.49,8.83,31.9,14.36,31.9ZM77.83,93c-1.56,0-3.44-1.94-3.42-4.66V83.27c.07-3.94-.88-4-1.32-4L18,79.33c-1.2.07-1,1-1,4.18l.08,5.54c-.18,2-1.55,3.84-6.37,4H4.24c-1.68-.13-3.7-2.57-3.7-4.15L.67,50.39l90.07-.15V89.3C90.61,91.82,87.76,93,87,93"/><rect class="cls-1" x="5.13" y="57.62" width="66.39" height="1.5" rx="0.75"/><rect class="cls-1" x="75.21" y="57.62" width="11.06" height="1.5" rx="0.75"/><path class="cls-1" d="M1.66,42.07A.93.93,0,0,0,.73,43v1.84a.94.94,0,0,0,1.87,0V43A.93.93,0,0,0,1.66,42.07Z"/><path class="cls-1" d="M6.34,42.07a.93.93,0,0,0-.93.92v1.84a.94.94,0,0,0,1.87,0V43A.93.93,0,0,0,6.34,42.07Z"/><path class="cls-1" d="M11,42.07a.93.93,0,0,0-.93.92v1.84a.94.94,0,0,0,1.87,0V43A.93.93,0,0,0,11,42.07Z"/><path class="cls-1" d="M15.7,42.07a.93.93,0,0,0-.93.92v1.84a.94.94,0,0,0,1.87,0V43A.93.93,0,0,0,15.7,42.07Z"/><path class="cls-1" d="M20.39,42.07a.93.93,0,0,0-.94.92v1.84a.94.94,0,0,0,1.87,0V43A.93.93,0,0,0,20.39,42.07Z"/><path class="cls-1" d="M25.07,42.07a.93.93,0,0,0-.94.92v1.84a.94.94,0,0,0,1.87,0V43A.93.93,0,0,0,25.07,42.07Z"/><path class="cls-1" d="M29.75,42.07a.93.93,0,0,0-.94.92v1.84a.94.94,0,0,0,1.87,0V43A.93.93,0,0,0,29.75,42.07Z"/><path class="cls-1" d="M34.43,42.07a.93.93,0,0,0-.94.92v1.84a.94.94,0,0,0,1.87,0V43A.93.93,0,0,0,34.43,42.07Z"/><path class="cls-1" d="M38.69,42.07a.93.93,0,0,0-.93.92v1.84a.94.94,0,0,0,1.87,0V43A.93.93,0,0,0,38.69,42.07Z"/><path class="cls-1" d="M43.38,42.07a.93.93,0,0,0-.94.92v1.84a.94.94,0,0,0,1.87,0V43A.93.93,0,0,0,43.38,42.07Z"/><path class="cls-1" d="M48.09,42.07a.93.93,0,0,0-.93.92v1.84a.94.94,0,0,0,1.87,0V43A.93.93,0,0,0,48.09,42.07Z"/><path class="cls-1" d="M52.77,42.07a.93.93,0,0,0-.93.92v1.84a.94.94,0,0,0,1.87,0V43A.93.93,0,0,0,52.77,42.07Z"/><path class="cls-1" d="M57.45,42.07a.93.93,0,0,0-.93.92v1.84a.94.94,0,0,0,1.87,0V43A.93.93,0,0,0,57.45,42.07Z"/><path class="cls-1" d="M62.14,42.07a.93.93,0,0,0-.94.92v1.84a.94.94,0,0,0,1.87,0V43A.93.93,0,0,0,62.14,42.07Z"/><path class="cls-1" d="M66.82,42.07a.93.93,0,0,0-.94.92v1.84a.94.94,0,0,0,1.87,0V43A.93.93,0,0,0,66.82,42.07Z"/><path class="cls-1" d="M71.5,42.07a.93.93,0,0,0-.94.92v1.84a.94.94,0,0,0,1.87,0V43A.93.93,0,0,0,71.5,42.07Z"/><path class="cls-1" d="M76.18,42.07a.93.93,0,0,0-.94.92v1.84a.94.94,0,0,0,1.87,0V43A.93.93,0,0,0,76.18,42.07Z"/><path class="cls-1" d="M80.86,42.07a.93.93,0,0,0-.94.92v1.84a.94.94,0,0,0,1.88,0V43A.93.93,0,0,0,80.86,42.07Z"/><path class="cls-1" d="M85.13,42.07a.93.93,0,0,0-.94.92v1.84a.94.94,0,0,0,1.87,0V43A.93.93,0,0,0,85.13,42.07Z"/><path class="cls-1" d="M89.81,42.07a.93.93,0,0,0-.94.92v1.84a.94.94,0,0,0,1.87,0V43A.93.93,0,0,0,89.81,42.07Z"/><path d="M54.36,25a.38.38,0,0,1-.28-.17l-1.92-2.51-2.5,1.92a.47.47,0,0,1-.33.09.41.41,0,0,1-.28-.17l-1.87-2.51-2.51,1.92a.45.45,0,0,1-.32.09.41.41,0,0,1-.28-.17l-1.92-2.51-2.5,1.91a.37.37,0,0,1-.32.09c-.13,0-.22-.07-.25-.16l-1.2-1.58c-.09.7-.23,1.43-.38,2.16l1.54,2,2.51-1.91a.51.51,0,0,1,.32-.09.42.42,0,0,1,.29.17l1.91,2.51,2.51-1.91a.44.44,0,0,1,.32-.09.35.35,0,0,1,.28.17l1.92,2.5,2.5-1.91a.52.52,0,0,1,.32-.09.42.42,0,0,1,.29.17l1.91,2.51,2-1.54c0-.74.1-1.44.2-2.18l-1.66,1.19A.33.33,0,0,1,54.36,25Z"/><path d="M40.3,16a.43.43,0,0,1-.29-.18l-1.95-2.51c.09.94.1,1.87.11,2.8l1.76,2.31,2.51-1.92a.49.49,0,0,1,.32-.09.41.41,0,0,1,.28.17L45,19.11l2.5-1.91a.46.46,0,0,1,.32-.09.42.42,0,0,1,.29.17L50,19.79l2.51-1.92a.51.51,0,0,1,.32-.09.46.46,0,0,1,.29.17L55,20.46l2.31-1.76c.25-.9.55-1.78.84-2.67l-2.55,1.91a.51.51,0,0,1-.32.09.42.42,0,0,1-.28-.17l-1.92-2.51-2.5,1.91a.46.46,0,0,1-.32.09.44.44,0,0,1-.29-.17L48.1,14.73l-2.5,1.91a.52.52,0,0,1-.32.09.47.47,0,0,1-.29-.17l-1.91-2.51L40.57,16A.45.45,0,0,1,40.3,16Z"/><path d="M56,29V27l-1.77,1.35a.52.52,0,0,1-.32.09.49.49,0,0,1-.29-.17L51.7,25.75l-2.51,1.91a.45.45,0,0,1-.32.09.47.47,0,0,1-.29-.17l-1.87-2.5L44.21,27a.42.42,0,0,1-.32.09.47.47,0,0,1-.29-.17l-1.91-2.5-2.51,1.91a.51.51,0,0,1-.32.09.35.35,0,0,1-.24-.17l-1.35-1.77-.52,1.92,1.83,2.41,2.51-1.92a.44.44,0,0,1,.32-.08.39.39,0,0,1,.29.17l1.91,2.5,2.51-1.91a.44.44,0,0,1,.32-.09.38.38,0,0,1,.28.17l1.92,2.51,2.5-1.92a.52.52,0,0,1,.32-.09.43.43,0,0,1,.29.18l1.91,2.5Z"/><path d="M54.83,21.49a.39.39,0,0,1-.29-.17l-1.91-2.5-2.51,1.91a.45.45,0,0,1-.32.09.47.47,0,0,1-.29-.17l-1.87-2.5-2.5,1.91a.43.43,0,0,1-.61-.08l-1.91-2.51-2.51,1.92a.51.51,0,0,1-.32.09.39.39,0,0,1-.24-.17L38.2,17.54c0,.84-.09,1.62-.15,2.41l1.46,1.91L42,20a.51.51,0,0,1,.32-.09.42.42,0,0,1,.29.17l1.91,2.51,2.51-1.91a.45.45,0,0,1,.32-.09.35.35,0,0,1,.28.17l1.92,2.5,2.5-1.91a.52.52,0,0,1,.32-.09.42.42,0,0,1,.29.17l1.91,2.51,1.92-1.46c.15-.78.3-1.6.49-2.36l-1.85,1.34A.4.4,0,0,1,54.83,21.49Z"/><path d="M56,30l-2.26,1.72a.43.43,0,0,1-.61-.08l-1.91-2.51-2.51,1.92a.51.51,0,0,1-.32.09.54.54,0,0,1-.29-.18l-1.87-2.45-2.51,1.91a.45.45,0,0,1-.32.09.42.42,0,0,1-.28-.17l-1.92-2.51-2.5,1.92a.53.53,0,0,1-.33.09.5.5,0,0,1-.23-.21l-1.73-2.26c-.28.8-.57,1.6-.9,2.43a1.11,1.11,0,0,0,1.16,1.53,35.62,35.62,0,0,1,18,2.42,1.1,1.1,0,0,0,1.52-1.17C56.14,31.77,56.08,30.88,56,30Z"/><path d="M38,12.39a.48.48,0,0,1,.56.12L40.43,15l2.51-1.91a.41.41,0,0,1,.32-.09.39.39,0,0,1,.29.17l1.91,2.5L48,13.78a.49.49,0,0,1,.32-.09.38.38,0,0,1,.28.17l1.92,2.51L53,14.45a.45.45,0,0,1,.32-.08.39.39,0,0,1,.29.17L55.51,17,58,15.13a.47.47,0,0,1,.57,0c.06-.17.12-.29.19-.46a1.1,1.1,0,0,0-1.16-1.52,35.65,35.65,0,0,1-18-2.42,1.15,1.15,0,0,0-1.65,1.15A1.26,1.26,0,0,1,38,12.39Z"/></g></g></svg>