<svg xmlns="http://www.w3.org/2000/svg" viewBox="0 0 115.08 94.38"><defs><style>.cls-1{fill:#1a1a1a;}</style></defs><g id="Layer_2" data-name="Layer 2"><g id="chambre_lit_double" data-name="chambre/lit double"><path class="cls-1" d="M57.54,0A316.66,316.66,0,0,0,12.48,3.22l-.68.1A5.32,5.32,0,0,0,7.19,8.49V34.28A15.58,15.58,0,0,0,0,47.32V89.15a5.32,5.32,0,0,0,5.39,5.23h7.2A5.32,5.32,0,0,0,18,89.15v-7a1.77,1.77,0,0,1,1.8-1.74H95.3a1.77,1.77,0,0,1,1.8,1.74v7a5.32,5.32,0,0,0,5.39,5.23h7.2a5.32,5.32,0,0,0,5.39-5.23V47.32a15.58,15.58,0,0,0-7.19-13V8.49a5.32,5.32,0,0,0-4.61-5.17l-.67-.1A316.7,316.7,0,0,0,57.54,0Zm-41,31-1.87.17A37.91,37.91,0,0,0,9,32.81V6.52a1.88,1.88,0,0,1,1.6-1.83l.71-.1a321.65,321.65,0,0,1,92.74,0l.71.1a1.88,1.88,0,0,1,1.61,1.83l.24,26.64c-1.76-.62-3.49-1.74-6-2L98.91,31H16.52Zm-1.8,1H99.25c7.27,0,15.83,6.81,15.2,17.71v2.53H.87l-.2-2.7C.67,39.73,7.45,32,14.72,32ZM1.61,42A.93.93,0,0,0,.67,43V44.8a.93.93,0,0,0,.94.92.93.93,0,0,0,.94-.92V43A.93.93,0,0,0,1.61,42Zm4.68,0a.93.93,0,0,0-.93.92V44.8a.94.94,0,0,0,1.87,0V43A.93.93,0,0,0,6.29,42ZM11,42A.93.93,0,0,0,10,43V44.8a.94.94,0,0,0,1.87,0V43A.93.93,0,0,0,11,42Zm4.68,0a.93.93,0,0,0-.93.92V44.8a.94.94,0,0,0,1.87,0V43A.93.93,0,0,0,15.65,42Zm4.68,0a.93.93,0,0,0-.93.92V44.8a.94.94,0,0,0,1.87,0V43A.93.93,0,0,0,20.33,42ZM25,42a.93.93,0,0,0-.93.92V44.8a.94.94,0,0,0,1.87,0V43A.93.93,0,0,0,25,42Zm4.69,0a.93.93,0,0,0-.94.92V44.8a.94.94,0,0,0,1.87,0V43A.93.93,0,0,0,29.7,42Zm4.68,0a.93.93,0,0,0-.94.92V44.8a.94.94,0,0,0,1.87,0V43A.93.93,0,0,0,34.38,42Zm4.68,0a.93.93,0,0,0-.94.92V44.8a.94.94,0,0,0,1.87,0V43A.93.93,0,0,0,39.06,42Zm4.68,0a.93.93,0,0,0-.94.92V44.8a.94.94,0,0,0,1.87,0V43A.93.93,0,0,0,43.74,42Zm4.68,0a.93.93,0,0,0-.94.92V44.8a.94.94,0,0,0,1.88,0V43A.93.93,0,0,0,48.42,42Zm4.66,0a.93.93,0,0,0-.94.92V44.8a.94.94,0,0,0,1.88,0V43A.93.93,0,0,0,53.08,42Zm4.68,0a.93.93,0,0,0-.94.92V44.8a.94.94,0,0,0,1.88,0V43A.93.93,0,0,0,57.76,42Zm4.68,0a.93.93,0,0,0-.94.92V44.8a.94.94,0,0,0,1.88,0V43A.93.93,0,0,0,62.44,42Zm4.68,0a.93.93,0,0,0-.93.92V44.8a.94.94,0,0,0,1.87,0V43A.93.93,0,0,0,67.12,42Zm4.68,0a.93.93,0,0,0-.93.92V44.8a.94.94,0,0,0,1.87,0V43A.93.93,0,0,0,71.8,42Zm4.68,0a.93.93,0,0,0-.93.92V44.8a.94.94,0,0,0,1.87,0V43A.93.93,0,0,0,76.48,42Zm4.68,0a.93.93,0,0,0-.93.92V44.8a.94.94,0,0,0,1.87,0V43A.93.93,0,0,0,81.16,42Zm4.69,0a.93.93,0,0,0-.94.92V44.8a.94.94,0,0,0,1.87,0V43A.93.93,0,0,0,85.85,42Zm4.68,0a.93.93,0,0,0-.94.92V44.8a.94.94,0,0,0,1.87,0V43A.93.93,0,0,0,90.53,42Zm4.68,0a.93.93,0,0,0-.94.92V44.8a.94.94,0,0,0,1.87,0V43A.93.93,0,0,0,95.21,42Zm4.68,0A.93.93,0,0,0,99,43V44.8a.94.94,0,0,0,1.87,0V43A.93.93,0,0,0,99.89,42Zm4.26,0a.93.93,0,0,0-.93.92V44.8a.94.94,0,0,0,1.87,0V43A.93.93,0,0,0,104.15,42Zm4.69,0a.93.93,0,0,0-.94.92V44.8a.94.94,0,0,0,1.87,0V43A.93.93,0,0,0,108.84,42Zm4.5,0a.93.93,0,0,0-.94.92V44.8a.94.94,0,0,0,1.88,0V43A.93.93,0,0,0,113.34,42ZM.76,53.09H114.45l-.15,36.1c0,4-3,4.6-4.47,4.6h-8.17c-2.5-.09-3.84-2.53-3.93-4.13l.08-5.61c.07-4.1-.6-4.57-4.07-4.61l-73,0C17,79.5,17,81,17,84l.07,5.29c0,2.38-1.46,4.34-6.14,4.32l-5.17,0a6.12,6.12,0,0,1-2.54-.49A4.11,4.11,0,0,1,.67,89.34Zm93.77,6H6.16a.75.75,0,0,1-.75-.75h0a.76.76,0,0,1,.75-.75H94.53a.75.75,0,0,1,.75.75h0A.74.74,0,0,1,94.53,59.07Zm15,0H99.78a.74.74,0,0,1-.75-.75h0a.75.75,0,0,1,.75-.75h9.73a.75.75,0,0,1,.75.75h0A.74.74,0,0,1,109.51,59.07Z"/><path d="M87.6,23.9a.39.39,0,0,1-.29-.13l-2.19-2.16L83,23.8a.42.42,0,0,1-.3.13.38.38,0,0,1-.3-.13l-2.14-2.16-2.16,2.19a.37.37,0,0,1-.3.13.38.38,0,0,1-.3-.13l-2.18-2.16-2.16,2.19a.38.38,0,0,1-.3.13.26.26,0,0,1-.26-.13l-1.37-1.35c0,.68,0,1.41-.07,2.13l1.76,1.74L75,24.19a.42.42,0,0,1,.29-.13.37.37,0,0,1,.3.13l2.19,2.15L80,24.16a.42.42,0,0,1,.6,0l2.18,2.16,2.16-2.18a.44.44,0,0,1,.3-.13.41.41,0,0,1,.3.12l2.19,2.16,1.73-1.76c0-.72-.09-1.4-.1-2.13L87.9,23.77A.34.34,0,0,1,87.6,23.9Z"/><path d="M72.82,17.17a.41.41,0,0,1-.3-.12l-2.23-2.16c.22.89.35,1.79.49,2.68l2,2L75,17.37a.5.5,0,0,1,.3-.13.38.38,0,0,1,.3.13l2.18,2.16,2.16-2.19a.52.52,0,0,1,.3-.13.38.38,0,0,1,.3.13l2.19,2.16,2.16-2.19a.42.42,0,0,1,.29-.13.37.37,0,0,1,.3.13l2.19,2.15,2-2c.12-.9.29-1.79.45-2.69L87.86,17a.5.5,0,0,1-.3.13.46.46,0,0,1-.3-.13l-2.19-2.16L82.92,17a.46.46,0,0,1-.3.13.44.44,0,0,1-.3-.13l-2.14-2.11L78,17.05a.46.46,0,0,1-.3.13.43.43,0,0,1-.3-.12L75.23,14.9l-2.16,2.19A.46.46,0,0,1,72.82,17.17Z"/><path d="M89.72,27.55l-.27-1.92-1.53,1.54a.42.42,0,0,1-.29.13.41.41,0,0,1-.3-.12L85.14,25,83,27.21a.47.47,0,0,1-.3.13.46.46,0,0,1-.3-.13l-2.14-2.16-2.16,2.19a.47.47,0,0,1-.3.13.42.42,0,0,1-.29-.13L75.3,25.08l-2.16,2.19a.44.44,0,0,1-.3.13.34.34,0,0,1-.25-.13L71,25.75l-.24,1.92,2.1,2.07,2.16-2.18a.43.43,0,0,1,.3-.13.38.38,0,0,1,.29.12l2.19,2.16L80,27.52a.5.5,0,0,1,.3-.13.42.42,0,0,1,.3.13l2.18,2.16,2.16-2.19a.52.52,0,0,1,.3-.13.38.38,0,0,1,.3.13l2.19,2.16Z"/><path d="M87.58,20.49a.38.38,0,0,1-.3-.13L85.1,18.2l-2.16,2.19a.44.44,0,0,1-.3.13.46.46,0,0,1-.3-.13L80.2,18.23,78,20.42a.44.44,0,0,1-.3.13.46.46,0,0,1-.3-.13l-2.19-2.15L73.1,20.45a.46.46,0,0,1-.3.13.39.39,0,0,1-.26-.12L71,18.93c.09.81.14,1.58.18,2.34l1.68,1.66L75,20.74a.46.46,0,0,1,.3-.13.39.39,0,0,1,.3.12l2.19,2.16L80,20.71a.42.42,0,0,1,.29-.13.39.39,0,0,1,.3.12l2.19,2.16,2.16-2.18a.43.43,0,0,1,.3-.13.39.39,0,0,1,.3.12l2.18,2.16,1.65-1.67c0-.77.08-1.58.16-2.35l-1.61,1.55A.4.4,0,0,1,87.58,20.49Z"/><path d="M89.89,28.57l-1.94,2a.46.46,0,0,1-.3.13.43.43,0,0,1-.3-.13l-2.19-2.15L83,30.57a.42.42,0,0,1-.29.13.46.46,0,0,1-.3-.12l-2.15-2.12L78.1,30.65a.47.47,0,0,1-.29.13.43.43,0,0,1-.3-.13l-2.19-2.16-2.16,2.19a.47.47,0,0,1-.3.13c-.08,0-.17-.09-.25-.17l-2-1.95c-.16.81-.33,1.62-.53,2.48a1.07,1.07,0,0,0,1.33,1.31,34.67,34.67,0,0,1,17.72-.11A1.08,1.08,0,0,0,90.46,31C90.24,30.23,90.07,29.38,89.89,28.57Z"/><path d="M70.07,14a.47.47,0,0,1,.56,0l2.18,2.16L75,14a.44.44,0,0,1,.3-.13.41.41,0,0,1,.3.12l2.18,2.16L79.91,14a.5.5,0,0,1,.3-.12.37.37,0,0,1,.3.12l2.19,2.16,2.16-2.19a.47.47,0,0,1,.29-.13.37.37,0,0,1,.3.13l2.19,2.16,2.16-2.19a.44.44,0,0,1,.55,0c0-.18.09-.3.13-.47a1.08,1.08,0,0,0-1.33-1.32,34.82,34.82,0,0,1-17.73.12A1.12,1.12,0,0,0,70,13.53,1.27,1.27,0,0,1,70.07,14Z"/><path d="M41.75,23.9a.43.43,0,0,1-.3-.13l-2.18-2.16L37.11,23.8a.42.42,0,0,1-.3.13.38.38,0,0,1-.3-.13l-2.14-2.16-2.16,2.19a.41.41,0,0,1-.6,0l-2.19-2.16-2.15,2.19A.38.38,0,0,1,27,24a.25.25,0,0,1-.26-.13l-1.37-1.35c0,.68,0,1.41-.07,2.13L27,26.38l2.16-2.19a.42.42,0,0,1,.29-.13.37.37,0,0,1,.3.13L32,26.34l2.16-2.18a.42.42,0,0,1,.29-.13.39.39,0,0,1,.3.12l2.19,2.16,2.16-2.18a.43.43,0,0,1,.3-.13.41.41,0,0,1,.3.12l2.18,2.16,1.74-1.76c-.05-.72-.1-1.4-.1-2.13l-1.44,1.38A.34.34,0,0,1,41.75,23.9Z"/><path d="M27,17.17a.39.39,0,0,1-.3-.12l-2.23-2.16c.22.89.35,1.79.48,2.68l2,2,2.16-2.19a.47.47,0,0,1,.3-.13.39.39,0,0,1,.3.13l2.18,2.16L34,17.34a.5.5,0,0,1,.3-.13.38.38,0,0,1,.3.13l2.18,2.16L39,17.31a.46.46,0,0,1,.3-.13.38.38,0,0,1,.3.13l2.19,2.15,2-2c.12-.9.28-1.79.45-2.69L42,17a.52.52,0,0,1-.3.13.44.44,0,0,1-.3-.13l-2.19-2.16L37.06,17a.4.4,0,0,1-.59,0l-2.15-2.11-2.16,2.18a.42.42,0,0,1-.29.13.41.41,0,0,1-.3-.12L29.38,14.9l-2.16,2.19A.46.46,0,0,1,27,17.17Z"/><path d="M43.86,27.55l-.26-1.92-1.53,1.54a.43.43,0,0,1-.3.13.41.41,0,0,1-.29-.12L39.29,25l-2.16,2.19a.47.47,0,0,1-.3.13.46.46,0,0,1-.3-.13l-2.14-2.16-2.16,2.19a.47.47,0,0,1-.3.13.46.46,0,0,1-.3-.13l-2.18-2.16-2.16,2.19a.44.44,0,0,1-.3.13.36.36,0,0,1-.26-.13l-1.54-1.52L25,27.67l2.1,2.07,2.16-2.18a.42.42,0,0,1,.29-.13.39.39,0,0,1,.3.12L32,29.71l2.16-2.19a.47.47,0,0,1,.3-.13.43.43,0,0,1,.3.13l2.18,2.16,2.16-2.19a.5.5,0,0,1,.3-.13.38.38,0,0,1,.3.13l2.19,2.16Z"/><path d="M41.73,20.49a.38.38,0,0,1-.3-.13L39.24,18.2l-2.15,2.19a.46.46,0,0,1-.3.13.44.44,0,0,1-.3-.13l-2.14-2.16-2.16,2.19a.46.46,0,0,1-.3.13.44.44,0,0,1-.3-.13L29.4,18.27l-2.16,2.18a.42.42,0,0,1-.29.13.39.39,0,0,1-.26-.12l-1.54-1.53c.09.81.13,1.58.18,2.34L27,22.93l2.16-2.19a.46.46,0,0,1,.3-.13.41.41,0,0,1,.3.12L32,22.89l2.16-2.18a.42.42,0,0,1,.29-.13.39.39,0,0,1,.3.12l2.19,2.16,2.16-2.18a.43.43,0,0,1,.3-.13.35.35,0,0,1,.29.12l2.19,2.16,1.65-1.67c0-.77.08-1.58.16-2.35L42,20.36A.42.42,0,0,1,41.73,20.49Z"/><path d="M44,28.57l-1.95,2a.4.4,0,0,1-.59,0l-2.19-2.15-2.16,2.18a.43.43,0,0,1-.3.13.5.5,0,0,1-.3-.12l-2.14-2.12-2.16,2.19a.47.47,0,0,1-.3.13.42.42,0,0,1-.29-.13l-2.19-2.16-2.16,2.19a.5.5,0,0,1-.3.13c-.08,0-.17-.09-.25-.17l-2-1.95c-.16.81-.33,1.62-.54,2.48a1.08,1.08,0,0,0,1.33,1.31,34.71,34.71,0,0,1,17.73-.11A1.08,1.08,0,0,0,44.61,31C44.39,30.23,44.22,29.38,44,28.57Z"/><path d="M24.22,14a.45.45,0,0,1,.55,0L27,16.19,29.12,14a.42.42,0,0,1,.6,0l2.18,2.16L34.06,14a.48.48,0,0,1,.3-.12.37.37,0,0,1,.3.12l2.19,2.16L39,13.94a.52.52,0,0,1,.3-.13.37.37,0,0,1,.3.13l2.19,2.16L44,13.91a.43.43,0,0,1,.55,0c0-.18.08-.3.13-.47a1.08,1.08,0,0,0-1.33-1.32,34.82,34.82,0,0,1-17.73.12,1.12,1.12,0,0,0-1.44,1.33A1.51,1.51,0,0,1,24.22,14Z"/></g></g></svg>