<svg xmlns="http://www.w3.org/2000/svg" viewBox="0 0 51.81 72.94"><g id="Layer_2" data-name="Layer 2"><g id="_25-_Matelas_bebe" data-name="25- Matelas bebe"><path d="M48.76,7.17v58.5L51,64V8.35h0V4.9ZM42.51,12.5a.43.43,0,0,1,.62.59L41.9,14.27a1.73,1.73,0,0,1,0,2l1.23,1.19a.43.43,0,0,1-.62.59l-1.23-1.28a1.76,1.76,0,0,1-1.94-.1L38,18a.43.43,0,0,1-.61-.59l1.43-1.28a1.68,1.68,0,0,1,0-1.68l-1.43-1.38A.43.43,0,0,1,38,12.5l1.34,1.38a1.72,1.72,0,0,1,1.94-.1Zm-31.75,0a.43.43,0,0,1,.61.59l-1.23,1.18a1.58,1.58,0,0,1-.1,2l1.33,1.19c.21.29-.2,1-.61.59L9.53,16.74a1.78,1.78,0,0,1-1.95-.1L6.25,18a.43.43,0,0,1-.62-.59l1.44-1.28a1.63,1.63,0,0,1,0-1.68L5.63,13.09a.43.43,0,0,1,.62-.59l1.33,1.38a1.73,1.73,0,0,1,1.95-.1Zm0,46a.39.39,0,1,1,.61.5l-1.23,1.18a1.58,1.58,0,0,1-.1,2l1.33,1.19c.31.39-.2,1-.61.59L9.53,62.71a2,2,0,0,1-1.95-.2L6.25,63.89c-.41.39-.92-.2-.62-.59L7.07,62a1.63,1.63,0,0,1,0-1.68L5.63,59a.4.4,0,1,1,.62-.5l1.33,1.29a1.93,1.93,0,0,1,1.95-.1ZM7.89,61.72l.1.2a1,1,0,0,0,1.33-.1.93.93,0,0,0,0-1.38,1.11,1.11,0,0,0-1.43,0A.89.89,0,0,0,7.89,61.72Zm2.87-18.55a.39.39,0,1,1,.61.5l-1.23,1.18a1.58,1.58,0,0,1-.1,2L11.37,48c.31.39-.2,1-.61.59L9.53,47.32a1.78,1.78,0,0,1-1.95-.1L6.25,48.6c-.41.39-.92-.2-.62-.59l1.44-1.28a1.63,1.63,0,0,1,0-1.68L5.63,43.67c-.2-.2.11-1,.62-.5l1.33,1.29a1.93,1.93,0,0,1,1.95-.1ZM8,46.53a.9.9,0,0,0,1.33,0,.93.93,0,0,0,0-1.38,1,1,0,0,0-1.43,0A.93.93,0,0,0,8,46.53Zm2.77-18.65a.39.39,0,1,1,.61.5l-1.23,1.18a1.58,1.58,0,0,1-.1,2l1.33,1.19a.43.43,0,0,1-.61.59L9.53,32a1.78,1.78,0,0,1-1.95-.1L6.25,33.31a.43.43,0,0,1-.62-.59l1.44-1.28a1.63,1.63,0,0,1,0-1.68L5.63,28.38a.4.4,0,1,1,.62-.5l1.33,1.29a1.93,1.93,0,0,1,1.95-.1ZM7.89,31.14a.94.94,0,0,0,1.43.1.93.93,0,0,0,0-1.38,1,1,0,0,0-1.43,0A.89.89,0,0,0,7.89,31.14Zm0-15.29a1,1,0,0,0,1.43.1.93.93,0,0,0,0-1.38,1,1,0,0,0-1.43,0A.89.89,0,0,0,7.89,15.85ZM26.63,12.5a.43.43,0,0,1,.62.59L26,14.27a1.58,1.58,0,0,1-.1,2l1.33,1.19a.43.43,0,0,1-.62.59L25.4,16.74a1.76,1.76,0,0,1-1.94-.1L22.13,18a.68.68,0,0,1-.62,0,.62.62,0,0,1,0-.59L23,16.15a1.63,1.63,0,0,1,0-1.68l-1.44-1.38a.62.62,0,0,1,0-.59.68.68,0,0,1,.62,0l1.33,1.38a1.72,1.72,0,0,1,1.94-.1Zm0,46a.4.4,0,1,1,.62.5L26,60.14a1.58,1.58,0,0,1-.1,2l1.33,1.19c.31.39-.21,1-.62.59L25.4,62.71a2,2,0,0,1-1.94-.2l-1.33,1.38c-.41.39-.93-.2-.62-.59L23,62a1.63,1.63,0,0,1,0-1.68L21.51,59a.4.4,0,1,1,.62-.5l1.33,1.29a1.93,1.93,0,0,1,1.94-.1Zm-2.76,3.46a1,1,0,0,0,1.33-.1.93.93,0,0,0,0-1.38,1.1,1.1,0,0,0-1.43,0A1,1,0,0,0,23.87,61.92Zm2.76-18.75a.4.4,0,1,1,.62.5L26,44.85a1.58,1.58,0,0,1-.1,2L27.25,48c.31.39-.31.89-.62.59L25.4,47.32a1.76,1.76,0,0,1-1.94-.1L22.13,48.6c-.41.39-.93-.2-.62-.59L23,46.73a1.63,1.63,0,0,1,0-1.68l-1.44-1.38a.4.4,0,1,1,.62-.5l1.33,1.29a1.93,1.93,0,0,1,1.94-.1Zm-2.86,3.26a.94.94,0,0,0,1.43.1.93.93,0,0,0,0-1.38,1,1,0,0,0-1.43,1.28Zm2.86-18.55a.4.4,0,1,1,.62.5L26,29.56a1.58,1.58,0,0,1-.1,2l1.33,1.19a.43.43,0,0,1-.62.59L25.4,32a1.76,1.76,0,0,1-1.94-.1l-1.33,1.38a.43.43,0,0,1-.62-.59L23,31.44a1.63,1.63,0,0,1,0-1.68l-1.44-1.38a.4.4,0,1,1,.62-.5l1.33,1.29a1.93,1.93,0,0,1,1.94-.1Zm-2.86,3.26a.94.94,0,0,0,1.43.1.93.93,0,0,0,0-1.38,1,1,0,0,0-1.43,1.28Zm0-15.29a1,1,0,0,0,1.43.1.93.93,0,0,0,0-1.38,1,1,0,0,0-1.43,1.28ZM42.51,58.46a.41.41,0,0,1,.62,0,.45.45,0,0,1,0,.5L41.9,60.14a1.73,1.73,0,0,1,0,2l1.23,1.19a.62.62,0,0,1,0,.59.68.68,0,0,1-.62,0l-1.23-1.18a2,2,0,0,1-1.94-.2L38,63.89a.66.66,0,0,1-.61,0,.62.62,0,0,1,0-.59L38.82,62a1.68,1.68,0,0,1,0-1.68L37.39,59a.45.45,0,0,1,0-.5.4.4,0,0,1,.61,0l1.34,1.29a1.93,1.93,0,0,1,1.94-.1Zm-2.87,3.26.11.2a1,1,0,0,0,1.33-.1.93.93,0,0,0,0-1.38,1.12,1.12,0,0,0-1.44,0A1,1,0,0,0,39.64,61.72Zm2.87-18.55a.4.4,0,1,1,.62.5L41.9,44.85a1.73,1.73,0,0,1,0,2L43.13,48c.3.39-.21,1-.62.59l-1.23-1.28a1.76,1.76,0,0,1-1.94-.1L38,48.6c-.41.39-.92-.2-.61-.59l1.43-1.28a1.68,1.68,0,0,1,0-1.68l-1.43-1.38a.39.39,0,1,1,.61-.5l1.34,1.29a1.93,1.93,0,0,1,1.94-.1Zm-2.87,3.26.11.1a.9.9,0,0,0,1.33,0,.93.93,0,0,0,0-1.38,1,1,0,0,0-1.44,1.28Zm2.87-18.55a.4.4,0,1,1,.62.5L41.9,29.56a1.73,1.73,0,0,1,0,2l1.23,1.19a.43.43,0,0,1-.62.59L41.28,32a1.76,1.76,0,0,1-1.94-.1L38,33.31a.43.43,0,0,1-.61-.59l1.43-1.28a1.68,1.68,0,0,1,0-1.68l-1.43-1.38a.39.39,0,1,1,.61-.5l1.34,1.29a1.93,1.93,0,0,1,1.94-.1Zm-2.76,3.36a.9.9,0,0,0,1.33,0,.93.93,0,0,0,0-1.38,1,1,0,0,0-1.44,0A.93.93,0,0,0,39.75,31.24Zm-.11-15.39.11.1a.9.9,0,0,0,1.33,0,.93.93,0,0,0,0-1.38,1,1,0,0,0-1.44,1.28ZM50.91,68.72,48.66,70.4A3.46,3.46,0,0,1,48,71.78a3.48,3.48,0,0,0,1.74-1.08A3,3,0,0,0,50.91,68.72Zm-2.15-.29L51,66.75V66l-2.25,1.68ZM51,2.73a.35.35,0,0,0-.1-.2L48.25,5.1c.1,0,.1.1.1.2Zm-4,1,.2.19L50,1.15Zm-1.52.19H3.36A2.34,2.34,0,0,0,.92,6.23V70.15a2.4,2.4,0,0,0,2.44,2.31H45.5a2.4,2.4,0,0,0,2.44-2.31V6.23A2.34,2.34,0,0,0,45.5,3.91Zm0-.78L47.94.76h-42A3.94,3.94,0,0,0,2.05,3.52,4.29,4.29,0,0,1,4,3H44.76A1.77,1.77,0,0,1,45.48,3.13ZM3.94,72.94A3.79,3.79,0,0,1,0,69.25V7.57C0,4.17,1.72,0,5.86,0H48a3.85,3.85,0,0,1,3.84,3.78V9h0V65.47h0V67.7a5.33,5.33,0,0,1-5.45,5.24Z"/></g></g></svg>