<svg xmlns="http://www.w3.org/2000/svg" viewBox="0 0 63.71 114.49"><g id="Layer_2" data-name="Layer 2"><g id="_26-_matelas_Lit_simple" data-name="26- matelas Lit simple"><path d="M60,11.25v91.83l2.77-2.64V13.11h0V7.69Zm-7.68,8.37c.5-.47,1.13.31.75.92L51.52,22.4a3.39,3.39,0,0,1,0,3.1L53,27.36c.38.62-.25,1.39-.75.93l-1.52-2a1.78,1.78,0,0,1-2.39-.15l-1.64,2.17c-.5.46-1.13-.31-.75-.93l1.76-2a3.17,3.17,0,0,1,0-2.63L46,20.54c-.38-.61.25-1.39.75-.92l1.64,2.16a1.78,1.78,0,0,1,2.39-.15Zm-39,0c.5-.47,1.13.31.75.92L12.47,22.4a3.05,3.05,0,0,1-.13,3.1L14,27.36c.25.46-.25,1.55-.75.93l-1.52-2a1.78,1.78,0,0,1-2.39-.15L7.68,28.29c-.5.46-1.13-.31-.75-.93l1.76-2a3.17,3.17,0,0,1,0-2.63L6.93,20.54c-.38-.61.25-1.39.75-.92l1.64,2.16a1.77,1.77,0,0,1,2.39-.15Zm0,72.15c.5-.62,1.13.16.75.78L12.47,94.4a3.05,3.05,0,0,1-.13,3.1L14,99.36c.38.62-.25,1.55-.75.93l-1.52-1.86a2,2,0,0,1-2.39-.31l-1.64,2.17c-.5.62-1.13-.31-.75-.93l1.76-2a3.19,3.19,0,0,1,0-2.64L6.93,92.55c-.38-.62.25-1.4.75-.78l1.64,2a2,2,0,0,1,2.39-.15ZM9.7,96.88l.13.31A1,1,0,0,0,11.46,97a1.73,1.73,0,0,0,0-2.17,1.15,1.15,0,0,0-1.76,0A1.69,1.69,0,0,0,9.7,96.88Zm3.53-29.11c.5-.62,1.13.16.75.78L12.47,70.4a3.05,3.05,0,0,1-.13,3.1L14,75.36c.38.62-.25,1.55-.75.93l-1.52-2a1.78,1.78,0,0,1-2.39-.15L7.68,76.29c-.5.62-1.13-.31-.75-.93l1.76-2a3.19,3.19,0,0,1,0-2.64L6.93,68.55c-.25-.31.12-1.55.75-.78l1.64,2a2,2,0,0,1,2.39-.15ZM9.83,73a1,1,0,0,0,1.63,0,1.73,1.73,0,0,0,0-2.17,1.07,1.07,0,0,0-1.76,0A1.74,1.74,0,0,0,9.83,73Zm3.4-29.27c.5-.62,1.13.16.75.78L12.47,46.4a3.05,3.05,0,0,1-.13,3.1L14,51.36c.38.62-.25,1.39-.75.93l-1.52-2a1.78,1.78,0,0,1-2.39-.15L7.68,52.29c-.5.46-1.13-.31-.75-.93l1.76-2a3.19,3.19,0,0,1,0-2.64L6.93,44.55c-.38-.62.25-1.4.75-.78l1.64,2a2,2,0,0,1,2.39-.15ZM9.7,48.88a1,1,0,0,0,1.76.16,1.73,1.73,0,0,0,0-2.17,1.07,1.07,0,0,0-1.76,0A1.7,1.7,0,0,0,9.7,48.88Zm0-24a1.08,1.08,0,0,0,1.76.16,1.73,1.73,0,0,0,0-2.17,1.07,1.07,0,0,0-1.76,0A1.7,1.7,0,0,0,9.7,24.88Zm23.05-5.26c.51-.47,1.14.31.76.92L32,22.4a3.05,3.05,0,0,1-.13,3.1l1.64,1.86c.38.62-.25,1.39-.76.93l-1.51-2a1.78,1.78,0,0,1-2.39-.15l-1.64,2.17a.7.7,0,0,1-.76,0,1.25,1.25,0,0,1,0-.93l1.77-2a3.17,3.17,0,0,1,0-2.63l-1.77-2.17a1.22,1.22,0,0,1,0-.92.66.66,0,0,1,.76,0l1.64,2.16a1.78,1.78,0,0,1,2.39-.15Zm0,72.15c.51-.62,1.14.16.76.78L32,94.4a3.05,3.05,0,0,1-.13,3.1l1.64,1.86c.38.62-.25,1.55-.76.93l-1.51-1.86a2,2,0,0,1-2.39-.31l-1.64,2.17c-.51.62-1.13-.31-.76-.93l1.77-2a3.19,3.19,0,0,1,0-2.64l-1.77-2.16c-.37-.62.25-1.4.76-.78l1.64,2a2,2,0,0,1,2.39-.15Zm-3.4,5.42A1,1,0,0,0,31,97a1.76,1.76,0,0,0,0-2.17,1.16,1.16,0,0,0-1.77,0A2,2,0,0,0,29.35,97.19Zm3.4-29.42c.51-.62,1.14.16.76.78L32,70.4a3.05,3.05,0,0,1-.13,3.1l1.64,1.86c.38.62-.38,1.39-.76.93l-1.51-2a1.78,1.78,0,0,1-2.39-.15l-1.64,2.17c-.51.62-1.13-.31-.76-.93l1.77-2a3.19,3.19,0,0,1,0-2.64l-1.77-2.16c-.37-.62.25-1.4.76-.78l1.64,2a2,2,0,0,1,2.39-.15Zm-3.53,5.11A1,1,0,0,0,31,73a1.76,1.76,0,0,0,0-2.17,1.07,1.07,0,0,0-1.77,0A2,2,0,0,0,29.22,72.88Zm3.53-29.11c.51-.62,1.14.16.76.78L32,46.4a3.05,3.05,0,0,1-.13,3.1l1.64,1.86c.38.62-.25,1.39-.76.93l-1.51-2a1.78,1.78,0,0,1-2.39-.15l-1.64,2.17c-.51.46-1.13-.31-.76-.93l1.77-2a3.19,3.19,0,0,1,0-2.64l-1.77-2.16c-.37-.62.25-1.4.76-.78l1.64,2a2,2,0,0,1,2.39-.15Zm-3.53,5.11A1,1,0,0,0,31,49a1.76,1.76,0,0,0,0-2.17,1.07,1.07,0,0,0-1.77,0A2,2,0,0,0,29.22,48.88Zm0-24A1.09,1.09,0,0,0,31,25a1.76,1.76,0,0,0,0-2.17,1.07,1.07,0,0,0-1.77,0A2,2,0,0,0,29.22,24.88ZM52.28,91.77q.38-.47.75,0a.83.83,0,0,1,0,.78L51.52,94.4a3.39,3.39,0,0,1,0,3.1L53,99.36a1.16,1.16,0,0,1,0,.93.68.68,0,0,1-.75,0l-1.52-1.86a2,2,0,0,1-2.39-.31l-1.64,2.17a.68.68,0,0,1-.75,0,1.16,1.16,0,0,1,0-.93l1.76-2a3.19,3.19,0,0,1,0-2.64L46,92.55a.83.83,0,0,1,0-.78q.38-.47.75,0l1.64,2a2,2,0,0,1,2.39-.15Zm-3.53,5.11.13.31A1,1,0,0,0,50.51,97a1.73,1.73,0,0,0,0-2.17,1.15,1.15,0,0,0-1.76,0A1.91,1.91,0,0,0,48.75,96.88Zm3.53-29.11c.5-.62,1.13.16.75.78L51.52,70.4a3.39,3.39,0,0,1,0,3.1L53,75.36c.38.62-.25,1.55-.75.93l-1.52-2a1.78,1.78,0,0,1-2.39-.15l-1.64,2.17c-.5.62-1.13-.31-.75-.93l1.76-2a3.19,3.19,0,0,1,0-2.64L46,68.55c-.38-.62.25-1.4.75-.78l1.64,2a2,2,0,0,1,2.39-.15Zm-3.53,5.11.13.16a1,1,0,0,0,1.63,0,1.73,1.73,0,0,0,0-2.17,1.07,1.07,0,0,0-1.76,0A1.91,1.91,0,0,0,48.75,72.88Zm3.53-29.11c.5-.62,1.13.16.75.78L51.52,46.4a3.39,3.39,0,0,1,0,3.1L53,51.36c.38.62-.25,1.39-.75.93l-1.52-2a1.78,1.78,0,0,1-2.39-.15l-1.64,2.17c-.5.46-1.13-.31-.75-.93l1.76-2a3.19,3.19,0,0,1,0-2.64L46,44.55c-.38-.62.25-1.4.75-.78l1.64,2a2,2,0,0,1,2.39-.15ZM48.88,49a1,1,0,0,0,1.63,0,1.73,1.73,0,0,0,0-2.17,1.07,1.07,0,0,0-1.76,0A1.75,1.75,0,0,0,48.88,49Zm-.13-24.16.13.16a1,1,0,0,0,1.63,0,1.73,1.73,0,0,0,0-2.17,1.07,1.07,0,0,0-1.76,0A1.91,1.91,0,0,0,48.75,24.88Zm13.86,83-2.78,2.63a6,6,0,0,1-.75,2.17A4.25,4.25,0,0,0,61.22,111,5.15,5.15,0,0,0,62.61,107.88ZM60,107.41l2.77-2.63v-1.24L60,106.17ZM62.73,4.29A.58.58,0,0,0,62.61,4L59.33,8c.13,0,.13.16.13.31ZM57.82,5.83l.25.31,3.4-4.33ZM56,6.14H4.13c-1.7,0-3,1.58-3,3.63V110.11c0,1.9,1.3,3.63,3,3.63H56c1.69,0,3-1.73,3-3.63V9.77C59,7.72,57.65,6.14,56,6.14Zm0-1.23,3-3.72H7.31C5,1.19,3.15,2.89,2.52,5.53a4.44,4.44,0,0,1,2.39-.78H55.05A1.72,1.72,0,0,1,55.93,4.91ZM4.84,114.49C2.11,114.49,0,111.9,0,108.7V11.88C0,6.55,2.11,0,7.2,0H59c2.49,0,4.72,2.59,4.72,5.94v8.22h0v88.61h0v3.5c0,4.57-3,8.22-6.71,8.22Z"/></g></g></svg>