<svg xmlns="http://www.w3.org/2000/svg" viewBox="0 0 106.22 110.98"><g id="Layer_2" data-name="Layer 2"><g id="_24-_Matelas_deux_places" data-name="24- Matelas deux places"><path d="M100,10.91v89l4.62-2.55V12.71h0V7.46Zm4.41,93.66-4.62,2.55a4.65,4.65,0,0,1-1.26,2.1,7.75,7.75,0,0,0,3.57-1.65A4.51,4.51,0,0,0,104.37,104.57Zm-4.41-.45,4.62-2.55v-1.2L100,102.92Zm4.62-100c0-.16-.21-.31-.21-.31L98.91,7.76c.21,0,.21.15.21.3Zm-8.19,1.5.42.3,5.67-4.21Zm-3.1.3H6.88c-2.82,0-5,1.52-5,3.49v96.7c0,1.82,2.17,3.5,5,3.5H93.29c2.82,0,5-1.68,5-3.5V9.45C98.28,7.48,96.11,6,93.29,6Zm-.05-1.2,5-3.61H12.18c-3.78,0-6.93,1.65-8,4.21a11.51,11.51,0,0,1,4-.75H91.77A4.9,4.9,0,0,1,93.24,4.76ZM8.08,111C1.61,111,0,109.46,0,105.37V11.51C0,6.35,3.52,0,12,0H98.35c4.14,0,7.87,2.51,7.87,5.76v8h0V99.62h0V103c0,4.43-5,8-11.18,8Z"/><path d="M18.37,25.48a2.64,2.64,0,0,0,.13-3l1.68-1.8c.42-.6-.28-1.35-.84-.9l-1.67,1.95a2.17,2.17,0,0,0-2.65.15l-1.81-2.1c-.56-.45-1.26.3-.84.9l2,2.1a2.73,2.73,0,0,0,0,2.55l-2,2c-.42.6.28,1.35.84.9L15,26.08a2.18,2.18,0,0,0,2.65.15l1.67,2c.56.6,1.12-.45.84-.9Zm-1-.45a1.29,1.29,0,0,1-2-.15,1.48,1.48,0,0,1,0-1.95,1.28,1.28,0,0,1,2,0A1.52,1.52,0,0,1,17.39,25Z"/><path d="M41.46,25.48a2.62,2.62,0,0,0,.14-3l1.68-1.8c.41-.6-.28-1.35-.84-.9l-1.67,1.95a2.17,2.17,0,0,0-2.65.15l-1.81-2.1c-.56-.45-1.26.3-.84.9l2,2.1a2.73,2.73,0,0,0,0,2.55l-2,2c-.42.6.28,1.35.84.9l1.81-2.11a2.18,2.18,0,0,0,2.65.15l1.67,2c.56.6,1.11-.45.84-.9Zm-1-.45a1.29,1.29,0,0,1-2-.15,1.48,1.48,0,0,1,0-1.95,1.28,1.28,0,0,1,2,0A1.52,1.52,0,0,1,40.49,25Z"/><path d="M63.58,25.32a2.64,2.64,0,0,0,.14-3l1.68-1.8c.41-.6-.28-1.35-.84-.9l-1.67,1.95a2.17,2.17,0,0,0-2.65.15l-1.81-2.1c-.56-.45-1.26.3-.84.9l1.95,2.11a2.73,2.73,0,0,0,0,2.55l-1.95,1.95c-.42.6.28,1.35.84.9l1.81-2.1a2.18,2.18,0,0,0,2.65.15L64.56,28c.56.6,1.11-.45.84-.9Zm-1-.45a1.29,1.29,0,0,1-2-.15,1.48,1.48,0,0,1,0-1.95,1.27,1.27,0,0,1,2,0A1.52,1.52,0,0,1,62.61,24.87Z"/><path d="M86.15,25.26a2.62,2.62,0,0,0,.14-3L88,20.46c.42-.6-.28-1.35-.84-.9l-1.67,2a2.17,2.17,0,0,0-2.65.15L81,19.56c-.56-.45-1.25.3-.84.9l2,2.1a2.73,2.73,0,0,0,0,2.55l-2,1.95c-.41.6.28,1.35.84.9l1.81-2.1a2.18,2.18,0,0,0,2.65.15L87.12,28c.56.6,1.12-.45.84-.9Zm-1-.45a1.29,1.29,0,0,1-2-.15,1.48,1.48,0,0,1,0-1.95,1.28,1.28,0,0,1,2,0A1.52,1.52,0,0,1,85.17,24.81Z"/><path d="M18.21,45.82a2.66,2.66,0,0,0,.13-3L20,41c.42-.6-.28-1.35-.84-.9l-1.67,2a2.17,2.17,0,0,0-2.65.15l-1.81-2.1c-.56-.45-1.26.3-.84.9l1.95,2.1a2.75,2.75,0,0,0,0,2.56l-1.95,1.95c-.42.6.28,1.35.84.9l1.81-2.1a2.18,2.18,0,0,0,2.65.15l1.67,2c.56.6,1.12-.45.84-.9Zm-1-.46a1.28,1.28,0,0,1-2-.15,1.48,1.48,0,0,1,0-2,1.28,1.28,0,0,1,2,0A1.52,1.52,0,0,1,17.23,45.36Z"/><path d="M41.3,45.82a2.64,2.64,0,0,0,.14-3L43.12,41c.41-.6-.28-1.35-.84-.9l-1.67,2a2.17,2.17,0,0,0-2.65.15l-1.81-2.1c-.56-.45-1.26.3-.84.9l1.95,2.1a2.75,2.75,0,0,0,0,2.56l-1.95,1.95c-.42.6.28,1.35.84.9L38,46.42a2.18,2.18,0,0,0,2.65.15l1.67,2c.56.6,1.11-.45.84-.9Zm-1-.46a1.28,1.28,0,0,1-1.95-.15,1.48,1.48,0,0,1,0-2,1.28,1.28,0,0,1,1.95,0A1.52,1.52,0,0,1,40.33,45.36Z"/><path d="M63.42,45.65a2.62,2.62,0,0,0,.14-3l1.68-1.81c.41-.6-.28-1.35-.84-.9l-1.67,2a2.17,2.17,0,0,0-2.65.15l-1.81-2.11c-.56-.45-1.26.3-.84.9l2,2.11a2.73,2.73,0,0,0,0,2.55l-2,2c-.42.6.28,1.35.84.9l1.81-2.1a2.18,2.18,0,0,0,2.65.15l1.67,2c.56.6,1.11-.45.84-.9Zm-1-.45a1.29,1.29,0,0,1-2-.15,1.48,1.48,0,0,1,0-1.95,1.28,1.28,0,0,1,2,0A1.52,1.52,0,0,1,62.45,45.2Z"/><path d="M86,45.59a2.62,2.62,0,0,0,.14-3l1.67-1.8c.42-.6-.28-1.35-.84-.9l-1.67,2a2.17,2.17,0,0,0-2.65.15l-1.81-2.1c-.56-.45-1.25.3-.84.9l2,2.1a2.73,2.73,0,0,0,0,2.55l-2,2c-.41.6.28,1.35.84.9l1.81-2.1a2.18,2.18,0,0,0,2.65.15L87,48.29c.56.6,1.12-.45.84-.9Zm-1-.45a1.29,1.29,0,0,1-2-.15,1.48,1.48,0,0,1,0-2,1.28,1.28,0,0,1,2,0A1.52,1.52,0,0,1,85,45.14Z"/><path d="M18.21,67.89a2.64,2.64,0,0,0,.13-3L20,63.08c.42-.6-.28-1.35-.84-.9l-1.67,1.95a2.17,2.17,0,0,0-2.65.15l-1.81-2.1c-.56-.45-1.26.3-.84.9l1.95,2.11a2.73,2.73,0,0,0,0,2.55l-1.95,2c-.42.6.28,1.35.84.9l1.81-2.1a2.18,2.18,0,0,0,2.65.15l1.67,2c.56.6,1.12-.45.84-.9Zm-1-.45a1.29,1.29,0,0,1-2-.15,1.48,1.48,0,0,1,0-2,1.28,1.28,0,0,1,2,0A1.52,1.52,0,0,1,17.23,67.44Z"/><path d="M41.3,67.89a2.62,2.62,0,0,0,.14-3l1.68-1.81c.41-.6-.28-1.35-.84-.9l-1.67,1.95a2.17,2.17,0,0,0-2.65.15l-1.81-2.1c-.56-.45-1.26.3-.84.9l1.95,2.11a2.73,2.73,0,0,0,0,2.55l-1.95,2c-.42.6.28,1.35.84.9L38,68.49a2.18,2.18,0,0,0,2.65.15l1.67,2c.56.6,1.11-.45.84-.9Zm-1-.45a1.29,1.29,0,0,1-1.95-.15,1.48,1.48,0,0,1,0-2,1.28,1.28,0,0,1,1.95,0A1.52,1.52,0,0,1,40.33,67.44Z"/><path d="M63.42,67.72a2.62,2.62,0,0,0,.14-3l1.68-1.8c.41-.6-.28-1.35-.84-.9L62.73,64a2.17,2.17,0,0,0-2.65.15L58.27,62c-.56-.45-1.26.3-.84.9l2,2.1a2.73,2.73,0,0,0,0,2.55l-2,2c-.42.6.28,1.35.84.9l1.81-2.1a2.18,2.18,0,0,0,2.65.15l1.67,2c.56.6,1.11-.45.84-.9Zm-1-.45a1.29,1.29,0,0,1-2-.15,1.48,1.48,0,0,1,0-2,1.28,1.28,0,0,1,2,0A1.52,1.52,0,0,1,62.45,67.27Z"/><path d="M86,67.66a2.62,2.62,0,0,0,.14-3l1.67-1.8c.42-.6-.28-1.35-.84-.9l-1.67,1.95a2.17,2.17,0,0,0-2.65.15L80.83,62c-.56-.45-1.25.3-.84.9L82,65a2.73,2.73,0,0,0,0,2.55l-2,2c-.41.6.28,1.35.84.9l1.81-2.11a2.16,2.16,0,0,0,2.65.15l1.67,2c.56.6,1.12-.45.84-.9Zm-1-.45a1.29,1.29,0,0,1-2-.15,1.48,1.48,0,0,1,0-2,1.28,1.28,0,0,1,2,0A1.52,1.52,0,0,1,85,67.21Z"/><path d="M18.21,90.18a2.64,2.64,0,0,0,.13-3L20,85.38c.42-.6-.28-1.35-.84-.9l-1.67,2a2.17,2.17,0,0,0-2.65.15l-1.81-2.1c-.56-.45-1.26.3-.84.9l1.95,2.1a2.73,2.73,0,0,0,0,2.55l-1.95,2c-.42.6.28,1.35.84.9l1.81-2.1a2.18,2.18,0,0,0,2.65.15l1.67,1.95c.56.6,1.12-.45.84-.9Zm-1-.45a1.29,1.29,0,0,1-2-.15,1.48,1.48,0,0,1,0-2,1.28,1.28,0,0,1,2,0A1.52,1.52,0,0,1,17.23,89.73Z"/><path d="M41.3,90.18a2.62,2.62,0,0,0,.14-3l1.68-1.8c.41-.6-.28-1.35-.84-.9l-1.67,2a2.17,2.17,0,0,0-2.65.15l-1.81-2.1c-.56-.45-1.26.3-.84.9l1.95,2.1a2.73,2.73,0,0,0,0,2.55l-1.95,2c-.42.6.28,1.35.84.9L38,90.78a2.18,2.18,0,0,0,2.65.15l1.67,1.95c.56.6,1.11-.45.84-.9Zm-1-.45a1.29,1.29,0,0,1-1.95-.15,1.48,1.48,0,0,1,0-2,1.28,1.28,0,0,1,1.95,0A1.52,1.52,0,0,1,40.33,89.73Z"/><path d="M63.42,90a2.62,2.62,0,0,0,.14-3l1.68-1.8c.41-.6-.28-1.35-.84-.9l-1.67,2a2.17,2.17,0,0,0-2.65.15l-1.81-2.1c-.56-.45-1.26.3-.84.9l2,2.1a2.73,2.73,0,0,0,0,2.55l-2,2c-.42.6.28,1.35.84.9l1.81-2.1a2.18,2.18,0,0,0,2.65.15l1.67,2c.56.6,1.11-.45.84-.9Zm-1-.45a1.29,1.29,0,0,1-2-.15,1.48,1.48,0,0,1,0-2,1.28,1.28,0,0,1,2,0A1.52,1.52,0,0,1,62.45,89.56Z"/><path d="M86,90a2.62,2.62,0,0,0,.14-3l1.67-1.8c.42-.6-.28-1.35-.84-.9l-1.67,1.95a2.17,2.17,0,0,0-2.65.15l-1.81-2.1c-.56-.45-1.25.3-.84.9l2,2.1a2.73,2.73,0,0,0,0,2.55l-2,2c-.41.6.28,1.35.84.9l1.81-2.1a2.18,2.18,0,0,0,2.65.15l1.67,2c.56.6,1.12-.45.84-.9Zm-1-.45a1.29,1.29,0,0,1-2-.15,1.48,1.48,0,0,1,0-2,1.28,1.28,0,0,1,2,0A1.52,1.52,0,0,1,85,89.51Z"/></g></g></svg>