<svg xmlns="http://www.w3.org/2000/svg" viewBox="0 0 110.27 73.27"><defs><style>.cls-1{fill:#1a1a1a;}</style></defs><g id="Layer_2" data-name="Layer 2"><g id="bureau_Table_enfant" data-name="bureau/Table enfant"><path class="cls-1" d="M3.63,0C.66,0,.08,1.5,0,2.5-.09,4,.45,5.84,3.42,5.84H8.55l-7.48,63c-.14,1-.78,2.89-.1,3.68a3.61,3.61,0,0,0,2.65.77l.34,0c1.64,0,2.48-1.08,2.89-2.7l8.77-34.65,68.82.24c1,0,.92-.36.92-.53s0-.37-1-.37H15.77l2.91-11c.2-.81,2.75-2.59,3.56-2.59l66.35.28c.81,0,3,1,3.18,1.78l12.66,46c.41,1.62.92,2.94,2.55,2.94l1.35,0c.84,0,1.08.09,1.76-.71a5.24,5.24,0,0,0,0-2.63L102.48,5.84h5.13a2.72,2.72,0,0,0,2.61-2.91c0-1.31-.78-2.63-3.23-2.53ZM2.4,1.08H107.73A1.84,1.84,0,0,1,109.54,3a1.84,1.84,0,0,1-1.81,1.87H2.4A1.84,1.84,0,0,1,.59,3,1.84,1.84,0,0,1,2.4,1.08Zm7.35,9L10.31,6h90.37l.56,4.13,1,7.08,7.34,54.35h-3.9l-12-46.37a5.61,5.61,0,0,0-5.44-4.2H22.8a5.61,5.61,0,0,0-5.43,4.2l-12,46.37H1.44L8.78,17.16Zm3.85.9a1.11,1.11,0,0,0-1.11,1.11V14.3a1.11,1.11,0,0,0,2.22,0V12.09A1.11,1.11,0,0,0,13.6,11Zm5.54,0A1.11,1.11,0,0,0,18,12.09V14.3a1.11,1.11,0,0,0,2.22,0V12.09A1.11,1.11,0,0,0,19.14,11Zm5.54,0a1.11,1.11,0,0,0-1.11,1.11V14.3a1.11,1.11,0,1,0,2.22,0V12.09A1.11,1.11,0,0,0,24.68,11Zm5.54,0a1.11,1.11,0,0,0-1.11,1.11V14.3a1.11,1.11,0,0,0,2.22,0V12.09A1.11,1.11,0,0,0,30.22,11Zm5.54,0a1.11,1.11,0,0,0-1.11,1.11V14.3a1.11,1.11,0,1,0,2.22,0V12.09A1.11,1.11,0,0,0,35.76,11Zm5.54,0a1.11,1.11,0,0,0-1.11,1.11V14.3a1.11,1.11,0,0,0,2.22,0V12.09A1.11,1.11,0,0,0,41.3,11Zm5.54,0a1.11,1.11,0,0,0-1.11,1.11V14.3a1.11,1.11,0,0,0,2.22,0V12.09A1.11,1.11,0,0,0,46.84,11Zm5.54,0a1.11,1.11,0,0,0-1.11,1.11V14.3a1.11,1.11,0,1,0,2.22,0V12.09A1.11,1.11,0,0,0,52.38,11Zm5.54,0a1.11,1.11,0,0,0-1.11,1.11V14.3a1.11,1.11,0,0,0,2.22,0V12.09A1.11,1.11,0,0,0,57.92,11Zm4.95,0a1.11,1.11,0,0,0-1.1,1.11V14.3a1.11,1.11,0,1,0,2.21,0V12.09A1.11,1.11,0,0,0,62.87,11Zm5.54,0a1.11,1.11,0,0,0-1.1,1.11V14.3a1.11,1.11,0,1,0,2.21,0V12.09A1.11,1.11,0,0,0,68.41,11ZM74,11a1.11,1.11,0,0,0-1.1,1.11V14.3a1.11,1.11,0,1,0,2.21,0V12.09A1.11,1.11,0,0,0,74,11Zm5.54,0a1.11,1.11,0,0,0-1.1,1.11V14.3a1.11,1.11,0,1,0,2.21,0V12.09A1.11,1.11,0,0,0,79.49,11ZM85,11a1.11,1.11,0,0,0-1.1,1.11V14.3a1.11,1.11,0,1,0,2.21,0V12.09A1.11,1.11,0,0,0,85,11Zm5.54,0a1.11,1.11,0,0,0-1.1,1.11V14.3a1.11,1.11,0,1,0,2.21,0V12.09A1.11,1.11,0,0,0,90.57,11Zm5.54,0A1.11,1.11,0,0,0,95,12.09V14.3a1.11,1.11,0,1,0,2.21,0V12.09A1.11,1.11,0,0,0,96.11,11ZM89.68,35.24a.45.45,0,1,0,0,.89h2a.45.45,0,1,0,0-.89Z"/></g></g></svg>