<svg xmlns="http://www.w3.org/2000/svg" viewBox="0 0 108.25 120.38"><defs><style>.cls-1{fill:#1a1a1a;}</style></defs><g id="Layer_2" data-name="Layer 2"><g id="bureau_casier" data-name="bureau/ casier"><path class="cls-1" d="M5.8,0A5.83,5.83,0,0,0,0,5.83v101a5.83,5.83,0,0,0,5.8,5.83h5.8v1.94a5.8,5.8,0,1,0,11.6,0v-1.94H85.05v1.94a5.8,5.8,0,1,0,11.6,0v-1.94h5.8a5.83,5.83,0,0,0,5.8-5.83V5.83A5.83,5.83,0,0,0,102.45,0ZM17.4,23.3a5.82,5.82,0,0,0-5.8,5.83V48.54a5.82,5.82,0,0,0,5.8,5.83H90.85a5.82,5.82,0,0,0,5.8-5.83V29.13a5.82,5.82,0,0,0-5.8-5.83ZM44.46,35a1.93,1.93,0,0,0-1.93,1.94,5.82,5.82,0,0,0,5.8,5.83H59.92a5.82,5.82,0,0,0,5.8-5.83,1.93,1.93,0,1,0-3.86,0,1.94,1.94,0,0,1-1.94,1.94H48.33a1.94,1.94,0,0,1-1.94-1.94A1.94,1.94,0,0,0,44.46,35ZM17.4,62.13A5.82,5.82,0,0,0,11.6,68V87.38a5.82,5.82,0,0,0,5.8,5.82H90.85a5.82,5.82,0,0,0,5.8-5.82V68a5.82,5.82,0,0,0-5.8-5.83ZM44.46,73.78a1.94,1.94,0,0,0-1.93,2,5.82,5.82,0,0,0,5.8,5.82H59.92a5.82,5.82,0,0,0,5.8-5.82,1.93,1.93,0,1,0-3.86,0,1.94,1.94,0,0,1-1.94,1.94H48.33a1.94,1.94,0,0,1-1.94-1.94A2,2,0,0,0,44.46,73.78Zm41.8,38.84h9.23V116c0,1.89-2.07,3.43-4.61,3.43s-4.62-1.54-4.62-3.43Zm5.08-59.17H17.24a4.39,4.39,0,0,1-4.39-4.39V28.61a4.39,4.39,0,0,1,4.39-4.38h74.1a4.39,4.39,0,0,1,4.39,4.38V49.06A4.39,4.39,0,0,1,91.34,53.45ZM91.17,92H17.08a4.38,4.38,0,0,1-4.39-4.38V67.2a4.39,4.39,0,0,1,4.39-4.39H91.17a4.39,4.39,0,0,1,4.39,4.39V87.63A4.38,4.38,0,0,1,91.17,92ZM102,111.51H6.39a5,5,0,0,1-5-5V5.81a5,5,0,0,1,5-5H102a5,5,0,0,1,5,5V106.54A5,5,0,0,1,102,111.51Zm-17.59-7.23H8.75a.85.85,0,0,1-.85-.84h0a.85.85,0,0,1,.85-.85H84.37a.85.85,0,0,1,.85.85h0A.85.85,0,0,1,84.37,104.28Zm15.46,0h-9.9a.85.85,0,0,1-.85-.84h0a.85.85,0,0,1,.85-.85h9.9a.85.85,0,0,1,.85.85h0A.85.85,0,0,1,99.83,104.28Zm-91-89.72h0A1.61,1.61,0,0,1,7.23,13V9.38A1.61,1.61,0,0,1,8.84,7.77h0a1.61,1.61,0,0,1,1.61,1.61V13A1.61,1.61,0,0,1,8.84,14.56Zm7.12,0h0A1.61,1.61,0,0,1,14.35,13V9.38A1.61,1.61,0,0,1,16,7.77h0a1.61,1.61,0,0,1,1.61,1.61V13A1.61,1.61,0,0,1,16,14.56Zm6.9,0h0A1.61,1.61,0,0,1,21.25,13V9.38a1.61,1.61,0,0,1,1.61-1.61h0a1.61,1.61,0,0,1,1.61,1.61V13A1.61,1.61,0,0,1,22.86,14.56Zm6.59,0h0A1.61,1.61,0,0,1,27.84,13V9.38a1.61,1.61,0,0,1,1.61-1.61h0a1.61,1.61,0,0,1,1.61,1.61V13A1.61,1.61,0,0,1,29.45,14.56Zm7.12,0h0A1.61,1.61,0,0,1,35,13V9.38a1.61,1.61,0,0,1,1.61-1.61h0a1.61,1.61,0,0,1,1.61,1.61V13A1.61,1.61,0,0,1,36.57,14.56Zm6.9,0h0A1.61,1.61,0,0,1,41.86,13V9.38a1.61,1.61,0,0,1,1.61-1.61h0a1.61,1.61,0,0,1,1.61,1.61V13A1.61,1.61,0,0,1,43.47,14.56Zm6.59,0h0A1.62,1.62,0,0,1,48.44,13V9.38a1.62,1.62,0,0,1,1.62-1.61h0a1.61,1.61,0,0,1,1.61,1.61V13A1.61,1.61,0,0,1,50.06,14.56Zm7.11,0h0A1.61,1.61,0,0,1,55.56,13V9.38a1.61,1.61,0,0,1,1.61-1.61h0a1.62,1.62,0,0,1,1.62,1.61V13A1.62,1.62,0,0,1,57.17,14.56Zm6.91,0h0A1.62,1.62,0,0,1,62.46,13V9.38a1.62,1.62,0,0,1,1.62-1.61h0a1.61,1.61,0,0,1,1.61,1.61V13A1.61,1.61,0,0,1,64.08,14.56Zm6.58,0h0A1.61,1.61,0,0,1,69.05,13V9.38a1.61,1.61,0,0,1,1.61-1.61h0a1.61,1.61,0,0,1,1.61,1.61V13A1.61,1.61,0,0,1,70.66,14.56Zm7.12,0h0A1.61,1.61,0,0,1,76.17,13V9.38a1.61,1.61,0,0,1,1.61-1.61h0a1.61,1.61,0,0,1,1.61,1.61V13A1.61,1.61,0,0,1,77.78,14.56Zm6.9,0h0A1.61,1.61,0,0,1,83.07,13V9.38a1.61,1.61,0,0,1,1.61-1.61h0a1.61,1.61,0,0,1,1.61,1.61V13A1.61,1.61,0,0,1,84.68,14.56Zm7.61,0h0A1.61,1.61,0,0,1,90.68,13V9.38a1.61,1.61,0,0,1,1.61-1.61h0A1.61,1.61,0,0,1,93.9,9.38V13A1.61,1.61,0,0,1,92.29,14.56Zm7.12,0h0A1.62,1.62,0,0,1,97.79,13V9.38a1.62,1.62,0,0,1,1.62-1.61h0A1.61,1.61,0,0,1,101,9.38V13A1.61,1.61,0,0,1,99.41,14.56Zm-86.64,98H22v3.42c0,1.89-2.07,3.43-4.61,3.43s-4.62-1.54-4.62-3.43Z"/></g></g></svg>