<svg xmlns="http://www.w3.org/2000/svg" viewBox="0 0 60.92 95.39"><g id="Layer_2" data-name="Layer 2"><g id="bureau_chaise" data-name="bureau/chaise"><path d="M55.06,38.53,50.12,11.15c-.2-1.1-.44-2.19-.74-3.25C47-.6,42.67,0,41.43,0H19c-3.12,0-6.1,3.73-7.33,10.18L7.17,38.69a11.12,11.12,0,0,0,.18,4.63,8.71,8.71,0,0,0,8.57,6.79h29.4A10,10,0,0,0,54.2,44.7,9.85,9.85,0,0,0,55.06,38.53Zm-2.45,5.11a9.3,9.3,0,0,1-8.28,5.15H17c-4.08,0-7-2.72-8-6.47a10.74,10.74,0,0,1-.16-4.41L13,10.78c1.14-6.15,3.91-9.7,6.82-9.7h20.9c1.16,0,5.19-.58,7.41,7.51.28,1,.5,2.05.69,3.09l4.6,26.08A9.66,9.66,0,0,1,52.61,43.64Z"/><polygon points="36.18 50.11 36.18 54.34 25.75 54.34 25.75 50.11 25.2 50.11 25.2 54.62 36.69 54.62 36.69 50.11 36.18 50.11"/><path d="M51.09,54.34H10.69A6.74,6.74,0,0,0,4,61.06v.29a6.75,6.75,0,0,0,6.72,6.72h40.4a6.74,6.74,0,0,0,6.72-6.72v-.29A6.73,6.73,0,0,0,51.09,54.34Zm.25,12.16H10.29a5.13,5.13,0,0,1-5.13-5.13v-.78a5.13,5.13,0,0,1,5.13-5.13H51.34a5.13,5.13,0,0,1,5.13,5.13v.78A5.13,5.13,0,0,1,51.34,66.5Z"/><path d="M35.64,68.07v4.84A1.67,1.67,0,0,1,34,74.58H28a1.87,1.87,0,0,1-1.86-1.87V68.07h-1V72.2a3.38,3.38,0,0,0,3.38,3.38h4.69a3.42,3.42,0,0,0,3.42-3.42V68.07Z"/><path d="M5.88,88.11a4,4,0,0,1-2.59-.61,2,2,0,0,1-.68-1.68c0-3.13,18.92-6.6,25.42-7.7v-3l6.43-.1,0,3C53.56,81.73,58,83.57,58.84,85.32a2.28,2.28,0,0,1-.23,2.13c-1.22,2.5-24.06-2.94-24.29-3-.25.82-.76,3.13-3.11,3-2.06-.08-2.5-1.53-2.82-2.59l-.06-.2a.5.5,0,0,0-.58-.34C15.32,86.86,9.07,88.11,5.88,88.11ZM34.3,83.45a1.15,1.15,0,0,1,.26,0C40.64,85,56.48,88,57.73,87c.25-.52.39-.85.22-1.2-.83-1.67-8.28-3.79-24.13-6.89l-.41-.08,0-2.79L29,76.08V79l-.41.07c-13.8,2.3-25,5.34-25,6.78a1,1,0,0,0,.31.9c1.37,1.13,7.89-.18,23.64-3.33a1.5,1.5,0,0,1,1.73,1l.06.2c.34,1.13.62,1.83,1.9,1.88,1,.07,1.66-.62,2-2.22a1,1,0,0,1,.48-.67A1,1,0,0,1,34.3,83.45Z"/><path d="M3.11,93.38a3.11,3.11,0,1,1,3.1-3.11A3.11,3.11,0,0,1,3.11,93.38Zm0-5.21a2.11,2.11,0,1,0,2.1,2.1A2.11,2.11,0,0,0,3.11,88.17Z"/><path d="M57.81,93.38a3.11,3.11,0,1,1,3.11-3.11A3.11,3.11,0,0,1,57.81,93.38Zm0-5.21a2.11,2.11,0,1,0,2.11,2.1A2.1,2.1,0,0,0,57.81,88.17Z"/><path d="M31.3,95.39a4,4,0,1,1,4-4A4.05,4.05,0,0,1,31.3,95.39Zm0-6.78A2.74,2.74,0,1,0,34,91.35,2.74,2.74,0,0,0,31.3,88.61Z"/><rect x="49.13" y="65.41" width="1" height="10.05" transform="translate(-36.36 64.95) rotate(-51.18)"/><rect x="53.22" y="72.78" width="3.04" height="1.18"/></g></g></svg>