<svg xmlns="http://www.w3.org/2000/svg" viewBox="0 0 114.06 115"><g id="Layer_2" data-name="Layer 2"><g id="Bureau_Fauteuil_bureau" data-name="Bureau/ Fauteuil bureau"><path d="M13.62,83a18,18,0,0,0,15.6,9l27.14,0v8H50.6l-22.48,6.42c-4.28,1.23-6.1,4-6.1,8.4h4.82l23.37-6.48,13.22,0L86.77,115h4.9c0-4.46-1.74-7.3-6-8.53l-22.48-6.42H57.58l.07-8,26.9,0a18,18,0,0,0,15.6-9l12.29-23.54.55-1c2.9-5.23-.39-12-6.34-12.46-.25,0-.49,0-.74,0-3,0-4.86,1.71-6.49,4L89.5,65.09a6,6,0,0,1-5.16,3h-.6C86.62,60.2,90.56,52.66,94,45.65c3.78-7.81,7-15,7-21.64A19.29,19.29,0,0,0,92.56,7.62C86,3,75.11,0,56.89,0S27.75,3,21.21,7.62A19.29,19.29,0,0,0,12.86,24c0,6.67,3.18,13.83,7,21.64C23.21,52.66,27.15,60.2,30,68h-.61a6,6,0,0,1-5.16-3l-9-13.81s-2.6-4.45-7.68-4.62A6.87,6.87,0,0,0,5,47.09C1.8,48.3-1,51.55.32,56M56.67,1C76,1,87.61,4.34,93,9c3.13,2.68,6.88,9.22,6.88,14,0,5.52-2.72,12.17-6.77,20.12-3.83,7.56-8.39,16-11.71,24.94H32.26c-3.31-9-7.88-17.38-11.71-24.94-4-8-7.08-15.09-6.91-20.6.14-4.16,3.25-10.2,7-13.5C26,4.29,37.38,1,56.67,1ZM36.88,24a2,2,0,1,0,2,2A2,2,0,0,0,36.88,24Zm8,0a2,2,0,1,0,2,2A2,2,0,0,0,44.88,24Zm8,0a2,2,0,1,0,2,2A2,2,0,0,0,52.88,24Zm8,0a2,2,0,1,0,2,2A2,2,0,0,0,60.89,24Zm8,0a2,2,0,1,0,2,2A2,2,0,0,0,68.89,24Zm8,0a2,2,0,1,0,2,2A2,2,0,0,0,76.9,24Zm-36,10a2,2,0,1,0,2,2A2,2,0,0,0,40.88,34Zm8,0a2,2,0,1,0,2,2A2,2,0,0,0,48.88,34Zm8,0a2,2,0,1,0,2,2A2,2,0,0,0,56.89,34Zm8,0a2,2,0,1,0,2,2A2,2,0,0,0,64.89,34Zm8,0a2,2,0,1,0,2,2A2,2,0,0,0,72.89,34ZM6.74,47.75a8,8,0,0,1,6.6,2.85l.48.59a28.23,28.23,0,0,1,2.47,3.56l5.56,9.52c1.87,3.41,3.57,5.37,7.26,5.37l56.12.2c3.69,0,4.55-1.68,6.42-5.09l8-12.87,1.49-2.25c2.07-2.71,4.07-2.71,6.06-2.71,2.9,0,6.13,3.63,6.13,6.75a5.91,5.91,0,0,1-.83,3l0,.08-.07.14v0s0,0,0,0L98.44,82.84A14.46,14.46,0,0,1,85.78,90.7H28.05a14.48,14.48,0,0,1-12.67-7.86L1.51,56.94v0l0,0h0l-.11-.19,0,0a5.23,5.23,0,0,1-.27-4.83A6.61,6.61,0,0,1,6.74,47.75Zm44,53.2H62.85l23.23,6.84a6.54,6.54,0,0,1,4.6,6.27H86.74L63.43,107.5H50.15l-23.31,6.56H22.9a6.54,6.54,0,0,1,4.6-6.27Z"/></g></g></svg>