<svg xmlns="http://www.w3.org/2000/svg" viewBox="0 0 67.27 120.54"><defs><style>.cls-1{fill:#1a1a1a;}</style></defs><g id="Layer_2" data-name="Layer 2"><g id="Bureau_floor_lamp" data-name="Bureau/ floor lamp"><path class="cls-1" d="M44.75,42.19H63.06a4.22,4.22,0,0,0,0-8.44h-.3L55.14,3.19A4.19,4.19,0,0,0,51.06,0H16.2a4.2,4.2,0,0,0-4.08,3.19L4.51,33.75H4.2a4.22,4.22,0,0,0,0,8.44H22.52M15.05,1h37.3a1.51,1.51,0,0,1,1.46,1.13l8,31.63H5.63L12.39,6.88A1.08,1.08,0,0,0,12.7,7H38.2C39,7,39,6.25,39,6s-.16-.76-1-.76l-25.3,0,.86-3.13A1.51,1.51,0,0,1,15.05,1ZM43.21,5.21a.87.87,0,0,0,0,1.74h3.47a.87.87,0,0,0,0-1.74Zm-40.48,30h61.7c.81,0,1.47,1.28,1.47,2.86s-.66,2.86-1.47,2.86H2.73c-.81,0-1.47-1.28-1.47-2.86S1.92,35.19,2.73,35.19Z"/><rect class="cls-1" x="33.7" y="41.76" width="1.33" height="73.54"/><path class="cls-1" d="M23.44,50.16a1.2,1.2,0,0,0-1.18,1.21v2.41a1.2,1.2,0,1,0,2.4,0V51.37a1.2,1.2,0,0,0-1.18-1.21Z"/><ellipse class="cls-1" cx="23.46" cy="42.9" rx="1.13" ry="1.13"/><ellipse class="cls-1" cx="23.46" cy="45.59" rx="1.13" ry="1.13"/><ellipse class="cls-1" cx="23.46" cy="48.51" rx="1.13" ry="1.13"/><path d="M55.06,120.54H12.21a1.32,1.32,0,0,1-1.32-1.31v-.34A4.07,4.07,0,0,1,15,114.83H52.31a4.07,4.07,0,0,1,4.07,4.06v.34A1.32,1.32,0,0,1,55.06,120.54ZM15,115.79a3.11,3.11,0,0,0-3.11,3.1v.34a.36.36,0,0,0,.36.35H55.06a.35.35,0,0,0,.35-.35v-.34a3.1,3.1,0,0,0-3.1-3.1Z"/></g></g></svg>