<svg xmlns="http://www.w3.org/2000/svg" viewBox="0 0 50.34 90.9"><defs><style>.cls-1{fill:#1a1a1a;}</style></defs><g id="Layer_2" data-name="Layer 2"><g id="_16-tabouret" data-name="16-tabouret"><path class="cls-1" d="M4.64,78.84a.62.62,0,0,1-.19,0,.75.75,0,0,1-.53-.92L17.58,26.73a.75.75,0,0,1,1.45.38L5.37,78.29A.75.75,0,0,1,4.64,78.84Z"/><path class="cls-1" d="M25.13,90.9a.76.76,0,0,1-.75-.75V27.3a.75.75,0,0,1,1.5,0V90.15A.76.76,0,0,1,25.13,90.9Z"/><path class="cls-1" d="M45.42,78.84a.76.76,0,0,1-.73-.55L30.76,27.5a.76.76,0,0,1,.53-.92.74.74,0,0,1,.92.52L46.14,77.9a.75.75,0,0,1-.52.92A.71.71,0,0,1,45.42,78.84Z"/><path class="cls-1" d="M25.13,61.28a.72.72,0,0,1-.4-.12L11.88,52.94a.73.73,0,0,1,.39-1.35H37.51a.72.72,0,0,1,.7.52.73.73,0,0,1-.29.83h0L25.53,61.15A.66.66,0,0,1,25.13,61.28ZM13.18,52.59l12,7.63,11.5-7.63Zm24.46-.07h0Z"/><path class="cls-1" d="M25.17,17.14C11.06,17.14,0,13.37,0,8.57S11.06,0,25.17,0,50.34,3.76,50.34,8.57,39.28,17.14,25.17,17.14ZM25.17,1C10.71,1,1,4.91,1,8.57s9.71,7.57,24.17,7.57,24.17-3.92,24.17-7.57S39.63,1,25.17,1Z"/><path class="cls-1" d="M27.58,27.42c-.87,0-1.78,0-2.72-.05C3.46,26.6.18,20.34.05,20.08l0-.22V8.57a.5.5,0,0,1,.5-.5.5.5,0,0,1,.5.5V19.72c.48.72,4.6,6,23.9,6.65C35.73,26.76,41.81,24.72,45,23a10.6,10.6,0,0,0,4.33-3.87V8.57a.5.5,0,0,1,1,0l0,10.82C50.15,19.74,46.64,27.42,27.58,27.42Z"/><path class="cls-1" d="M22.77,23.91c-18.09,0-20.2-5.76-20.29-6a.51.51,0,0,1,.32-.63.5.5,0,0,1,.63.31c0,.09,2.21,5.33,19.34,5.33a.5.5,0,0,1,.5.5A.51.51,0,0,1,22.77,23.91Z"/><path class="cls-1" d="M25.87,24.07h-.16a.5.5,0,1,1,0-1s3.16,0,7.15-.33a.51.51,0,0,1,.54.46.5.5,0,0,1-.45.54C29.43,24.05,26.56,24.07,25.87,24.07Z"/></g></g></svg>