<svg xmlns="http://www.w3.org/2000/svg" viewBox="0 0 107.67 119.63"><defs><style>.cls-1{fill:#1a1a1a;}</style></defs><g id="Layer_2" data-name="Layer 2"><g id="Bureau_Armoire_2_portes" data-name="Bureau/Armoire 2 portes"><path class="cls-1" d="M6,0A6,6,0,0,0,4,11.6v94.07a6,6,0,0,0,6,6H13.4l-.76,3a4,4,0,0,0,3.87,4.95h3.86a4,4,0,0,0,3.87-3l1.24-5h56.7l1.25,5a4,4,0,0,0,3.86,3h3.87A4,4,0,0,0,95,114.68l-.75-3H97.7a6,6,0,0,0,6-6V11.6a6,6,0,0,0-2-11.6ZM4.17,1.54h99.49c1.15,0,2.08,2,2.08,4.36s-.93,4.35-2.08,4.35H4.17C3,10.25,2.09,8.3,2.09,5.9S3,1.54,4.17,1.54ZM5.54,12h47.9v98.22H8c-.65,0-2.44-1.54-2.44-2.37Zm49.38,0h47.3v95.82c0,.6-1.31,2.4-2.31,2.4h-45ZM16.38,111.65h7.8l-2,6.48H14.36Zm67,0h7.93l2.05,6.67H85.46ZM44,52.16a1.15,1.15,0,0,0-.63,1.11v6.65A1.17,1.17,0,0,0,44,61c.64.24,1.22-.33,1.22-1.07V53.22C45.18,52.48,44.6,51.91,44,52.16Zm20.05,0a1.16,1.16,0,0,0-.63,1.12V60A1.18,1.18,0,0,0,64,61.11c.64.25,1.22-.33,1.22-1.08v-6.8C65.23,52.49,64.65,51.91,64,52.16Zm2.64,47.89A1,1,0,0,0,66,101v1.76a1,1,0,0,0,.62.92.94.94,0,0,0,1.23-.88v-1.84A.93.93,0,0,0,66.65,100.05Zm8.89,0a.94.94,0,0,0-.63.92v1.76a1,1,0,0,0,.63.92.93.93,0,0,0,1.22-.88v-1.84A.92.92,0,0,0,75.54,100.05Zm8.51,0a.94.94,0,0,0-.63.92v1.76a1,1,0,0,0,.63.92.93.93,0,0,0,1.22-.88v-1.84A.92.92,0,0,0,84.05,100.05Zm8.59,0A1,1,0,0,0,92,101v1.76a1,1,0,0,0,.62.92.94.94,0,0,0,1.23-.88v-1.84A.93.93,0,0,0,92.64,100.05Zm-77.65,0a.94.94,0,0,0-.63.92v1.76a1,1,0,0,0,.63.92.93.93,0,0,0,1.22-.88v-1.84A.92.92,0,0,0,15,100.05Zm8.89,0a.94.94,0,0,0-.63.92v1.76a1,1,0,0,0,.63.92.93.93,0,0,0,1.22-.88v-1.84A.93.93,0,0,0,23.88,100.05Zm8.5,0a1,1,0,0,0-.62.92v1.76a1,1,0,0,0,.62.92.94.94,0,0,0,1.23-.88v-1.84A.93.93,0,0,0,32.38,100.05Zm8.6,0a.94.94,0,0,0-.63.92v1.76a1,1,0,0,0,.63.92.93.93,0,0,0,1.22-.88v-1.84A.92.92,0,0,0,41,100.05Z"/></g></g></svg>