<svg xmlns="http://www.w3.org/2000/svg" viewBox="0 0 122.21 51.76"><defs><style>.cls-1{fill:#1a1a1a;}</style></defs><g id="Layer_2" data-name="Layer 2"><g id="Bureau_ancien_bureau" data-name="Bureau/ancien bureau"><path class="cls-1" d="M119.8,0H2.41A2.41,2.41,0,0,0,0,2.41H0A2.41,2.41,0,0,0,2.41,4.83H119.8a2.41,2.41,0,0,0,2.41-2.42h0A2.41,2.41,0,0,0,119.8,0Zm1.8,2.46a1.6,1.6,0,0,1-1.6,1.6H2.23A1.61,1.61,0,0,1,.62,2.46V2.25A1.6,1.6,0,0,1,2.23.65H120a1.6,1.6,0,0,1,1.6,1.6Z"/><path class="cls-1" d="M2.23,4.06v47.7H35.37V4.06ZM34.46,50.49H3.1v-12H34.46Zm0-12.78H3.1V25.62H34.46Zm0-12.78H3.1V13.35H34.46Zm0-12.41H3.21V5.71H34.46Z"/><path class="cls-1" d="M87,4.35V51.76h33.15V4.35Zm32.29,46.09H88.07v-12h31.25Zm0-12.78H88.07V25.57h31.25Zm0-12.78H88.07V13.3h31.25Zm0-12.4H88.18V5.66h31.14Z"/><rect class="cls-1" x="35.37" y="12.52" width="51.67" height="0.82"/><rect class="cls-1" x="35.37" y="4.06" width="51.67" height="1.64"/><path class="cls-1" d="M15.75,7.9a.61.61,0,0,0-.61.61A1.83,1.83,0,0,0,17,10.33H20.6a1.83,1.83,0,0,0,1.82-1.82.61.61,0,1,0-1.21,0,.61.61,0,0,1-.61.61H17a.62.62,0,0,1-.61-.61A.6.6,0,0,0,15.75,7.9Z"/><path class="cls-1" d="M47.29,7.9a.61.61,0,0,0-.61.61,1.83,1.83,0,0,0,1.82,1.82h3.64A1.82,1.82,0,0,0,54,8.51a.61.61,0,1,0-1.21,0,.61.61,0,0,1-.61.61H48.5a.62.62,0,0,1-.61-.61A.6.6,0,0,0,47.29,7.9Z"/><path class="cls-1" d="M70.43,7.9a.6.6,0,0,0-.6.61,1.82,1.82,0,0,0,1.82,1.82h3.64a1.83,1.83,0,0,0,1.82-1.82.61.61,0,1,0-1.21,0,.62.62,0,0,1-.61.61H71.65A.61.61,0,0,1,71,8.51.61.61,0,0,0,70.43,7.9Z"/><path class="cls-1" d="M15.8,18.4a.61.61,0,0,0-.61.61A1.83,1.83,0,0,0,17,20.84h3.64A1.83,1.83,0,0,0,22.48,19a.61.61,0,0,0-.61-.61.61.61,0,0,0-.61.61.61.61,0,0,1-.6.61H17a.61.61,0,0,1-.61-.61A.61.61,0,0,0,15.8,18.4Z"/><path class="cls-1" d="M15.8,30.45a.61.61,0,0,0-.61.61A1.83,1.83,0,0,0,17,32.88h3.64a1.83,1.83,0,0,0,1.82-1.82.61.61,0,0,0-.61-.61.61.61,0,0,0-.61.61.61.61,0,0,1-.6.61H17a.61.61,0,0,1-.61-.61A.61.61,0,0,0,15.8,30.45Z"/><path class="cls-1" d="M15.75,43.28a.6.6,0,0,0-.61.6A1.83,1.83,0,0,0,17,45.71H20.6a1.83,1.83,0,0,0,1.82-1.83.61.61,0,0,0-1.21,0,.61.61,0,0,1-.61.61H17a.61.61,0,0,1-.61-.61A.6.6,0,0,0,15.75,43.28Z"/><path class="cls-1" d="M100.69,7.9a.61.61,0,0,0-.61.61,1.83,1.83,0,0,0,1.82,1.82h3.65a1.83,1.83,0,0,0,1.82-1.82.61.61,0,1,0-1.22,0,.61.61,0,0,1-.6.61H101.9a.61.61,0,0,1-.6-.61A.61.61,0,0,0,100.69,7.9Z"/><path class="cls-1" d="M100.75,18.4a.61.61,0,0,0-.61.61A1.83,1.83,0,0,0,102,20.84h3.64A1.83,1.83,0,0,0,107.42,19a.61.61,0,1,0-1.21,0,.61.61,0,0,1-.61.61H102a.62.62,0,0,1-.61-.61A.6.6,0,0,0,100.75,18.4Z"/><path class="cls-1" d="M100.75,30.45a.61.61,0,0,0-.61.61A1.83,1.83,0,0,0,102,32.88h3.64a1.83,1.83,0,0,0,1.82-1.82.61.61,0,1,0-1.21,0,.61.61,0,0,1-.61.61H102a.62.62,0,0,1-.61-.61A.6.6,0,0,0,100.75,30.45Z"/><path class="cls-1" d="M100.69,43.28a.61.61,0,0,0-.61.6,1.83,1.83,0,0,0,1.82,1.83h3.65a1.83,1.83,0,0,0,1.82-1.83.61.61,0,0,0-1.22,0,.6.6,0,0,1-.6.61H101.9a.6.6,0,0,1-.6-.61A.61.61,0,0,0,100.69,43.28Z"/><path class="cls-1" d="M5.08,48.23a.39.39,0,0,0-.27.39v.75a.4.4,0,1,0,.79,0V48.6A.39.39,0,0,0,5.08,48.23Z"/><path class="cls-1" d="M8.63,48.23a.4.4,0,0,0-.27.39v.75a.41.41,0,0,0,.27.39.4.4,0,0,0,.52-.38V48.6A.39.39,0,0,0,8.63,48.23Z"/><path class="cls-1" d="M11.94,48.23a.4.4,0,0,0-.26.39v.75a.4.4,0,1,0,.79,0V48.6A.4.4,0,0,0,11.94,48.23Z"/><path class="cls-1" d="M15.35,48.23a.4.4,0,0,0-.27.39v.75a.41.41,0,0,0,.27.39.4.4,0,0,0,.52-.38V48.6A.39.39,0,0,0,15.35,48.23Z"/><path class="cls-1" d="M18.9,48.23a.4.4,0,0,0-.26.39v.75a.4.4,0,1,0,.79,0V48.6A.4.4,0,0,0,18.9,48.23Z"/><path class="cls-1" d="M22.22,48.23a.39.39,0,0,0-.27.39v.75a.4.4,0,1,0,.79,0V48.6A.39.39,0,0,0,22.22,48.23Z"/><path class="cls-1" d="M25.47,48.23a.4.4,0,0,0-.26.39v.75a.4.4,0,1,0,.79,0V48.6A.4.4,0,0,0,25.47,48.23Z"/><path class="cls-1" d="M29,48.23a.39.39,0,0,0-.27.39v.75a.4.4,0,1,0,.79,0V48.6A.39.39,0,0,0,29,48.23Z"/><path class="cls-1" d="M32.34,48.23a.39.39,0,0,0-.27.39v.75a.4.4,0,1,0,.79,0V48.6A.39.39,0,0,0,32.34,48.23Z"/><path class="cls-1" d="M90.24,48.23a.39.39,0,0,0-.27.39v.75a.4.4,0,1,0,.79,0V48.6A.39.39,0,0,0,90.24,48.23Z"/><path class="cls-1" d="M93.79,48.23a.4.4,0,0,0-.26.39v.75a.4.4,0,1,0,.79,0V48.6A.4.4,0,0,0,93.79,48.23Z"/><path class="cls-1" d="M97.11,48.23a.39.39,0,0,0-.27.39v.75a.4.4,0,1,0,.79,0V48.6A.39.39,0,0,0,97.11,48.23Z"/><path class="cls-1" d="M100.51,48.23a.4.4,0,0,0-.26.39v.75a.4.4,0,0,0,.26.39.4.4,0,0,0,.52-.38V48.6A.39.39,0,0,0,100.51,48.23Z"/><path class="cls-1" d="M104.07,48.23a.39.39,0,0,0-.27.39v.75a.4.4,0,1,0,.79,0V48.6A.39.39,0,0,0,104.07,48.23Z"/><path class="cls-1" d="M107.38,48.23a.39.39,0,0,0-.27.39v.75a.4.4,0,1,0,.79,0V48.6A.39.39,0,0,0,107.38,48.23Z"/><path class="cls-1" d="M110.63,48.23a.4.4,0,0,0-.26.39v.75a.4.4,0,1,0,.79,0V48.6A.4.4,0,0,0,110.63,48.23Z"/><path class="cls-1" d="M114.19,48.23a.39.39,0,0,0-.27.39v.75a.4.4,0,1,0,.79,0V48.6A.39.39,0,0,0,114.19,48.23Z"/><path class="cls-1" d="M117.5,48.23a.4.4,0,0,0-.27.39v.75a.41.41,0,0,0,.27.39.4.4,0,0,0,.52-.38V48.6A.39.39,0,0,0,117.5,48.23Z"/></g></g></svg>