<svg xmlns="http://www.w3.org/2000/svg" viewBox="0 0 93.07 93.86"><defs><style>.cls-1{fill:#1a1a1a;}</style></defs><g id="Layer_2" data-name="Layer 2"><g id="Garage_Etagere" data-name="Garage/ Etagere"><path class="cls-1" d="M91.33,93.86H1.73A1.7,1.7,0,0,1,0,92.18V1.68A1.7,1.7,0,0,1,1.73,0H5.08A1.7,1.7,0,0,1,6.8,1.68V85.75a.74.74,0,0,0,.75.72H42.39a.75.75,0,0,0,.76-.72V1.68A1.69,1.69,0,0,1,44.86,0h3.35a1.7,1.7,0,0,1,1.71,1.68V85.75a.75.75,0,0,0,.76.72H85.52a.74.74,0,0,0,.75-.72V1.68A1.7,1.7,0,0,1,88,0h3.35a1.7,1.7,0,0,1,1.72,1.68v90.5A1.7,1.7,0,0,1,91.33,93.86ZM1.73,1A.74.74,0,0,0,1,1.68v90.5a.74.74,0,0,0,.75.72h89.6a.74.74,0,0,0,.76-.72V1.68A.74.74,0,0,0,91.33,1H88a.74.74,0,0,0-.75.72V85.75a1.7,1.7,0,0,1-1.71,1.68H50.68A1.71,1.71,0,0,1,49,85.75V1.68A.74.74,0,0,0,48.21,1H44.86a.74.74,0,0,0-.76.72V85.75a1.7,1.7,0,0,1-1.71,1.68H7.55a1.7,1.7,0,0,1-1.71-1.68V1.68A.74.74,0,0,0,5.08,1Z"/><path class="cls-1" d="M93.06,10.21H.05V4.44h93ZM1.13,9.12H92V5.52H1.13Z"/><path class="cls-1" d="M6.82,19.69H.07V14H6.82Zm-5.75-1H5.82V15H1.07Z"/><path class="cls-1" d="M6.82,30.33H.07V24.64H6.82Zm-5.75-1H5.82V25.64H1.07Z"/><path class="cls-1" d="M6.82,40.19H.07V34.5H6.82Zm-5.75-1H5.82V35.5H1.07Z"/><path class="cls-1" d="M49.91,20.08H43.16V14.4h6.75Zm-5.75-1h4.75V15.4H44.16Z"/><path class="cls-1" d="M49.91,30.72H43.16V25h6.75Zm-5.75-1h4.75V26H44.16Z"/><path class="cls-1" d="M49.91,40.58H43.16V34.89h6.75Zm-5.75-1h4.75V35.89H44.16Z"/><path class="cls-1" d="M93.07,19.69H86.32V14h6.75Zm-5.75-1h4.75V15H87.32Z"/><path class="cls-1" d="M93.07,30.33H86.32V24.64h6.75Zm-5.75-1h4.75V25.64H87.32Z"/><path class="cls-1" d="M93.07,40.19H86.32V34.5h6.75Zm-5.75-1h4.75V35.5H87.32Z"/><path class="cls-1" d="M6.78,66.25H0V60.57H6.78ZM1,65.25H5.78V61.57H1Z"/><path class="cls-1" d="M6.78,76.89H0V71.21H6.78ZM1,75.89H5.78V72.21H1Z"/><path class="cls-1" d="M6.78,87.06H0v-6H6.78ZM1,86.06H5.78v-4H1Z"/><path class="cls-1" d="M49.87,66.64H43.12V61h6.75Zm-5.75-1h4.75V62H44.12Z"/><path class="cls-1" d="M49.87,77.28H43.12V71.6h6.75Zm-5.75-1h4.75V72.6H44.12Z"/><path class="cls-1" d="M49.87,87.14H43.12V81.46h6.75Zm-5.75-1h4.75V82.46H44.12Z"/><path class="cls-1" d="M93,66.25H86.29V60.57H93Zm-5.74-1H92V61.57H87.29Z"/><path class="cls-1" d="M6.75,58H0V52.27H6.75ZM1,57H5.75V53.27H1Z"/><path class="cls-1" d="M49.83,58.35H43.09V52.66h6.74Zm-5.74-1h4.74V53.66H44.09Z"/><path class="cls-1" d="M93,58H86.25V52.27H93Zm-5.75-1H92V53.27H87.25Z"/><path class="cls-1" d="M93,76.89H86.29V71.21H93Zm-5.74-1H92V72.21H87.29Z"/><path class="cls-1" d="M93,87.07H86.29v-6H93Zm-5.74-1H92v-4H87.29Z"/><path class="cls-1" d="M93,50.09H0V44.32H93ZM1.11,49H92v-3.6H1.11Z"/><path class="cls-1" d="M23.24,87.1H11.33V80.27a2.08,2.08,0,0,1,2.09-2.08H25.33V85A2.1,2.1,0,0,1,23.24,87.1Zm-11-.92h11A1.17,1.17,0,0,0,24.41,85V79.1h-11a1.17,1.17,0,0,0-1.17,1.17Z"/><path class="cls-1" d="M38.41,87.1H26.16a1.76,1.76,0,0,1-1.75-1.75V78.19H36.66a1.75,1.75,0,0,1,1.75,1.75Zm-13.08-8v6.25a.83.83,0,0,0,.83.83H37.49V79.94a.84.84,0,0,0-.83-.84Z"/><path class="cls-1" d="M23.36,45.25H15.5V38.5a2,2,0,0,1,2-2h7.86v6.75A2,2,0,0,1,23.36,45.25Zm-7.09-.77h7.09a1.25,1.25,0,0,0,1.25-1.24v-6h-7.1a1.25,1.25,0,0,0-1.24,1.25Z"/><path class="cls-1" d="M38.53,45.32H26.28a1.75,1.75,0,0,1-1.75-1.75V36.41H36.78a1.76,1.76,0,0,1,1.75,1.75Zm-13.08-8v6.24a.84.84,0,0,0,.83.84H37.61V38.16a.83.83,0,0,0-.83-.83Z"/><path class="cls-1" d="M37.53,37.23H19.94V32.35A1.37,1.37,0,0,1,21.31,31h14.5a1.73,1.73,0,0,1,1.72,1.72Zm-16.74-.85H36.68V32.69a.87.87,0,0,0-.87-.86H21.31a.52.52,0,0,0-.52.52Z"/><path class="cls-1" d="M66.42,45.37H62V38.5a2.13,2.13,0,0,1,2.13-2.13h4.43v6.87A2.13,2.13,0,0,1,66.42,45.37Zm-3.44-1h3.44a1.13,1.13,0,0,0,1.12-1.13V37.37H64.11A1.14,1.14,0,0,0,63,38.5Z"/><path class="cls-1" d="M81.58,45.32H69.34a1.75,1.75,0,0,1-1.76-1.75V36.41H79.83a1.75,1.75,0,0,1,1.75,1.75Zm-13.08-8v6.24a.85.85,0,0,0,.84.84H80.67V38.16a.84.84,0,0,0-.84-.83Z"/><path class="cls-1" d="M80.66,37.12H66V28.64a1.44,1.44,0,0,1,1.44-1.44H78.87A1.79,1.79,0,0,1,80.66,29ZM67,36.13H79.66V29a.79.79,0,0,0-.79-.8H67.43a.45.45,0,0,0-.45.45Z"/><path class="cls-1" d="M75,87.35H67.11a2,2,0,0,1-2-2V78.59H73a2,2,0,0,1,2,2Zm-9.1-8v6a1.24,1.24,0,0,0,1.24,1.24H74.2v-6A1.25,1.25,0,0,0,73,79.35Z"/><path class="cls-1" d="M64.19,87.42H51.94V80.26a1.76,1.76,0,0,1,1.75-1.75H65.94v7.16A1.75,1.75,0,0,1,64.19,87.42Zm-11.33-.91H64.19a.84.84,0,0,0,.83-.84V79.43H53.69a.83.83,0,0,0-.83.83Z"/><path class="cls-1" d="M70.53,79.33H52.94V74.79a1.73,1.73,0,0,1,1.72-1.72h14.5a1.37,1.37,0,0,1,1.37,1.38Zm-16.74-.85H69.68v-4a.52.52,0,0,0-.52-.52H54.66a.87.87,0,0,0-.87.86Z"/><path class="cls-1" d="M25.33,78.9H13.42a2.09,2.09,0,0,1-2.09-2.09V72.07A2.09,2.09,0,0,1,13.42,70h9.82a2.1,2.1,0,0,1,2.09,2.09Zm-11.91-8a1.17,1.17,0,0,0-1.17,1.17v4.74A1.17,1.17,0,0,0,13.42,78h11V72.07a1.17,1.17,0,0,0-1.17-1.17Z"/><path class="cls-1" d="M28.07,70.63H15.4V61.74a2.12,2.12,0,0,1,2.11-2.12H26a2.12,2.12,0,0,1,2.11,2.12Zm-11.7-1H27.1V61.74A1.14,1.14,0,0,0,26,60.6H17.51a1.14,1.14,0,0,0-1.14,1.14Z"/><path class="cls-1" d="M36.66,78.9H24.41V71.73A1.76,1.76,0,0,1,26.16,70h10.5a1.76,1.76,0,0,1,1.75,1.75v5.41A1.76,1.76,0,0,1,36.66,78.9ZM25.33,78H36.66a.84.84,0,0,0,.83-.84V71.73a.83.83,0,0,0-.83-.83H26.16a.83.83,0,0,0-.83.83Z"/></g></g></svg>