<svg xmlns="http://www.w3.org/2000/svg" viewBox="0 0 113.11 104.29"><defs><style>.cls-1{fill:#1a1a1a;}</style></defs><g id="Layer_2" data-name="Layer 2"><g id="Garage_rand_barbecue" data-name="Garage? rand barbecue"><path d="M92.65,104.29H21A4.3,4.3,0,0,1,16.69,100V95.67H96.86v4.41A4.22,4.22,0,0,1,92.65,104.29ZM17.46,96.44V100A3.53,3.53,0,0,0,21,103.52H92.65a3.44,3.44,0,0,0,3.44-3.44V96.44Z"/><path d="M57.31,96.38H18.59V63.17H57.31Zm-37.8-.92H56.39V64.1H19.51Z"/><path d="M95.12,96.4H56.39V63.19H95.12Zm-37.81-.93H94.19V64.11H57.31Z"/><rect x="47.92" y="71.4" width="1.24" height="11.78" rx="0.62"/><rect x="55.74" y="34.72" width="2.23" height="21.22" rx="1.11" transform="translate(102.18 -11.52) rotate(90)"/><rect x="64.22" y="71.4" width="1.24" height="11.78" rx="0.62"/><path d="M95,64.11H17.87a2,2,0,0,1-2-2V53.66a2,2,0,0,1,2-2H95a2,2,0,0,1,2,2v8.48A2,2,0,0,1,95,64.11ZM17.87,52.65a1,1,0,0,0-1,1v8.48a1,1,0,0,0,1,1H95a1,1,0,0,0,1-1V53.66a1,1,0,0,0-1-1Z"/><path d="M111.39,64.15H94.66v-1h16.73a.73.73,0,0,0,.72-.73V58a.73.73,0,0,0-.72-.73H96.48v-1h14.91A1.73,1.73,0,0,1,113.11,58v4.45A1.72,1.72,0,0,1,111.39,64.15Z"/><path d="M18.45,64.15H2.05A2.05,2.05,0,0,1,0,62.1V58.69a2.45,2.45,0,0,1,2.45-2.45H16.63v1H2.45A1.46,1.46,0,0,0,1,58.69V62.1a1,1,0,0,0,1,1h16.4Z"/><path d="M94.19,52.67H18.77v-.5A18.43,18.43,0,0,1,37.18,33.76H75.79a18.43,18.43,0,0,1,18.4,18.41Zm-74.41-1h73.4a17.43,17.43,0,0,0-17.39-16.9H37.18A17.43,17.43,0,0,0,19.78,51.66Z"/><path class="cls-1" d="M35.46,29.38a.64.64,0,0,1-.64-.58c-.16-1.75,1.17-3,3.37-5.08.7-.67,1.51-1.42,2.39-2.32,3-3,1.28-4.77,1.2-4.84a.65.65,0,0,1,.9-.93A3.58,3.58,0,0,1,43.62,18a6.17,6.17,0,0,1-2.13,4.29c-.89.9-1.71,1.67-2.42,2.34-1.92,1.82-3.08,2.91-3,4a.64.64,0,0,1-.59.7Z"/><path class="cls-1" d="M49,29.38a.64.64,0,0,1-.64-.54c-.15-1,.55-2.16,1.6-3.92a37.08,37.08,0,0,0,3.61-7.43c1.88-5.63-2.5-9.54-2.69-9.7a.65.65,0,0,1-.07-.91.64.64,0,0,1,.91-.06c.05,0,5.23,4.62,3.06,11.08a38.06,38.06,0,0,1-3.71,7.68c-.82,1.35-1.52,2.53-1.44,3.07a.63.63,0,0,1-.54.73Z"/><path class="cls-1" d="M60.81,30a.63.63,0,0,1-.63-.51c-.12-.57.33-1.22,1.31-2.62,2.23-3.2,6.37-9.14,2.34-13.85C59.43,7.83,60.4.62,60.41.55a.64.64,0,0,1,1.27.18c0,.07-.9,6.71,3.12,11.41,4.68,5.46,0,12.18-2.25,15.41a12,12,0,0,0-1.1,1.73.64.64,0,0,1-.52.66Zm.63-.76Z"/><path class="cls-1" d="M79,14.92a.62.62,0,0,1-.47-.21A34.4,34.4,0,0,1,76,10.05a.63.63,0,0,1,.32-.85.64.64,0,0,1,.85.31,35.78,35.78,0,0,0,2.21,4.33.65.65,0,0,1,0,.91A.63.63,0,0,1,79,14.92Z"/><path class="cls-1" d="M74.63,30a.67.67,0,0,1-.64-.61c0-.67.55-1.43,1.92-3.08A23.5,23.5,0,0,0,79,21.91a6.87,6.87,0,0,0,.31-3.75.64.64,0,1,1,1.26-.26,8.17,8.17,0,0,1-.41,4.57,25.3,25.3,0,0,1-3.28,4.64,12.12,12.12,0,0,0-1.63,2.21.61.61,0,0,1-.59.66Z"/><path class="cls-1" d="M22.36,90a.86.86,0,0,0-.89.93v1.85a.89.89,0,1,0,1.77,0V90.88A.85.85,0,0,0,22.36,90Z"/><path class="cls-1" d="M27.5,90a.85.85,0,0,0-.88.93v1.85a.89.89,0,1,0,1.77,0V90.88A.86.86,0,0,0,27.5,90Z"/><path class="cls-1" d="M32.55,90a.85.85,0,0,0-.88.93v1.85a.89.89,0,1,0,1.77,0V90.88A.86.86,0,0,0,32.55,90Z"/><path class="cls-1" d="M37.36,90a.85.85,0,0,0-.88.93v1.85a.89.89,0,1,0,1.77,0V90.88A.86.86,0,0,0,37.36,90Z"/><path class="cls-1" d="M42.37,90a.86.86,0,0,0-.89.93v1.85a.89.89,0,1,0,1.77,0V90.88A.85.85,0,0,0,42.37,90Z"/><path class="cls-1" d="M47.51,90a.85.85,0,0,0-.88.93v1.85a.89.89,0,1,0,1.77,0V90.88A.86.86,0,0,0,47.51,90Z"/><path class="cls-1" d="M52.56,90a.86.86,0,0,0-.89.93v1.85a.89.89,0,1,0,1.77,0V90.88A.85.85,0,0,0,52.56,90Z"/><path class="cls-1" d="M60.65,90a.85.85,0,0,0-.88.93v1.85a.89.89,0,1,0,1.77,0V90.88A.86.86,0,0,0,60.65,90Z"/><path class="cls-1" d="M65.8,90a.86.86,0,0,0-.89.93v1.85a.89.89,0,1,0,1.77,0V90.88A.85.85,0,0,0,65.8,90Z"/><path class="cls-1" d="M70.85,90a.86.86,0,0,0-.89.93v1.85a.89.89,0,1,0,1.77,0V90.88A.85.85,0,0,0,70.85,90Z"/><path class="cls-1" d="M75.66,90a.86.86,0,0,0-.89.93v1.85a.89.89,0,1,0,1.77,0V90.88A.85.85,0,0,0,75.66,90Z"/><path class="cls-1" d="M80.66,90a.85.85,0,0,0-.88.93v1.85a.89.89,0,1,0,1.77,0V90.88A.86.86,0,0,0,80.66,90Z"/><path class="cls-1" d="M85.81,90a.86.86,0,0,0-.89.93v1.85a.89.89,0,1,0,1.77,0V90.88A.85.85,0,0,0,85.81,90Z"/><path class="cls-1" d="M90.85,90a.85.85,0,0,0-.88.93v1.85a.89.89,0,1,0,1.77,0V90.88A.86.86,0,0,0,90.85,90Z"/></g></g></svg>