<svg xmlns="http://www.w3.org/2000/svg" viewBox="0 0 93.67 119.15"><defs><style>.cls-1{fill:#1a1a1a;}</style></defs><g id="Layer_2" data-name="Layer 2"><g id="Garage_petit_barbecue" data-name="Garage/petit barbecue"><path class="cls-1" d="M70.57,108a2.54,2.54,0,1,0,2.54-2.56A2.55,2.55,0,0,0,70.57,108Z"/><path class="cls-1" d="M88.05,38.59H5.62a5.62,5.62,0,1,0,0,11.24H7.54L7.74,51c2,11.67,9,25.12,18.64,30.82l-13,30a5.34,5.34,0,0,0,9.89,4l7.84-19.17H62.61l1.71,4.18a11.24,11.24,0,1,0,9.87-4.12l-6.89-15C76.89,76.08,83.89,62.63,85.94,51l.19-1.13h1.92a5.62,5.62,0,1,0,0-11.24Zm-64.9,75.49c-.84,1.94-3,5.65-6.82,3.88h0a4,4,0,0,1-2.4-5.34L27.11,82.4l7.09,2.68Zm8.17-18.34,3.81-10.83A29.27,29.27,0,0,0,46,87h.71a27.49,27.49,0,0,0,10.55-1.67l5.09,10.4Zm45.77,2.77A10.29,10.29,0,1,1,62.86,108a10.44,10.44,0,0,1,4.38-8.41,10.18,10.18,0,0,1,4-1.7,8.82,8.82,0,0,1,1.88-.18A10.11,10.11,0,0,1,77.09,98.51Zm-4.15-2.06a14.53,14.53,0,0,0-7.56,3.34c-.22.17-7.47-15.13-7.47-15.13-.45-1,0-4.2,1.87-5L61,79.07a3.72,3.72,0,0,1,4.71,1.25ZM85.28,50.36c-2,11.15-9,25.12-18.19,30.68-1.06-1.5-2.49-3.11-4.42-3.11a5.75,5.75,0,0,0-4.8,2.53A5.69,5.69,0,0,0,57,84.73,38.77,38.77,0,0,1,47.29,86h-.73A38.8,38.8,0,0,1,37,84.77q-2-.51-3.9-1.2a40.83,40.83,0,0,1-6.75-3.27C17.19,74.74,10.54,61.47,8.57,50.36l-.08-.53H85.36Zm2.81-1.53H5.17A4.67,4.67,0,0,1,.47,44a5,5,0,0,1,4.7-4.87H88.09a4.83,4.83,0,0,1,5,4.87C93.12,46.64,92.17,48.61,88.09,48.83Z"/><path class="cls-1" d="M16.4,57.58A1.32,1.32,0,0,0,15,59v2.79a1.4,1.4,0,0,0,2.8,0V59A1.32,1.32,0,0,0,16.4,57.58Z"/><path class="cls-1" d="M24.3,57.58A1.32,1.32,0,0,0,22.9,59v2.79a1.4,1.4,0,1,0,2.8,0V59A1.32,1.32,0,0,0,24.3,57.58Z"/><path class="cls-1" d="M32.42,57.58A1.32,1.32,0,0,0,31,59v2.79a1.4,1.4,0,1,0,2.8,0V59A1.32,1.32,0,0,0,32.42,57.58Z"/><path class="cls-1" d="M40.39,57.58A1.32,1.32,0,0,0,39,59v2.79a1.4,1.4,0,1,0,2.79,0V59A1.31,1.31,0,0,0,40.39,57.58Z"/><path class="cls-1" d="M48,57.58a1.32,1.32,0,0,0-1.4,1.4v2.79a1.4,1.4,0,0,0,2.8,0V59A1.32,1.32,0,0,0,48,57.58Z"/><path class="cls-1" d="M55.88,57.58a1.32,1.32,0,0,0-1.4,1.4v2.79a1.4,1.4,0,1,0,2.8,0V59A1.32,1.32,0,0,0,55.88,57.58Z"/><path class="cls-1" d="M64,57.58A1.32,1.32,0,0,0,62.6,59v2.79a1.4,1.4,0,0,0,2.8,0V59A1.32,1.32,0,0,0,64,57.58Z"/><path class="cls-1" d="M72,57.58a1.32,1.32,0,0,0-1.4,1.4v2.79a1.4,1.4,0,1,0,2.79,0V59A1.31,1.31,0,0,0,72,57.58Z"/><path class="cls-1" d="M79.16,57.58a1.32,1.32,0,0,0-1.4,1.4v2.79a1.4,1.4,0,1,0,2.79,0V59A1.31,1.31,0,0,0,79.16,57.58Z"/><path class="cls-1" d="M22.56,34.3a.75.75,0,0,1-.75-.68c-.19-2,1.36-3.5,3.94-5.93.82-.78,1.76-1.66,2.79-2.7a6,6,0,0,0,2.05-3.93A2.62,2.62,0,0,0,30,19.34a.75.75,0,0,1,1-1.09A4.12,4.12,0,0,1,32.09,21c0,1.63-.82,3.31-2.49,5-1,1.06-2,1.95-2.82,2.74-2.24,2.12-3.6,3.39-3.48,4.7a.75.75,0,0,1-.68.82Z"/><path class="cls-1" d="M38.41,34.3a.74.74,0,0,1-.74-.64c-.17-1.16.64-2.52,1.87-4.57a43.37,43.37,0,0,0,4.2-8.67C46,13.82,40.66,9.14,40.61,9.09A.74.74,0,0,1,40.53,8,.75.75,0,0,1,41.59,8c.06,0,6.1,5.4,3.57,12.93a44.25,44.25,0,0,1-4.34,9c-.94,1.58-1.76,3-1.67,3.58a.75.75,0,0,1-.63.85Z"/><path class="cls-1" d="M52.15,35a.75.75,0,0,1-.74-.61c-.13-.66.39-1.41,1.54-3.05,2.59-3.73,7.43-10.67,2.72-16.16-5.13-6-4-14.42-4-14.5A.75.75,0,0,1,52.53,0a.75.75,0,0,1,.64.85c0,.08-1.05,7.82,3.64,13.31,5.46,6.38,0,14.23-2.63,18a13.1,13.1,0,0,0-1.28,2,.75.75,0,0,1-.61.77Zm.73-.9h0Z"/><path class="cls-1" d="M73.33,17.42a.72.72,0,0,1-.55-.24,39.11,39.11,0,0,1-2.85-5.45.75.75,0,1,1,1.36-.62,41.34,41.34,0,0,0,2.59,5.05.75.75,0,0,1,0,1.06A.69.69,0,0,1,73.33,17.42Z"/><path class="cls-1" d="M68.29,35a.78.78,0,0,1-.75-.72c-.07-.77.63-1.66,2.23-3.59a27.94,27.94,0,0,0,3.64-5.11,8,8,0,0,0,.36-4.38.75.75,0,1,1,1.47-.31,9.47,9.47,0,0,1-.48,5.34,29.53,29.53,0,0,1-3.83,5.42A14.51,14.51,0,0,0,69,34.22a.72.72,0,0,1-.69.78Z"/></g></g></svg>