<svg xmlns="http://www.w3.org/2000/svg" viewBox="0 0 119.45 86.35"><defs><style>.cls-1{fill:#1a1a1a;}</style></defs><g id="Layer_2" data-name="Layer 2"><g id="Garage_tondeuse_a_gazon" data-name="Garage/ tondeuse a gazon"><path d="M99.31,55.87a10.53,10.53,0,0,0-6-8.47l-1.75-.82V42.5c0-3.16-2.42-4.31-4.5-5L76.24,33.82a4.44,4.44,0,0,0-5.8,2.42,3.62,3.62,0,0,0-.13.35l-1.48-.7a8.8,8.8,0,0,0-6.57-.38.71.71,0,1,0,.44,1.35h0a7.36,7.36,0,0,1,5.51.32L92.73,48.69a9.12,9.12,0,0,1,5.11,6.85L65.4,48.28a36,36,0,0,0-7.76.3V43.91a7.28,7.28,0,0,1,2.57-5.62.71.71,0,0,0,.07-1,.7.7,0,0,0-1-.07,8.7,8.7,0,0,0-3.07,6.7v4.91a24.64,24.64,0,0,0-5.91,1.87L19,8.51a.71.71,0,0,0-1-.14.72.72,0,0,0-.14,1L49,51.36c-5.25,2.92-7.87,7.53-7.34,13.11L42,67.78A9.77,9.77,0,1,0,55.3,80.27h45.33a9.78,9.78,0,1,0,12.54-12.82C111.28,62.12,106.28,57.91,99.31,55.87ZM72,36.34a3.21,3.21,0,0,1,3.8-1.18L86.64,38.9c2.5.77,3.51,1.81,3.51,3.6v3.41L71.62,37.2A3.41,3.41,0,0,1,72,36.34ZM46.26,84.92a8.35,8.35,0,1,1,8.35-8.35A8.34,8.34,0,0,1,46.26,84.92Zm9.49-6.07A9.76,9.76,0,0,0,43.39,67.23l-.28-2.9c-.5-5.21,2.08-9.51,7.28-12.12a23.72,23.72,0,0,1,6.66-2.11,34.15,34.15,0,0,1,8.14-.41L98.5,57.15l.43.09C105,59,109.45,62.52,111.43,67a9.74,9.74,0,0,0-11.25,11.89ZM118,76.57a8.35,8.35,0,1,1-8.35-8.35A8.35,8.35,0,0,1,118,76.57Zm-8.35-5.76a5.76,5.76,0,1,1-3.27,1,.71.71,0,0,1,.81,1.17,4.35,4.35,0,1,0,2.46-.76.72.72,0,1,1,0-1.43ZM39.28,48.5l2.17-2.9a.71.71,0,0,0,0-.85L21.94,18.52a.7.7,0,0,0-1-.15L14.6,22.93a4.28,4.28,0,0,0-1.73,4.17l2.4,14.67A4.31,4.31,0,0,0,16.37,44l4.05,4.32a4.3,4.3,0,0,0,2.7,1.33l11,1.1a5.12,5.12,0,0,0,.56,0A5.73,5.73,0,0,0,39.28,48.5Zm-5,.85-11-1.11a2.78,2.78,0,0,1-1.8-.89L17.41,43a2.8,2.8,0,0,1-.73-1.49l-2.4-14.67a2.84,2.84,0,0,1,1.15-2.78l5.79-4.16L40,45.17l-1.85,2.47A4.33,4.33,0,0,1,34.28,49.35ZM1.44,11.21a.74.74,0,0,0,.46.29H2a.7.7,0,0,0,.42-.13l10.4-7.59a.72.72,0,0,0,.2-.9l2.67,3.6a.71.71,0,0,0,1.15-.84h0L13.11.6a.71.71,0,0,0-1-.15h0l-.52.4L11.17.29A.74.74,0,0,0,10.7,0a.71.71,0,0,0-.53.13L.83,7A2,2,0,0,0,.39,9.77Zm9-9.5.42.56.56.78L2.84,9.31a.83.83,0,0,1-1.16-.18h0A.83.83,0,0,1,1.86,8Z"/><path class="cls-1" d="M45.66,70.84a5.73,5.73,0,0,0,0,11.46,5.64,5.64,0,0,0,4.47-2.19.73.73,0,0,0-.12-1,.71.71,0,0,0-1,.12,4.2,4.2,0,0,1-3.35,1.65,4.3,4.3,0,0,1,0-8.6.72.72,0,0,0,0-1.43Z"/><path class="cls-1" d="M68.71,70.77a1.34,1.34,0,0,0,0,2.67H74a1.34,1.34,0,0,0,0-2.67Z"/><path class="cls-1" d="M79.53,70.77c-1.06,0-1.76.54-1.76,1.34s.7,1.33,1.76,1.33h7c1,0,1.75-.53,1.75-1.33s-.7-1.34-1.75-1.34Z"/><path class="cls-1" d="M87.25,70.77c-1.06,0-1.76.54-1.76,1.34s.7,1.33,1.76,1.33h7c1,0,1.75-.53,1.75-1.33s-.7-1.34-1.75-1.34Z"/><path class="cls-1" d="M93.82,70.77c-1,0-1.68.54-1.68,1.34s.67,1.33,1.68,1.33h6.7c1,0,1.67-.53,1.67-1.33s-.67-1.34-1.67-1.34Z"/><circle cx="55.87" cy="58.19" r="2.5"/></g></g></svg>