<svg xmlns="http://www.w3.org/2000/svg" viewBox="0 0 113.34 68.03"><defs><style>.cls-1{fill:#1a1a1a;}</style></defs><g id="Layer_2" data-name="Layer 2"><g id="Garage_big_bike" data-name="Garage/ big bike"><path d="M73.46,3.54c-.75.36-.94.14-1,0a.59.59,0,0,1,.25-.81l2.82-1.39a12.51,12.51,0,0,1,2-.94c1.57-.52,2.62-.61,3.65.78a3.9,3.9,0,0,1,.59,1.28L87,22.34l1.79,6.88a17.32,17.32,0,0,1,4.82-.64,19.71,19.71,0,1,1-5.8.87L86.14,23,63.47,43.63c1.8,1.86,1.16,12.11-6,12.32l-.81-.05-1.6-.11-16.7-1a19.72,19.72,0,1,1-7.83-23l7.18-9.75a.83.83,0,0,1,.54-.32L43.68,21l-2.2-4.71H38c-5.79,0-5.56-8.93-.42-8.53L48.26,9.93c4.6.76,5.08,6.32-.59,6.32l-5.17,0,2.23,4.6,39.33-5.55L81,2.89a4.23,4.23,0,0,0-.45-1C79.64,0,78,1.29,77.1,1.59,77.1,1.59,74.2,3.19,73.46,3.54ZM59.69,41.08a7.74,7.74,0,0,1,3.36,2l22.83-21L84.25,16,45,21.58l9.06,19.28L56,40.75c.21,0,2,0,2.16,0Zm-.15,5.39,3.18-3s-2.41-3.21-8.5-2.11l3.12,6.92Zm-1.43,2.21a.8.8,0,0,1-1.43.42H39.43a32.34,32.34,0,0,1-.93,5.14l18.17,1.2c6.48.45,8.32-7.87,6.48-11.55ZM39,49.1H35.37A24.52,24.52,0,0,1,34.23,54l3.84.23A28.39,28.39,0,0,0,39,49.1Zm-4.22,0-15.68,0h-.18l-.1,0h-.16l-.07,0,0,0h0l0,0h0l-.06,0h0l0,0h0l0,0v0l-.06-.1h0l0-.06h0a.64.64,0,0,1-.05-.24h0v0h0l0-.15h0l0-.1h0v0h0v0h0v0h0l0,0,0-.07h0l0,0L21.48,44h-1c-5.29,1-4.91,8.84-.16,9.15l13.37.76A22.29,22.29,0,0,0,34.78,49.1Zm-13-5.71,6.05-8a14.84,14.84,0,0,0-7.91-2.28,15.16,15.16,0,0,0,0,30.31c6,0,10.67-2.92,13.76-9l-13-.74c-6.4-.43-5.37-9.68-.4-10.13Zm6.48-8.63L30,32.44A18.82,18.82,0,1,0,19.75,67.05,19.54,19.54,0,0,0,38,54.73l-3.8-.29a15.68,15.68,0,0,1-14.4,9.74,15.95,15.95,0,1,1,8.53-29.42Zm-5.8,8.76,10.91-.88a15.44,15.44,0,0,0-4.88-6.82Zm8.58-11.31a19,19,0,0,1,7.34,9.72L53,41l-9-19.17-5.85.88ZM38.6,42.6a16.4,16.4,0,0,1,.87,5.78h17l-3.22-6.9Zm-9.72-7.37c2.38,1.46,4.08,4.85,5.2,7.37l3.86-.37c-1.28-3.4-4-7.57-7.26-9.48Zm10,13.15c.07-3-.28-4.54-.81-5.66l-3.82.4a25.24,25.24,0,0,1,1.11,5.26Zm-4.08,0a27.54,27.54,0,0,0-1.16-5.23L22.24,44l-2.77,3.61a.47.47,0,0,0,.35.81ZM48,10.4,37.44,8.27c-4.14-.55-4.67,7.07-.21,7.28h11C52.15,15.55,52.35,11,48,10.4Zm46.2,37.68c.13.46,0,.71-.32.79a.68.68,0,0,1-.82-.53l-4-14.42a15,15,0,1,0,4.67-.74,11.28,11.28,0,0,0-3.72.43ZM88.72,33,88,30.24a18.91,18.91,0,1,0,5.62-.85,13.17,13.17,0,0,0-4.62.55l.77,2.78a22.25,22.25,0,0,1,3.85-.45,16,16,0,1,1-4.89.76Z"/><path class="cls-1" d="M106,43.79l-1.64.22a.81.81,0,0,0-.7.61.84.84,0,0,0,.81,1h.11l1.64-.22a.8.8,0,0,0,.67-.51A.83.83,0,0,0,106,43.79Z"/><path class="cls-1" d="M83.68,50.39a.88.88,0,0,0-.33.06l-1.58.63a.83.83,0,0,0-.53.67.86.86,0,0,0,.85,1,.87.87,0,0,0,.32-.06L84,52a.82.82,0,0,0,.53-.66A.84.84,0,0,0,83.68,50.39Z"/><path class="cls-1" d="M103,52.25a.84.84,0,0,0-1,.65.82.82,0,0,0,.36.87l1.4.93a.89.89,0,0,0,.47.14.85.85,0,0,0,.84-.77.8.8,0,0,0-.38-.77l-1.4-.92A.71.71,0,0,0,103,52.25Z"/><path class="cls-1" d="M88.51,55.78a.8.8,0,0,0-.77.44L87,57.64a.8.8,0,0,0,0,.82.82.82,0,0,0,1.4-.09l.72-1.43a.78.78,0,0,0,0-.74A.83.83,0,0,0,88.51,55.78Z"/><path class="cls-1" d="M95.48,56.35a.87.87,0,0,0-.77.28.84.84,0,0,0-.17.78L95,59a.86.86,0,0,0,.83.63,1.06,1.06,0,0,0,.55-.18.82.82,0,0,0,.28-.87L96.18,57A.85.85,0,0,0,95.48,56.35Z"/></g></g></svg>