<svg xmlns="http://www.w3.org/2000/svg" viewBox="0 0 80.9 59.16"><defs><style>.cls-1{fill:#1a1a1a;}</style></defs><g id="Layer_2" data-name="Layer 2"><g id="Garage_small_bike" data-name="Garage/ small bike"><path d="M52,0s-6.33,0-6.87,0-.84,0-.87.58,1.17.58,1.17.58,6.31-.35,8-.4c1.52,2.75,1.19,4.44.33,6.33a17.39,17.39,0,0,1-1.2,2h0l1.53,5.07.3.8a33.69,33.69,0,0,0-17.2,8.82c-.9,1.1-2.23,2.56-2.93,3.66l-.89,1.64L27.3,19.41l1.36-.26,7.54-1.44.22-.06a1.46,1.46,0,0,0,.79-1.84,3.86,3.86,0,0,0-1-1.81c-1.3-1.2-3-1.54-6-.84-6.9,1.5-10.62.42-10.72.42H18.37a1.82,1.82,0,0,0-.33,0l-1,.11a1.91,1.91,0,0,0-1.29,1.06,2.86,2.86,0,0,0-.47,1.59,5.41,5.41,0,0,0,.18,1.77,4,4,0,0,0,3.13,2.6l.57.07A7.4,7.4,0,0,0,20,20.7l6.53-1h0L32.4,29,33.06,30c-.64,1.34-.64,1.34-1.18,2.55-.3.5-1.2,2.36-1.5,2.86-1.93-5.78-8.58-8.69-14.18-8.69A16.2,16.2,0,1,0,32.4,43,13.37,13.37,0,0,0,31,36.35h0c.4-.8,1.05-2,1.45-2.79,1.3-2.5,2.3-5.6,4.7-8.4,6.2-7.3,15.5-9,17.6-9.3h0l2.68,8.66-.26.1a17.52,17.52,0,0,0-11.8,17.63A17.8,17.8,0,1,0,63.1,23.46,18.68,18.68,0,0,0,59,24l-.79.26L53.53,9.1,54,8.28a7.8,7.8,0,0,0,.64-6.72C53.89-.18,53.74,0,52.58,0ZM16,16.84a6.93,6.93,0,0,1,.2-1.63,1.73,1.73,0,0,1,1.89-1.11c3.73.06,7,1.07,12.46-.53,2.53-.74,4.84-.14,5.78,1a4.23,4.23,0,0,1,.62,1.2,1.18,1.18,0,0,1-.9,1.57L20.13,20A3.38,3.38,0,0,1,16,16.88ZM31.79,43a15.65,15.65,0,1,1-15.7-15.55c5.73,0,12.18,3.08,13.92,8.81a23.4,23.4,0,0,1-2.57,3c-1.39-4.68-6.36-8.14-11.35-8.14a12,12,0,1,0,12,12,15.59,15.59,0,0,0-.35-3.1,14.52,14.52,0,0,0,2.68-3A14,14,0,0,1,31.79,43Zm-4.35.07A11.36,11.36,0,1,1,16.09,31.68C21,31.68,25.8,35.1,27,39.62a15.94,15.94,0,0,1-7.71,2.78,3.42,3.42,0,0,0-3.17-2.68,3.34,3.34,0,0,0,0,6.67A3.28,3.28,0,0,0,19.35,43a19,19,0,0,0,7.85-2.55A13.6,13.6,0,0,1,27.44,43.05Zm-8.64,0a2.71,2.71,0,0,1-5.42,0,2.63,2.63,0,0,1,2.71-2.7h0A2.64,2.64,0,0,1,18.8,43.05ZM63.15,58.31a17.21,17.21,0,0,1-17.3-17A16.85,16.85,0,0,1,57.68,25.2l1.25,3.69a13.4,13.4,0,1,0,4.22-.67,12.15,12.15,0,0,0-3.39.44L58.5,24.94a13.84,13.84,0,0,1,4.55-.7,17,17,0,1,1,.1,34.07Zm3.07-17a3.16,3.16,0,1,1-3.16-3.16A3.12,3.12,0,0,1,66.22,41.28Zm-3.11,3.63a3.7,3.7,0,0,0,3.71-3.64,3.64,3.64,0,0,0-3.57-3.51l-.82,0-2.51-8.58a9.62,9.62,0,0,1,3.19-.37A12.43,12.43,0,1,1,50.47,41.38,12.37,12.37,0,0,1,59,29.47L61.73,38a3.85,3.85,0,0,0-2.33,3.39A3.6,3.6,0,0,0,63.11,44.91Z"/><path class="cls-1" d="M73,38.13l-1.37.18a.69.69,0,0,0,.09,1.37h.09l1.37-.19a.69.69,0,0,0,.57-.42A.7.7,0,0,0,73,38.13Z"/><path class="cls-1" d="M54.36,43.63a.71.71,0,0,0-.28.06l-1.31.52a.69.69,0,0,0-.44.56.71.71,0,0,0,.71.8.8.8,0,0,0,.26,0L54.62,45a.69.69,0,0,0,.44-.55A.73.73,0,0,0,54.36,43.63Z"/><path class="cls-1" d="M70.48,45.19a.7.7,0,0,0-.82.54.69.69,0,0,0,.3.73l1.17.77a.7.7,0,1,0,.77-1.17l-1.16-.77A.64.64,0,0,0,70.48,45.19Z"/><path class="cls-1" d="M58.4,48.13a.7.7,0,0,0-.65.37l-.6,1.19a.66.66,0,0,0,0,.68.71.71,0,0,0,.57.3.67.67,0,0,0,.61-.37l.6-1.19a.67.67,0,0,0,0-.63A.74.74,0,0,0,58.4,48.13Z"/><path class="cls-1" d="M64.22,48.61a.74.74,0,0,0-.65.23.7.7,0,0,0-.14.65l.36,1.37a.73.73,0,0,0,.69.52.79.79,0,0,0,.46-.15.64.64,0,0,0,.23-.72l-.37-1.38A.71.71,0,0,0,64.22,48.61Z"/></g></g></svg>