<svg xmlns="http://www.w3.org/2000/svg" viewBox="0 0 109.13 54.67"><defs><style>.cls-1{fill:#1a1a1a;}</style></defs><g id="Layer_2" data-name="Layer 2"><g id="_38_banc_entree" data-name="38_banc entree"><path class="cls-1" d="M90.17,38.53H87.33c-.39,0-.71.24-.71.53s.32.52.71.52h2.84c.39,0,.71-.24.71-.52S90.56,38.53,90.17,38.53Z"/><path class="cls-1" d="M106.26,49.44,93.16,25.9h13.46c2.19-.06,2.47-1.52,2.51-1.93.05-.56-.3-2-2.74-1.95H3.43C.47,22,.1,23,0,23.44c-.1.62-.1,2.45,2.86,2.45l11.9.08L3.42,50.05c-.09.28-.58,1.46-1.21,2.91-.1.24-.92,1.65.31,1.66l.68,0,.77,0c1.62,0,1.93-.34,2.34-1l7.77-13.88,69.44-.2c1,0,.92-.54.92-.61s0-.46-1-.46l-68.69-.13,2.59-4.71c.2-.35,1.67-3.26,4-3.29l66.3.25c2,0,2.89,2.06,3.49,2.91l12.3,19.77c.4.7.91,1.26,2.54,1.26l1.34,0h0c2.77,0,1.66-.6.21-3C106.86,50.37,106.41,49.74,106.26,49.44ZM4.08,25.5S.32,25.91.45,23.84c.1-1.53,3.7-1.3,3.7-1.3s101.12-.15,102-.1,2.63,0,2.63,1.34-1.54,1.45-1.54,1.45ZM104.76,53.92S90.17,30,89,29.85c-.47-.06-68.83-.39-70,.12S5.08,54.13,5.08,54.13H2.25l13.53-27.9H92.13L108.52,54Z"/><path class="cls-1" d="M48.87,17.18h57.32a1.61,1.61,0,0,1,1.61,1.61v3.65a0,0,0,0,1,0,0H47.51a.13.13,0,0,1-.13-.13V18.67A1.5,1.5,0,0,1,48.87,17.18Z"/><path d="M88,12.39a.33.33,0,0,1-.24-.15l-1.66-2.17L83.9,11.73a.39.39,0,0,1-.53-.07L81.75,9.49l-2.17,1.66a.39.39,0,0,1-.53-.07L77.4,8.9l-2.18,1.66a.33.33,0,0,1-.27.08c-.12,0-.19-.06-.21-.14l-1-1.37c-.08.6-.21,1.24-.33,1.87l1.33,1.75,2.17-1.66a.4.4,0,0,1,.28-.08.37.37,0,0,1,.25.15l1.66,2.17,2.17-1.66a.42.42,0,0,1,.28-.07.32.32,0,0,1,.24.14l1.66,2.18,2.17-1.66a.4.4,0,0,1,.28-.08.37.37,0,0,1,.25.15l1.66,2.17,1.74-1.33c0-.65.09-1.25.18-1.89l-1.44,1A.31.31,0,0,1,88,12.39Z"/><path d="M75.79,4.64a.41.41,0,0,1-.25-.15L73.85,2.31c.08.82.09,1.62.09,2.42l1.53,2,2.17-1.65A.4.4,0,0,1,77.92,5a.33.33,0,0,1,.25.15l1.66,2.17L82,5.66a.43.43,0,0,1,.28-.08.36.36,0,0,1,.24.15L84.18,7.9l2.17-1.65a.4.4,0,0,1,.28-.08.33.33,0,0,1,.25.15l1.66,2.17,2-1.53c.22-.77.47-1.54.73-2.31L89.06,6.3a.39.39,0,0,1-.28.08.42.42,0,0,1-.25-.15L86.88,4.06,84.7,5.72a.42.42,0,0,1-.27.08.42.42,0,0,1-.25-.15L82.55,3.52,80.38,5.18a.42.42,0,0,1-.28.07.4.4,0,0,1-.24-.14L78.2,2.93,76,4.59A.45.45,0,0,1,75.79,4.64Z"/><path d="M89.38,15.86V14.14l-1.53,1.17a.39.39,0,0,1-.28.08.42.42,0,0,1-.25-.15l-1.65-2.17-2.18,1.66a.42.42,0,0,1-.27.08.42.42,0,0,1-.25-.15l-1.62-2.17-2.17,1.66a.46.46,0,0,1-.28.08.44.44,0,0,1-.25-.15L77,11.91l-2.17,1.66a.42.42,0,0,1-.28.07.37.37,0,0,1-.21-.14L73.16,12l-.45,1.66,1.59,2.08,2.18-1.66a.41.41,0,0,1,.27-.07.3.3,0,0,1,.25.15l1.66,2.17,2.17-1.66a.39.39,0,0,1,.28-.08.37.37,0,0,1,.25.15L83,16.88l2.18-1.66a.41.41,0,0,1,.27-.07.32.32,0,0,1,.25.14l1.66,2.18Z"/><path d="M88.38,9.38a.35.35,0,0,1-.25-.14L86.47,7.06,84.3,8.72A.38.38,0,0,1,84,8.8a.42.42,0,0,1-.25-.15L82.15,6.48,80,8.14a.38.38,0,0,1-.28.08.38.38,0,0,1-.24-.15L77.8,5.9,75.63,7.56a.46.46,0,0,1-.28.08.3.3,0,0,1-.21-.15L74,6c0,.72-.07,1.4-.13,2.08l1.27,1.67,2.17-1.66A.39.39,0,0,1,77.56,8a.37.37,0,0,1,.25.15l1.66,2.17,2.17-1.66a.42.42,0,0,1,.27-.08.36.36,0,0,1,.25.15l1.66,2.17L86,9.22a.4.4,0,0,1,.28-.08.33.33,0,0,1,.25.15l1.66,2.17,1.66-1.27c.12-.67.26-1.38.42-2l-1.6,1.16A.35.35,0,0,1,88.38,9.38Z"/><path d="M89.41,16.78l-2,1.5a.38.38,0,0,1-.28.08.42.42,0,0,1-.24-.15L85.27,16,83.1,17.7a.45.45,0,0,1-.28.07.43.43,0,0,1-.25-.14L80.94,15.5l-2.17,1.65a.36.36,0,0,1-.52-.07l-1.66-2.17-2.17,1.66a.46.46,0,0,1-.28.08c-.08,0-.14-.1-.21-.18l-1.49-2c-.25.69-.49,1.38-.78,2.11a1,1,0,0,0,1,1.32A30.81,30.81,0,0,1,88.29,20a1,1,0,0,0,1.32-1C89.51,18.29,89.46,17.52,89.41,16.78Z"/><path d="M73.77,1.5a.41.41,0,0,1,.48.1l1.66,2.17,2.17-1.65A.38.38,0,0,1,78.36,2a.3.3,0,0,1,.24.15l1.66,2.17L82.43,2.7a.37.37,0,0,1,.53.07l1.66,2.17,2.17-1.66a.42.42,0,0,1,.28-.07.3.3,0,0,1,.24.15L89,5.53l2.17-1.66a.39.39,0,0,1,.5,0c0-.15.11-.26.17-.4a1,1,0,0,0-1-1.32A30.78,30.78,0,0,1,75.18.08a1,1,0,0,0-1.43,1A1.41,1.41,0,0,1,73.77,1.5Z"/></g></g></svg>