<svg xmlns="http://www.w3.org/2000/svg" viewBox="0 0 110.55 78.53"><defs><style>.cls-1{fill-rule:evenodd;}.cls-2{fill:#1a1a1a;}</style></defs><g id="Layer_2" data-name="Layer 2"><g id="Console"><path class="cls-1" d="M97.28,76.66c0,.94.17,1.87,1.36,1.87s1.31-.89,1.31-1.82L100,17h8.3c1.23,0,2.23-.73,2.23-1.69V1.7c0-.94-1-1.7-2.21-1.7H2.21C1,0,0,.73,0,1.7V15.34C0,16.28,1,17,2.23,17h8.62l0,59.29c0,.94,0,2,1.21,2s1.26-.78,1.26-1.7V23.85h84Zm0-59.63h-84v5.53h84ZM53.54,16H2.12A1.34,1.34,0,0,1,.78,14.69V2.05A1.35,1.35,0,0,1,2.12.7H53.54a1.35,1.35,0,0,1,1.35,1.35V14.69A1.34,1.34,0,0,1,53.54,16Zm55,0H57a1.34,1.34,0,0,1-1.35-1.35V2.05A1.35,1.35,0,0,1,57,.7H108.5a1.36,1.36,0,0,1,1.35,1.35V14.69A1.35,1.35,0,0,1,108.5,16Z"/><path class="cls-2" d="M81.49,6.89a.74.74,0,0,0-.74.74A2.23,2.23,0,0,0,83,9.86h4.44a2.22,2.22,0,0,0,2.22-2.23.74.74,0,1,0-1.48,0,.74.74,0,0,1-.74.74H83a.74.74,0,0,1-.74-.74A.74.74,0,0,0,81.49,6.89Z"/><path class="cls-2" d="M24.13,6.89a.74.74,0,0,0-.74.74,2.23,2.23,0,0,0,2.22,2.23h4.44a2.22,2.22,0,0,0,2.22-2.23.74.74,0,0,0-1.48,0,.74.74,0,0,1-.74.74H25.61a.74.74,0,0,1-.74-.74A.74.74,0,0,0,24.13,6.89Z"/></g></g></svg>