<svg xmlns="http://www.w3.org/2000/svg" viewBox="0 0 34.72 103.83"><g id="Layer_2" data-name="Layer 2"><g id="_40-_porte_manteau" data-name="40- porte manteau"><path d="M21.41,25.69h-.95V1L18.91,1l0,23.46h-.95V1a1,1,0,0,1,1-1h1.53a1,1,0,0,1,1,1Z"/><path d="M20.44,103.58H18.91a1,1,0,0,1-1-1v-58h1v58h1.52V43.08l8.64-10a1.54,1.54,0,0,1,1.34-.5,1.56,1.56,0,0,1,1.16.81l.69,1.34a2.35,2.35,0,0,1-.37,2.7L21.43,50.24v52.34A1,1,0,0,1,20.44,103.58Zm1-60.13v5.21l9.71-11.94a1.38,1.38,0,0,0,.24-1.58l-.7-1.33a.51.51,0,0,0-.4-.28.49.49,0,0,0-.46.16Z"/><path d="M21.32,23.05l-.78-.63,10.6-13a1.38,1.38,0,0,0,.24-1.58l-.7-1.33a.51.51,0,0,0-.4-.28.47.47,0,0,0-.46.17l-8.51,9.9-.76-.66L29.07,5.7a1.54,1.54,0,0,1,1.34-.5A1.58,1.58,0,0,1,31.57,6l.69,1.34a2.35,2.35,0,0,1-.37,2.7Z"/><path d="M21.32,74.37l-.78-.64,10.6-13a1.38,1.38,0,0,0,.24-1.57l-.7-1.34a.51.51,0,0,0-.4-.28.53.53,0,0,0-.46.17l-8.51,9.9-.76-.65L29.07,57a1.51,1.51,0,0,1,1.34-.5,1.54,1.54,0,0,1,1.16.81l.69,1.33a2.37,2.37,0,0,1-.37,2.7Z"/><path d="M18,74.37l-10.59-13a2.33,2.33,0,0,1-.35-2.67l.69-1.33a1.51,1.51,0,0,1,1.16-.81,1.54,1.54,0,0,1,1.33.49l8.53,9.92-.76.65L9.52,57.67a.52.52,0,0,0-.45-.16.51.51,0,0,0-.4.28L8,59.13a1.35,1.35,0,0,0,.22,1.55L18.81,73.73Z"/><path d="M18,23.05,7.44,10a2.31,2.31,0,0,1-.35-2.67L7.78,6A1.58,1.58,0,0,1,8.94,5.2a1.51,1.51,0,0,1,1.33.49l8.53,9.92-.76.66L9.52,6.35a.54.54,0,0,0-.85.13L8,7.81a1.35,1.35,0,0,0,.22,1.55L18.81,22.42Z"/><path d="M33.89,103.83h-4a2.36,2.36,0,0,1-1.68-.71l-7.59-9a.75.75,0,0,1,1.15-1l7.56,9a.81.81,0,0,0,.56.21h2.83c-.45-.63-1.13-1.48-1.64-2-.17-.19-.34-.39-.5-.59L20.72,86.9a.76.76,0,0,1,.13-1.06.75.75,0,0,1,1,.14l9.9,12.79c.13.17.28.34.43.51,2.83,3.15,2.54,3.79,2.42,4.06l-.2.45Zm-.65-.72h0Z"/><path d="M9.43,103.83H5l-.27-.49c-.12-.27-.41-.91,2.42-4.06.15-.17.3-.34.43-.51L17.44,86a.75.75,0,1,1,1.19.92L8.74,99.69c-.16.2-.33.4-.5.59a25,25,0,0,0-1.64,2H9.43a.84.84,0,0,0,.6-.25l7.52-9a.75.75,0,0,1,1.15,1l-7.56,9A2.36,2.36,0,0,1,9.43,103.83Z"/><path d="M20,24.67c-2.41-1.27-5.94-.61-8.28,3L9.38,26.9c-1.4-.48-5-.94-8,5.09s-.45,8.6.78,9.43c.24.16,1.67,1.19,2,1.44-1.44,4,.17,7.24,2.65,8.39a5.72,5.72,0,0,0,2.41.53c3.5,0,7.89-2.94,11.48-10.2C25.25,32.53,23.64,26.56,20,24.67ZM2.6,40.4c-2-1.35-2.07-4.18-.19-8C4,29.24,5.86,27.56,7.77,27.56A35.41,35.41,0,0,1,14,29.63c.49.45,1.14,3.72-1,8S7.86,43.45,7.2,43.33,2.89,40.59,2.6,40.4Zm17,.61c-4.28,8.64-9.51,11.05-12.55,9.64-1.78-.83-2.92-3.2-2-6.28a4.37,4.37,0,0,0,1.27.5,2.6,2.6,0,0,0,.4,0c2,0,5.33-2.5,7.37-6.61,2.17-4.39,2-8.8.52-10.17a4.75,4.75,0,0,0-1.16-.71c1.89-2.6,4.46-3.12,6.2-2.21C22.66,26.77,23.9,32.38,19.63,41Z"/><rect x="16.64" y="47.26" width="1" height="3.8" transform="translate(-30.42 27.99) rotate(-46.78)"/></g></g></svg>