<svg xmlns="http://www.w3.org/2000/svg" viewBox="0 0 108.01 106.9"><defs><style>.cls-1{fill:#201e1e;}.cls-2{fill:#1a1a1a;}</style></defs><g id="Layer_2" data-name="Layer 2"><g id="Vaisselier"><path d="M.64,5.17H32.47v65H0v-65ZM31.2,6.45H1.28V68.9H31.2Z"/><path d="M108,69.93H73.87V5.17H108ZM75.14,68.66h31.59V6.45H75.14Z"/><path d="M4.46,8.55H27.68l.63.64V30.05H27V12.43a2.6,2.6,0,0,0-2.61-2.6h-17a2.36,2.36,0,0,0-2.36,2.35V59.94a2.69,2.69,0,0,0,2.69,2.68H24.87A2.17,2.17,0,0,0,27,60.46V38.55h1.27V63.26l-.15.43-.48.21H4.46L4,63.69l-.17-.43V9.19l.26-.34Z"/><path class="cls-1" d="M.67,0h106.7l.45.25.19.39V6.45H0V.64L.28.24Zm104.5.72H2.66A1.45,1.45,0,0,0,1.31,2.27V3.42A1.65,1.65,0,0,0,2.84,5.17H105.16a1.69,1.69,0,0,0,1.57-1.79V2.51A1.69,1.69,0,0,0,105.17.72Z"/><path d="M.64,68.9H108V97H0V68.9Zm106.07,1.28H1.28V95.7H106.71Z"/><path d="M3.08,84.14h30.1l.64.63h0v8.45l-.64.64H3.08l-.64-.64h0V84.77l.64-.63ZM32,84.89H4.74a1.4,1.4,0,0,0-1.32,1.48v5.25a1.53,1.53,0,0,0,1.43,1.61h27a1.4,1.4,0,0,0,1.31-1.47V86.23A1.28,1.28,0,0,0,32,84.89Z"/><path d="M3.22,72.45h30.1l.36.28.27.36v8.45l-.63.64H3.22l-.64-.64h0V73.09h0ZM32,73.33H4.61a1.25,1.25,0,0,0-1.19,1.3v5.46a1.25,1.25,0,0,0,1.19,1.3H32a1.25,1.25,0,0,0,1.2-1.3V74.63A1.25,1.25,0,0,0,32,73.33Z"/><path d="M36.74,72.08H71.45l.64.64V93l-.64.64H36.74l-.33-.36L36.1,93V72.72l.37-.27ZM69.88,73H38.22a1.35,1.35,0,0,0-1.34,1.37V91.49a1.36,1.36,0,0,0,1.34,1.38H69.88a1.36,1.36,0,0,0,1.34-1.38V74.34A1.35,1.35,0,0,0,69.88,73Z"/><path d="M.64,95.74H108v5.47l-.16.4-.48.24H.64l-.44-.24-.2-.4V95.74Zm105,.83H2.51a1.43,1.43,0,0,0-1.23,1.56v1.12a1.67,1.67,0,0,0,1.44,1.83H105.59a1.32,1.32,0,0,0,1.14-1.45V98A1.29,1.29,0,0,0,105.62,96.57Z"/><path d="M78.48,8.85h25.11l.44.24.2.36V63.3l-.28.33-.36.27H78.48l-.64-.6V38.71h1.28V60.56a2.18,2.18,0,0,0,2.24,2.13H100.7A2.19,2.19,0,0,0,103,60.56V12.18a2.19,2.19,0,0,0-2.25-2.13H81.36a2.19,2.19,0,0,0-2.24,2.13v18.5H77.84V9.45L78.09,9Z"/><path d="M74.31,83.73h30.1l.64.63v8.45h0l-.64.64H74.31l-.64-.64h0V84.36h0Zm28.9.67H75.88A1.48,1.48,0,0,0,74.5,86v5.46a1.37,1.37,0,0,0,1.28,1.45h27.51a1.3,1.3,0,0,0,1.2-1.38V85.86A1.37,1.37,0,0,0,103.21,84.4Z"/><path d="M74.45,72h30.1l.63.64v8.45h0l-.63.64H74.45l-.64-.64V72.68l.64-.64Zm28.88.74H76a1.57,1.57,0,0,0-1.49,1.64v5.11A1.43,1.43,0,0,0,75.86,81H103.1a1.47,1.47,0,0,0,1.39-1.54V74.07A1.23,1.23,0,0,0,103.33,72.78Z"/><path d="M31.83,32H75.14v4.71H31.2V32Zm41.29.53H33.22c-.41,0-.75.53-.75,1.19V35c0,.58.3,1,.66,1h40c.41,0,.74-.53.74-1.18V33.74C73.87,33.08,73.53,32.55,73.12,32.55Z"/><path class="cls-2" d="M17.44,101.85V105a1.34,1.34,0,0,1-1.34,1.34h-6A1.34,1.34,0,0,1,8.8,105v-3.12H8.31v3.39A1.66,1.66,0,0,0,10,106.9h6.41A1.65,1.65,0,0,0,18,105.25v-3.4Z"/><path class="cls-2" d="M44.35,101.85V105A1.35,1.35,0,0,1,43,106.32h-6A1.35,1.35,0,0,1,35.7,105v-3.12h-.53v3.39a1.66,1.66,0,0,0,1.65,1.66h6.41a1.65,1.65,0,0,0,1.65-1.65v-3.4Z"/><path class="cls-2" d="M71.21,101.85V105a1.35,1.35,0,0,1-1.35,1.34h-6A1.35,1.35,0,0,1,62.56,105v-3.12H62v3.39a1.66,1.66,0,0,0,1.65,1.66h6.41a1.65,1.65,0,0,0,1.65-1.65v-3.4Z"/><path class="cls-2" d="M100.27,101.85V105a1.35,1.35,0,0,1-1.35,1.34H93A1.35,1.35,0,0,1,91.62,105v-3.12h-.53v3.39a1.66,1.66,0,0,0,1.65,1.66h6.41a1.65,1.65,0,0,0,1.65-1.65v-3.4Z"/><path class="cls-2" d="M14.9,76a.65.65,0,0,0-.64.65,1.94,1.94,0,0,0,1.93,1.94h3.88A1.94,1.94,0,0,0,22,76.67a.65.65,0,1,0-1.29,0,.65.65,0,0,1-.64.65H16.19a.65.65,0,0,1-.64-.65A.65.65,0,0,0,14.9,76Z"/><path class="cls-2" d="M15.35,87.7a.65.65,0,0,0-.65.65,1.94,1.94,0,0,0,1.94,1.94h3.87a1.94,1.94,0,0,0,1.94-1.94.65.65,0,1,0-1.29,0,.65.65,0,0,1-.65.65H16.64a.65.65,0,0,1-.65-.65A.65.65,0,0,0,15.35,87.7Z"/><path class="cls-2" d="M86.63,75.61a.65.65,0,0,0-.64.65,1.94,1.94,0,0,0,1.93,1.94H91.8a1.94,1.94,0,0,0,1.93-1.94.65.65,0,1,0-1.29,0,.65.65,0,0,1-.64.65H87.92a.65.65,0,0,1-.64-.65A.65.65,0,0,0,86.63,75.61Z"/><path class="cls-2" d="M86.63,87.29a.65.65,0,0,0-.64.65,1.94,1.94,0,0,0,1.93,1.94H91.8a1.94,1.94,0,0,0,1.93-1.94.65.65,0,1,0-1.29,0,.65.65,0,0,1-.64.65H87.92a.65.65,0,0,1-.64-.65A.65.65,0,0,0,86.63,87.29Z"/><rect class="cls-1" x="77.84" y="32.33" width="1.33" height="4.75" rx="0.47" transform="translate(157.01 69.41) rotate(-180)"/><rect class="cls-1" x="26.98" y="31.83" width="1.33" height="4.75" rx="0.47" transform="translate(55.29 68.41) rotate(180)"/><rect class="cls-1" x="66.86" y="78.76" width="1.33" height="8.23" rx="0.47" transform="translate(135.05 165.76) rotate(-180)"/><path class="cls-2" d="M2.67,65a.74.74,0,0,0-.76.72V67.2a.74.74,0,0,0,.76.72.74.74,0,0,0,.75-.72V65.75A.74.74,0,0,0,2.67,65Z"/><path class="cls-2" d="M7.69,65a.74.74,0,0,0-.75.72V67.2a.76.76,0,0,0,1.51,0V65.75A.74.74,0,0,0,7.69,65Z"/><path class="cls-2" d="M13.08,65a.73.73,0,0,0-.75.72V67.2a.75.75,0,0,0,1.5,0V65.75A.73.73,0,0,0,13.08,65Z"/><path class="cls-2" d="M18.39,65a.74.74,0,0,0-.75.72V67.2a.76.76,0,0,0,1.51,0V65.75A.74.74,0,0,0,18.39,65Z"/><path class="cls-2" d="M24.07,65a.74.74,0,0,0-.76.72V67.2a.74.74,0,0,0,.76.72.73.73,0,0,0,.75-.72V65.75A.73.73,0,0,0,24.07,65Z"/><path class="cls-2" d="M29.46,65a.74.74,0,0,0-.75.72V67.2a.76.76,0,0,0,1.51,0V65.75A.74.74,0,0,0,29.46,65Z"/><path class="cls-2" d="M77.54,64.8a.74.74,0,0,0-.75.73V67a.75.75,0,0,0,1.5,0V65.53A.74.74,0,0,0,77.54,64.8Z"/><path class="cls-2" d="M82.57,64.8a.75.75,0,0,0-.76.73V67a.75.75,0,0,0,.76.73.74.74,0,0,0,.75-.73V65.53A.74.74,0,0,0,82.57,64.8Z"/><path class="cls-2" d="M88,64.8a.74.74,0,0,0-.75.73V67a.74.74,0,0,0,.75.73.75.75,0,0,0,.76-.73V65.53A.75.75,0,0,0,88,64.8Z"/><path class="cls-2" d="M93.27,64.8a.75.75,0,0,0-.76.73V67a.75.75,0,0,0,.76.73A.74.74,0,0,0,94,67V65.53A.74.74,0,0,0,93.27,64.8Z"/><path class="cls-2" d="M98.94,64.8a.74.74,0,0,0-.75.73V67a.74.74,0,0,0,.75.73A.75.75,0,0,0,99.7,67V65.53A.75.75,0,0,0,98.94,64.8Z"/><path class="cls-2" d="M104.34,64.8a.75.75,0,0,0-.76.73V67a.75.75,0,0,0,.76.73.74.74,0,0,0,.75-.73V65.53A.74.74,0,0,0,104.34,64.8Z"/></g></g></svg>