<svg xmlns="http://www.w3.org/2000/svg" viewBox="0 0 55.4 98.51"><g id="Layer_2" data-name="Layer 2"><g id="_28_Cuisine_chaise" data-name="28_Cuisine/ chaise"><path d="M54.5,41.28c-1.29-2.82-2.58-6.8-3.17-8.44-.23-.83-1.76-6.1-2.81-10.09L47.58,19c-.82-3.05-2.7-8.33-4.34-12.67C41.36,1.41,38,.7,36.67.47h-.23C35.62.23,31.28.12,27.76,0V0c-3.52.12-7.86.23-8.68.47h-.23c-1.29.23-4.58.94-6.57,5.86C10.52,10.79,8.76,16,7.94,19L6.89,22.75C5.83,26.62,4.42,32,4.07,32.84A58.46,58.46,0,0,1,.91,41.28C0,43.27-.27,44.8.32,46.2A4.83,4.83,0,0,0,3,48.78l.23.12A47.52,47.52,0,0,0,15.8,52L3.13,96.28a1.73,1.73,0,0,0,1.18,2.11c.11,0,.35.12.47.12a1.77,1.77,0,0,0,1.64-1.18l7.74-27.09,13.6-8.91,13.72,8.91,7.74,27a1.66,1.66,0,0,0,1.64,1.17.7.7,0,0,0,.47-.12,1.67,1.67,0,0,0,1.17-2.11L39.6,52c7.51-.94,11.15-2.46,12.55-3.05l.24-.12a4.49,4.49,0,0,0,2.69-2.58C55.67,44.8,55.44,43.15,54.5,41.28ZM21.78,52.42l5.28,3.52-3.17,2.11L18.5,54.53l.58-2.23C20,52.3,20.84,52.42,21.78,52.42Zm6,.23c1.64,0,3.17-.11,4.57-.11l-4.57,3.05-4.57-3.05c1.4,0,2.93.11,4.57.11m0,3.64,3.17,2.11-3.17,2.11L24.59,58.4Zm-9.38-1.17L23.3,58.4,16,63.09Zm-4,14.07L15.8,64l8.09-5.28,3.17,2.11Zm14-8.33,3.16-2.11L39.6,64,41,69.19Zm11,2.35L32.1,58.4,37,55.12Zm-2.46-8.68-5.4,3.52-3.16-2.11,5.27-3.52a17.14,17.14,0,0,0,2.58-.24Zm17.3-8.2c0,.13-.13.38-.9.75l-.26.13c-2.17.88-8.84,3.63-25.37,3.76-16.53-.13-23.19-2.88-25.37-3.76l-.26-.13c-.77-.37-.89-.62-.89-.75a4.23,4.23,0,0,1,.51-2.5,59.45,59.45,0,0,0,3.59-9.51c.25-.88,1.79-6.39,3.07-10.9l1.16-4c.89-3.13,2.82-8.64,4.61-13.15,1.41-3.38,3.46-3.88,4.48-4.13.13,0,.26-.12.39-.12.64-.13,4.87-.25,8.58-.38,3.72.13,8,.25,8.59.38a.47.47,0,0,1,.38.12c1,.25,3.21.63,4.49,4.13,1.79,4.64,3.72,10,4.61,13.15l1.16,4c1.28,4.39,2.81,9.89,3.07,10.9.77,2.25,2.18,6.38,3.59,9.51A3.31,3.31,0,0,1,54.21,46.33Z"/><path d="M27.8,39.57A28.38,28.38,0,0,1,17.64,37.8a.88.88,0,0,1,.68-1.62,28.71,28.71,0,0,0,19,0,.87.87,0,0,1,1.12.53A.89.89,0,0,1,38,37.82,30.14,30.14,0,0,1,27.8,39.57Z"/></g></g></svg>