<svg xmlns="http://www.w3.org/2000/svg" viewBox="0 0 62.73 97.81"><g id="Layer_2" data-name="Layer 2"><g id="_29-Chaise_haute_bebe" data-name="29-Chaise haute bebe"><path d="M30.36,0A15.76,15.76,0,0,0,14.62,15.74v3.37H8.42A7.9,7.9,0,0,0,1.53,30.87L7.21,41a7.83,7.83,0,0,0,3.9,3.42L0,96.45a1.14,1.14,0,0,0,.87,1.34,1,1,0,0,0,.24,0,1.13,1.13,0,0,0,1.1-.89l11.06-52c.26,0,.51,0,.78,0h6L14.63,89.8a1.13,1.13,0,0,0,1,1.26h.14a1.12,1.12,0,0,0,1.12-1L22.36,45H39.48L45,90.08a1.11,1.11,0,0,0,1.11,1h.14a1.13,1.13,0,0,0,1-1.26L41.74,45H48.9a4.9,4.9,0,0,0,.54,0l11.06,52a1.12,1.12,0,0,0,1.1.89l.23,0a1.13,1.13,0,0,0,.87-1.34l-11.06-52A7.89,7.89,0,0,0,55.76,41l5.67-10.09a7.91,7.91,0,0,0-1.32-9.45,7.81,7.81,0,0,0-5.56-2.31H48.34V16.86A16.88,16.88,0,0,0,31.48,0Zm0,1h1.17A15.4,15.4,0,0,1,46.77,16.51v3.58H43.84a.6.6,0,0,0,0,1.2h3.51a.56.56,0,0,0,.26-.07c.11,0,0-.77.07-.77h7.71a6.66,6.66,0,0,1,4.36,2.17,6.77,6.77,0,0,1,1,7.59L54.79,40.93a5.86,5.86,0,0,1-5.11,3H13.42a5.84,5.84,0,0,1-5.1-3L2.41,30.21a6.4,6.4,0,0,1,.76-7.41c1.11-1.13,3-2.47,4.52-2.47h7l0,.53,25.63.43a.6.6,0,0,0,0-1.2h-24V15.31A14.21,14.21,0,0,1,30.38,1Zm.54,4.64a6.19,6.19,0,0,0-6.19,6.18.57.57,0,0,0,.57.56H37.66a.57.57,0,0,0,.57-.56A6.19,6.19,0,0,0,32,5.62Zm0,1.12H32a5.07,5.07,0,0,1,5,4.5H25.89A5.07,5.07,0,0,1,30.92,6.74ZM10,25.86a3.29,3.29,0,0,0-3.29,3.29,3.44,3.44,0,0,0,.34,1.47l2.35,4.69a7.26,7.26,0,0,0,6.53,4H26.42a.56.56,0,0,0,.56-.56V36a4.5,4.5,0,0,1,9,0v2.82a.56.56,0,0,0,.56.56H47a7.26,7.26,0,0,0,6.53-4l2.35-4.69a3.44,3.44,0,0,0,.34-1.47,3.29,3.29,0,0,0-3.29-3.29H32A.56.56,0,0,0,32,27H46.1v.56c0,1,.09,8.71,2.84,10.36a6.32,6.32,0,0,1-1.95.32H37.1V36a5.62,5.62,0,0,0-11.24,0v2.25H16a6.37,6.37,0,0,1-2-.32c2.75-1.65,2.84-9.38,2.84-10.36V27h5.06a.56.56,0,1,0,0-1.12Zm15.12,0a.56.56,0,0,0,0,1.12h3.51a.56.56,0,1,0,0-1.12ZM10,27h5.7v.56c0,3.12-.69,9.56-2.81,9.56h-.5a6.27,6.27,0,0,1-2-2.3L8.1,30.12a2.2,2.2,0,0,1-.23-1A2.17,2.17,0,0,1,10,27Zm37.18,0h5.7a2.17,2.17,0,0,1,2.17,2.17,2.2,2.2,0,0,1-.23,1L52.52,34.8a6.27,6.27,0,0,1-2,2.3H50c-2.12,0-2.81-6.44-2.81-9.56Z"/></g></g></svg>