<svg xmlns="http://www.w3.org/2000/svg" viewBox="0 0 87.92 114.73"><defs><style>.cls-1{fill:#1a1a1a;}</style></defs><g id="Layer_2" data-name="Layer 2"><g id="cuisine_congelateur" data-name="cuisine/ congelateur"><path class="cls-1" d="M9,0A8.93,8.93,0,0,0,0,8.83v92.86a5.17,5.17,0,0,0,5.19,5.13H7.82v4a4.13,4.13,0,0,0,4.29,4h7a4.14,4.14,0,0,0,4.3-4v-4h41v4a4.13,4.13,0,0,0,4.29,4h7a4.14,4.14,0,0,0,4.3-4v-4h2.62a5.17,5.17,0,0,0,5.19-5.13V8.83a8.93,8.93,0,0,0-9-8.83ZM7.06,1.74h73.8c2.22,0,5.37,3.35,5.37,5.12V103.5a2,2,0,0,1-2.24,2H3.72c-.93.07-2.12-1.39-2.12-2.14L1.69,6.86C1.69,5.18,5.09,1.74,7.06,1.74ZM46.21,73.8a1.36,1.36,0,0,0-1,.41L44,75.47,42.7,74.21a1.4,1.4,0,0,0-2,2L42.56,78v3.65L39.34,80l-.77-2.49a1.4,1.4,0,0,0-1.75-.93,1.42,1.42,0,0,0-.93,1.76l.53,1.7-1.7.52a1.41,1.41,0,0,0,.41,2.75,1.51,1.51,0,0,0,.41-.06L38,82.47l3.09,1.64-3,1.79-2.52-.63A1.4,1.4,0,0,0,34.9,88l1.73.44-.44,1.73a1.4,1.4,0,0,0,1,1.7,1.37,1.37,0,0,0,.34,0,1.4,1.4,0,0,0,1.36-1.06l.64-2.52,3-1.81V90l-1.84,1.84a1.4,1.4,0,1,0,2,2L44,92.6l1.26,1.26a1.4,1.4,0,1,0,2-2L45.36,90V86.37l3.22,1.71.77,2.49a1.39,1.39,0,0,0,1.34,1,1.51,1.51,0,0,0,.41-.06A1.4,1.4,0,0,0,52,89.75L51.51,88l1.7-.52a1.41,1.41,0,0,0-.83-2.69l-2.48.77L46.82,84l3-1.8,2.51.64a1.45,1.45,0,0,0,.35,0A1.4,1.4,0,0,0,53,80.08l-1.72-.44.43-1.73A1.4,1.4,0,0,0,49,77.23l-.63,2.52-3,1.8V78l1.83-1.85a1.39,1.39,0,0,0,0-2A1.36,1.36,0,0,0,46.21,73.8Zm30.28,39.83H68a2.28,2.28,0,0,1-2.28-2.28v-4.63h13.1v4.63A2.29,2.29,0,0,1,76.49,113.63Zm-56.63,0H11.33A2.29,2.29,0,0,1,9,111.35v-4.63h13.1v4.63A2.28,2.28,0,0,1,19.86,113.63ZM2.4,37.6A1.5,1.5,0,0,0,.89,39.11v3a1.51,1.51,0,0,0,3,0v-3A1.5,1.5,0,0,0,2.4,37.6Zm7.54,0a1.51,1.51,0,0,0-1.51,1.51v3a1.51,1.51,0,0,0,3,0v-3A1.5,1.5,0,0,0,9.94,37.6Zm7.54,0A1.5,1.5,0,0,0,16,39.11v3a1.51,1.51,0,1,0,3,0v-3A1.5,1.5,0,0,0,17.48,37.6Zm7.55,0a1.5,1.5,0,0,0-1.51,1.51v3a1.51,1.51,0,1,0,3,0v-3A1.51,1.51,0,0,0,25,37.6Zm7.54,0a1.5,1.5,0,0,0-1.51,1.51v3a1.51,1.51,0,1,0,3,0v-3A1.5,1.5,0,0,0,32.57,37.6Zm7.54,0a1.5,1.5,0,0,0-1.51,1.51v3a1.51,1.51,0,0,0,3,0v-3A1.5,1.5,0,0,0,40.11,37.6Zm7.54,0a1.5,1.5,0,0,0-1.5,1.51v3a1.51,1.51,0,1,0,3,0v-3A1.5,1.5,0,0,0,47.65,37.6Zm7.55,0a1.5,1.5,0,0,0-1.51,1.51v3a1.51,1.51,0,1,0,3,0v-3A1.5,1.5,0,0,0,55.2,37.6Zm7.69,0a1.5,1.5,0,0,0-1.5,1.51v3a1.51,1.51,0,1,0,3,0v-3A1.5,1.5,0,0,0,62.89,37.6Zm7.55,0a1.5,1.5,0,0,0-1.51,1.51v3a1.51,1.51,0,1,0,3,0v-3A1.5,1.5,0,0,0,70.44,37.6Zm7.54,0a1.5,1.5,0,0,0-1.51,1.51v3a1.51,1.51,0,1,0,3,0v-3A1.51,1.51,0,0,0,78,37.6Zm7.54,0A1.5,1.5,0,0,0,84,39.11v3a1.51,1.51,0,0,0,3,0v-3A1.5,1.5,0,0,0,85.52,37.6Z"/><path d="M87.92,22.76H80.18a2.53,2.53,0,0,1-2.11-1.16c-.94-1.44-4.85-6.16-15.86-6.32h-.5c-9.7,0-13.86,4.24-15.21,6.09a3.39,3.39,0,0,1-2.7,1.4H0v-1H43.8a2.36,2.36,0,0,0,1.89-1c1.44-2,5.87-6.5,16-6.5h.51c11.2.16,15.4,4.79,16.69,6.78a1.53,1.53,0,0,0,1.27.7h7.74Z"/><rect x="43.8" y="21.76" width="36.39" height="1"/></g></g></svg>