<svg xmlns="http://www.w3.org/2000/svg" viewBox="0 0 99.55 117.68"><defs><style>.cls-1{fill:#1a1a1a;}</style></defs><g id="Layer_2" data-name="Layer 2"><g id="Cuisine_four" data-name="Cuisine/four"><path class="cls-1" d="M50.64,6a7.55,7.55,0,1,0,7.55,7.55A7.58,7.58,0,0,0,50.64,6Zm0,13.46A5.94,5.94,0,1,1,56.6,13.5,5.89,5.89,0,0,1,50.67,19.43Z"/><path class="cls-1" d="M22.31,10.19a1.66,1.66,0,0,0-1.67,1.66v3.34a1.67,1.67,0,0,0,3.34,0V11.85A1.66,1.66,0,0,0,22.31,10.19Z"/><path class="cls-1" d="M31.87,10.19a1.66,1.66,0,0,0-1.67,1.66v3.34a1.67,1.67,0,1,0,3.34,0V11.85A1.66,1.66,0,0,0,31.87,10.19Z"/><path class="cls-1" d="M12,10.19a1.66,1.66,0,0,0-1.67,1.66v3.34a1.67,1.67,0,0,0,3.34,0V11.85A1.66,1.66,0,0,0,12,10.19Z"/><path class="cls-1" d="M67.43,10.19a1.66,1.66,0,0,0-1.66,1.66v3.34a1.67,1.67,0,1,0,3.33,0V11.85A1.66,1.66,0,0,0,67.43,10.19Z"/><path class="cls-1" d="M77.16,10.19a1.66,1.66,0,0,0-1.67,1.66v3.34a1.67,1.67,0,1,0,3.33,0V11.85A1.66,1.66,0,0,0,77.16,10.19Z"/><path class="cls-1" d="M86.84,10.19a1.66,1.66,0,0,0-1.66,1.66v3.34a1.67,1.67,0,1,0,3.33,0V11.85A1.66,1.66,0,0,0,86.84,10.19Z"/><path class="cls-1" d="M40,58.52c0-.64-.73-1.15-1.62-1.15s-1.62.51-1.62,1.15a6.1,6.1,0,0,1-1.45,4.07,8.2,8.2,0,0,0,0,10.2,6.45,6.45,0,0,1,0,8.15A7.9,7.9,0,0,0,33.54,86c0,.64.72,1.15,1.61,1.15s1.62-.51,1.62-1.15A6.1,6.1,0,0,1,38.22,82a8.16,8.16,0,0,0,0-10.2,6.45,6.45,0,0,1,0-8.15A7.85,7.85,0,0,0,40,58.52Z"/><path class="cls-1" d="M55,58.52c0-.64-.73-1.15-1.62-1.15s-1.62.51-1.62,1.15a6.1,6.1,0,0,1-1.45,4.07,8.2,8.2,0,0,0,0,10.2,6.45,6.45,0,0,1,0,8.15A7.9,7.9,0,0,0,48.57,86c0,.64.72,1.15,1.61,1.15S51.8,86.67,51.8,86A6.1,6.1,0,0,1,53.25,82a8.16,8.16,0,0,0,0-10.2,6.45,6.45,0,0,1,0-8.15A7.85,7.85,0,0,0,55,58.52Z"/><path class="cls-1" d="M69.1,58.52c0-.64-.72-1.15-1.62-1.15s-1.61.51-1.61,1.15a6.15,6.15,0,0,1-1.45,4.07,8.16,8.16,0,0,0,0,10.2,6.45,6.45,0,0,1,0,8.15A7.85,7.85,0,0,0,62.63,86c0,.64.72,1.15,1.62,1.15s1.62-.51,1.62-1.15A6.15,6.15,0,0,1,67.31,82a8.16,8.16,0,0,0,0-10.2,6.49,6.49,0,0,1,0-8.15A7.85,7.85,0,0,0,69.1,58.52Z"/><rect x="0.49" y="26.49" width="98.57" height="1.22"/><path d="M93.06,117.68H6.5A6.6,6.6,0,0,1,0,110.83V6.85A6.61,6.61,0,0,1,6.5,0H93.06a6.61,6.61,0,0,1,6.49,6.85v104A6.6,6.6,0,0,1,93.06,117.68ZM6.5,1.7A4.87,4.87,0,0,0,1.7,6.85v104A4.88,4.88,0,0,0,6.5,116H93.06a4.88,4.88,0,0,0,4.79-5.16V6.85A4.87,4.87,0,0,0,93.06,1.7Z"/><path d="M85.37,99.76H15.91a2.82,2.82,0,0,1-2.65-3v-49a2.82,2.82,0,0,1,2.65-3H85.37a2.82,2.82,0,0,1,2.66,3V96.8A2.82,2.82,0,0,1,85.37,99.76ZM15.91,46.44a1.21,1.21,0,0,0-1,1.31V96.8a1.21,1.21,0,0,0,1,1.31H85.37a1.2,1.2,0,0,0,1-1.31v-49a1.2,1.2,0,0,0-1-1.31Z"/><rect x="14.11" y="35.93" width="73.12" height="2.79" rx="1.4"/><rect class="cls-1" x="0.85" y="106.65" width="97.32" height="0.76"/></g></g></svg>