<svg xmlns="http://www.w3.org/2000/svg" viewBox="0 0 114.56 88.28"><defs><style>.cls-1{fill:#1a1a1a;}</style></defs><g id="Layer_2" data-name="Layer 2"><g id="Cuisine_Four_microondes" data-name="Cuisine/ Four microondes"><path class="cls-1" d="M5.37,0A5.34,5.34,0,0,0,0,5.3V75.92a5.34,5.34,0,0,0,5.37,5.3h5.37V83a5.34,5.34,0,0,0,5.37,5.3h3.58A5.34,5.34,0,0,0,25.06,83V81.22H89.5V83a5.34,5.34,0,0,0,5.37,5.3h3.58a5.34,5.34,0,0,0,5.37-5.3V81.22h5.37a5.34,5.34,0,0,0,5.37-5.3V5.3A5.34,5.34,0,0,0,109.19,0ZM113.55,20.05V53.71h-5.86a7.47,7.47,0,0,0-14.47,0H85.5a4.24,4.24,0,0,1-1.09-.3c-2.19-1.21-4.52-6.1-4.52-12.79S82.22,29,84.41,27.83a5.41,5.41,0,0,0,3-4.73V12.57a3.75,3.75,0,0,0-3.74-3.74H12.57a3.74,3.74,0,0,0-3.74,3.74V53.71H1.35v-49A3.34,3.34,0,0,1,4.68,1.35h105a3.93,3.93,0,0,1,3.92,3.92V20.05ZM12.38,9.74H83.13a2.78,2.78,0,0,1,3,2.83V23a4.53,4.53,0,0,1-1.48,3.52A15.06,15.06,0,0,0,81.42,30C80.2,32.2,79.18,35,79.18,40.62c0,8.21,2.59,11.77,5.13,14.46.25.14,1.68,1.46,1.68,2.37l.12,11.22a3.08,3.08,0,0,1-3,2.64H12.85a2.93,2.93,0,0,1-2.94-2.94V12.29A2.51,2.51,0,0,1,12.38,9.74ZM96.46,13.1a1.59,1.59,0,0,0-1.58,1.59v3.18a1.59,1.59,0,1,0,3.17,0V14.69A1.59,1.59,0,0,0,96.46,13.1Zm8,0a1.59,1.59,0,0,0-1.59,1.59v3.18a1.59,1.59,0,1,0,3.18,0V14.69A1.59,1.59,0,0,0,104.41,13.1Zm8.21,0A1.59,1.59,0,0,0,111,14.69v3.18a1.59,1.59,0,1,0,3.17,0V14.69A1.59,1.59,0,0,0,112.62,13.1Zm-12.2,18.17a5.65,5.65,0,1,0,5.65,5.65A5.65,5.65,0,0,0,100.42,31.27Zm0,1.11A4.59,4.59,0,1,1,95.79,37,4.59,4.59,0,0,1,100.38,32.38Zm.06,16.75a6.47,6.47,0,1,1-5.61,3.23A6.46,6.46,0,0,1,100.44,49.13ZM1.35,57.45H8.83V68.67a3.73,3.73,0,0,0,3.74,3.74H83.63a3.74,3.74,0,0,0,3.74-3.74V58.14a5.21,5.21,0,0,0-.1-.69h6a7.47,7.47,0,0,0,14.47,0h5.86V76.39a3.52,3.52,0,0,1-3.5,3.5H4.7a3.37,3.37,0,0,1-3.35-3.36ZM98.79,69.06a1.33,1.33,0,1,0,0,2.63h6.14a1.33,1.33,0,1,0,0-2.63ZM11.86,81.19H23.67v3a3,3,0,0,1-3,2.95H14.81a3,3,0,0,1-3-2.95Zm78.82,0H102.5v3a3,3,0,0,1-3,3h-5.9a3,3,0,0,1-3-3Z"/><path class="cls-1" d="M65.46,34a1.42,1.42,0,0,1-1.15-.58c-.09-.11-4-4.89-16.2-1.77-11.62,2.95-16.16,1.13-21.76-2a1.42,1.42,0,0,1,1.38-2.48c5.14,2.86,8.83,4.47,19.68,1.71,14.37-3.66,19,2.59,19.21,2.86a1.44,1.44,0,0,1-.34,2A1.47,1.47,0,0,1,65.46,34Z"/><path class="cls-1" d="M65.46,43.64a1.42,1.42,0,0,1-1.15-.58c-.09-.11-4-4.89-16.2-1.78-11.62,3-16.16,1.14-21.76-2a1.42,1.42,0,0,1,1.38-2.48c5.14,2.85,8.83,4.47,19.68,1.71,14.37-3.66,19,2.59,19.21,2.86a1.43,1.43,0,0,1-1.16,2.25Z"/><path class="cls-1" d="M65.46,54a1.42,1.42,0,0,1-1.15-.58c-.09-.11-4-4.89-16.2-1.77-11.62,3-16.16,1.13-21.76-2a1.42,1.42,0,0,1,1.38-2.48c5.14,2.86,8.83,4.47,19.68,1.71,14.37-3.66,19,2.59,19.21,2.86a1.44,1.44,0,0,1-.34,2A1.47,1.47,0,0,1,65.46,54Z"/></g></g></svg>