<svg xmlns="http://www.w3.org/2000/svg" viewBox="0 0 83.12 114.46"><defs><style>.cls-1{fill:#1a1a1a;}</style></defs><g id="Layer_2" data-name="Layer 2"><g id="Cuisine_frigo_american" data-name="Cuisine/frigo american"><path class="cls-1" d="M37.19,96.13a1.11,1.11,0,0,0-1.11,1.11v2.23a1.11,1.11,0,1,0,2.22,0V97.24A1.1,1.1,0,0,0,37.19,96.13Z"/><path class="cls-1" d="M42.75,96.13a1.1,1.1,0,0,0-1.11,1.11v2.23a1.11,1.11,0,1,0,2.22,0V97.24A1.1,1.1,0,0,0,42.75,96.13Z"/><path class="cls-1" d="M48.31,96.13a1.1,1.1,0,0,0-1.11,1.11v2.23a1.11,1.11,0,1,0,2.22,0V97.24A1.11,1.11,0,0,0,48.31,96.13Z"/><path class="cls-1" d="M53.87,96.13a1.1,1.1,0,0,0-1.11,1.11v2.23a1.11,1.11,0,1,0,2.22,0V97.24A1.11,1.11,0,0,0,53.87,96.13Z"/><path class="cls-1" d="M59.54,96.13a1.1,1.1,0,0,0-1.11,1.11v2.23a1.11,1.11,0,1,0,2.22,0V97.24A1.11,1.11,0,0,0,59.54,96.13Z"/><path class="cls-1" d="M65.09,96.13A1.11,1.11,0,0,0,64,97.24v2.23a1.12,1.12,0,1,0,2.23,0V97.24A1.11,1.11,0,0,0,65.09,96.13Z"/><path class="cls-1" d="M70.65,96.13a1.11,1.11,0,0,0-1.11,1.11v2.23a1.11,1.11,0,1,0,2.22,0V97.24A1.1,1.1,0,0,0,70.65,96.13Z"/><path class="cls-1" d="M76.21,96.13a1.1,1.1,0,0,0-1.11,1.11v2.23a1.11,1.11,0,1,0,2.22,0V97.24A1.1,1.1,0,0,0,76.21,96.13Z"/><path class="cls-1" d="M81.77,96.13a1.1,1.1,0,0,0-1.11,1.11v2.23a1.11,1.11,0,1,0,2.22,0V97.24A1.11,1.11,0,0,0,81.77,96.13Z"/><path class="cls-1" d="M1.37,96.13A1.1,1.1,0,0,0,.26,97.24v2.23a1.11,1.11,0,1,0,2.22,0V97.24A1.1,1.1,0,0,0,1.37,96.13Z"/><path class="cls-1" d="M6.93,96.13a1.1,1.1,0,0,0-1.11,1.11v2.23a1.11,1.11,0,1,0,2.22,0V97.24A1.11,1.11,0,0,0,6.93,96.13Z"/><path class="cls-1" d="M12.49,96.13a1.11,1.11,0,0,0-1.12,1.11v2.23a1.12,1.12,0,1,0,2.23,0V97.24A1.11,1.11,0,0,0,12.49,96.13Z"/><path class="cls-1" d="M18,96.13a1.11,1.11,0,0,0-1.11,1.11v2.23a1.11,1.11,0,1,0,2.22,0V97.24A1.1,1.1,0,0,0,18,96.13Z"/><path class="cls-1" d="M23.6,96.13a1.1,1.1,0,0,0-1.11,1.11v2.23a1.11,1.11,0,1,0,2.22,0V97.24A1.1,1.1,0,0,0,23.6,96.13Z"/><path class="cls-1" d="M17,0A17.11,17.11,0,0,0,0,17.17v83.94a5.71,5.71,0,0,0,5.67,5.72H7.56v3.82a3.79,3.79,0,0,0,3.77,3.81H71.78a3.8,3.8,0,0,0,3.78-3.81v-3.82h1.89a5.71,5.71,0,0,0,5.67-5.72V17.17A17.11,17.11,0,0,0,66.12,0ZM1.31,93.93V15.69a14,14,0,0,1,14.05-14H67.52a14,14,0,0,1,14,14.05V102h0a4,4,0,0,1-4,4H5.32a4,4,0,0,1-4-4h0Zm8,13.68h64.2v5.3H9.34ZM24.68,64.92h0a1,1,0,0,1-.95-1V30.75a1,1,0,0,1,.95-.94h0a.94.94,0,0,1,.94.94V64A1,1,0,0,1,24.68,64.92Zm14.59,0h0a1,1,0,0,1-.94-1V30.75a.94.94,0,0,1,.94-.94h0a.94.94,0,0,1,.95.94V64A1,1,0,0,1,39.27,64.92Z"/><rect x="-21.3" y="53.87" width="106.15" height="1.34" transform="translate(-22.76 86.32) rotate(-90)"/><path class="cls-1" d="M18.34,50.45H6.2a1.9,1.9,0,0,1-1.9-1.89V31.22a1.9,1.9,0,0,1,1.9-1.89H18.34a1.9,1.9,0,0,1,1.9,1.89V48.56A1.9,1.9,0,0,1,18.34,50.45ZM6.2,30.29a.93.93,0,0,0-.93.93V48.56a.93.93,0,0,0,.93.93H18.34a.93.93,0,0,0,.93-.93V31.22a.93.93,0,0,0-.93-.93Z"/><path class="cls-1" d="M12.27,46.05a.26.26,0,0,1-.25-.26V34a.26.26,0,0,1,.25-.26.26.26,0,0,1,.26.26V45.79A.26.26,0,0,1,12.27,46.05Z"/></g></g></svg>