<svg xmlns="http://www.w3.org/2000/svg" viewBox="0 0 105.49 115.57"><defs><style>.cls-1{fill:#1a1a1a;}</style></defs><g id="Layer_2" data-name="Layer 2"><g id="Cuisine_gaziniere" data-name="Cuisine/gaziniere"><path class="cls-1" d="M20.25,2.65c-1,0-1.76,0-2.44.05a3.51,3.51,0,0,0-3.24,3.57V7.63l-7.48,0A7.11,7.11,0,0,0,0,14.69v86.57a6.17,6.17,0,0,0,6.15,6.16h6v4.07a4.1,4.1,0,0,0,4,4.08H26.37a4.1,4.1,0,0,0,4.05-4.08v-4.07H75v4.07a4.1,4.1,0,0,0,4.06,4.08H89.24a4.1,4.1,0,0,0,4.05-4.08v-4.07h5.07a7.12,7.12,0,0,0,7.1-7.1V34.42a1.89,1.89,0,0,0,0-.67V14.64a7.11,7.11,0,0,0-7.1-7l-7.47,0-.08-1.31a3.39,3.39,0,0,0-1.74-2.87,8.21,8.21,0,0,0-3.78-.75H70.7c-2.54,0-3.57.44-4.26,1.14a3.67,3.67,0,0,0-1,2.35l-.09,1.4H42.28V6.27c0-1.38-1.15-3.12-2.21-3.31a20.8,20.8,0,0,0-3.92-.31Zm49.41.85h16c2,0,4,.75,4.22,2.1v2H66.25v-2C66.25,4.45,67.93,3.5,69.66,3.5ZM19,3.5H36.84c3.54,0,4.37.41,4.69,2.1v2H15.2V5.56C15.59,3.73,16.66,3.34,19,3.5ZM5.72,9H99.77c2,0,4.27,2.26,4.27,3.6V31.06H1.9a1.88,1.88,0,0,0-.53.06L1.31,15A6.66,6.66,0,0,1,4.14,9.41,4.38,4.38,0,0,1,5.72,9ZM90.4,14.94a5.67,5.67,0,1,0,5.67,5.67A5.69,5.69,0,0,0,90.4,14.94ZM10.12,17.27A1.68,1.68,0,0,0,8.44,19v3.38a1.69,1.69,0,1,0,3.37,0V19A1.69,1.69,0,0,0,10.12,17.27Zm8.44,0A1.69,1.69,0,0,0,16.87,19v3.38a1.69,1.69,0,0,0,3.38,0V19A1.69,1.69,0,0,0,18.56,17.27Zm8.44,0A1.69,1.69,0,0,0,25.31,19v3.38a1.69,1.69,0,0,0,3.38,0V19A1.69,1.69,0,0,0,27,17.27Zm8.44,0A1.69,1.69,0,0,0,33.75,19v3.38a1.69,1.69,0,0,0,3.38,0V19A1.69,1.69,0,0,0,35.44,17.27Zm7.78,0A1.69,1.69,0,0,0,41.53,19v3.38a1.69,1.69,0,0,0,3.38,0V19A1.69,1.69,0,0,0,43.22,17.27ZM90.37,16a4.61,4.61,0,1,1-4.61,4.61A4.57,4.57,0,0,1,90.37,16Zm-89,16.08a1.88,1.88,0,0,0,.53.06H104V100.6A5,5,0,0,1,99,105.65H93.71a2.06,2.06,0,0,0-.7,0H78.73a2.06,2.06,0,0,0-.7,0H27.39a2,2,0,0,0-.69,0H12.42a2.06,2.06,0,0,0-.7,0H4.58a3.2,3.2,0,0,1-3.21-3.25Zm12.24,75.25H28.94v4.48A2.25,2.25,0,0,1,26.62,114H15.89a2.21,2.21,0,0,1-2.28-2.14Zm62.88,0H91.82v4.48A2.25,2.25,0,0,1,89.5,114H78.77a2.21,2.21,0,0,1-2.28-2.14Z"/><path class="cls-1" d="M87.52,90.24H18a3.44,3.44,0,0,1-3.44-3.43v-38A3.44,3.44,0,0,1,18,45.38H87.52A3.44,3.44,0,0,1,91,48.82v38A3.44,3.44,0,0,1,87.52,90.24ZM18,47.12a1.71,1.71,0,0,0-1.71,1.7v38A1.71,1.71,0,0,0,18,88.51H87.52a1.7,1.7,0,0,0,1.7-1.7v-38a1.7,1.7,0,0,0-1.7-1.7Z"/><rect class="cls-1" x="1.31" y="97.23" width="104.15" height="0.76"/><rect class="cls-1" x="28.69" y="38.49" width="49.39" height="1.89" rx="0.94"/><path class="cls-1" d="M12.34,8.26l-1.06-.2c.23-1.16,1.47-7,3.91-7.36,2.24-.37,9-.69,9.25-.7l0,1.08c-.07,0-6.94.32-9.12.68C14.1,2,12.84,5.69,12.34,8.26Z"/><path class="cls-1" d="M44,7.91C43.66,5.19,42.76,2.16,41.89,2a78,78,0,0,0-9.49-.93l0-1a77.29,77.29,0,0,1,9.65,1c2,.4,2.81,5.75,2.94,6.82Z"/><path class="cls-1" d="M62.25,8.26l-1.06-.2c.23-1.16,1.47-7,3.91-7.36,2.25-.37,9-.69,9.26-.7l0,1.08c-.07,0-7,.32-9.13.68C64,2,62.75,5.69,62.25,8.26Z"/><path class="cls-1" d="M93.91,7.91c-.34-2.72-1.24-5.75-2.1-5.92a78,78,0,0,0-9.5-.93l0-1A77.39,77.39,0,0,1,92,1c2,.4,2.81,5.75,2.94,6.82Z"/></g></g></svg>