<svg xmlns="http://www.w3.org/2000/svg" viewBox="0 0 89.62 115.74"><defs><style>.cls-1{fill:#1a1a1a;}.cls-2{fill:#0a0303;}</style></defs><g id="Layer_2" data-name="Layer 2"><g id="Cuisine_lave_vaiselle" data-name="Cuisine/ lave vaiselle"><path d="M83.7,111.24H5.92c-3.32,0-5.92-2.86-5.92-6.51V6.52C0,2.86,2.6,0,5.92,0H83.7C87,0,89.62,2.86,89.62,6.52v98.21C89.62,108.38,87,111.24,83.7,111.24ZM5.92,1.7C3.51,1.7,1.7,3.77,1.7,6.52v98.21c0,2.74,1.81,4.81,4.22,4.81H83.7c2.41,0,4.22-2.07,4.22-4.81V6.52c0-2.75-1.81-4.82-4.22-4.82Z"/><path d="M79.17,115.74h-69a2.43,2.43,0,0,1-2.43-2.44v-2.12A1.2,1.2,0,0,1,9,110H80.19a1.41,1.41,0,0,1,1.41,1.41v1.91A2.43,2.43,0,0,1,79.17,115.74ZM9,110.8a.38.38,0,0,0-.38.38v2.12a1.61,1.61,0,0,0,1.61,1.61h69a1.62,1.62,0,0,0,1.61-1.61v-1.91a.59.59,0,0,0-.59-.59Z"/><path d="M88.77,24H81a2.49,2.49,0,0,1-2.11-1.16c-.94-1.44-4.85-6.16-15.86-6.32h-.5c-9.7,0-13.86,4.24-15.21,6.09a3.36,3.36,0,0,1-2.7,1.4H.85V23h43.8a2.36,2.36,0,0,0,1.89-1c1.47-2,6-6.65,16.53-6.49,11.2.16,15.4,4.8,16.69,6.78A1.51,1.51,0,0,0,81,23h7.74Z"/><rect x="44.65" y="23.04" width="36.39" height="1"/><circle class="cls-1" cx="13.37" cy="12.38" r="2.24"/><circle class="cls-1" cx="23.27" cy="12.38" r="2.24"/><circle class="cls-1" cx="32.77" cy="12.38" r="2.24"/><path class="cls-1" d="M2,99.44a1.13,1.13,0,0,0-1.15,1.11v2.23A1.13,1.13,0,0,0,2,103.9a1.13,1.13,0,0,0,1.14-1.12v-2.23A1.13,1.13,0,0,0,2,99.44Z"/><path class="cls-1" d="M7.73,99.44a1.13,1.13,0,0,0-1.14,1.11v2.23a1.15,1.15,0,0,0,2.29,0v-2.23A1.13,1.13,0,0,0,7.73,99.44Z"/><path class="cls-1" d="M13.47,99.44a1.14,1.14,0,0,0-1.15,1.11v2.23a1.15,1.15,0,0,0,2.3,0v-2.23A1.13,1.13,0,0,0,13.47,99.44Z"/><path class="cls-1" d="M19.21,99.44a1.13,1.13,0,0,0-1.15,1.11v2.23a1.15,1.15,0,0,0,2.3,0v-2.23A1.13,1.13,0,0,0,19.21,99.44Z"/><path class="cls-1" d="M25,99.44a1.13,1.13,0,0,0-1.15,1.11v2.23a1.15,1.15,0,0,0,2.3,0v-2.23A1.14,1.14,0,0,0,25,99.44Z"/><path class="cls-1" d="M30.69,99.44a1.13,1.13,0,0,0-1.15,1.11v2.23a1.15,1.15,0,0,0,2.29,0v-2.23A1.13,1.13,0,0,0,30.69,99.44Z"/><path class="cls-1" d="M36.42,99.44a1.13,1.13,0,0,0-1.14,1.11v2.23a1.15,1.15,0,0,0,2.29,0v-2.23A1.13,1.13,0,0,0,36.42,99.44Z"/><path class="cls-1" d="M42.16,99.44A1.13,1.13,0,0,0,41,100.55v2.23a1.15,1.15,0,0,0,2.29,0v-2.23A1.13,1.13,0,0,0,42.16,99.44Z"/><path class="cls-1" d="M48,99.44a1.13,1.13,0,0,0-1.15,1.11v2.23a1.15,1.15,0,0,0,2.29,0v-2.23A1.13,1.13,0,0,0,48,99.44Z"/><path class="cls-1" d="M53.75,99.44a1.13,1.13,0,0,0-1.14,1.11v2.23a1.15,1.15,0,0,0,2.29,0v-2.23A1.13,1.13,0,0,0,53.75,99.44Z"/><path class="cls-1" d="M59.49,99.44a1.13,1.13,0,0,0-1.15,1.11v2.23a1.15,1.15,0,0,0,2.3,0v-2.23A1.13,1.13,0,0,0,59.49,99.44Z"/><path class="cls-1" d="M65.23,99.44a1.13,1.13,0,0,0-1.15,1.11v2.23a1.15,1.15,0,0,0,2.3,0v-2.23A1.13,1.13,0,0,0,65.23,99.44Z"/><path class="cls-1" d="M71,99.44a1.13,1.13,0,0,0-1.15,1.11v2.23a1.15,1.15,0,0,0,2.29,0v-2.23A1.13,1.13,0,0,0,71,99.44Z"/><path class="cls-1" d="M76.15,99.44A1.13,1.13,0,0,0,75,100.55v2.23a1.15,1.15,0,0,0,2.3,0v-2.23A1.14,1.14,0,0,0,76.15,99.44Z"/><path class="cls-1" d="M81.89,99.44a1.13,1.13,0,0,0-1.15,1.11v2.23a1.15,1.15,0,0,0,2.29,0v-2.23A1.13,1.13,0,0,0,81.89,99.44Z"/><path class="cls-1" d="M87.62,99.44a1.13,1.13,0,0,0-1.14,1.11v2.23a1.15,1.15,0,0,0,2.29,0v-2.23A1.13,1.13,0,0,0,87.62,99.44Z"/><rect x="16.99" y="30.95" width="57.79" height="2.8" rx="1.4"/><path d="M76.13,95H13.24a3.79,3.79,0,0,1-3.78-3.78V44.33a3.79,3.79,0,0,1,3.78-3.78H76.13a3.79,3.79,0,0,1,3.78,3.78V91.25A3.79,3.79,0,0,1,76.13,95ZM13.24,41.39a2.94,2.94,0,0,0-2.94,2.94V91.25a2.94,2.94,0,0,0,2.94,2.94H76.13a2.94,2.94,0,0,0,2.94-2.94V44.33a2.94,2.94,0,0,0-2.94-2.94Z"/><path d="M75.69,92.44h-62a1.9,1.9,0,0,1-1.9-1.9V44.81a1.9,1.9,0,0,1,1.9-1.91h62a1.91,1.91,0,0,1,1.91,1.91V90.54A1.91,1.91,0,0,1,75.69,92.44Zm-62-48.77a1.14,1.14,0,0,0-1.13,1.14V90.54a1.14,1.14,0,0,0,1.13,1.13h62a1.14,1.14,0,0,0,1.13-1.13V44.81a1.14,1.14,0,0,0-1.13-1.14Z"/><path class="cls-2" d="M40.87,63.46c-16.12,0-16.37-.71-16.49-1A19.44,19.44,0,0,1,24,57.55a.54.54,0,0,1,.51-.49.49.49,0,0,1,.49.51,19.83,19.83,0,0,0,.32,4.35c2.61.7,35.19.66,38.4,0a13.43,13.43,0,0,0-.08-4.25.5.5,0,1,1,1-.17c0,.14.55,3.27,0,5-.14.41-.28.84-16.78,1C45.2,63.45,42.91,63.46,40.87,63.46ZM64,62.31h0Z"/><path class="cls-2" d="M40.87,85.74c-16.12,0-16.37-.71-16.49-1A19.54,19.54,0,0,1,24,79.82a.51.51,0,0,1,.51-.49.5.5,0,0,1,.49.52,19.83,19.83,0,0,0,.32,4.35c2.61.69,35.19.66,38.4,0a13.36,13.36,0,0,0-.08-4.24.5.5,0,0,1,.41-.58.49.49,0,0,1,.57.41c0,.13.55,3.27,0,5-.14.41-.28.84-16.78,1C45.2,85.72,42.91,85.74,40.87,85.74ZM64,84.59h0Z"/><path d="M33.62,59.82A5.39,5.39,0,1,1,39,54.43,5.4,5.4,0,0,1,33.62,59.82Zm0-10.28a4.89,4.89,0,1,0,4.9,4.89A4.89,4.89,0,0,0,33.62,49.54Z"/><path d="M33.62,62.63a8.2,8.2,0,1,1,8.2-8.2A8.2,8.2,0,0,1,33.62,62.63Zm0-15.9a7.7,7.7,0,1,0,7.7,7.7A7.7,7.7,0,0,0,33.62,46.73Z"/><path d="M40.8,58.36,40.46,58c1.64-1.56,2.37-3.08,2.18-4.51C42.35,51.36,40,50.11,40,50.1l.24-.44c.1.05,2.55,1.37,2.87,3.76C43.35,55,42.57,56.68,40.8,58.36Z"/><path d="M37.28,62.56a12.57,12.57,0,0,1-2-.13l.07-.49s5.42.79,8.37-1.9a6.68,6.68,0,0,0,1.9-5.6c-.17-2.81-1.11-4.88-2.8-6.15C40,46.1,35.78,47,35.74,47l-.11-.49c.18,0,4.44-.95,7.52,1.37,1.81,1.37,2.82,3.57,3,6.53a7.17,7.17,0,0,1-2.07,6C42.1,62.22,39.2,62.56,37.28,62.56Z"/><path d="M41.66,62.46a11.46,11.46,0,0,1-1.83-.14l.09-.49s4.18.74,6.85-1.43a7,7,0,0,0,2.29-5.55c.06-3.06-.85-5.32-2.7-6.72A8.29,8.29,0,0,0,40,46.8l-.15-.48a8.87,8.87,0,0,1,6.86,1.41c2,1.5,3,3.9,2.9,7.13a7.43,7.43,0,0,1-2.48,5.93A8.66,8.66,0,0,1,41.66,62.46Z"/><path d="M45.33,58.81,45,58.47c1.5-1.68,2.14-3.33,1.91-4.91a6.18,6.18,0,0,0-2.61-3.83l.26-.42a6.53,6.53,0,0,1,2.85,4.18C47.61,55.22,46.92,57,45.33,58.81Z"/><path d="M59.32,62.5H55.81a2.34,2.34,0,0,1-2.34-2.34V54.31h8.2v5.85A2.35,2.35,0,0,1,59.32,62.5Zm-5.6-7.94v5.6a2.1,2.1,0,0,0,2.09,2.09h3.51a2.1,2.1,0,0,0,2.1-2.09v-5.6Z"/><path d="M62.34,54.42H52.83V53.37a.66.66,0,0,1,.67-.66h8.18a.66.66,0,0,1,.66.66Zm-9.25-.25h9v-.8a.41.41,0,0,0-.41-.41H53.5a.41.41,0,0,0-.41.41Z"/><path d="M53.72,59.36h-.89a.89.89,0,0,1-.89-.89V56.71a.89.89,0,0,1,.89-.89h.89Zm-.89-3.29a.64.64,0,0,0-.64.64v1.76a.64.64,0,0,0,.64.64h.64v-3Z"/><path d="M53.72,60.51H52.38a1.65,1.65,0,0,1-1.64-1.65V56.35a1.68,1.68,0,0,1,1.67-1.68h1.31Zm-1.31-5.59A1.43,1.43,0,0,0,51,56.35v2.51a1.4,1.4,0,0,0,1.39,1.4h1.09V54.92Z"/><path d="M55.53,85.15a12.31,12.31,0,0,1-2.63-.32l-.07,0c-.17-.1-4.14-2.71-3.92-10.68v-.24H62.26l0,.22c0,.35.9,8.63-4.62,10.73A6.13,6.13,0,0,1,55.53,85.15Zm-2.47-.8a9,9,0,0,0,4.42,0c4.68-1.78,4.42-8.65,4.33-10H49.41C49.28,81.49,52.7,84.1,53.06,84.35Z"/><path d="M50,82.12a3,3,0,0,1-1.7-.48,2.43,2.43,0,0,1-1-1.77,2.66,2.66,0,0,1,2-3.24l.09.5c-.08,0-1.88.35-1.59,2.67a1.94,1.94,0,0,0,.77,1.43,3,3,0,0,0,2.09.32l.11.49A3.51,3.51,0,0,1,50,82.12Z"/><path d="M49.53,83.25a3.84,3.84,0,0,1-1.74-.38A3.54,3.54,0,0,1,46,80.53c-1-3.54,3-5.07,3-5.08l.17.47c-.15,0-3.59,1.38-2.73,4.47a3.09,3.09,0,0,0,1.5,2,4.42,4.42,0,0,0,3.13.06l.18.47A5.69,5.69,0,0,1,49.53,83.25Z"/><path d="M34.18,85.15a8,8,0,0,1-6-2.21A8.72,8.72,0,0,1,26,77.09v-.24H44l0,.23a7.71,7.71,0,0,1-2.1,5.12c-1.78,2-4.37,2.94-7.69,3Zm-7.71-7.8a8.31,8.31,0,0,0,2.08,5.25,7.56,7.56,0,0,0,5.63,2.05h0c3.18,0,5.64-.94,7.32-2.78a7.55,7.55,0,0,0,2-4.52Z"/><path d="M27.2,77.35h-.08l-.07,0c-.73-.53-1-2.58-1-2.81l0-.24.23,0,17.34-2.8.07.19c.78,2.23-.82,5.26-.89,5.39l-.07.13h-.15C42.46,77.13,29.81,77.35,27.2,77.35Zm-.6-2.68a4.79,4.79,0,0,0,.69,2.18c2.63,0,13.71-.19,15.13-.22.28-.57,1.34-2.89.86-4.65Z"/><path d="M26.47,74.68l-1-2.24.24-.1L42,65.8l.11.19a7.28,7.28,0,0,1,0,6l-.05.13Zm-.32-2,.63,1.41,14.9-2.41a7.1,7.1,0,0,0,.06-5.28Z"/></g></g></svg>