<svg xmlns="http://www.w3.org/2000/svg" viewBox="0 0 83.49 116.13"><defs><style>.cls-1{fill:#1a1a1a;}</style></defs><g id="Layer_2" data-name="Layer 2"><g id="Cuisine_refregirateur" data-name="Cuisine/ refregirateur"><path class="cls-1" d="M2.7,95.94a1.12,1.12,0,0,0-1.11,1.12v2.23a1.11,1.11,0,0,0,2.22,0V97.06A1.11,1.11,0,0,0,2.7,95.94Z"/><path class="cls-1" d="M8.37,95.94a1.12,1.12,0,0,0-1.11,1.12v2.23a1.11,1.11,0,0,0,2.22,0V97.06A1.11,1.11,0,0,0,8.37,95.94Z"/><path class="cls-1" d="M13.93,95.94a1.11,1.11,0,0,0-1.11,1.12v2.23a1.11,1.11,0,0,0,2.22,0V97.06A1.11,1.11,0,0,0,13.93,95.94Z"/><path class="cls-1" d="M19.49,95.94a1.11,1.11,0,0,0-1.11,1.12v2.23a1.11,1.11,0,0,0,2.22,0V97.06A1.12,1.12,0,0,0,19.49,95.94Z"/><path class="cls-1" d="M25.05,95.94a1.12,1.12,0,0,0-1.12,1.12v2.23a1.12,1.12,0,0,0,2.23,0V97.06A1.12,1.12,0,0,0,25.05,95.94Z"/><path class="cls-1" d="M30.6,95.94a1.12,1.12,0,0,0-1.11,1.12v2.23a1.12,1.12,0,0,0,2.23,0V97.06A1.12,1.12,0,0,0,30.6,95.94Z"/><path class="cls-1" d="M36.16,95.94a1.11,1.11,0,0,0-1.11,1.12v2.23a1.11,1.11,0,0,0,2.22,0V97.06A1.11,1.11,0,0,0,36.16,95.94Z"/><path class="cls-1" d="M41.72,95.94a1.11,1.11,0,0,0-1.11,1.12v2.23a1.11,1.11,0,0,0,2.22,0V97.06A1.11,1.11,0,0,0,41.72,95.94Z"/><path class="cls-1" d="M47.28,95.94a1.11,1.11,0,0,0-1.11,1.12v2.23a1.11,1.11,0,0,0,2.22,0V97.06A1.11,1.11,0,0,0,47.28,95.94Z"/><path class="cls-1" d="M53,95.94a1.11,1.11,0,0,0-1.11,1.12v2.23a1.11,1.11,0,0,0,2.22,0V97.06A1.11,1.11,0,0,0,53,95.94Z"/><path class="cls-1" d="M58.51,95.94a1.11,1.11,0,0,0-1.11,1.12v2.23a1.11,1.11,0,0,0,2.22,0V97.06A1.12,1.12,0,0,0,58.51,95.94Z"/><path class="cls-1" d="M64.06,95.94A1.12,1.12,0,0,0,63,97.06v2.23a1.12,1.12,0,0,0,2.23,0V97.06A1.12,1.12,0,0,0,64.06,95.94Z"/><path class="cls-1" d="M69.62,95.94a1.12,1.12,0,0,0-1.11,1.12v2.23a1.11,1.11,0,0,0,2.22,0V97.06A1.11,1.11,0,0,0,69.62,95.94Z"/><path class="cls-1" d="M75.18,95.94a1.11,1.11,0,0,0-1.11,1.12v2.23a1.11,1.11,0,1,0,2.22,0V97.06A1.11,1.11,0,0,0,75.18,95.94Z"/><path class="cls-1" d="M80.74,95.94a1.11,1.11,0,0,0-1.11,1.12v2.23a1.11,1.11,0,0,0,2.22,0V97.06A1.12,1.12,0,0,0,80.74,95.94Z"/><path class="cls-1" d="M17.08,0A17.27,17.27,0,0,0,0,17.42v85.16a5.76,5.76,0,0,0,5.69,5.8h1.9v3.87a3.84,3.84,0,0,0,3.79,3.88H72.1a3.85,3.85,0,0,0,3.8-3.88v-3.87h1.9a5.76,5.76,0,0,0,5.69-5.8V17.42A17.27,17.27,0,0,0,66.41,0Zm65.4,43.72L1.6,43.88V16a14.12,14.12,0,0,1,14-14.16H67.8A14.12,14.12,0,0,1,81.84,16v89a2,2,0,0,1-2,2H3.6a2,2,0,0,1-2-2V45.37l80.71-.26ZM9.91,108.34H73.54a.28.28,0,0,1,.28.28v4.76a1.36,1.36,0,0,1-1.36,1.37H10.9a1.28,1.28,0,0,1-1.28-1.28v-4.85A.28.28,0,0,1,9.91,108.34Zm1-72.69V24.45A1.41,1.41,0,0,1,12.32,23h0a1.41,1.41,0,0,1,1.42,1.42v11.2a1.41,1.41,0,0,1-1.42,1.42h0A1.41,1.41,0,0,1,10.91,35.65Zm.21,29.23V51.24a1.2,1.2,0,0,1,1.2-1.2h0a1.21,1.21,0,0,1,1.21,1.2V64.88a1.21,1.21,0,0,1-1.21,1.21h0A1.21,1.21,0,0,1,11.12,64.88Z"/></g></g></svg>