<svg xmlns="http://www.w3.org/2000/svg" viewBox="0 0 48.98 99.78"><defs><style>.cls-1{fill:#1a1a1a;}</style></defs><g id="Layer_2" data-name="Layer 2"><g id="_16-tabouret" data-name="16-tabouret"><path class="cls-1" d="M1.23,90.32l-.18,0a1.22,1.22,0,0,1-1-1.38L8.83,26.51a1.24,1.24,0,0,1,1.39-1,1.22,1.22,0,0,1,1,1.38L2.44,89.26A1.23,1.23,0,0,1,1.23,90.32Z"/><path class="cls-1" d="M16.27,76h-.08a1.24,1.24,0,0,1-1.14-1.31l3.14-46.07a1.21,1.21,0,0,1,1.3-1.14,1.23,1.23,0,0,1,1.14,1.3L17.5,74.83A1.23,1.23,0,0,1,16.27,76Z"/><path class="cls-1" d="M35.84,99.78a1.22,1.22,0,0,1-1.22-1.16L30.85,28.73a1.23,1.23,0,0,1,2.45-.13l3.77,69.89a1.24,1.24,0,0,1-1.16,1.29Z"/><path class="cls-1" d="M25.37,16.08c-13.24,0-23.61-3.54-23.61-8S12.13,0,25.37,0,49,3.53,49,8,38.61,16.08,25.37,16.08Zm0-15.14C11.81.94,2.7,4.61,2.7,8s9.11,7.1,22.67,7.1S48.05,11.47,48.05,8,38.94.94,25.37.94Z"/><path class="cls-1" d="M27.64,25.72c-.82,0-1.67,0-2.56,0C5,25,1.93,19.08,1.81,18.83l-.05-.2V8A.47.47,0,0,1,2.7,8V18.5c.45.67,4.31,5.59,22.42,6.24,18.32.67,22.5-6,22.93-6.84V8A.47.47,0,1,1,49,8l0,10.15C48.81,18.51,45.51,25.72,27.64,25.72Z"/><path class="cls-1" d="M23.12,22.43c-17,0-19-5.41-19-5.64a.47.47,0,0,1,.89-.3c0,.09,2.06,5,18.14,5a.47.47,0,0,1,0,.94Z"/><path class="cls-1" d="M26,22.58h-.16a.45.45,0,0,1-.46-.47.47.47,0,0,1,.46-.47H26c.65,0,3.3,0,6.56-.3a.45.45,0,0,1,.5.42.46.46,0,0,1-.42.51C29.38,22.56,26.7,22.58,26,22.58Z"/><path class="cls-1" d="M44.86,80.6a1.22,1.22,0,0,1-1.22-1.11l-5-52.41a1.22,1.22,0,0,1,1.11-1.33,1.21,1.21,0,0,1,1.33,1.1l5,52.41A1.24,1.24,0,0,1,45,80.6Z"/><path class="cls-1" d="M26,28.85a51.11,51.11,0,0,1-17.67-3l-.38-.16V22.39H9.16v2.44c2.51.93,17.17,5.81,32.91,0V22.51h1.23l0,3.16-.39.15A47.7,47.7,0,0,1,26,28.85Z"/><path class="cls-1" d="M34,71h-.08L4.32,67.25a.61.61,0,0,1-.53-.68A.6.6,0,0,1,4.47,66L34,69.74A.61.61,0,0,1,34,71Z"/><path class="cls-1" d="M42.6,61.58h-.08L17.35,58.49a.61.61,0,0,1-.54-.68.59.59,0,0,1,.68-.53l25.18,3.09a.61.61,0,0,1-.07,1.21Z"/></g></g></svg>