<svg xmlns="http://www.w3.org/2000/svg" viewBox="0 0 118.86 115.04"><defs><style>.cls-1{fill:#1a1a1a;}</style></defs><g id="Layer_2" data-name="Layer 2"><g id="Carton_classique" data-name="Carton/classique"><path class="cls-1" d="M23.83,0a11.85,11.85,0,0,0-8.42,3.51l-11.92,12A12,12,0,0,0,0,24v85.56A5.53,5.53,0,0,0,5.5,115H113.25a5.64,5.64,0,0,0,5.61-5.65V24a12,12,0,0,0-3.49-8.46l-11.92-12A11.85,11.85,0,0,0,95,0Zm2.25,1.35H92.77V17H26.08Zm-1,0V17H3.64L17.37,3.06C18.69,2,19.82,1.12,25.11,1.35Zm69,.22c5,0,5-.16,7,1.05a12.32,12.32,0,0,1,2.08,1.88L115.34,17H94.11Zm-91,17.19H115.65a1.43,1.43,0,0,1,1.45,1.4h0v90.64a2.34,2.34,0,0,1-2.31,2.36H4a2.34,2.34,0,0,1-2.31-2.36V20.17h0A1.43,1.43,0,0,1,3.13,18.76ZM46.08,48.11a2.25,2.25,0,0,0-1.57.65l-6.67,6.7A2.23,2.23,0,0,0,41,58.61l2.87-2.88V72.65a2.23,2.23,0,1,0,4.45,0V55.73l2.87,2.88a2.23,2.23,0,0,0,3.15,0,2.25,2.25,0,0,0,0-3.15l-6.67-6.7A2.26,2.26,0,0,0,46.08,48.11Zm26.68,0a2.24,2.24,0,0,0-1.57.65l-6.67,6.7a2.22,2.22,0,0,0,3.14,3.15l2.88-2.88V72.65a2.23,2.23,0,1,0,4.45,0V55.73l2.87,2.88a2.22,2.22,0,0,0,3.14,0,2.23,2.23,0,0,0,0-3.15l-6.67-6.7A2.22,2.22,0,0,0,72.76,48.11ZM11.65,100.78a1.11,1.11,0,0,0-1.11,1.12v2.23a1.11,1.11,0,1,0,2.22,0V101.9A1.11,1.11,0,0,0,11.65,100.78Zm5.56,0a1.11,1.11,0,0,0-1.11,1.12v2.23a1.11,1.11,0,0,0,2.22,0V101.9A1.11,1.11,0,0,0,17.21,100.78Zm5.56,0a1.12,1.12,0,0,0-1.12,1.12v2.23a1.12,1.12,0,0,0,2.23,0V101.9A1.12,1.12,0,0,0,22.77,100.78Zm5.55,0a1.12,1.12,0,0,0-1.11,1.12v2.23a1.12,1.12,0,0,0,2.23,0V101.9A1.12,1.12,0,0,0,28.32,100.78Zm5.56,0a1.12,1.12,0,0,0-1.11,1.12v2.23a1.11,1.11,0,0,0,2.22,0V101.9A1.11,1.11,0,0,0,33.88,100.78Zm5.56,0a1.11,1.11,0,0,0-1.11,1.12v2.23a1.11,1.11,0,0,0,2.22,0V101.9A1.11,1.11,0,0,0,39.44,100.78Zm5.56,0a1.11,1.11,0,0,0-1.11,1.12v2.23a1.11,1.11,0,0,0,2.22,0V101.9A1.12,1.12,0,0,0,45,100.78Zm5.56,0a1.12,1.12,0,0,0-1.12,1.12v2.23a1.12,1.12,0,0,0,2.23,0V101.9A1.12,1.12,0,0,0,50.56,100.78Zm6.55,0A1.12,1.12,0,0,0,56,101.9v2.23a1.11,1.11,0,1,0,2.22,0V101.9A1.11,1.11,0,0,0,57.11,100.78Zm5.67,0a1.12,1.12,0,0,0-1.11,1.12v2.23a1.11,1.11,0,0,0,2.22,0V101.9A1.11,1.11,0,0,0,62.78,100.78Zm5.56,0a1.11,1.11,0,0,0-1.11,1.12v2.23a1.11,1.11,0,0,0,2.22,0V101.9A1.11,1.11,0,0,0,68.34,100.78Zm5.56,0a1.11,1.11,0,0,0-1.11,1.12v2.23a1.11,1.11,0,0,0,2.22,0V101.9A1.12,1.12,0,0,0,73.9,100.78Zm5.56,0a1.12,1.12,0,0,0-1.12,1.12v2.23a1.12,1.12,0,0,0,2.23,0V101.9A1.12,1.12,0,0,0,79.46,100.78Zm5.55,0a1.12,1.12,0,0,0-1.11,1.12v2.23a1.12,1.12,0,0,0,2.23,0V101.9A1.12,1.12,0,0,0,85,100.78Zm5.56,0a1.11,1.11,0,0,0-1.11,1.12v2.23a1.11,1.11,0,0,0,2.22,0V101.9A1.11,1.11,0,0,0,90.57,100.78Zm5.56,0A1.11,1.11,0,0,0,95,101.9v2.23a1.11,1.11,0,0,0,2.22,0V101.9A1.11,1.11,0,0,0,96.13,100.78Zm5.56,0a1.11,1.11,0,0,0-1.11,1.12v2.23a1.11,1.11,0,0,0,2.22,0V101.9A1.12,1.12,0,0,0,101.69,100.78Zm5.55,0a1.12,1.12,0,0,0-1.11,1.12v2.23a1.12,1.12,0,0,0,2.23,0V101.9A1.12,1.12,0,0,0,107.24,100.78ZM83.85,84.52H34.94a1.12,1.12,0,0,1-1.12-1.11h0a1.12,1.12,0,0,1,1.12-1.11H83.85A1.11,1.11,0,0,1,85,83.41h0A1.11,1.11,0,0,1,83.85,84.52Zm-13.5-52.3H48.43a1.35,1.35,0,0,1-1.35-1.35h0a1.36,1.36,0,0,1,1.35-1.36H70.35a1.36,1.36,0,0,1,1.35,1.36h0A1.35,1.35,0,0,1,70.35,32.22Z"/></g></g></svg>