<svg xmlns="http://www.w3.org/2000/svg" viewBox="0 0 96.03 112.07"><g id="Layer_2" data-name="Layer 2"><g id="Carton_book_carton" data-name="Carton/book carton"><path d="M19,0a8.12,8.12,0,0,0-6.29,3.16L2.6,15.35A12,12,0,0,0,0,23v82.64c0,3.56,2.4,6.46,5.33,6.46H90.69c2.94,0,5.47-1,5.33-6.46V23a12,12,0,0,0-2.6-7.62L83.36,3.16A8.12,8.12,0,0,0,77.07,0Zm-.86.92h60.1V16.33H18.09Zm61.2.62a6.25,6.25,0,0,1,3.09,1.71L93.3,16.33h-14ZM16.76,16.33H3.31L13.8,3.25a5.91,5.91,0,0,1,3-1.71ZM3.27,17.49H93.21a1.42,1.42,0,0,1,1.44,1.38v89.28a2.13,2.13,0,0,1-1.86,2.33H3.69a2.13,2.13,0,0,1-1.86-2.33V18.87A1.42,1.42,0,0,1,3.27,17.49ZM34.5,46.93a2.24,2.24,0,0,0-1.6.67l-6.78,6.81a2.26,2.26,0,0,0,3.19,3.2l2.93-2.93V71.9a2.26,2.26,0,1,0,4.52,0V54.68l2.93,2.93a2.21,2.21,0,0,0,1.6.67,2.24,2.24,0,0,0,1.6-.67,2.27,2.27,0,0,0,0-3.2L36.1,47.6A2.23,2.23,0,0,0,34.5,46.93Zm27.14,0a2.26,2.26,0,0,0-1.6.67l-6.78,6.81a2.26,2.26,0,0,0,3.2,3.2l2.92-2.93V71.9a2.26,2.26,0,1,0,4.52,0V54.68l2.93,2.93a2.25,2.25,0,0,0,3.2,0,2.27,2.27,0,0,0,0-3.2L63.24,47.6A2.23,2.23,0,0,0,61.64,46.93Zm7.93,36.35H28.84a1.12,1.12,0,0,1-1.12-1.12v0A1.12,1.12,0,0,1,28.84,81H69.57a1.12,1.12,0,0,1,1.12,1.12v0A1.12,1.12,0,0,1,69.57,83.28Zm-56,16.77a1.11,1.11,0,0,0-1.11,1.11v2.24a1.11,1.11,0,0,0,2.22,0v-2.24A1.11,1.11,0,0,0,13.54,100.05Zm5.56,0A1.11,1.11,0,0,0,18,101.16v2.24a1.11,1.11,0,1,0,2.22,0v-2.24A1.11,1.11,0,0,0,19.1,100.05Zm5.56,0a1.11,1.11,0,0,0-1.11,1.11v2.24a1.11,1.11,0,0,0,2.22,0v-2.24A1.11,1.11,0,0,0,24.66,100.05Zm5.56,0a1.12,1.12,0,0,0-1.12,1.11v2.24a1.12,1.12,0,0,0,2.23,0v-2.24A1.11,1.11,0,0,0,30.22,100.05Zm5.55,0a1.11,1.11,0,0,0-1.11,1.11v2.24a1.12,1.12,0,0,0,2.23,0v-2.24A1.12,1.12,0,0,0,35.77,100.05Zm5.56,0a1.11,1.11,0,0,0-1.11,1.11v2.24a1.11,1.11,0,1,0,2.22,0v-2.24A1.11,1.11,0,0,0,41.33,100.05Zm5.56,0a1.11,1.11,0,0,0-1.11,1.11v2.24a1.11,1.11,0,1,0,2.22,0v-2.24A1.11,1.11,0,0,0,46.89,100.05Zm5.56,0a1.11,1.11,0,0,0-1.11,1.11v2.24a1.11,1.11,0,1,0,2.22,0v-2.24A1.11,1.11,0,0,0,52.45,100.05Zm5.55,0a1.11,1.11,0,0,0-1.11,1.11v2.24a1.12,1.12,0,0,0,2.23,0v-2.24A1.12,1.12,0,0,0,58,100.05Zm5.43,0a1.11,1.11,0,0,0-1.11,1.11v2.24a1.11,1.11,0,1,0,2.22,0v-2.24A1.11,1.11,0,0,0,63.43,100.05Zm5.56,0a1.11,1.11,0,0,0-1.11,1.11v2.24a1.11,1.11,0,1,0,2.22,0v-2.24A1.11,1.11,0,0,0,69,100.05Zm5.55,0a1.11,1.11,0,0,0-1.11,1.11v2.24a1.12,1.12,0,0,0,2.23,0v-2.24A1.12,1.12,0,0,0,74.54,100.05Zm5.87,0a1.11,1.11,0,0,0-1.11,1.11v2.24a1.11,1.11,0,0,0,2.22,0v-2.24A1.11,1.11,0,0,0,80.41,100.05ZM59.54,28.9H40.26a1.47,1.47,0,0,1-1.47-1.48h0a1.48,1.48,0,0,1,1.47-1.48H59.54A1.49,1.49,0,0,1,61,27.42h0A1.48,1.48,0,0,1,59.54,28.9Z"/></g></g></svg>